G04 #@! TF.GenerationSoftware,KiCad,Pcbnew,8.0.2*
G04 #@! TF.CreationDate,2024-09-05T18:17:44-04:00*
G04 #@! TF.ProjectId,5v-regulator-v1,35762d72-6567-4756-9c61-746f722d7631,rev?*
G04 #@! TF.SameCoordinates,Original*
G04 #@! TF.FileFunction,Copper,L2,Bot*
G04 #@! TF.FilePolarity,Positive*
%FSLAX46Y46*%
G04 Gerber Fmt 4.6, Leading zero omitted, Abs format (unit mm)*
G04 Created by KiCad (PCBNEW 8.0.2) date 2024-09-05 18:17:44*
%MOMM*%
%LPD*%
G01*
G04 APERTURE LIST*
G04 Aperture macros list*
%AMRotRect*
0 Rectangle, with rotation*
0 The origin of the aperture is its center*
0 $1 length*
0 $2 width*
0 $3 Rotation angle, in degrees counterclockwise*
0 Add horizontal line*
21,1,$1,$2,0,0,$3*%
G04 Aperture macros list end*
G04 #@! TA.AperFunction,ComponentPad*
%ADD10RotRect,1.600000X1.600000X105.000000*%
G04 #@! TD*
G04 #@! TA.AperFunction,ComponentPad*
%ADD11C,1.600000*%
G04 #@! TD*
G04 #@! TA.AperFunction,ComponentPad*
%ADD12C,2.150000*%
G04 #@! TD*
G04 #@! TA.AperFunction,ComponentPad*
%ADD13RotRect,1.600000X1.600000X225.000000*%
G04 #@! TD*
G04 #@! TA.AperFunction,ComponentPad*
%ADD14R,2.000000X2.000000*%
G04 #@! TD*
G04 #@! TA.AperFunction,ComponentPad*
%ADD15C,2.000000*%
G04 #@! TD*
G04 #@! TA.AperFunction,ComponentPad*
%ADD16R,1.700000X1.700000*%
G04 #@! TD*
G04 #@! TA.AperFunction,ComponentPad*
%ADD17O,1.700000X1.700000*%
G04 #@! TD*
G04 #@! TA.AperFunction,ComponentPad*
%ADD18RotRect,1.600000X1.600000X255.000000*%
G04 #@! TD*
G04 #@! TA.AperFunction,ComponentPad*
%ADD19RotRect,1.600000X1.600000X135.000000*%
G04 #@! TD*
G04 #@! TA.AperFunction,ViaPad*
%ADD20C,0.600000*%
G04 #@! TD*
G04 #@! TA.AperFunction,Conductor*
%ADD21C,0.400000*%
G04 #@! TD*
G04 #@! TA.AperFunction,Conductor*
%ADD22C,0.200000*%
G04 #@! TD*
G04 APERTURE END LIST*
D10*
X187111364Y-78010343D03*
D11*
X186593726Y-76078491D03*
X186076088Y-74146640D03*
X185558449Y-72214787D03*
D12*
X184672983Y-79419458D03*
X189927619Y-78011480D03*
X182861251Y-72657977D03*
X188115888Y-71250000D03*
D13*
X199371101Y-60744787D03*
D11*
X197956887Y-62159001D03*
X196542674Y-63573214D03*
X195128460Y-64987429D03*
D12*
X201810620Y-62151929D03*
X197963959Y-58305270D03*
X196860873Y-67101676D03*
X193014210Y-63255016D03*
D14*
X207615887Y-65460000D03*
D15*
X207615887Y-68000000D03*
X207615887Y-70540000D03*
X207615887Y-73080000D03*
D14*
X121000000Y-70290000D03*
D15*
X121000000Y-67750000D03*
D16*
X165080000Y-88750000D03*
D17*
X162539996Y-88749998D03*
X160000000Y-88750000D03*
X157460000Y-88750000D03*
D18*
X187111364Y-60633422D03*
D11*
X186593726Y-62565274D03*
X186076088Y-64497125D03*
X185558450Y-66428978D03*
D12*
X189927621Y-60632283D03*
X184672984Y-59224311D03*
X188115887Y-67393764D03*
X182861249Y-65985789D03*
D19*
X199391233Y-77755214D03*
D11*
X197977019Y-76341000D03*
X196562806Y-74926787D03*
X195148591Y-73512573D03*
D12*
X197984091Y-80194733D03*
X201830750Y-76348072D03*
X193034344Y-75244986D03*
X196881004Y-71398323D03*
D20*
X151000000Y-75500000D03*
X161500000Y-65000000D03*
X141500000Y-63500000D03*
X163500000Y-60500000D03*
X143643510Y-70000000D03*
X146100000Y-55500000D03*
X159500000Y-73500000D03*
X135500000Y-75000000D03*
X124500000Y-74500000D03*
X174250000Y-85000000D03*
X121500000Y-73500000D03*
X145000000Y-65500000D03*
X154500000Y-75500000D03*
X134500000Y-75000000D03*
X136500000Y-75000000D03*
X123500000Y-74500000D03*
X133500000Y-72000000D03*
X119500000Y-72500000D03*
X167750000Y-54000000D03*
X137500000Y-72000000D03*
X170500000Y-75500000D03*
X134500000Y-72000000D03*
X174500000Y-72500000D03*
X164500000Y-74500000D03*
X152500000Y-75500000D03*
X165500000Y-74500000D03*
X165500000Y-73500000D03*
X167500000Y-75500000D03*
X158500000Y-75500000D03*
X136500000Y-73000000D03*
X123500000Y-73500000D03*
X139500000Y-74000000D03*
X161500000Y-75500000D03*
X132500000Y-72000000D03*
X131500000Y-73000000D03*
X162500000Y-75500000D03*
X119500000Y-73500000D03*
X171500000Y-73500000D03*
X172500000Y-73500000D03*
X131500000Y-72000000D03*
X121500000Y-74500000D03*
X138500000Y-74000000D03*
X138500000Y-75000000D03*
X197250000Y-49500000D03*
X154500000Y-73500000D03*
X163500000Y-74500000D03*
X169500000Y-73500000D03*
X137500000Y-75000000D03*
X141500000Y-75000000D03*
X137500000Y-74000000D03*
X134500000Y-73000000D03*
X176750000Y-87750000D03*
X162500000Y-72500000D03*
X160500000Y-74500000D03*
X145500000Y-54000000D03*
X161500000Y-74500000D03*
X141500000Y-74000000D03*
X163500000Y-72500000D03*
X176250000Y-56250000D03*
X159500000Y-75500000D03*
X135500000Y-73000000D03*
X156500000Y-75500000D03*
X174500000Y-74500000D03*
X131500000Y-71000000D03*
X171500000Y-72500000D03*
X153500000Y-75500000D03*
X166500000Y-75500000D03*
X170500000Y-74500000D03*
X160500000Y-75500000D03*
X132500000Y-73000000D03*
X168500000Y-72500000D03*
X163500000Y-75500000D03*
X156500000Y-73500000D03*
X164500000Y-72500000D03*
X156500000Y-74500000D03*
X169500000Y-74500000D03*
X119500000Y-74500000D03*
X162500000Y-74500000D03*
X173500000Y-72500000D03*
X120500000Y-73500000D03*
X139500000Y-72000000D03*
X166500000Y-73500000D03*
X168500000Y-75500000D03*
X165500000Y-75500000D03*
X161500000Y-73500000D03*
X160500000Y-72500000D03*
X172500000Y-74500000D03*
X136500000Y-72000000D03*
X154500000Y-74500000D03*
X120500000Y-72500000D03*
X173500000Y-74500000D03*
X138500000Y-72000000D03*
X157500000Y-74500000D03*
X168500000Y-74500000D03*
X137500000Y-73000000D03*
X167500000Y-74500000D03*
X173500000Y-75500000D03*
X153500000Y-74500000D03*
X164500000Y-75500000D03*
X169500000Y-72500000D03*
X133500000Y-73000000D03*
X120500000Y-74500000D03*
X174500000Y-75500000D03*
X157500000Y-75500000D03*
X138500000Y-73000000D03*
X137000000Y-61000000D03*
X160500000Y-73500000D03*
X121500000Y-72500000D03*
X131500000Y-70000000D03*
X165500000Y-72500000D03*
X157500000Y-73500000D03*
X158500000Y-73500000D03*
X158500000Y-74500000D03*
X140500000Y-72000000D03*
X133000000Y-61000000D03*
X159500000Y-74500000D03*
X171500000Y-75500000D03*
X134500000Y-74000000D03*
X170500000Y-72500000D03*
X169500000Y-75500000D03*
X157500000Y-61000000D03*
X170750000Y-91000000D03*
X171500000Y-74500000D03*
X174500000Y-73500000D03*
X195250000Y-86000000D03*
X166500000Y-74500000D03*
X155500000Y-74500000D03*
X172500000Y-61000000D03*
X139500000Y-73000000D03*
X166500000Y-72500000D03*
X173500000Y-73500000D03*
X141500000Y-72000000D03*
X155500000Y-73500000D03*
X122500000Y-73500000D03*
X141500000Y-73000000D03*
X167500000Y-72500000D03*
X137000000Y-56500000D03*
X135500000Y-74000000D03*
X164500000Y-73500000D03*
X136500000Y-74000000D03*
X168500000Y-73500000D03*
X122500000Y-74500000D03*
X162500000Y-73500000D03*
X140500000Y-75000000D03*
X179500000Y-51000000D03*
X167000000Y-61000000D03*
X170500000Y-73500000D03*
X139500000Y-75000000D03*
X163500000Y-73500000D03*
X155500000Y-75500000D03*
X122500000Y-72500000D03*
X140500000Y-73000000D03*
X172500000Y-72500000D03*
X161500000Y-72500000D03*
X140500000Y-74000000D03*
X172500000Y-75500000D03*
X135500000Y-72000000D03*
X167500000Y-73500000D03*
X143325735Y-65674265D03*
X142500000Y-59500000D03*
D21*
X151000000Y-75500000D02*
X161500000Y-65000000D01*
D22*
X186076088Y-63332912D02*
X186593726Y-62815274D01*
X186076088Y-64747125D02*
X186076088Y-63332912D01*
X196542674Y-63573214D02*
X197956887Y-62159001D01*
X196562806Y-74926787D02*
X197977019Y-76341000D01*
X141500000Y-63500000D02*
X142000000Y-64000000D01*
X163500000Y-60500000D02*
X154000000Y-70000000D01*
X143643510Y-66840569D02*
X143643510Y-70000000D01*
X141500000Y-63500000D02*
X141500000Y-59651471D01*
X142000000Y-65197059D02*
X143643510Y-66840569D01*
X141500000Y-59651471D02*
X145651471Y-55500000D01*
X154000000Y-70000000D02*
X143643510Y-70000000D01*
X145651471Y-55500000D02*
X146100000Y-55500000D01*
X142000000Y-64000000D02*
X142000000Y-65197059D01*
X186076088Y-75810853D02*
X186593726Y-76328491D01*
X186076088Y-74396640D02*
X186076088Y-75810853D01*
X142500000Y-64848530D02*
X143325735Y-65674265D01*
X142500000Y-59500000D02*
X142500000Y-64848530D01*
G04 #@! TA.AperFunction,Conductor*
G36*
X192741274Y-46000498D02*
G01*
X192743175Y-46000538D01*
X193671907Y-46038360D01*
X193673808Y-46038474D01*
X194603009Y-46113386D01*
X194604868Y-46113573D01*
X195530352Y-46225342D01*
X195532213Y-46225605D01*
X196452530Y-46374059D01*
X196454377Y-46374395D01*
X197368036Y-46559291D01*
X197369868Y-46559700D01*
X198275474Y-46780756D01*
X198277300Y-46781240D01*
X199173406Y-47038102D01*
X199175230Y-47038665D01*
X200060388Y-47330918D01*
X200062202Y-47331557D01*
X200935017Y-47658736D01*
X200936828Y-47659455D01*
X201796009Y-48021078D01*
X201797741Y-48021848D01*
X202641862Y-48417315D01*
X202643574Y-48418160D01*
X203028672Y-48617605D01*
X203471311Y-48846852D01*
X203473022Y-48847782D01*
X204283050Y-49309010D01*
X204284722Y-49310007D01*
X205075759Y-49803040D01*
X205077391Y-49804102D01*
X205848286Y-50328224D01*
X205849820Y-50329313D01*
X206200619Y-50588780D01*
X206599243Y-50883621D01*
X206600786Y-50884810D01*
X207327598Y-51468461D01*
X207329087Y-51469707D01*
X207556459Y-51667655D01*
X208032125Y-52081765D01*
X208033568Y-52083073D01*
X208711722Y-52722574D01*
X208713103Y-52723928D01*
X209365342Y-53389897D01*
X209366640Y-53391276D01*
X209731256Y-53794434D01*
X209991909Y-54082639D01*
X209993186Y-54084109D01*
X210590464Y-54799738D01*
X210591682Y-54801258D01*
X211160063Y-55540062D01*
X211161219Y-55541629D01*
X211699771Y-56302396D01*
X211700865Y-56304007D01*
X212208795Y-57085620D01*
X212209823Y-57087273D01*
X212686289Y-57888436D01*
X212687251Y-57890130D01*
X213131500Y-58709575D01*
X213132394Y-58711305D01*
X213244545Y-58939361D01*
X213520250Y-59500000D01*
X213543745Y-59547775D01*
X213544562Y-59549525D01*
X213717688Y-59940032D01*
X213922346Y-60401663D01*
X213923100Y-60403458D01*
X214266732Y-61269945D01*
X214267414Y-61271769D01*
X214576354Y-62151243D01*
X214576962Y-62153093D01*
X214850699Y-63044095D01*
X214851234Y-63045967D01*
X215089362Y-63947175D01*
X215089822Y-63949067D01*
X215291957Y-64859032D01*
X215292341Y-64860941D01*
X215458152Y-65778178D01*
X215458461Y-65780101D01*
X215587708Y-66703263D01*
X215587939Y-66705197D01*
X215680397Y-67632705D01*
X215680552Y-67634646D01*
X215736089Y-68565140D01*
X215736166Y-68567085D01*
X215752900Y-69409107D01*
X215751394Y-69420514D01*
X215751466Y-69420525D01*
X215750980Y-69423702D01*
X215749620Y-69489030D01*
X215749590Y-69490004D01*
X215711640Y-70421885D01*
X215711523Y-70423829D01*
X215636617Y-71352970D01*
X215636422Y-71354907D01*
X215524661Y-72280318D01*
X215524389Y-72282246D01*
X215375946Y-73202496D01*
X215375597Y-73204412D01*
X215190715Y-74118001D01*
X215190291Y-74119902D01*
X214969250Y-75025445D01*
X214968751Y-75027327D01*
X214711902Y-75923387D01*
X214711328Y-75925248D01*
X214419085Y-76810377D01*
X214418438Y-76812213D01*
X214091263Y-77685017D01*
X214090544Y-77686827D01*
X213728931Y-78545986D01*
X213728140Y-78547765D01*
X213332692Y-79391844D01*
X213331831Y-79393591D01*
X212903147Y-80221311D01*
X212902217Y-80223022D01*
X212440989Y-81033050D01*
X212439992Y-81034722D01*
X211946959Y-81825759D01*
X211945897Y-81827391D01*
X211421794Y-82598259D01*
X211420667Y-82599847D01*
X210866378Y-83349243D01*
X210865189Y-83350786D01*
X210281538Y-84077598D01*
X210280289Y-84079091D01*
X209668234Y-84782125D01*
X209666926Y-84783568D01*
X209027425Y-85461722D01*
X209026062Y-85463112D01*
X208360135Y-86115311D01*
X208358717Y-86116646D01*
X207667360Y-86741909D01*
X207665890Y-86743186D01*
X206950261Y-87340464D01*
X206948741Y-87341682D01*
X206209937Y-87910063D01*
X206208370Y-87911219D01*
X205447603Y-88449771D01*
X205445992Y-88450865D01*
X204664379Y-88958795D01*
X204662726Y-88959823D01*
X203861563Y-89436289D01*
X203859869Y-89437251D01*
X203040424Y-89881500D01*
X203038694Y-89882394D01*
X202202224Y-90293745D01*
X202200460Y-90294569D01*
X201348336Y-90672346D01*
X201346541Y-90673100D01*
X200480054Y-91016732D01*
X200478230Y-91017414D01*
X199598756Y-91326354D01*
X199596906Y-91326962D01*
X198705904Y-91600699D01*
X198704032Y-91601234D01*
X197802824Y-91839362D01*
X197800932Y-91839822D01*
X196890967Y-92041957D01*
X196889058Y-92042341D01*
X195971821Y-92208152D01*
X195969898Y-92208461D01*
X195046736Y-92337708D01*
X195044802Y-92337939D01*
X194117294Y-92430397D01*
X194115353Y-92430552D01*
X193184859Y-92486089D01*
X193182914Y-92486166D01*
X192250504Y-92504697D01*
X192249530Y-92504707D01*
X192246403Y-92504707D01*
X140513974Y-92499499D01*
X140511985Y-92499458D01*
X139583321Y-92461639D01*
X139581378Y-92461522D01*
X138652237Y-92386617D01*
X138650299Y-92386422D01*
X137724887Y-92274661D01*
X137722959Y-92274389D01*
X136802709Y-92125946D01*
X136800793Y-92125597D01*
X135887204Y-91940715D01*
X135885303Y-91940291D01*
X134979758Y-91719251D01*
X134977883Y-91718753D01*
X134567038Y-91600988D01*
X134081818Y-91461903D01*
X134079957Y-91461329D01*
X133194827Y-91169086D01*
X133192991Y-91168439D01*
X132320187Y-90841264D01*
X132318377Y-90840545D01*
X131459218Y-90478932D01*
X131457439Y-90478141D01*
X130613360Y-90082693D01*
X130611613Y-90081832D01*
X129783893Y-89653148D01*
X129782182Y-89652218D01*
X128972153Y-89190990D01*
X128970481Y-89189993D01*
X128264543Y-88750000D01*
X156354785Y-88750000D01*
X156373602Y-88953079D01*
X156373603Y-88953085D01*
X156429417Y-89149248D01*
X156429420Y-89149255D01*
X156520325Y-89331818D01*
X156520328Y-89331822D01*
X156643233Y-89494576D01*
X156643236Y-89494579D01*
X156793954Y-89631977D01*
X156793955Y-89631978D01*
X156793959Y-89631981D01*
X156967363Y-89739348D01*
X157157544Y-89813024D01*
X157358024Y-89850500D01*
X157358026Y-89850500D01*
X157561974Y-89850500D01*
X157561976Y-89850500D01*
X157762456Y-89813024D01*
X157952637Y-89739348D01*
X158126041Y-89631981D01*
X158276764Y-89494579D01*
X158399673Y-89331821D01*
X158490582Y-89149250D01*
X158546397Y-88953083D01*
X158565215Y-88750000D01*
X158894785Y-88750000D01*
X158913602Y-88953079D01*
X158913603Y-88953085D01*
X158969417Y-89149248D01*
X158969420Y-89149255D01*
X159060325Y-89331818D01*
X159060328Y-89331822D01*
X159183233Y-89494576D01*
X159183236Y-89494579D01*
X159333954Y-89631977D01*
X159333955Y-89631978D01*
X159333959Y-89631981D01*
X159507363Y-89739348D01*
X159697544Y-89813024D01*
X159898024Y-89850500D01*
X159898026Y-89850500D01*
X160101974Y-89850500D01*
X160101976Y-89850500D01*
X160302456Y-89813024D01*
X160492637Y-89739348D01*
X160666041Y-89631981D01*
X160816764Y-89494579D01*
X160939673Y-89331821D01*
X161030582Y-89149250D01*
X161086397Y-88953083D01*
X161105215Y-88750000D01*
X161086397Y-88546917D01*
X161030582Y-88350750D01*
X160939673Y-88168179D01*
X160816764Y-88005421D01*
X160816763Y-88005420D01*
X160674053Y-87875322D01*
X163979500Y-87875322D01*
X163979500Y-89624677D01*
X163994033Y-89697739D01*
X164049398Y-89780601D01*
X164097924Y-89813024D01*
X164132260Y-89835966D01*
X164205326Y-89850500D01*
X165954674Y-89850500D01*
X166027740Y-89835966D01*
X166110601Y-89780601D01*
X166165966Y-89697740D01*
X166180500Y-89624674D01*
X166180500Y-87875326D01*
X166165966Y-87802260D01*
X166138164Y-87760650D01*
X166110601Y-87719398D01*
X166027739Y-87664033D01*
X165954677Y-87649500D01*
X165954674Y-87649500D01*
X164205326Y-87649500D01*
X164205322Y-87649500D01*
X164132260Y-87664033D01*
X164049398Y-87719398D01*
X163994033Y-87802260D01*
X163979500Y-87875322D01*
X160674053Y-87875322D01*
X160666045Y-87868022D01*
X160666042Y-87868020D01*
X160666041Y-87868019D01*
X160492637Y-87760652D01*
X160492634Y-87760651D01*
X160492633Y-87760650D01*
X160302462Y-87686978D01*
X160302460Y-87686977D01*
X160302456Y-87686976D01*
X160101976Y-87649500D01*
X159898024Y-87649500D01*
X159697544Y-87686976D01*
X159697540Y-87686977D01*
X159697537Y-87686978D01*
X159507366Y-87760650D01*
X159333954Y-87868022D01*
X159183236Y-88005420D01*
X159183233Y-88005423D01*
X159060328Y-88168177D01*
X159060325Y-88168181D01*
X158969420Y-88350744D01*
X158969417Y-88350751D01*
X158913603Y-88546914D01*
X158913602Y-88546920D01*
X158894785Y-88750000D01*
X158565215Y-88750000D01*
X158546397Y-88546917D01*
X158490582Y-88350750D01*
X158399673Y-88168179D01*
X158276764Y-88005421D01*
X158276763Y-88005420D01*
X158126045Y-87868022D01*
X158126042Y-87868020D01*
X158126041Y-87868019D01*
X157952637Y-87760652D01*
X157952634Y-87760651D01*
X157952633Y-87760650D01*
X157762462Y-87686978D01*
X157762460Y-87686977D01*
X157762456Y-87686976D01*
X157561976Y-87649500D01*
X157358024Y-87649500D01*
X157157544Y-87686976D01*
X157157540Y-87686977D01*
X157157537Y-87686978D01*
X156967366Y-87760650D01*
X156793954Y-87868022D01*
X156643236Y-88005420D01*
X156643233Y-88005423D01*
X156520328Y-88168177D01*
X156520325Y-88168181D01*
X156429420Y-88350744D01*
X156429417Y-88350751D01*
X156373603Y-88546914D01*
X156373602Y-88546920D01*
X156354785Y-88750000D01*
X128264543Y-88750000D01*
X128179444Y-88696960D01*
X128177812Y-88695898D01*
X127670156Y-88350750D01*
X127406926Y-88171783D01*
X127405373Y-88170680D01*
X126851013Y-87760650D01*
X126655959Y-87616379D01*
X126654416Y-87615190D01*
X125927604Y-87031539D01*
X125926111Y-87030290D01*
X125223077Y-86418235D01*
X125221634Y-86416927D01*
X124543479Y-85777426D01*
X124542089Y-85776063D01*
X123889858Y-85110102D01*
X123888555Y-85108718D01*
X123593844Y-84782854D01*
X123263284Y-84417351D01*
X123262016Y-84415892D01*
X123204427Y-84346892D01*
X122664737Y-83700262D01*
X122663519Y-83698742D01*
X122568660Y-83575440D01*
X122095125Y-82959920D01*
X122093991Y-82958383D01*
X121555422Y-82197591D01*
X121554328Y-82195980D01*
X121046406Y-81414380D01*
X121045378Y-81412727D01*
X120568911Y-80611563D01*
X120567949Y-80609869D01*
X120358226Y-80223022D01*
X120123696Y-79790419D01*
X120122806Y-79788695D01*
X119711438Y-78952189D01*
X119710648Y-78950498D01*
X119332845Y-78098316D01*
X119332100Y-78096541D01*
X119308013Y-78035805D01*
X119022930Y-77316951D01*
X118988468Y-77230054D01*
X118987786Y-77228230D01*
X118678846Y-76348756D01*
X118678238Y-76346906D01*
X118443394Y-75582500D01*
X118418048Y-75500000D01*
X150444750Y-75500000D01*
X150463669Y-75643708D01*
X150519136Y-75777620D01*
X150519139Y-75777625D01*
X150591982Y-75872556D01*
X150607379Y-75892621D01*
X150722375Y-75980861D01*
X150722377Y-75980861D01*
X150722379Y-75980863D01*
X150856291Y-76036330D01*
X151000000Y-76055250D01*
X151143709Y-76036330D01*
X151277625Y-75980861D01*
X151392621Y-75892621D01*
X151480861Y-75777625D01*
X151536330Y-75643709D01*
X151540668Y-75610752D01*
X151554600Y-75582501D01*
X152990461Y-74146640D01*
X185020505Y-74146640D01*
X185040788Y-74352574D01*
X185100856Y-74550594D01*
X185198403Y-74733090D01*
X185329678Y-74893050D01*
X185489638Y-75024325D01*
X185637312Y-75103259D01*
X185672136Y-75121873D01*
X185679404Y-75124077D01*
X185690810Y-75127536D01*
X185719801Y-75151326D01*
X185725588Y-75174427D01*
X185725588Y-75462889D01*
X185717328Y-75490115D01*
X185716040Y-75492042D01*
X185618495Y-75674534D01*
X185558426Y-75872555D01*
X185558426Y-75872556D01*
X185542296Y-76036330D01*
X185538143Y-76078491D01*
X185558426Y-76284425D01*
X185618494Y-76482445D01*
X185716041Y-76664941D01*
X185847316Y-76824901D01*
X186007276Y-76956176D01*
X186189770Y-77053722D01*
X186189771Y-77053722D01*
X186189772Y-77053723D01*
X186228622Y-77065507D01*
X186257612Y-77089298D01*
X186261288Y-77126620D01*
X186237497Y-77155611D01*
X186227080Y-77159727D01*
X186042904Y-77209078D01*
X186042903Y-77209078D01*
X185976084Y-77242029D01*
X185910378Y-77316951D01*
X185878345Y-77411320D01*
X185878344Y-77411322D01*
X185883217Y-77485655D01*
X185883217Y-77485656D01*
X186167808Y-78547765D01*
X186310100Y-79078806D01*
X186311262Y-79081162D01*
X186343050Y-79145622D01*
X186417972Y-79211328D01*
X186417973Y-79211328D01*
X186417974Y-79211329D01*
X186512341Y-79243362D01*
X186512342Y-79243361D01*
X186512343Y-79243362D01*
X186542076Y-79241412D01*
X186586679Y-79238489D01*
X188179827Y-78811607D01*
X188246642Y-78778657D01*
X188312350Y-78703733D01*
X188344383Y-78609366D01*
X188339510Y-78535028D01*
X187912628Y-76941880D01*
X187879678Y-76875065D01*
X187879677Y-76875064D01*
X187879677Y-76875063D01*
X187804755Y-76809357D01*
X187757570Y-76793340D01*
X187710387Y-76777324D01*
X187710386Y-76777324D01*
X187710384Y-76777323D01*
X187636051Y-76782196D01*
X187636050Y-76782196D01*
X187448952Y-76832328D01*
X187411770Y-76827433D01*
X187388940Y-76797680D01*
X187393835Y-76760498D01*
X187398383Y-76753926D01*
X187471411Y-76664941D01*
X187568958Y-76482445D01*
X187629026Y-76284425D01*
X187649309Y-76078491D01*
X187629026Y-75872557D01*
X187568958Y-75674537D01*
X187471411Y-75492041D01*
X187340136Y-75332081D01*
X187180176Y-75200806D01*
X186997680Y-75103259D01*
X186869307Y-75064318D01*
X186799664Y-75043192D01*
X186799655Y-75043190D01*
X186774432Y-75040706D01*
X186741357Y-75023027D01*
X186730471Y-74987139D01*
X186748148Y-74954066D01*
X186781390Y-74926786D01*
X195507223Y-74926786D01*
X195507223Y-74926787D01*
X195527506Y-75132721D01*
X195527506Y-75132722D01*
X195540157Y-75174427D01*
X195587574Y-75330741D01*
X195685121Y-75513237D01*
X195816396Y-75673197D01*
X195976356Y-75804472D01*
X196158852Y-75902019D01*
X196356872Y-75962087D01*
X196562806Y-75982370D01*
X196768740Y-75962087D01*
X196929316Y-75913377D01*
X196966636Y-75917053D01*
X196990428Y-75946043D01*
X196990428Y-75974491D01*
X196941719Y-76135064D01*
X196941719Y-76135065D01*
X196921436Y-76340999D01*
X196921436Y-76341000D01*
X196941719Y-76546934D01*
X196941719Y-76546935D01*
X197001788Y-76744956D01*
X197014386Y-76768524D01*
X197099334Y-76927450D01*
X197230609Y-77087410D01*
X197390569Y-77218685D01*
X197573065Y-77316232D01*
X197771085Y-77376300D01*
X197956735Y-77394585D01*
X197977018Y-77396583D01*
X197977018Y-77396582D01*
X197977019Y-77396583D01*
X198159325Y-77378627D01*
X198195213Y-77389513D01*
X198212892Y-77422588D01*
X198202006Y-77458476D01*
X198198776Y-77462039D01*
X198065285Y-77595530D01*
X198023894Y-77657475D01*
X198004454Y-77755211D01*
X198004454Y-77755216D01*
X198023894Y-77852952D01*
X198023895Y-77852954D01*
X198023896Y-77852955D01*
X198065285Y-77914897D01*
X199231550Y-79081162D01*
X199293492Y-79122551D01*
X199293494Y-79122552D01*
X199391230Y-79141993D01*
X199391233Y-79141993D01*
X199391236Y-79141993D01*
X199488971Y-79122552D01*
X199488971Y-79122551D01*
X199488974Y-79122551D01*
X199550916Y-79081162D01*
X200717181Y-77914897D01*
X200758570Y-77852955D01*
X200778012Y-77755214D01*
X200778012Y-77755211D01*
X200758571Y-77657475D01*
X200717180Y-77595530D01*
X199550916Y-76429266D01*
X199488971Y-76387875D01*
X199391236Y-76368435D01*
X199391230Y-76368435D01*
X199293494Y-76387875D01*
X199231549Y-76429266D01*
X199098058Y-76562757D01*
X199063410Y-76577109D01*
X199028762Y-76562757D01*
X199014410Y-76528109D01*
X199014646Y-76523306D01*
X199018671Y-76482447D01*
X199032602Y-76341000D01*
X199012319Y-76135066D01*
X198952251Y-75937046D01*
X198854704Y-75754550D01*
X198723429Y-75594590D01*
X198563469Y-75463315D01*
X198380973Y-75365768D01*
X198182953Y-75305700D01*
X197977019Y-75285417D01*
X197771084Y-75305700D01*
X197771083Y-75305700D01*
X197610510Y-75354409D01*
X197573187Y-75350733D01*
X197549396Y-75321743D01*
X197549396Y-75293298D01*
X197598106Y-75132721D01*
X197618389Y-74926787D01*
X197598106Y-74720853D01*
X197538038Y-74522833D01*
X197440491Y-74340337D01*
X197309216Y-74180377D01*
X197149256Y-74049102D01*
X196966760Y-73951555D01*
X196768740Y-73891487D01*
X196562806Y-73871204D01*
X196356871Y-73891487D01*
X196356870Y-73891487D01*
X196158849Y-73951556D01*
X195976354Y-74049103D01*
X195816396Y-74180377D01*
X195685122Y-74340335D01*
X195587575Y-74522830D01*
X195527506Y-74720851D01*
X195527506Y-74720852D01*
X195507223Y-74926786D01*
X186781390Y-74926786D01*
X186822498Y-74893050D01*
X186953773Y-74733090D01*
X187051320Y-74550594D01*
X187111388Y-74352574D01*
X187131671Y-74146640D01*
X187111388Y-73940706D01*
X187051320Y-73742686D01*
X186953773Y-73560190D01*
X186822498Y-73400230D01*
X186662538Y-73268955D01*
X186480042Y-73171408D01*
X186282022Y-73111340D01*
X186076088Y-73091057D01*
X185870153Y-73111340D01*
X185870152Y-73111340D01*
X185672131Y-73171409D01*
X185489636Y-73268956D01*
X185329678Y-73400230D01*
X185198404Y-73560188D01*
X185100857Y-73742683D01*
X185040788Y-73940704D01*
X185040788Y-73940705D01*
X185040788Y-73940706D01*
X185020505Y-74146640D01*
X152990461Y-74146640D01*
X156597101Y-70540000D01*
X206360610Y-70540000D01*
X206379680Y-70757979D01*
X206379681Y-70757985D01*
X206436309Y-70969322D01*
X206436311Y-70969327D01*
X206528783Y-71167637D01*
X206528790Y-71167649D01*
X206654284Y-71346871D01*
X206654290Y-71346878D01*
X206809008Y-71501596D01*
X206809015Y-71501602D01*
X206988237Y-71627096D01*
X206988249Y-71627103D01*
X207060427Y-71660760D01*
X207186557Y-71719575D01*
X207186563Y-71719576D01*
X207186564Y-71719577D01*
X207397901Y-71776205D01*
X207397905Y-71776205D01*
X207397910Y-71776207D01*
X207615887Y-71795277D01*
X207833864Y-71776207D01*
X207833870Y-71776205D01*
X207833872Y-71776205D01*
X207939540Y-71747891D01*
X208045217Y-71719575D01*
X208243526Y-71627102D01*
X208243527Y-71627101D01*
X208243536Y-71627096D01*
X208422758Y-71501602D01*
X208422764Y-71501598D01*
X208577485Y-71346877D01*
X208598477Y-71316897D01*
X208702983Y-71167649D01*
X208702990Y-71167637D01*
X208707239Y-71158523D01*
X208795462Y-70969330D01*
X208852094Y-70757977D01*
X208871164Y-70540000D01*
X208852094Y-70322023D01*
X208840196Y-70277620D01*
X208795464Y-70110677D01*
X208795463Y-70110672D01*
X208702990Y-69912363D01*
X208702983Y-69912351D01*
X208577489Y-69733128D01*
X208577483Y-69733121D01*
X208422765Y-69578403D01*
X208422758Y-69578397D01*
X208243536Y-69452903D01*
X208243524Y-69452896D01*
X208099166Y-69385581D01*
X208045217Y-69360425D01*
X208045214Y-69360424D01*
X208045209Y-69360422D01*
X207833872Y-69303794D01*
X207833866Y-69303793D01*
X207615887Y-69284723D01*
X207397907Y-69303793D01*
X207397901Y-69303794D01*
X207186564Y-69360422D01*
X207186559Y-69360423D01*
X206988250Y-69452896D01*
X206988238Y-69452903D01*
X206809015Y-69578397D01*
X206809008Y-69578403D01*
X206654290Y-69733121D01*
X206654284Y-69733128D01*
X206528790Y-69912351D01*
X206528783Y-69912363D01*
X206436310Y-70110672D01*
X206436309Y-70110677D01*
X206379681Y-70322014D01*
X206379680Y-70322020D01*
X206360610Y-70540000D01*
X156597101Y-70540000D01*
X161582501Y-65554600D01*
X161610752Y-65540668D01*
X161643709Y-65536330D01*
X161777625Y-65480861D01*
X161892621Y-65392621D01*
X161980861Y-65277625D01*
X162036330Y-65143709D01*
X162055250Y-65000000D01*
X162036330Y-64856291D01*
X161980861Y-64722375D01*
X161892621Y-64607379D01*
X161815818Y-64548446D01*
X161777625Y-64519139D01*
X161777620Y-64519136D01*
X161724477Y-64497124D01*
X185020505Y-64497124D01*
X185020505Y-64497125D01*
X185040788Y-64703059D01*
X185040788Y-64703060D01*
X185066943Y-64789283D01*
X185100856Y-64901079D01*
X185198403Y-65083575D01*
X185329678Y-65243535D01*
X185489638Y-65374810D01*
X185672134Y-65472357D01*
X185870154Y-65532425D01*
X186076088Y-65552708D01*
X186282022Y-65532425D01*
X186480042Y-65472357D01*
X186662538Y-65374810D01*
X186822498Y-65243535D01*
X186953773Y-65083575D01*
X187051320Y-64901079D01*
X187111388Y-64703059D01*
X187131671Y-64497125D01*
X187111388Y-64291191D01*
X187051320Y-64093171D01*
X186953773Y-63910675D01*
X186822498Y-63750715D01*
X186748149Y-63689699D01*
X186730471Y-63656625D01*
X186741357Y-63620737D01*
X186774430Y-63603058D01*
X186799660Y-63600574D01*
X186889855Y-63573214D01*
X195487091Y-63573214D01*
X195507374Y-63779148D01*
X195567442Y-63977168D01*
X195664989Y-64159664D01*
X195796264Y-64319624D01*
X195956224Y-64450899D01*
X196138720Y-64548446D01*
X196336740Y-64608514D01*
X196542674Y-64628797D01*
X196748608Y-64608514D01*
X196946628Y-64548446D01*
X197129124Y-64450899D01*
X197148105Y-64435322D01*
X206365387Y-64435322D01*
X206365387Y-66484677D01*
X206379920Y-66557739D01*
X206435285Y-66640601D01*
X206518147Y-66695966D01*
X206591213Y-66710500D01*
X208640561Y-66710500D01*
X208713627Y-66695966D01*
X208796488Y-66640601D01*
X208851853Y-66557740D01*
X208866387Y-66484674D01*
X208866387Y-64435326D01*
X208851853Y-64362260D01*
X208823365Y-64319624D01*
X208796488Y-64279398D01*
X208713626Y-64224033D01*
X208640564Y-64209500D01*
X208640561Y-64209500D01*
X206591213Y-64209500D01*
X206591209Y-64209500D01*
X206518147Y-64224033D01*
X206435285Y-64279398D01*
X206379920Y-64362260D01*
X206365387Y-64435322D01*
X197148105Y-64435322D01*
X197289084Y-64319624D01*
X197420359Y-64159664D01*
X197517906Y-63977168D01*
X197577974Y-63779148D01*
X197598257Y-63573214D01*
X197577974Y-63367280D01*
X197529264Y-63206703D01*
X197532940Y-63169383D01*
X197561930Y-63145591D01*
X197590376Y-63145591D01*
X197750953Y-63194301D01*
X197956887Y-63214584D01*
X198162821Y-63194301D01*
X198360841Y-63134233D01*
X198543337Y-63036686D01*
X198703297Y-62905411D01*
X198834572Y-62745451D01*
X198932119Y-62562955D01*
X198992187Y-62364935D01*
X199012470Y-62159001D01*
X198994514Y-61976693D01*
X199005400Y-61940806D01*
X199038475Y-61923127D01*
X199074363Y-61934013D01*
X199077926Y-61937243D01*
X199211418Y-62070735D01*
X199273360Y-62112124D01*
X199273362Y-62112125D01*
X199371098Y-62131566D01*
X199371101Y-62131566D01*
X199371104Y-62131566D01*
X199468839Y-62112125D01*
X199468839Y-62112124D01*
X199468842Y-62112124D01*
X199530784Y-62070735D01*
X200697049Y-60904470D01*
X200738438Y-60842528D01*
X200743918Y-60814982D01*
X200757880Y-60744789D01*
X200757880Y-60744784D01*
X200738439Y-60647048D01*
X200736207Y-60643708D01*
X200697049Y-60585104D01*
X199530784Y-59418839D01*
X199468842Y-59377450D01*
X199468841Y-59377449D01*
X199468839Y-59377448D01*
X199371104Y-59358008D01*
X199371098Y-59358008D01*
X199273362Y-59377448D01*
X199211417Y-59418839D01*
X198045153Y-60585103D01*
X198003762Y-60647048D01*
X197984322Y-60744784D01*
X197984322Y-60744789D01*
X198003762Y-60842525D01*
X198045153Y-60904470D01*
X198178645Y-61037962D01*
X198192997Y-61072610D01*
X198178645Y-61107258D01*
X198143997Y-61121610D01*
X198139195Y-61121374D01*
X197956887Y-61103418D01*
X197750952Y-61123701D01*
X197750951Y-61123701D01*
X197552930Y-61183770D01*
X197370435Y-61281317D01*
X197210477Y-61412591D01*
X197079203Y-61572549D01*
X196981656Y-61755044D01*
X196921587Y-61953065D01*
X196921587Y-61953066D01*
X196901304Y-62159000D01*
X196901304Y-62159001D01*
X196921587Y-62364935D01*
X196921587Y-62364936D01*
X196970296Y-62525509D01*
X196966620Y-62562832D01*
X196937630Y-62586623D01*
X196909182Y-62586623D01*
X196748609Y-62537914D01*
X196542674Y-62517631D01*
X196336739Y-62537914D01*
X196336738Y-62537914D01*
X196138717Y-62597983D01*
X195956222Y-62695530D01*
X195796264Y-62826804D01*
X195664990Y-62986762D01*
X195567443Y-63169257D01*
X195507374Y-63367278D01*
X195507374Y-63367279D01*
X195493910Y-63503985D01*
X195487091Y-63573214D01*
X186889855Y-63573214D01*
X186997680Y-63540506D01*
X187180176Y-63442959D01*
X187340136Y-63311684D01*
X187471411Y-63151724D01*
X187568958Y-62969228D01*
X187629026Y-62771208D01*
X187649309Y-62565274D01*
X187649068Y-62562832D01*
X187645392Y-62525509D01*
X187629026Y-62359340D01*
X187568958Y-62161320D01*
X187471411Y-61978824D01*
X187398391Y-61889849D01*
X187387506Y-61853962D01*
X187405185Y-61820887D01*
X187441073Y-61810001D01*
X187448947Y-61811434D01*
X187636049Y-61861568D01*
X187665784Y-61863517D01*
X187710384Y-61866441D01*
X187710384Y-61866440D01*
X187710387Y-61866441D01*
X187804754Y-61834408D01*
X187879678Y-61768700D01*
X187912628Y-61701885D01*
X188339510Y-60108737D01*
X188344383Y-60034399D01*
X188312350Y-59940032D01*
X188312349Y-59940031D01*
X188312349Y-59940030D01*
X188246643Y-59865108D01*
X188224161Y-59854021D01*
X188179827Y-59832158D01*
X187186738Y-59566061D01*
X186586676Y-59405275D01*
X186512343Y-59400402D01*
X186512341Y-59400403D01*
X186417972Y-59432436D01*
X186343050Y-59498142D01*
X186310099Y-59564961D01*
X186310099Y-59564962D01*
X185883217Y-61158108D01*
X185883217Y-61158109D01*
X185878344Y-61232442D01*
X185878345Y-61232444D01*
X185910378Y-61326813D01*
X185976084Y-61401735D01*
X185976085Y-61401735D01*
X185976086Y-61401736D01*
X186042901Y-61434686D01*
X186227082Y-61484037D01*
X186256834Y-61506866D01*
X186261729Y-61544048D01*
X186238899Y-61573801D01*
X186228624Y-61578256D01*
X186189768Y-61590043D01*
X186007274Y-61687590D01*
X185847316Y-61818864D01*
X185716042Y-61978822D01*
X185618495Y-62161317D01*
X185558426Y-62359338D01*
X185558426Y-62359339D01*
X185538384Y-62562832D01*
X185538143Y-62565274D01*
X185558426Y-62771208D01*
X185618494Y-62969228D01*
X185716041Y-63151724D01*
X185730533Y-63169383D01*
X185734550Y-63174277D01*
X185745436Y-63210165D01*
X185744002Y-63218044D01*
X185725588Y-63286764D01*
X185725588Y-63469337D01*
X185711236Y-63503985D01*
X185690813Y-63516226D01*
X185687262Y-63517304D01*
X185672130Y-63521894D01*
X185489636Y-63619441D01*
X185329678Y-63750715D01*
X185198404Y-63910673D01*
X185100857Y-64093168D01*
X185040788Y-64291189D01*
X185040788Y-64291190D01*
X185020505Y-64497124D01*
X161724477Y-64497124D01*
X161643708Y-64463669D01*
X161500000Y-64444750D01*
X161356291Y-64463669D01*
X161222379Y-64519136D01*
X161222374Y-64519139D01*
X161107379Y-64607378D01*
X161107378Y-64607379D01*
X161019139Y-64722374D01*
X161019136Y-64722379D01*
X160963669Y-64856291D01*
X160959331Y-64889245D01*
X160945398Y-64917497D01*
X150917497Y-74945398D01*
X150889245Y-74959331D01*
X150856291Y-74963669D01*
X150722379Y-75019136D01*
X150722374Y-75019139D01*
X150607379Y-75107378D01*
X150607378Y-75107379D01*
X150519139Y-75222374D01*
X150519136Y-75222379D01*
X150463669Y-75356291D01*
X150444750Y-75500000D01*
X118418048Y-75500000D01*
X118404498Y-75455895D01*
X118403966Y-75454032D01*
X118384405Y-75380004D01*
X118165836Y-74552815D01*
X118165378Y-74550932D01*
X117963235Y-73640928D01*
X117962867Y-73639098D01*
X117797045Y-72721808D01*
X117796739Y-72719898D01*
X117687377Y-71938765D01*
X117667488Y-71796706D01*
X117667264Y-71794831D01*
X117574801Y-70867269D01*
X117574650Y-70865378D01*
X117519110Y-69934834D01*
X117519034Y-69932913D01*
X117518625Y-69912351D01*
X117500628Y-69006789D01*
X117500659Y-69003837D01*
X117501377Y-68986206D01*
X117538360Y-68078089D01*
X117538474Y-68076194D01*
X117564771Y-67750000D01*
X119744723Y-67750000D01*
X119763793Y-67967979D01*
X119763794Y-67967985D01*
X119820422Y-68179322D01*
X119820424Y-68179327D01*
X119912896Y-68377637D01*
X119912903Y-68377649D01*
X120038397Y-68556871D01*
X120038403Y-68556878D01*
X120193121Y-68711596D01*
X120193128Y-68711602D01*
X120372350Y-68837096D01*
X120372362Y-68837103D01*
X120444540Y-68870760D01*
X120570670Y-68929575D01*
X120570676Y-68929576D01*
X120570677Y-68929577D01*
X120782014Y-68986205D01*
X120782018Y-68986205D01*
X120782023Y-68986207D01*
X121000000Y-69005277D01*
X121217977Y-68986207D01*
X121217983Y-68986205D01*
X121217985Y-68986205D01*
X121323653Y-68957891D01*
X121429330Y-68929575D01*
X121627639Y-68837102D01*
X121627640Y-68837101D01*
X121627649Y-68837096D01*
X121806871Y-68711602D01*
X121806877Y-68711598D01*
X121961598Y-68556877D01*
X121999565Y-68502655D01*
X122087096Y-68377649D01*
X122087103Y-68377637D01*
X122091352Y-68368523D01*
X122179575Y-68179330D01*
X122236207Y-67967977D01*
X122255277Y-67750000D01*
X122236207Y-67532023D01*
X122235769Y-67530389D01*
X122179577Y-67320677D01*
X122179576Y-67320672D01*
X122087103Y-67122363D01*
X122087096Y-67122351D01*
X121961602Y-66943128D01*
X121961596Y-66943121D01*
X121806878Y-66788403D01*
X121806871Y-66788397D01*
X121627649Y-66662903D01*
X121627637Y-66662896D01*
X121483279Y-66595581D01*
X121429330Y-66570425D01*
X121429327Y-66570424D01*
X121429322Y-66570422D01*
X121217985Y-66513794D01*
X121217979Y-66513793D01*
X121000000Y-66494723D01*
X120782020Y-66513793D01*
X120782014Y-66513794D01*
X120570677Y-66570422D01*
X120570672Y-66570423D01*
X120372363Y-66662896D01*
X120372351Y-66662903D01*
X120193128Y-66788397D01*
X120193121Y-66788403D01*
X120038403Y-66943121D01*
X120038397Y-66943128D01*
X119912903Y-67122351D01*
X119912896Y-67122363D01*
X119820423Y-67320672D01*
X119820422Y-67320677D01*
X119763794Y-67532014D01*
X119763793Y-67532020D01*
X119744723Y-67750000D01*
X117564771Y-67750000D01*
X117613386Y-67146985D01*
X117613572Y-67145136D01*
X117725343Y-66219640D01*
X117725604Y-66217793D01*
X117874060Y-65297460D01*
X117874393Y-65295631D01*
X118059294Y-64381953D01*
X118059698Y-64380141D01*
X118274537Y-63500000D01*
X140944750Y-63500000D01*
X140963669Y-63643708D01*
X141019136Y-63777620D01*
X141019139Y-63777625D01*
X141107379Y-63892621D01*
X141222375Y-63980861D01*
X141222377Y-63980861D01*
X141222379Y-63980863D01*
X141356291Y-64036330D01*
X141500000Y-64055250D01*
X141528680Y-64051473D01*
X141564904Y-64061179D01*
X141569724Y-64065406D01*
X141635148Y-64130830D01*
X141649500Y-64165478D01*
X141649500Y-65243204D01*
X141649589Y-65243535D01*
X141663536Y-65295587D01*
X141663797Y-65296559D01*
X141663797Y-65296560D01*
X141673385Y-65332346D01*
X141673386Y-65332349D01*
X141719530Y-65412271D01*
X143278658Y-66971399D01*
X143293010Y-67006047D01*
X143293010Y-69550894D01*
X143278658Y-69585542D01*
X143273840Y-69589768D01*
X143250887Y-69607380D01*
X143162649Y-69722374D01*
X143162646Y-69722379D01*
X143107179Y-69856291D01*
X143088260Y-70000000D01*
X143107179Y-70143708D01*
X143162646Y-70277620D01*
X143162649Y-70277625D01*
X143200240Y-70326615D01*
X143250889Y-70392621D01*
X143365885Y-70480861D01*
X143365887Y-70480861D01*
X143365889Y-70480863D01*
X143499801Y-70536330D01*
X143643510Y-70555250D01*
X143787219Y-70536330D01*
X143921135Y-70480861D01*
X144036131Y-70392621D01*
X144053742Y-70369669D01*
X144086221Y-70350919D01*
X144092616Y-70350500D01*
X154046146Y-70350500D01*
X154100698Y-70335882D01*
X154135288Y-70326614D01*
X154143240Y-70322023D01*
X154215212Y-70280470D01*
X163430275Y-61065405D01*
X163464922Y-61051054D01*
X163471311Y-61051472D01*
X163500000Y-61055250D01*
X163643709Y-61036330D01*
X163777625Y-60980861D01*
X163892621Y-60892621D01*
X163980861Y-60777625D01*
X164036330Y-60643709D01*
X164055250Y-60500000D01*
X164036330Y-60356291D01*
X163980861Y-60222375D01*
X163892621Y-60107379D01*
X163777625Y-60019139D01*
X163777620Y-60019136D01*
X163643708Y-59963669D01*
X163500000Y-59944750D01*
X163356291Y-59963669D01*
X163222379Y-60019136D01*
X163222374Y-60019139D01*
X163107379Y-60107378D01*
X163107378Y-60107379D01*
X163019139Y-60222374D01*
X163019136Y-60222379D01*
X162963669Y-60356291D01*
X162944750Y-60500001D01*
X162948525Y-60528682D01*
X162938817Y-60564906D01*
X162934592Y-60569724D01*
X153869170Y-69635148D01*
X153834522Y-69649500D01*
X144092616Y-69649500D01*
X144057968Y-69635148D01*
X144053742Y-69630330D01*
X144036131Y-69607379D01*
X144013179Y-69589767D01*
X143994429Y-69557289D01*
X143994010Y-69550894D01*
X143994010Y-66794422D01*
X143970124Y-66705282D01*
X143970123Y-66705279D01*
X143945654Y-66662898D01*
X143945653Y-66662897D01*
X143945652Y-66662896D01*
X143923980Y-66625357D01*
X143549423Y-66250800D01*
X143535071Y-66216152D01*
X143549423Y-66181504D01*
X143565320Y-66170882D01*
X143603360Y-66155126D01*
X143718356Y-66066886D01*
X143806596Y-65951890D01*
X143862065Y-65817974D01*
X143880985Y-65674265D01*
X143862065Y-65530556D01*
X143837958Y-65472355D01*
X143806598Y-65396644D01*
X143806595Y-65396639D01*
X143789843Y-65374808D01*
X143718356Y-65281644D01*
X143713118Y-65277625D01*
X143603360Y-65193404D01*
X143603355Y-65193401D01*
X143469443Y-65137934D01*
X143344654Y-65121505D01*
X143325735Y-65119015D01*
X143325734Y-65119015D01*
X143297054Y-65122791D01*
X143260829Y-65113084D01*
X143256010Y-65108858D01*
X142864852Y-64717700D01*
X142850500Y-64683052D01*
X142850500Y-59949105D01*
X142864852Y-59914457D01*
X142869663Y-59910236D01*
X142892621Y-59892621D01*
X142980861Y-59777625D01*
X143036330Y-59643709D01*
X143055250Y-59500000D01*
X143036330Y-59356291D01*
X142980861Y-59222375D01*
X142892621Y-59107379D01*
X142777625Y-59019139D01*
X142777620Y-59019136D01*
X142739584Y-59003382D01*
X142713065Y-58976864D01*
X142713065Y-58939361D01*
X142723684Y-58923467D01*
X145703674Y-55943477D01*
X145738321Y-55929126D01*
X145768148Y-55939251D01*
X145822375Y-55980861D01*
X145822378Y-55980862D01*
X145822379Y-55980863D01*
X145956291Y-56036330D01*
X146100000Y-56055250D01*
X146243709Y-56036330D01*
X146377625Y-55980861D01*
X146492621Y-55892621D01*
X146580861Y-55777625D01*
X146636330Y-55643709D01*
X146655250Y-55500000D01*
X146636330Y-55356291D01*
X146580861Y-55222375D01*
X146492621Y-55107379D01*
X146492618Y-55107377D01*
X146377625Y-55019139D01*
X146377620Y-55019136D01*
X146243708Y-54963669D01*
X146100000Y-54944750D01*
X145956291Y-54963669D01*
X145822379Y-55019136D01*
X145822374Y-55019139D01*
X145707380Y-55107377D01*
X145689768Y-55130330D01*
X145657289Y-55149081D01*
X145650894Y-55149500D01*
X145605324Y-55149500D01*
X145521542Y-55171950D01*
X145519053Y-55172616D01*
X145516181Y-55173386D01*
X145516180Y-55173386D01*
X145436258Y-55219530D01*
X145436258Y-55219531D01*
X141219532Y-59436256D01*
X141219530Y-59436259D01*
X141183801Y-59498144D01*
X141177787Y-59508560D01*
X141173385Y-59516184D01*
X141149500Y-59605324D01*
X141149500Y-63050894D01*
X141135148Y-63085542D01*
X141130330Y-63089768D01*
X141107377Y-63107380D01*
X141019139Y-63222374D01*
X141019136Y-63222379D01*
X140963669Y-63356291D01*
X140944750Y-63500000D01*
X118274537Y-63500000D01*
X118280759Y-63474512D01*
X118281237Y-63472712D01*
X118538107Y-62576579D01*
X118538660Y-62574784D01*
X118830923Y-61689595D01*
X118831551Y-61687813D01*
X119158742Y-60814964D01*
X119159455Y-60813172D01*
X119521086Y-59953971D01*
X119521839Y-59952276D01*
X119917325Y-59108117D01*
X119918149Y-59106444D01*
X120346854Y-58278683D01*
X120347782Y-58276977D01*
X120568544Y-57889266D01*
X120809019Y-57466933D01*
X120810007Y-57465277D01*
X121303050Y-56674223D01*
X121304102Y-56672608D01*
X121397480Y-56535265D01*
X121828240Y-55901690D01*
X121829295Y-55900203D01*
X122383637Y-55150734D01*
X122384793Y-55149233D01*
X122968484Y-54422373D01*
X122969685Y-54420936D01*
X123581795Y-53717840D01*
X123583042Y-53716465D01*
X124222583Y-53038267D01*
X124223904Y-53036920D01*
X124889923Y-52384631D01*
X124891249Y-52383383D01*
X125582674Y-51758059D01*
X125584073Y-51756843D01*
X126299761Y-51159515D01*
X126301233Y-51158336D01*
X127040076Y-50589925D01*
X127041614Y-50588790D01*
X127802424Y-50050208D01*
X127803980Y-50049151D01*
X128585642Y-49541190D01*
X128587249Y-49540190D01*
X129388458Y-49063696D01*
X129390106Y-49062761D01*
X130209602Y-48618484D01*
X130211278Y-48617618D01*
X131047830Y-48206228D01*
X131049483Y-48205456D01*
X131901701Y-47827636D01*
X131903421Y-47826914D01*
X132769957Y-47483262D01*
X132771756Y-47482589D01*
X133651249Y-47173642D01*
X133653093Y-47173037D01*
X134544117Y-46899293D01*
X134545945Y-46898771D01*
X135447195Y-46660631D01*
X135449047Y-46660181D01*
X136359081Y-46458032D01*
X136360891Y-46457667D01*
X137278199Y-46291843D01*
X137280080Y-46291541D01*
X138203298Y-46162286D01*
X138205161Y-46162064D01*
X139132734Y-46069599D01*
X139134617Y-46069449D01*
X140065166Y-46013908D01*
X140067059Y-46013834D01*
X140999496Y-45995303D01*
X141000470Y-45995293D01*
X141003617Y-45995293D01*
X192741274Y-46000498D01*
G37*
G04 #@! TD.AperFunction*
M02*
