M48
; DRILL file {KiCad 8.0.2} date 2024-09-05T18:17:19-0400
; FORMAT={-:-/ absolute / metric / decimal}
; #@! TF.CreationDate,2024-09-05T18:17:19-04:00
; #@! TF.GenerationSoftware,Kicad,Pcbnew,8.0.2
; #@! TF.FileFunction,Plated,1,2,PTH
FMAT,2
METRIC
; #@! TA.AperFunction,Plated,PTH,ViaDrill
T1C0.300
; #@! TA.AperFunction,Plated,PTH,ComponentDrill
T2C0.920
; #@! TA.AperFunction,Plated,PTH,ComponentDrill
T3C1.000
; #@! TA.AperFunction,Plated,PTH,ComponentDrill
T4C1.200
; #@! TA.AperFunction,Plated,PTH,ComponentDrill
T5C1.500
%
G90
G05
T1
X119.5Y-72.5
X119.5Y-73.5
X119.5Y-74.5
X120.5Y-72.5
X120.5Y-73.5
X120.5Y-74.5
X121.5Y-72.5
X121.5Y-73.5
X121.5Y-74.5
X122.5Y-72.5
X122.5Y-73.5
X122.5Y-74.5
X123.5Y-73.5
X123.5Y-74.5
X124.5Y-74.5
X131.5Y-70.0
X131.5Y-71.0
X131.5Y-72.0
X131.5Y-73.0
X132.5Y-72.0
X132.5Y-73.0
X133.0Y-61.0
X133.5Y-72.0
X133.5Y-73.0
X134.5Y-72.0
X134.5Y-73.0
X134.5Y-74.0
X134.5Y-75.0
X135.5Y-72.0
X135.5Y-73.0
X135.5Y-74.0
X135.5Y-75.0
X136.5Y-72.0
X136.5Y-73.0
X136.5Y-74.0
X136.5Y-75.0
X137.0Y-56.5
X137.0Y-61.0
X137.5Y-72.0
X137.5Y-73.0
X137.5Y-74.0
X137.5Y-75.0
X138.5Y-72.0
X138.5Y-73.0
X138.5Y-74.0
X138.5Y-75.0
X139.5Y-72.0
X139.5Y-73.0
X139.5Y-74.0
X139.5Y-75.0
X140.5Y-72.0
X140.5Y-73.0
X140.5Y-74.0
X140.5Y-75.0
X141.5Y-63.5
X141.5Y-72.0
X141.5Y-73.0
X141.5Y-74.0
X141.5Y-75.0
X142.5Y-59.5
X143.326Y-65.674
X143.644Y-70.0
X145.0Y-65.5
X145.5Y-54.0
X146.1Y-55.5
X151.0Y-75.5
X152.5Y-75.5
X153.5Y-74.5
X153.5Y-75.5
X154.5Y-73.5
X154.5Y-74.5
X154.5Y-75.5
X155.5Y-73.5
X155.5Y-74.5
X155.5Y-75.5
X156.5Y-73.5
X156.5Y-74.5
X156.5Y-75.5
X157.5Y-61.0
X157.5Y-73.5
X157.5Y-74.5
X157.5Y-75.5
X158.5Y-73.5
X158.5Y-74.5
X158.5Y-75.5
X159.5Y-73.5
X159.5Y-74.5
X159.5Y-75.5
X160.5Y-72.5
X160.5Y-73.5
X160.5Y-74.5
X160.5Y-75.5
X161.5Y-65.0
X161.5Y-72.5
X161.5Y-73.5
X161.5Y-74.5
X161.5Y-75.5
X162.5Y-72.5
X162.5Y-73.5
X162.5Y-74.5
X162.5Y-75.5
X163.5Y-60.5
X163.5Y-72.5
X163.5Y-73.5
X163.5Y-74.5
X163.5Y-75.5
X164.5Y-72.5
X164.5Y-73.5
X164.5Y-74.5
X164.5Y-75.5
X165.5Y-72.5
X165.5Y-73.5
X165.5Y-74.5
X165.5Y-75.5
X166.5Y-72.5
X166.5Y-73.5
X166.5Y-74.5
X166.5Y-75.5
X167.0Y-61.0
X167.5Y-72.5
X167.5Y-73.5
X167.5Y-74.5
X167.5Y-75.5
X167.75Y-54.0
X168.5Y-72.5
X168.5Y-73.5
X168.5Y-74.5
X168.5Y-75.5
X169.5Y-72.5
X169.5Y-73.5
X169.5Y-74.5
X169.5Y-75.5
X170.5Y-72.5
X170.5Y-73.5
X170.5Y-74.5
X170.5Y-75.5
X170.75Y-91.0
X171.5Y-72.5
X171.5Y-73.5
X171.5Y-74.5
X171.5Y-75.5
X172.5Y-61.0
X172.5Y-72.5
X172.5Y-73.5
X172.5Y-74.5
X172.5Y-75.5
X173.5Y-72.5
X173.5Y-73.5
X173.5Y-74.5
X173.5Y-75.5
X174.25Y-85.0
X174.5Y-72.5
X174.5Y-73.5
X174.5Y-74.5
X174.5Y-75.5
X176.25Y-56.25
X176.75Y-87.75
X179.5Y-51.0
X195.25Y-86.0
X197.25Y-49.5
T2
X185.558Y-72.215
X185.558Y-66.429
X186.076Y-64.497
X186.076Y-74.147
X186.594Y-62.565
X186.594Y-76.078
X187.111Y-60.633
X187.111Y-78.01
X195.128Y-64.987
X195.149Y-73.513
X196.543Y-63.573
X196.563Y-74.927
X197.957Y-62.159
X197.977Y-76.341
X199.371Y-60.745
X199.391Y-77.755
T3
X157.46Y-88.75
X160.0Y-88.75
X162.54Y-88.75
X165.08Y-88.75
T4
X121.0Y-67.75
X121.0Y-70.29
X207.616Y-65.46
X207.616Y-68.0
X207.616Y-70.54
X207.616Y-73.08
T5
X182.861Y-65.986
X182.861Y-72.658
X184.673Y-79.419
X184.673Y-59.224
X188.116Y-67.394
X188.116Y-71.25
X189.928Y-78.011
X189.928Y-60.632
X193.014Y-63.255
X193.034Y-75.245
X196.861Y-67.102
X196.881Y-71.398
X197.964Y-58.305
X197.984Y-80.195
X201.811Y-62.152
X201.831Y-76.348
M30
