G04 #@! TF.GenerationSoftware,KiCad,Pcbnew,8.0.2*
G04 #@! TF.CreationDate,2024-09-05T18:17:44-04:00*
G04 #@! TF.ProjectId,5v-regulator-v1,35762d72-6567-4756-9c61-746f722d7631,rev?*
G04 #@! TF.SameCoordinates,Original*
G04 #@! TF.FileFunction,Soldermask,Top*
G04 #@! TF.FilePolarity,Negative*
%FSLAX46Y46*%
G04 Gerber Fmt 4.6, Leading zero omitted, Abs format (unit mm)*
G04 Created by KiCad (PCBNEW 8.0.2) date 2024-09-05 18:17:44*
%MOMM*%
%LPD*%
G01*
G04 APERTURE LIST*
G04 Aperture macros list*
%AMRoundRect*
0 Rectangle with rounded corners*
0 $1 Rounding radius*
0 $2 $3 $4 $5 $6 $7 $8 $9 X,Y pos of 4 corners*
0 Add a 4 corners polygon primitive as box body*
4,1,4,$2,$3,$4,$5,$6,$7,$8,$9,$2,$3,0*
0 Add four circle primitives for the rounded corners*
1,1,$1+$1,$2,$3*
1,1,$1+$1,$4,$5*
1,1,$1+$1,$6,$7*
1,1,$1+$1,$8,$9*
0 Add four rect primitives between the rounded corners*
20,1,$1+$1,$2,$3,$4,$5,0*
20,1,$1+$1,$4,$5,$6,$7,0*
20,1,$1+$1,$6,$7,$8,$9,0*
20,1,$1+$1,$8,$9,$2,$3,0*%
%AMRotRect*
0 Rectangle, with rotation*
0 The origin of the aperture is its center*
0 $1 length*
0 $2 width*
0 $3 Rotation angle, in degrees counterclockwise*
0 Add horizontal line*
21,1,$1,$2,0,0,$3*%
%AMFreePoly0*
4,1,6,1.000000,0.000000,0.500000,-0.750000,-0.500000,-0.750000,-0.500000,0.750000,0.500000,0.750000,1.000000,0.000000,1.000000,0.000000,$1*%
%AMFreePoly1*
4,1,6,0.500000,-0.750000,-0.650000,-0.750000,-0.150000,0.000000,-0.650000,0.750000,0.500000,0.750000,0.500000,-0.750000,0.500000,-0.750000,$1*%
G04 Aperture macros list end*
%ADD10C,2.000000*%
%ADD11RotRect,1.600000X1.600000X105.000000*%
%ADD12C,1.600000*%
%ADD13C,2.150000*%
%ADD14RoundRect,0.250000X-0.450000X0.325000X-0.450000X-0.325000X0.450000X-0.325000X0.450000X0.325000X0*%
%ADD15R,2.311400X5.461000*%
%ADD16RoundRect,0.250000X0.650000X-0.412500X0.650000X0.412500X-0.650000X0.412500X-0.650000X-0.412500X0*%
%ADD17RoundRect,0.250000X-0.625000X0.400000X-0.625000X-0.400000X0.625000X-0.400000X0.625000X0.400000X0*%
%ADD18RotRect,1.600000X1.600000X225.000000*%
%ADD19RoundRect,0.250000X-0.400000X-0.625000X0.400000X-0.625000X0.400000X0.625000X-0.400000X0.625000X0*%
%ADD20R,2.000000X2.000000*%
%ADD21RoundRect,0.250000X0.450000X-0.350000X0.450000X0.350000X-0.450000X0.350000X-0.450000X-0.350000X0*%
%ADD22RoundRect,0.150000X0.150000X-0.825000X0.150000X0.825000X-0.150000X0.825000X-0.150000X-0.825000X0*%
%ADD23R,1.397000X0.254000*%
%ADD24R,0.254000X0.609600*%
%ADD25R,0.609600X0.254000*%
%ADD26RoundRect,0.250000X-0.412500X-0.650000X0.412500X-0.650000X0.412500X0.650000X-0.412500X0.650000X0*%
%ADD27R,1.700000X1.700000*%
%ADD28O,1.700000X1.700000*%
%ADD29RoundRect,0.100000X0.100000X-0.650000X0.100000X0.650000X-0.100000X0.650000X-0.100000X-0.650000X0*%
%ADD30RoundRect,0.250000X-0.650000X0.412500X-0.650000X-0.412500X0.650000X-0.412500X0.650000X0.412500X0*%
%ADD31FreePoly0,180.000000*%
%ADD32FreePoly1,180.000000*%
%ADD33RoundRect,0.250000X0.625000X-0.400000X0.625000X0.400000X-0.625000X0.400000X-0.625000X-0.400000X0*%
%ADD34RoundRect,0.250000X-0.350000X-0.450000X0.350000X-0.450000X0.350000X0.450000X-0.350000X0.450000X0*%
%ADD35RotRect,1.600000X1.600000X255.000000*%
%ADD36RotRect,1.600000X1.600000X135.000000*%
%ADD37RoundRect,0.250000X-0.450000X0.350000X-0.450000X-0.350000X0.450000X-0.350000X0.450000X0.350000X0*%
%ADD38RoundRect,0.250000X0.412500X0.650000X-0.412500X0.650000X-0.412500X-0.650000X0.412500X-0.650000X0*%
G04 APERTURE END LIST*
D10*
X147250000Y-57250000D03*
D11*
X187111364Y-78010343D03*
D12*
X186593726Y-76078491D03*
X186076088Y-74146640D03*
X185558449Y-72214787D03*
D13*
X184672983Y-79419458D03*
X189927619Y-78011480D03*
X182861251Y-72657977D03*
X188115888Y-71250000D03*
D14*
X160000001Y-48475002D03*
X159999999Y-50524998D03*
D15*
X150000000Y-68000000D03*
X158509000Y-68000000D03*
D16*
X144000000Y-62562500D03*
X144000000Y-59437500D03*
D17*
X140500000Y-59450000D03*
X140500000Y-62550000D03*
D18*
X199371101Y-60744787D03*
D12*
X197956887Y-62159001D03*
X196542674Y-63573214D03*
X195128460Y-64987429D03*
D13*
X201810620Y-62151929D03*
X197963959Y-58305270D03*
X196860873Y-67101676D03*
X193014210Y-63255016D03*
D19*
X175545000Y-68025000D03*
X178645000Y-68025000D03*
D20*
X207615887Y-65460000D03*
D10*
X207615887Y-68000000D03*
X207615887Y-70540000D03*
X207615887Y-73080000D03*
D20*
X121000000Y-70290000D03*
D10*
X121000000Y-67750000D03*
D21*
X169750000Y-88500000D03*
X169750000Y-86500000D03*
D22*
X127595000Y-86225000D03*
X128865000Y-86225000D03*
X130135000Y-86225000D03*
X131405000Y-86225000D03*
X131405000Y-81275000D03*
X130135000Y-81275000D03*
X128865000Y-81275000D03*
X127595000Y-81275000D03*
D23*
X144487398Y-67499874D03*
X144487398Y-68500126D03*
D24*
X144243510Y-69400000D03*
X144743636Y-69400000D03*
X145243762Y-69400000D03*
X145743888Y-69400000D03*
D23*
X145500000Y-68000000D03*
D25*
X145893700Y-67499874D03*
D24*
X145743888Y-66600000D03*
X145243762Y-66600000D03*
X144743636Y-66600000D03*
X144243510Y-66600000D03*
D26*
X147437500Y-60500000D03*
X150562500Y-60500000D03*
D27*
X165080000Y-88750000D03*
D28*
X162539996Y-88749998D03*
X160000000Y-88750000D03*
X157460000Y-88750000D03*
D29*
X162850000Y-58830000D03*
X163500000Y-58830000D03*
X164150000Y-58830000D03*
X164150000Y-56170000D03*
X163500000Y-56170000D03*
X162850000Y-56170000D03*
D10*
X132000000Y-65000000D03*
D30*
X150500000Y-77937500D03*
X150500000Y-81062500D03*
X169104000Y-67962500D03*
X169104000Y-71087500D03*
X144000000Y-74437500D03*
X144000000Y-77562500D03*
D19*
X146950000Y-75500000D03*
X150050000Y-75500000D03*
D22*
X175690000Y-85450000D03*
X176960000Y-85450000D03*
X178230000Y-85450000D03*
X179500000Y-85450000D03*
X179500000Y-80500000D03*
X178230000Y-80500000D03*
X176960000Y-80500000D03*
X175690000Y-80500000D03*
D31*
X183000000Y-88750000D03*
D32*
X181550000Y-88750000D03*
D30*
X133500000Y-67437500D03*
X133500000Y-70562500D03*
D10*
X123750000Y-80000000D03*
D33*
X178750000Y-75050000D03*
X178750000Y-71950000D03*
D10*
X172000000Y-55250000D03*
D33*
X176250000Y-75050000D03*
X176250000Y-71950000D03*
D34*
X163000000Y-53500000D03*
X165000000Y-53500000D03*
D33*
X144000000Y-57050000D03*
X144000000Y-53950000D03*
X129500000Y-75050000D03*
X129500000Y-71950000D03*
D30*
X137000000Y-67437500D03*
X137000000Y-70562500D03*
D21*
X173500000Y-88500000D03*
X173500000Y-86500000D03*
D30*
X172604000Y-67962500D03*
X172604000Y-71087500D03*
X162104000Y-67962500D03*
X162104000Y-71087500D03*
X140500000Y-67437500D03*
X140500000Y-70562500D03*
X165604000Y-67962500D03*
X165604000Y-71087500D03*
D35*
X187111364Y-60633422D03*
D12*
X186593726Y-62565274D03*
X186076088Y-64497125D03*
X185558450Y-66428978D03*
D13*
X189927621Y-60632283D03*
X184672984Y-59224311D03*
X188115887Y-67393764D03*
X182861249Y-65985789D03*
D36*
X199391233Y-77755214D03*
D12*
X197977019Y-76341000D03*
X196562806Y-74926787D03*
X195148591Y-73512573D03*
D13*
X197984091Y-80194733D03*
X201830750Y-76348072D03*
X193034344Y-75244986D03*
X196881004Y-71398323D03*
D17*
X146500000Y-77950000D03*
X146500000Y-81050000D03*
D37*
X168250000Y-56500000D03*
X168250000Y-58500000D03*
D19*
X126950000Y-67500000D03*
X130050000Y-67500000D03*
D38*
X179062501Y-77250002D03*
X175937499Y-77249998D03*
D37*
X160000000Y-56500000D03*
X160000000Y-58500000D03*
D10*
X174500000Y-64750000D03*
D33*
X140500000Y-57050000D03*
X140500000Y-53950000D03*
D14*
X168000001Y-48475002D03*
X167999999Y-50524998D03*
D10*
X159500000Y-80000000D03*
D38*
X129812501Y-77500000D03*
X126687499Y-77499996D03*
D17*
X127000000Y-71950000D03*
X127000000Y-75050000D03*
D10*
X155000000Y-80000000D03*
M02*
