G04 #@! TF.GenerationSoftware,KiCad,Pcbnew,8.0.2*
G04 #@! TF.CreationDate,2024-09-05T18:17:44-04:00*
G04 #@! TF.ProjectId,5v-regulator-v1,35762d72-6567-4756-9c61-746f722d7631,rev?*
G04 #@! TF.SameCoordinates,Original*
G04 #@! TF.FileFunction,Legend,Top*
G04 #@! TF.FilePolarity,Positive*
%FSLAX46Y46*%
G04 Gerber Fmt 4.6, Leading zero omitted, Abs format (unit mm)*
G04 Created by KiCad (PCBNEW 8.0.2) date 2024-09-05 18:17:44*
%MOMM*%
%LPD*%
G01*
G04 APERTURE LIST*
G04 Aperture macros list*
%AMRoundRect*
0 Rectangle with rounded corners*
0 $1 Rounding radius*
0 $2 $3 $4 $5 $6 $7 $8 $9 X,Y pos of 4 corners*
0 Add a 4 corners polygon primitive as box body*
4,1,4,$2,$3,$4,$5,$6,$7,$8,$9,$2,$3,0*
0 Add four circle primitives for the rounded corners*
1,1,$1+$1,$2,$3*
1,1,$1+$1,$4,$5*
1,1,$1+$1,$6,$7*
1,1,$1+$1,$8,$9*
0 Add four rect primitives between the rounded corners*
20,1,$1+$1,$2,$3,$4,$5,0*
20,1,$1+$1,$4,$5,$6,$7,0*
20,1,$1+$1,$6,$7,$8,$9,0*
20,1,$1+$1,$8,$9,$2,$3,0*%
%AMRotRect*
0 Rectangle, with rotation*
0 The origin of the aperture is its center*
0 $1 length*
0 $2 width*
0 $3 Rotation angle, in degrees counterclockwise*
0 Add horizontal line*
21,1,$1,$2,0,0,$3*%
%AMFreePoly0*
4,1,6,1.000000,0.000000,0.500000,-0.750000,-0.500000,-0.750000,-0.500000,0.750000,0.500000,0.750000,1.000000,0.000000,1.000000,0.000000,$1*%
%AMFreePoly1*
4,1,6,0.500000,-0.750000,-0.650000,-0.750000,-0.150000,0.000000,-0.650000,0.750000,0.500000,0.750000,0.500000,-0.750000,0.500000,-0.750000,$1*%
G04 Aperture macros list end*
%ADD10C,0.150000*%
%ADD11C,0.200000*%
%ADD12C,0.100000*%
%ADD13C,0.120000*%
%ADD14C,0.152400*%
%ADD15C,2.000000*%
%ADD16RotRect,1.600000X1.600000X105.000000*%
%ADD17C,1.600000*%
%ADD18C,2.150000*%
%ADD19RoundRect,0.250000X-0.450000X0.325000X-0.450000X-0.325000X0.450000X-0.325000X0.450000X0.325000X0*%
%ADD20R,2.311400X5.461000*%
%ADD21RoundRect,0.250000X0.650000X-0.412500X0.650000X0.412500X-0.650000X0.412500X-0.650000X-0.412500X0*%
%ADD22RoundRect,0.250000X-0.625000X0.400000X-0.625000X-0.400000X0.625000X-0.400000X0.625000X0.400000X0*%
%ADD23RotRect,1.600000X1.600000X225.000000*%
%ADD24RoundRect,0.250000X-0.400000X-0.625000X0.400000X-0.625000X0.400000X0.625000X-0.400000X0.625000X0*%
%ADD25R,2.000000X2.000000*%
%ADD26RoundRect,0.250000X0.450000X-0.350000X0.450000X0.350000X-0.450000X0.350000X-0.450000X-0.350000X0*%
%ADD27RoundRect,0.150000X0.150000X-0.825000X0.150000X0.825000X-0.150000X0.825000X-0.150000X-0.825000X0*%
%ADD28R,1.397000X0.254000*%
%ADD29R,0.254000X0.609600*%
%ADD30R,0.609600X0.254000*%
%ADD31RoundRect,0.250000X-0.412500X-0.650000X0.412500X-0.650000X0.412500X0.650000X-0.412500X0.650000X0*%
%ADD32R,1.700000X1.700000*%
%ADD33O,1.700000X1.700000*%
%ADD34RoundRect,0.100000X0.100000X-0.650000X0.100000X0.650000X-0.100000X0.650000X-0.100000X-0.650000X0*%
%ADD35RoundRect,0.250000X-0.650000X0.412500X-0.650000X-0.412500X0.650000X-0.412500X0.650000X0.412500X0*%
%ADD36FreePoly0,180.000000*%
%ADD37FreePoly1,180.000000*%
%ADD38RoundRect,0.250000X0.625000X-0.400000X0.625000X0.400000X-0.625000X0.400000X-0.625000X-0.400000X0*%
%ADD39RoundRect,0.250000X-0.350000X-0.450000X0.350000X-0.450000X0.350000X0.450000X-0.350000X0.450000X0*%
%ADD40RotRect,1.600000X1.600000X255.000000*%
%ADD41RotRect,1.600000X1.600000X135.000000*%
%ADD42RoundRect,0.250000X-0.450000X0.350000X-0.450000X-0.350000X0.450000X-0.350000X0.450000X0.350000X0*%
%ADD43RoundRect,0.250000X0.412500X0.650000X-0.412500X0.650000X-0.412500X-0.650000X0.412500X-0.650000X0*%
G04 APERTURE END LIST*
D10*
X170163220Y-46380180D02*
X170163220Y-47380180D01*
X170163220Y-47380180D02*
X169782268Y-47380180D01*
X169782268Y-47380180D02*
X169687030Y-47332561D01*
X169687030Y-47332561D02*
X169639411Y-47284942D01*
X169639411Y-47284942D02*
X169591792Y-47189704D01*
X169591792Y-47189704D02*
X169591792Y-47046847D01*
X169591792Y-47046847D02*
X169639411Y-46951609D01*
X169639411Y-46951609D02*
X169687030Y-46903990D01*
X169687030Y-46903990D02*
X169782268Y-46856371D01*
X169782268Y-46856371D02*
X170163220Y-46856371D01*
X168639411Y-47332561D02*
X168734649Y-47380180D01*
X168734649Y-47380180D02*
X168877506Y-47380180D01*
X168877506Y-47380180D02*
X169020363Y-47332561D01*
X169020363Y-47332561D02*
X169115601Y-47237323D01*
X169115601Y-47237323D02*
X169163220Y-47142085D01*
X169163220Y-47142085D02*
X169210839Y-46951609D01*
X169210839Y-46951609D02*
X169210839Y-46808752D01*
X169210839Y-46808752D02*
X169163220Y-46618276D01*
X169163220Y-46618276D02*
X169115601Y-46523038D01*
X169115601Y-46523038D02*
X169020363Y-46427800D01*
X169020363Y-46427800D02*
X168877506Y-46380180D01*
X168877506Y-46380180D02*
X168782268Y-46380180D01*
X168782268Y-46380180D02*
X168639411Y-46427800D01*
X168639411Y-46427800D02*
X168591792Y-46475419D01*
X168591792Y-46475419D02*
X168591792Y-46808752D01*
X168591792Y-46808752D02*
X168782268Y-46808752D01*
X167972744Y-47380180D02*
X167782268Y-47380180D01*
X167782268Y-47380180D02*
X167687030Y-47332561D01*
X167687030Y-47332561D02*
X167591792Y-47237323D01*
X167591792Y-47237323D02*
X167544173Y-47046847D01*
X167544173Y-47046847D02*
X167544173Y-46713514D01*
X167544173Y-46713514D02*
X167591792Y-46523038D01*
X167591792Y-46523038D02*
X167687030Y-46427800D01*
X167687030Y-46427800D02*
X167782268Y-46380180D01*
X167782268Y-46380180D02*
X167972744Y-46380180D01*
X167972744Y-46380180D02*
X168067982Y-46427800D01*
X168067982Y-46427800D02*
X168163220Y-46523038D01*
X168163220Y-46523038D02*
X168210839Y-46713514D01*
X168210839Y-46713514D02*
X168210839Y-47046847D01*
X168210839Y-47046847D02*
X168163220Y-47237323D01*
X168163220Y-47237323D02*
X168067982Y-47332561D01*
X168067982Y-47332561D02*
X167972744Y-47380180D01*
X166925125Y-47380180D02*
X166734649Y-47380180D01*
X166734649Y-47380180D02*
X166639411Y-47332561D01*
X166639411Y-47332561D02*
X166544173Y-47237323D01*
X166544173Y-47237323D02*
X166496554Y-47046847D01*
X166496554Y-47046847D02*
X166496554Y-46713514D01*
X166496554Y-46713514D02*
X166544173Y-46523038D01*
X166544173Y-46523038D02*
X166639411Y-46427800D01*
X166639411Y-46427800D02*
X166734649Y-46380180D01*
X166734649Y-46380180D02*
X166925125Y-46380180D01*
X166925125Y-46380180D02*
X167020363Y-46427800D01*
X167020363Y-46427800D02*
X167115601Y-46523038D01*
X167115601Y-46523038D02*
X167163220Y-46713514D01*
X167163220Y-46713514D02*
X167163220Y-47046847D01*
X167163220Y-47046847D02*
X167115601Y-47237323D01*
X167115601Y-47237323D02*
X167020363Y-47332561D01*
X167020363Y-47332561D02*
X166925125Y-47380180D01*
X166067982Y-46380180D02*
X166067982Y-47380180D01*
X166067982Y-47380180D02*
X165829887Y-47380180D01*
X165829887Y-47380180D02*
X165687030Y-47332561D01*
X165687030Y-47332561D02*
X165591792Y-47237323D01*
X165591792Y-47237323D02*
X165544173Y-47142085D01*
X165544173Y-47142085D02*
X165496554Y-46951609D01*
X165496554Y-46951609D02*
X165496554Y-46808752D01*
X165496554Y-46808752D02*
X165544173Y-46618276D01*
X165544173Y-46618276D02*
X165591792Y-46523038D01*
X165591792Y-46523038D02*
X165687030Y-46427800D01*
X165687030Y-46427800D02*
X165829887Y-46380180D01*
X165829887Y-46380180D02*
X166067982Y-46380180D01*
D11*
X118488720Y-64734600D02*
X119631578Y-64734600D01*
X119060149Y-65306028D02*
X119060149Y-64163171D01*
X118484600Y-73761279D02*
X118484600Y-72618422D01*
X212164733Y-64941101D02*
X212164733Y-65931578D01*
X211669495Y-65436339D02*
X212659971Y-65436339D01*
X212164733Y-67541101D02*
X212164733Y-68531578D01*
X212164733Y-70141101D02*
X212164733Y-71131578D01*
X211669495Y-70636339D02*
X212659971Y-70636339D01*
X212164733Y-72741101D02*
X212164733Y-73731578D01*
D10*
X161079887Y-46903990D02*
X160937030Y-46856371D01*
X160937030Y-46856371D02*
X160889411Y-46808752D01*
X160889411Y-46808752D02*
X160841792Y-46713514D01*
X160841792Y-46713514D02*
X160841792Y-46570657D01*
X160841792Y-46570657D02*
X160889411Y-46475419D01*
X160889411Y-46475419D02*
X160937030Y-46427800D01*
X160937030Y-46427800D02*
X161032268Y-46380180D01*
X161032268Y-46380180D02*
X161413220Y-46380180D01*
X161413220Y-46380180D02*
X161413220Y-47380180D01*
X161413220Y-47380180D02*
X161079887Y-47380180D01*
X161079887Y-47380180D02*
X160984649Y-47332561D01*
X160984649Y-47332561D02*
X160937030Y-47284942D01*
X160937030Y-47284942D02*
X160889411Y-47189704D01*
X160889411Y-47189704D02*
X160889411Y-47094466D01*
X160889411Y-47094466D02*
X160937030Y-46999228D01*
X160937030Y-46999228D02*
X160984649Y-46951609D01*
X160984649Y-46951609D02*
X161079887Y-46903990D01*
X161079887Y-46903990D02*
X161413220Y-46903990D01*
X160460839Y-46665895D02*
X159984649Y-46665895D01*
X160556077Y-46380180D02*
X160222744Y-47380180D01*
X160222744Y-47380180D02*
X159889411Y-46380180D01*
X159698934Y-47380180D02*
X159127506Y-47380180D01*
X159413220Y-46380180D02*
X159413220Y-47380180D01*
X158937029Y-47380180D02*
X158365601Y-47380180D01*
X158651315Y-46380180D02*
X158651315Y-47380180D01*
X176336779Y-91369819D02*
X176336779Y-90369819D01*
X176336779Y-90369819D02*
X176670112Y-91084104D01*
X176670112Y-91084104D02*
X177003445Y-90369819D01*
X177003445Y-90369819D02*
X177003445Y-91369819D01*
X177670112Y-90369819D02*
X177860588Y-90369819D01*
X177860588Y-90369819D02*
X177955826Y-90417438D01*
X177955826Y-90417438D02*
X178051064Y-90512676D01*
X178051064Y-90512676D02*
X178098683Y-90703152D01*
X178098683Y-90703152D02*
X178098683Y-91036485D01*
X178098683Y-91036485D02*
X178051064Y-91226961D01*
X178051064Y-91226961D02*
X177955826Y-91322200D01*
X177955826Y-91322200D02*
X177860588Y-91369819D01*
X177860588Y-91369819D02*
X177670112Y-91369819D01*
X177670112Y-91369819D02*
X177574874Y-91322200D01*
X177574874Y-91322200D02*
X177479636Y-91226961D01*
X177479636Y-91226961D02*
X177432017Y-91036485D01*
X177432017Y-91036485D02*
X177432017Y-90703152D01*
X177432017Y-90703152D02*
X177479636Y-90512676D01*
X177479636Y-90512676D02*
X177574874Y-90417438D01*
X177574874Y-90417438D02*
X177670112Y-90369819D01*
X178527255Y-91369819D02*
X178527255Y-90369819D01*
X178527255Y-90369819D02*
X179098683Y-91369819D01*
X179098683Y-91369819D02*
X179098683Y-90369819D01*
X180336779Y-91369819D02*
X180336779Y-90369819D01*
X180336779Y-90369819D02*
X180717731Y-90369819D01*
X180717731Y-90369819D02*
X180812969Y-90417438D01*
X180812969Y-90417438D02*
X180860588Y-90465057D01*
X180860588Y-90465057D02*
X180908207Y-90560295D01*
X180908207Y-90560295D02*
X180908207Y-90703152D01*
X180908207Y-90703152D02*
X180860588Y-90798390D01*
X180860588Y-90798390D02*
X180812969Y-90846009D01*
X180812969Y-90846009D02*
X180717731Y-90893628D01*
X180717731Y-90893628D02*
X180336779Y-90893628D01*
X181241541Y-90369819D02*
X181479636Y-91369819D01*
X181479636Y-91369819D02*
X181670112Y-90655533D01*
X181670112Y-90655533D02*
X181860588Y-91369819D01*
X181860588Y-91369819D02*
X182098684Y-90369819D01*
X183051064Y-91369819D02*
X182717731Y-90893628D01*
X182479636Y-91369819D02*
X182479636Y-90369819D01*
X182479636Y-90369819D02*
X182860588Y-90369819D01*
X182860588Y-90369819D02*
X182955826Y-90417438D01*
X182955826Y-90417438D02*
X183003445Y-90465057D01*
X183003445Y-90465057D02*
X183051064Y-90560295D01*
X183051064Y-90560295D02*
X183051064Y-90703152D01*
X183051064Y-90703152D02*
X183003445Y-90798390D01*
X183003445Y-90798390D02*
X182955826Y-90846009D01*
X182955826Y-90846009D02*
X182860588Y-90893628D01*
X182860588Y-90893628D02*
X182479636Y-90893628D01*
D12*
X156458646Y-91367300D02*
X156565789Y-91403014D01*
X156565789Y-91403014D02*
X156744360Y-91403014D01*
X156744360Y-91403014D02*
X156815789Y-91367300D01*
X156815789Y-91367300D02*
X156851503Y-91331585D01*
X156851503Y-91331585D02*
X156887217Y-91260157D01*
X156887217Y-91260157D02*
X156887217Y-91188728D01*
X156887217Y-91188728D02*
X156851503Y-91117300D01*
X156851503Y-91117300D02*
X156815789Y-91081585D01*
X156815789Y-91081585D02*
X156744360Y-91045871D01*
X156744360Y-91045871D02*
X156601503Y-91010157D01*
X156601503Y-91010157D02*
X156530074Y-90974442D01*
X156530074Y-90974442D02*
X156494360Y-90938728D01*
X156494360Y-90938728D02*
X156458646Y-90867300D01*
X156458646Y-90867300D02*
X156458646Y-90795871D01*
X156458646Y-90795871D02*
X156494360Y-90724442D01*
X156494360Y-90724442D02*
X156530074Y-90688728D01*
X156530074Y-90688728D02*
X156601503Y-90653014D01*
X156601503Y-90653014D02*
X156780074Y-90653014D01*
X156780074Y-90653014D02*
X156887217Y-90688728D01*
X157637217Y-91331585D02*
X157601503Y-91367300D01*
X157601503Y-91367300D02*
X157494360Y-91403014D01*
X157494360Y-91403014D02*
X157422932Y-91403014D01*
X157422932Y-91403014D02*
X157315789Y-91367300D01*
X157315789Y-91367300D02*
X157244360Y-91295871D01*
X157244360Y-91295871D02*
X157208646Y-91224442D01*
X157208646Y-91224442D02*
X157172932Y-91081585D01*
X157172932Y-91081585D02*
X157172932Y-90974442D01*
X157172932Y-90974442D02*
X157208646Y-90831585D01*
X157208646Y-90831585D02*
X157244360Y-90760157D01*
X157244360Y-90760157D02*
X157315789Y-90688728D01*
X157315789Y-90688728D02*
X157422932Y-90653014D01*
X157422932Y-90653014D02*
X157494360Y-90653014D01*
X157494360Y-90653014D02*
X157601503Y-90688728D01*
X157601503Y-90688728D02*
X157637217Y-90724442D01*
X158315789Y-91403014D02*
X157958646Y-91403014D01*
X157958646Y-91403014D02*
X157958646Y-90653014D01*
X159101504Y-91367300D02*
X159208647Y-91403014D01*
X159208647Y-91403014D02*
X159387218Y-91403014D01*
X159387218Y-91403014D02*
X159458647Y-91367300D01*
X159458647Y-91367300D02*
X159494361Y-91331585D01*
X159494361Y-91331585D02*
X159530075Y-91260157D01*
X159530075Y-91260157D02*
X159530075Y-91188728D01*
X159530075Y-91188728D02*
X159494361Y-91117300D01*
X159494361Y-91117300D02*
X159458647Y-91081585D01*
X159458647Y-91081585D02*
X159387218Y-91045871D01*
X159387218Y-91045871D02*
X159244361Y-91010157D01*
X159244361Y-91010157D02*
X159172932Y-90974442D01*
X159172932Y-90974442D02*
X159137218Y-90938728D01*
X159137218Y-90938728D02*
X159101504Y-90867300D01*
X159101504Y-90867300D02*
X159101504Y-90795871D01*
X159101504Y-90795871D02*
X159137218Y-90724442D01*
X159137218Y-90724442D02*
X159172932Y-90688728D01*
X159172932Y-90688728D02*
X159244361Y-90653014D01*
X159244361Y-90653014D02*
X159422932Y-90653014D01*
X159422932Y-90653014D02*
X159530075Y-90688728D01*
X159851504Y-91403014D02*
X159851504Y-90653014D01*
X159851504Y-90653014D02*
X160030075Y-90653014D01*
X160030075Y-90653014D02*
X160137218Y-90688728D01*
X160137218Y-90688728D02*
X160208647Y-90760157D01*
X160208647Y-90760157D02*
X160244361Y-90831585D01*
X160244361Y-90831585D02*
X160280075Y-90974442D01*
X160280075Y-90974442D02*
X160280075Y-91081585D01*
X160280075Y-91081585D02*
X160244361Y-91224442D01*
X160244361Y-91224442D02*
X160208647Y-91295871D01*
X160208647Y-91295871D02*
X160137218Y-91367300D01*
X160137218Y-91367300D02*
X160030075Y-91403014D01*
X160030075Y-91403014D02*
X159851504Y-91403014D01*
X160565790Y-91188728D02*
X160922933Y-91188728D01*
X160494361Y-91403014D02*
X160744361Y-90653014D01*
X160744361Y-90653014D02*
X160994361Y-91403014D01*
X162208647Y-90688728D02*
X162137219Y-90653014D01*
X162137219Y-90653014D02*
X162030076Y-90653014D01*
X162030076Y-90653014D02*
X161922933Y-90688728D01*
X161922933Y-90688728D02*
X161851504Y-90760157D01*
X161851504Y-90760157D02*
X161815790Y-90831585D01*
X161815790Y-90831585D02*
X161780076Y-90974442D01*
X161780076Y-90974442D02*
X161780076Y-91081585D01*
X161780076Y-91081585D02*
X161815790Y-91224442D01*
X161815790Y-91224442D02*
X161851504Y-91295871D01*
X161851504Y-91295871D02*
X161922933Y-91367300D01*
X161922933Y-91367300D02*
X162030076Y-91403014D01*
X162030076Y-91403014D02*
X162101504Y-91403014D01*
X162101504Y-91403014D02*
X162208647Y-91367300D01*
X162208647Y-91367300D02*
X162244361Y-91331585D01*
X162244361Y-91331585D02*
X162244361Y-91081585D01*
X162244361Y-91081585D02*
X162101504Y-91081585D01*
X162565790Y-91403014D02*
X162565790Y-90653014D01*
X162565790Y-90653014D02*
X162994361Y-91403014D01*
X162994361Y-91403014D02*
X162994361Y-90653014D01*
X163351504Y-91403014D02*
X163351504Y-90653014D01*
X163351504Y-90653014D02*
X163530075Y-90653014D01*
X163530075Y-90653014D02*
X163637218Y-90688728D01*
X163637218Y-90688728D02*
X163708647Y-90760157D01*
X163708647Y-90760157D02*
X163744361Y-90831585D01*
X163744361Y-90831585D02*
X163780075Y-90974442D01*
X163780075Y-90974442D02*
X163780075Y-91081585D01*
X163780075Y-91081585D02*
X163744361Y-91224442D01*
X163744361Y-91224442D02*
X163708647Y-91295871D01*
X163708647Y-91295871D02*
X163637218Y-91367300D01*
X163637218Y-91367300D02*
X163530075Y-91403014D01*
X163530075Y-91403014D02*
X163351504Y-91403014D01*
X164565790Y-90653014D02*
X164815790Y-91403014D01*
X164815790Y-91403014D02*
X165065790Y-90653014D01*
X165315790Y-91117300D02*
X165887219Y-91117300D01*
X165601504Y-91403014D02*
X165601504Y-90831585D01*
D10*
X145988095Y-54706819D02*
X146559523Y-54706819D01*
X146273809Y-55706819D02*
X146273809Y-54706819D01*
X146892857Y-55706819D02*
X146892857Y-54706819D01*
X146892857Y-54706819D02*
X147273809Y-54706819D01*
X147273809Y-54706819D02*
X147369047Y-54754438D01*
X147369047Y-54754438D02*
X147416666Y-54802057D01*
X147416666Y-54802057D02*
X147464285Y-54897295D01*
X147464285Y-54897295D02*
X147464285Y-55040152D01*
X147464285Y-55040152D02*
X147416666Y-55135390D01*
X147416666Y-55135390D02*
X147369047Y-55183009D01*
X147369047Y-55183009D02*
X147273809Y-55230628D01*
X147273809Y-55230628D02*
X146892857Y-55230628D01*
X147797619Y-54706819D02*
X148416666Y-54706819D01*
X148416666Y-54706819D02*
X148083333Y-55087771D01*
X148083333Y-55087771D02*
X148226190Y-55087771D01*
X148226190Y-55087771D02*
X148321428Y-55135390D01*
X148321428Y-55135390D02*
X148369047Y-55183009D01*
X148369047Y-55183009D02*
X148416666Y-55278247D01*
X148416666Y-55278247D02*
X148416666Y-55516342D01*
X148416666Y-55516342D02*
X148369047Y-55611580D01*
X148369047Y-55611580D02*
X148321428Y-55659200D01*
X148321428Y-55659200D02*
X148226190Y-55706819D01*
X148226190Y-55706819D02*
X147940476Y-55706819D01*
X147940476Y-55706819D02*
X147845238Y-55659200D01*
X147845238Y-55659200D02*
X147797619Y-55611580D01*
X185690331Y-90286921D02*
X185000384Y-90471792D01*
X185000384Y-90471792D02*
X184850070Y-90462769D01*
X184850070Y-90462769D02*
X184733427Y-90395426D01*
X184733427Y-90395426D02*
X184650457Y-90269761D01*
X184650457Y-90269761D02*
X184625807Y-90177768D01*
X185602525Y-91247127D02*
X184958575Y-91419673D01*
X185908873Y-90918547D02*
X185157303Y-90873435D01*
X185157303Y-90873435D02*
X185317524Y-91471389D01*
X162104817Y-50238094D02*
X161104817Y-50238094D01*
X161104817Y-50238094D02*
X161104817Y-49999999D01*
X161104817Y-49999999D02*
X161152436Y-49857142D01*
X161152436Y-49857142D02*
X161247674Y-49761904D01*
X161247674Y-49761904D02*
X161342912Y-49714285D01*
X161342912Y-49714285D02*
X161533388Y-49666666D01*
X161533388Y-49666666D02*
X161676245Y-49666666D01*
X161676245Y-49666666D02*
X161866721Y-49714285D01*
X161866721Y-49714285D02*
X161961959Y-49761904D01*
X161961959Y-49761904D02*
X162057198Y-49857142D01*
X162057198Y-49857142D02*
X162104817Y-49999999D01*
X162104817Y-49999999D02*
X162104817Y-50238094D01*
X161200055Y-49285713D02*
X161152436Y-49238094D01*
X161152436Y-49238094D02*
X161104817Y-49142856D01*
X161104817Y-49142856D02*
X161104817Y-48904761D01*
X161104817Y-48904761D02*
X161152436Y-48809523D01*
X161152436Y-48809523D02*
X161200055Y-48761904D01*
X161200055Y-48761904D02*
X161295293Y-48714285D01*
X161295293Y-48714285D02*
X161390531Y-48714285D01*
X161390531Y-48714285D02*
X161533388Y-48761904D01*
X161533388Y-48761904D02*
X162104817Y-49333332D01*
X162104817Y-49333332D02*
X162104817Y-48714285D01*
X154087833Y-62454819D02*
X153611643Y-62454819D01*
X153611643Y-62454819D02*
X153611643Y-61454819D01*
X154944976Y-62454819D02*
X154373548Y-62454819D01*
X154659262Y-62454819D02*
X154659262Y-61454819D01*
X154659262Y-61454819D02*
X154564024Y-61597676D01*
X154564024Y-61597676D02*
X154468786Y-61692914D01*
X154468786Y-61692914D02*
X154373548Y-61740533D01*
X142509580Y-61166666D02*
X142557200Y-61214285D01*
X142557200Y-61214285D02*
X142604819Y-61357142D01*
X142604819Y-61357142D02*
X142604819Y-61452380D01*
X142604819Y-61452380D02*
X142557200Y-61595237D01*
X142557200Y-61595237D02*
X142461961Y-61690475D01*
X142461961Y-61690475D02*
X142366723Y-61738094D01*
X142366723Y-61738094D02*
X142176247Y-61785713D01*
X142176247Y-61785713D02*
X142033390Y-61785713D01*
X142033390Y-61785713D02*
X141842914Y-61738094D01*
X141842914Y-61738094D02*
X141747676Y-61690475D01*
X141747676Y-61690475D02*
X141652438Y-61595237D01*
X141652438Y-61595237D02*
X141604819Y-61452380D01*
X141604819Y-61452380D02*
X141604819Y-61357142D01*
X141604819Y-61357142D02*
X141652438Y-61214285D01*
X141652438Y-61214285D02*
X141700057Y-61166666D01*
X141938152Y-60309523D02*
X142604819Y-60309523D01*
X141557200Y-60547618D02*
X142271485Y-60785713D01*
X142271485Y-60785713D02*
X142271485Y-60166666D01*
X138954819Y-61166666D02*
X138478628Y-61499999D01*
X138954819Y-61738094D02*
X137954819Y-61738094D01*
X137954819Y-61738094D02*
X137954819Y-61357142D01*
X137954819Y-61357142D02*
X138002438Y-61261904D01*
X138002438Y-61261904D02*
X138050057Y-61214285D01*
X138050057Y-61214285D02*
X138145295Y-61166666D01*
X138145295Y-61166666D02*
X138288152Y-61166666D01*
X138288152Y-61166666D02*
X138383390Y-61214285D01*
X138383390Y-61214285D02*
X138431009Y-61261904D01*
X138431009Y-61261904D02*
X138478628Y-61357142D01*
X138478628Y-61357142D02*
X138478628Y-61738094D01*
X138050057Y-60785713D02*
X138002438Y-60738094D01*
X138002438Y-60738094D02*
X137954819Y-60642856D01*
X137954819Y-60642856D02*
X137954819Y-60404761D01*
X137954819Y-60404761D02*
X138002438Y-60309523D01*
X138002438Y-60309523D02*
X138050057Y-60261904D01*
X138050057Y-60261904D02*
X138145295Y-60214285D01*
X138145295Y-60214285D02*
X138240533Y-60214285D01*
X138240533Y-60214285D02*
X138383390Y-60261904D01*
X138383390Y-60261904D02*
X138954819Y-60833332D01*
X138954819Y-60833332D02*
X138954819Y-60214285D01*
X202378796Y-49850201D02*
X202883872Y-50355277D01*
X202883872Y-50355277D02*
X202951216Y-50489964D01*
X202951216Y-50489964D02*
X202951216Y-50624651D01*
X202951216Y-50624651D02*
X202883872Y-50759338D01*
X202883872Y-50759338D02*
X202816529Y-50826682D01*
X202648170Y-49580827D02*
X203085903Y-49143094D01*
X203085903Y-49143094D02*
X203119575Y-49648170D01*
X203119575Y-49648170D02*
X203220590Y-49547155D01*
X203220590Y-49547155D02*
X203321605Y-49513483D01*
X203321605Y-49513483D02*
X203388949Y-49513483D01*
X203388949Y-49513483D02*
X203489964Y-49547155D01*
X203489964Y-49547155D02*
X203658323Y-49715514D01*
X203658323Y-49715514D02*
X203691994Y-49816529D01*
X203691994Y-49816529D02*
X203691994Y-49883872D01*
X203691994Y-49883872D02*
X203658323Y-49984888D01*
X203658323Y-49984888D02*
X203456292Y-50186918D01*
X203456292Y-50186918D02*
X203355277Y-50220590D01*
X203355277Y-50220590D02*
X203287933Y-50220590D01*
X176452142Y-66659819D02*
X176118809Y-66183628D01*
X175880714Y-66659819D02*
X175880714Y-65659819D01*
X175880714Y-65659819D02*
X176261666Y-65659819D01*
X176261666Y-65659819D02*
X176356904Y-65707438D01*
X176356904Y-65707438D02*
X176404523Y-65755057D01*
X176404523Y-65755057D02*
X176452142Y-65850295D01*
X176452142Y-65850295D02*
X176452142Y-65993152D01*
X176452142Y-65993152D02*
X176404523Y-66088390D01*
X176404523Y-66088390D02*
X176356904Y-66136009D01*
X176356904Y-66136009D02*
X176261666Y-66183628D01*
X176261666Y-66183628D02*
X175880714Y-66183628D01*
X177404523Y-66659819D02*
X176833095Y-66659819D01*
X177118809Y-66659819D02*
X177118809Y-65659819D01*
X177118809Y-65659819D02*
X177023571Y-65802676D01*
X177023571Y-65802676D02*
X176928333Y-65897914D01*
X176928333Y-65897914D02*
X176833095Y-65945533D01*
X178023571Y-65659819D02*
X178118809Y-65659819D01*
X178118809Y-65659819D02*
X178214047Y-65707438D01*
X178214047Y-65707438D02*
X178261666Y-65755057D01*
X178261666Y-65755057D02*
X178309285Y-65850295D01*
X178309285Y-65850295D02*
X178356904Y-66040771D01*
X178356904Y-66040771D02*
X178356904Y-66278866D01*
X178356904Y-66278866D02*
X178309285Y-66469342D01*
X178309285Y-66469342D02*
X178261666Y-66564580D01*
X178261666Y-66564580D02*
X178214047Y-66612200D01*
X178214047Y-66612200D02*
X178118809Y-66659819D01*
X178118809Y-66659819D02*
X178023571Y-66659819D01*
X178023571Y-66659819D02*
X177928333Y-66612200D01*
X177928333Y-66612200D02*
X177880714Y-66564580D01*
X177880714Y-66564580D02*
X177833095Y-66469342D01*
X177833095Y-66469342D02*
X177785476Y-66278866D01*
X177785476Y-66278866D02*
X177785476Y-66040771D01*
X177785476Y-66040771D02*
X177833095Y-65850295D01*
X177833095Y-65850295D02*
X177880714Y-65755057D01*
X177880714Y-65755057D02*
X177928333Y-65707438D01*
X177928333Y-65707438D02*
X178023571Y-65659819D01*
X209166666Y-75454819D02*
X209166666Y-76169104D01*
X209166666Y-76169104D02*
X209119047Y-76311961D01*
X209119047Y-76311961D02*
X209023809Y-76407200D01*
X209023809Y-76407200D02*
X208880952Y-76454819D01*
X208880952Y-76454819D02*
X208785714Y-76454819D01*
X210071428Y-75454819D02*
X209880952Y-75454819D01*
X209880952Y-75454819D02*
X209785714Y-75502438D01*
X209785714Y-75502438D02*
X209738095Y-75550057D01*
X209738095Y-75550057D02*
X209642857Y-75692914D01*
X209642857Y-75692914D02*
X209595238Y-75883390D01*
X209595238Y-75883390D02*
X209595238Y-76264342D01*
X209595238Y-76264342D02*
X209642857Y-76359580D01*
X209642857Y-76359580D02*
X209690476Y-76407200D01*
X209690476Y-76407200D02*
X209785714Y-76454819D01*
X209785714Y-76454819D02*
X209976190Y-76454819D01*
X209976190Y-76454819D02*
X210071428Y-76407200D01*
X210071428Y-76407200D02*
X210119047Y-76359580D01*
X210119047Y-76359580D02*
X210166666Y-76264342D01*
X210166666Y-76264342D02*
X210166666Y-76026247D01*
X210166666Y-76026247D02*
X210119047Y-75931009D01*
X210119047Y-75931009D02*
X210071428Y-75883390D01*
X210071428Y-75883390D02*
X209976190Y-75835771D01*
X209976190Y-75835771D02*
X209785714Y-75835771D01*
X209785714Y-75835771D02*
X209690476Y-75883390D01*
X209690476Y-75883390D02*
X209642857Y-75931009D01*
X209642857Y-75931009D02*
X209595238Y-76026247D01*
X123416666Y-64454819D02*
X123416666Y-65169104D01*
X123416666Y-65169104D02*
X123369047Y-65311961D01*
X123369047Y-65311961D02*
X123273809Y-65407200D01*
X123273809Y-65407200D02*
X123130952Y-65454819D01*
X123130952Y-65454819D02*
X123035714Y-65454819D01*
X124416666Y-65454819D02*
X123845238Y-65454819D01*
X124130952Y-65454819D02*
X124130952Y-64454819D01*
X124130952Y-64454819D02*
X124035714Y-64597676D01*
X124035714Y-64597676D02*
X123940476Y-64692914D01*
X123940476Y-64692914D02*
X123845238Y-64740533D01*
X168554819Y-88142858D02*
X168078628Y-88476191D01*
X168554819Y-88714286D02*
X167554819Y-88714286D01*
X167554819Y-88714286D02*
X167554819Y-88333334D01*
X167554819Y-88333334D02*
X167602438Y-88238096D01*
X167602438Y-88238096D02*
X167650057Y-88190477D01*
X167650057Y-88190477D02*
X167745295Y-88142858D01*
X167745295Y-88142858D02*
X167888152Y-88142858D01*
X167888152Y-88142858D02*
X167983390Y-88190477D01*
X167983390Y-88190477D02*
X168031009Y-88238096D01*
X168031009Y-88238096D02*
X168078628Y-88333334D01*
X168078628Y-88333334D02*
X168078628Y-88714286D01*
X168554819Y-87190477D02*
X168554819Y-87761905D01*
X168554819Y-87476191D02*
X167554819Y-87476191D01*
X167554819Y-87476191D02*
X167697676Y-87571429D01*
X167697676Y-87571429D02*
X167792914Y-87666667D01*
X167792914Y-87666667D02*
X167840533Y-87761905D01*
X167650057Y-86809524D02*
X167602438Y-86761905D01*
X167602438Y-86761905D02*
X167554819Y-86666667D01*
X167554819Y-86666667D02*
X167554819Y-86428572D01*
X167554819Y-86428572D02*
X167602438Y-86333334D01*
X167602438Y-86333334D02*
X167650057Y-86285715D01*
X167650057Y-86285715D02*
X167745295Y-86238096D01*
X167745295Y-86238096D02*
X167840533Y-86238096D01*
X167840533Y-86238096D02*
X167983390Y-86285715D01*
X167983390Y-86285715D02*
X168554819Y-86857143D01*
X168554819Y-86857143D02*
X168554819Y-86238096D01*
X125554819Y-84511904D02*
X126364342Y-84511904D01*
X126364342Y-84511904D02*
X126459580Y-84464285D01*
X126459580Y-84464285D02*
X126507200Y-84416666D01*
X126507200Y-84416666D02*
X126554819Y-84321428D01*
X126554819Y-84321428D02*
X126554819Y-84130952D01*
X126554819Y-84130952D02*
X126507200Y-84035714D01*
X126507200Y-84035714D02*
X126459580Y-83988095D01*
X126459580Y-83988095D02*
X126364342Y-83940476D01*
X126364342Y-83940476D02*
X125554819Y-83940476D01*
X125650057Y-83511904D02*
X125602438Y-83464285D01*
X125602438Y-83464285D02*
X125554819Y-83369047D01*
X125554819Y-83369047D02*
X125554819Y-83130952D01*
X125554819Y-83130952D02*
X125602438Y-83035714D01*
X125602438Y-83035714D02*
X125650057Y-82988095D01*
X125650057Y-82988095D02*
X125745295Y-82940476D01*
X125745295Y-82940476D02*
X125840533Y-82940476D01*
X125840533Y-82940476D02*
X125983390Y-82988095D01*
X125983390Y-82988095D02*
X126554819Y-83559523D01*
X126554819Y-83559523D02*
X126554819Y-82940476D01*
X144238095Y-64454819D02*
X144238095Y-65264342D01*
X144238095Y-65264342D02*
X144285714Y-65359580D01*
X144285714Y-65359580D02*
X144333333Y-65407200D01*
X144333333Y-65407200D02*
X144428571Y-65454819D01*
X144428571Y-65454819D02*
X144619047Y-65454819D01*
X144619047Y-65454819D02*
X144714285Y-65407200D01*
X144714285Y-65407200D02*
X144761904Y-65359580D01*
X144761904Y-65359580D02*
X144809523Y-65264342D01*
X144809523Y-65264342D02*
X144809523Y-64454819D01*
X145809523Y-65454819D02*
X145238095Y-65454819D01*
X145523809Y-65454819D02*
X145523809Y-64454819D01*
X145523809Y-64454819D02*
X145428571Y-64597676D01*
X145428571Y-64597676D02*
X145333333Y-64692914D01*
X145333333Y-64692914D02*
X145238095Y-64740533D01*
X142760199Y-66954693D02*
X142760199Y-67192788D01*
X142522104Y-67097550D02*
X142760199Y-67192788D01*
X142760199Y-67192788D02*
X142998294Y-67097550D01*
X142617342Y-67383264D02*
X142760199Y-67192788D01*
X142760199Y-67192788D02*
X142903056Y-67383264D01*
X142760199Y-66954693D02*
X142760199Y-67192788D01*
X142522104Y-67097550D02*
X142760199Y-67192788D01*
X142760199Y-67192788D02*
X142998294Y-67097550D01*
X142617342Y-67383264D02*
X142760199Y-67192788D01*
X142760199Y-67192788D02*
X142903056Y-67383264D01*
X148833333Y-59009580D02*
X148785714Y-59057200D01*
X148785714Y-59057200D02*
X148642857Y-59104819D01*
X148642857Y-59104819D02*
X148547619Y-59104819D01*
X148547619Y-59104819D02*
X148404762Y-59057200D01*
X148404762Y-59057200D02*
X148309524Y-58961961D01*
X148309524Y-58961961D02*
X148261905Y-58866723D01*
X148261905Y-58866723D02*
X148214286Y-58676247D01*
X148214286Y-58676247D02*
X148214286Y-58533390D01*
X148214286Y-58533390D02*
X148261905Y-58342914D01*
X148261905Y-58342914D02*
X148309524Y-58247676D01*
X148309524Y-58247676D02*
X148404762Y-58152438D01*
X148404762Y-58152438D02*
X148547619Y-58104819D01*
X148547619Y-58104819D02*
X148642857Y-58104819D01*
X148642857Y-58104819D02*
X148785714Y-58152438D01*
X148785714Y-58152438D02*
X148833333Y-58200057D01*
X149166667Y-58104819D02*
X149833333Y-58104819D01*
X149833333Y-58104819D02*
X149404762Y-59104819D01*
X160666666Y-85704819D02*
X160666666Y-86419104D01*
X160666666Y-86419104D02*
X160619047Y-86561961D01*
X160619047Y-86561961D02*
X160523809Y-86657200D01*
X160523809Y-86657200D02*
X160380952Y-86704819D01*
X160380952Y-86704819D02*
X160285714Y-86704819D01*
X161047619Y-85704819D02*
X161714285Y-85704819D01*
X161714285Y-85704819D02*
X161285714Y-86704819D01*
X161043707Y-60321605D02*
X161010035Y-60220590D01*
X161010035Y-60220590D02*
X161010035Y-60085903D01*
X161010035Y-60085903D02*
X161010035Y-59883872D01*
X161010035Y-59883872D02*
X160976363Y-59782857D01*
X160976363Y-59782857D02*
X160909020Y-59715514D01*
X160774333Y-59917544D02*
X160740661Y-59816529D01*
X160740661Y-59816529D02*
X160740661Y-59681842D01*
X160740661Y-59681842D02*
X160841676Y-59513483D01*
X160841676Y-59513483D02*
X161077379Y-59277781D01*
X161077379Y-59277781D02*
X161245737Y-59176766D01*
X161245737Y-59176766D02*
X161380424Y-59176766D01*
X161380424Y-59176766D02*
X161481440Y-59210437D01*
X161481440Y-59210437D02*
X161616127Y-59345124D01*
X161616127Y-59345124D02*
X161649798Y-59446140D01*
X161649798Y-59446140D02*
X161649798Y-59580827D01*
X161649798Y-59580827D02*
X161548783Y-59749185D01*
X161548783Y-59749185D02*
X161313081Y-59984888D01*
X161313081Y-59984888D02*
X161144722Y-60085903D01*
X161144722Y-60085903D02*
X161010035Y-60085903D01*
X161010035Y-60085903D02*
X160909020Y-60052231D01*
X160909020Y-60052231D02*
X160774333Y-59917544D01*
X161750814Y-60894025D02*
X161346753Y-60489964D01*
X161548783Y-60691994D02*
X162255890Y-59984888D01*
X162255890Y-59984888D02*
X162087531Y-60018559D01*
X162087531Y-60018559D02*
X161952844Y-60018559D01*
X161952844Y-60018559D02*
X161851829Y-59984888D01*
X130738095Y-62456819D02*
X131309523Y-62456819D01*
X131023809Y-63456819D02*
X131023809Y-62456819D01*
X131642857Y-63456819D02*
X131642857Y-62456819D01*
X131642857Y-62456819D02*
X132023809Y-62456819D01*
X132023809Y-62456819D02*
X132119047Y-62504438D01*
X132119047Y-62504438D02*
X132166666Y-62552057D01*
X132166666Y-62552057D02*
X132214285Y-62647295D01*
X132214285Y-62647295D02*
X132214285Y-62790152D01*
X132214285Y-62790152D02*
X132166666Y-62885390D01*
X132166666Y-62885390D02*
X132119047Y-62933009D01*
X132119047Y-62933009D02*
X132023809Y-62980628D01*
X132023809Y-62980628D02*
X131642857Y-62980628D01*
X132595238Y-62552057D02*
X132642857Y-62504438D01*
X132642857Y-62504438D02*
X132738095Y-62456819D01*
X132738095Y-62456819D02*
X132976190Y-62456819D01*
X132976190Y-62456819D02*
X133071428Y-62504438D01*
X133071428Y-62504438D02*
X133119047Y-62552057D01*
X133119047Y-62552057D02*
X133166666Y-62647295D01*
X133166666Y-62647295D02*
X133166666Y-62742533D01*
X133166666Y-62742533D02*
X133119047Y-62885390D01*
X133119047Y-62885390D02*
X132547619Y-63456819D01*
X132547619Y-63456819D02*
X133166666Y-63456819D01*
X152709580Y-79666666D02*
X152757200Y-79714285D01*
X152757200Y-79714285D02*
X152804819Y-79857142D01*
X152804819Y-79857142D02*
X152804819Y-79952380D01*
X152804819Y-79952380D02*
X152757200Y-80095237D01*
X152757200Y-80095237D02*
X152661961Y-80190475D01*
X152661961Y-80190475D02*
X152566723Y-80238094D01*
X152566723Y-80238094D02*
X152376247Y-80285713D01*
X152376247Y-80285713D02*
X152233390Y-80285713D01*
X152233390Y-80285713D02*
X152042914Y-80238094D01*
X152042914Y-80238094D02*
X151947676Y-80190475D01*
X151947676Y-80190475D02*
X151852438Y-80095237D01*
X151852438Y-80095237D02*
X151804819Y-79952380D01*
X151804819Y-79952380D02*
X151804819Y-79857142D01*
X151804819Y-79857142D02*
X151852438Y-79714285D01*
X151852438Y-79714285D02*
X151900057Y-79666666D01*
X151804819Y-78809523D02*
X151804819Y-78999999D01*
X151804819Y-78999999D02*
X151852438Y-79095237D01*
X151852438Y-79095237D02*
X151900057Y-79142856D01*
X151900057Y-79142856D02*
X152042914Y-79238094D01*
X152042914Y-79238094D02*
X152233390Y-79285713D01*
X152233390Y-79285713D02*
X152614342Y-79285713D01*
X152614342Y-79285713D02*
X152709580Y-79238094D01*
X152709580Y-79238094D02*
X152757200Y-79190475D01*
X152757200Y-79190475D02*
X152804819Y-79095237D01*
X152804819Y-79095237D02*
X152804819Y-78904761D01*
X152804819Y-78904761D02*
X152757200Y-78809523D01*
X152757200Y-78809523D02*
X152709580Y-78761904D01*
X152709580Y-78761904D02*
X152614342Y-78714285D01*
X152614342Y-78714285D02*
X152376247Y-78714285D01*
X152376247Y-78714285D02*
X152281009Y-78761904D01*
X152281009Y-78761904D02*
X152233390Y-78809523D01*
X152233390Y-78809523D02*
X152185771Y-78904761D01*
X152185771Y-78904761D02*
X152185771Y-79095237D01*
X152185771Y-79095237D02*
X152233390Y-79190475D01*
X152233390Y-79190475D02*
X152281009Y-79238094D01*
X152281009Y-79238094D02*
X152376247Y-79285713D01*
X168357142Y-66859580D02*
X168309523Y-66907200D01*
X168309523Y-66907200D02*
X168166666Y-66954819D01*
X168166666Y-66954819D02*
X168071428Y-66954819D01*
X168071428Y-66954819D02*
X167928571Y-66907200D01*
X167928571Y-66907200D02*
X167833333Y-66811961D01*
X167833333Y-66811961D02*
X167785714Y-66716723D01*
X167785714Y-66716723D02*
X167738095Y-66526247D01*
X167738095Y-66526247D02*
X167738095Y-66383390D01*
X167738095Y-66383390D02*
X167785714Y-66192914D01*
X167785714Y-66192914D02*
X167833333Y-66097676D01*
X167833333Y-66097676D02*
X167928571Y-66002438D01*
X167928571Y-66002438D02*
X168071428Y-65954819D01*
X168071428Y-65954819D02*
X168166666Y-65954819D01*
X168166666Y-65954819D02*
X168309523Y-66002438D01*
X168309523Y-66002438D02*
X168357142Y-66050057D01*
X169309523Y-66954819D02*
X168738095Y-66954819D01*
X169023809Y-66954819D02*
X169023809Y-65954819D01*
X169023809Y-65954819D02*
X168928571Y-66097676D01*
X168928571Y-66097676D02*
X168833333Y-66192914D01*
X168833333Y-66192914D02*
X168738095Y-66240533D01*
X169928571Y-65954819D02*
X170023809Y-65954819D01*
X170023809Y-65954819D02*
X170119047Y-66002438D01*
X170119047Y-66002438D02*
X170166666Y-66050057D01*
X170166666Y-66050057D02*
X170214285Y-66145295D01*
X170214285Y-66145295D02*
X170261904Y-66335771D01*
X170261904Y-66335771D02*
X170261904Y-66573866D01*
X170261904Y-66573866D02*
X170214285Y-66764342D01*
X170214285Y-66764342D02*
X170166666Y-66859580D01*
X170166666Y-66859580D02*
X170119047Y-66907200D01*
X170119047Y-66907200D02*
X170023809Y-66954819D01*
X170023809Y-66954819D02*
X169928571Y-66954819D01*
X169928571Y-66954819D02*
X169833333Y-66907200D01*
X169833333Y-66907200D02*
X169785714Y-66859580D01*
X169785714Y-66859580D02*
X169738095Y-66764342D01*
X169738095Y-66764342D02*
X169690476Y-66573866D01*
X169690476Y-66573866D02*
X169690476Y-66335771D01*
X169690476Y-66335771D02*
X169738095Y-66145295D01*
X169738095Y-66145295D02*
X169785714Y-66050057D01*
X169785714Y-66050057D02*
X169833333Y-66002438D01*
X169833333Y-66002438D02*
X169928571Y-65954819D01*
X142609580Y-76166666D02*
X142657200Y-76214285D01*
X142657200Y-76214285D02*
X142704819Y-76357142D01*
X142704819Y-76357142D02*
X142704819Y-76452380D01*
X142704819Y-76452380D02*
X142657200Y-76595237D01*
X142657200Y-76595237D02*
X142561961Y-76690475D01*
X142561961Y-76690475D02*
X142466723Y-76738094D01*
X142466723Y-76738094D02*
X142276247Y-76785713D01*
X142276247Y-76785713D02*
X142133390Y-76785713D01*
X142133390Y-76785713D02*
X141942914Y-76738094D01*
X141942914Y-76738094D02*
X141847676Y-76690475D01*
X141847676Y-76690475D02*
X141752438Y-76595237D01*
X141752438Y-76595237D02*
X141704819Y-76452380D01*
X141704819Y-76452380D02*
X141704819Y-76357142D01*
X141704819Y-76357142D02*
X141752438Y-76214285D01*
X141752438Y-76214285D02*
X141800057Y-76166666D01*
X141704819Y-75261904D02*
X141704819Y-75738094D01*
X141704819Y-75738094D02*
X142181009Y-75785713D01*
X142181009Y-75785713D02*
X142133390Y-75738094D01*
X142133390Y-75738094D02*
X142085771Y-75642856D01*
X142085771Y-75642856D02*
X142085771Y-75404761D01*
X142085771Y-75404761D02*
X142133390Y-75309523D01*
X142133390Y-75309523D02*
X142181009Y-75261904D01*
X142181009Y-75261904D02*
X142276247Y-75214285D01*
X142276247Y-75214285D02*
X142514342Y-75214285D01*
X142514342Y-75214285D02*
X142609580Y-75261904D01*
X142609580Y-75261904D02*
X142657200Y-75309523D01*
X142657200Y-75309523D02*
X142704819Y-75404761D01*
X142704819Y-75404761D02*
X142704819Y-75642856D01*
X142704819Y-75642856D02*
X142657200Y-75738094D01*
X142657200Y-75738094D02*
X142609580Y-75785713D01*
X148333333Y-74134819D02*
X148000000Y-73658628D01*
X147761905Y-74134819D02*
X147761905Y-73134819D01*
X147761905Y-73134819D02*
X148142857Y-73134819D01*
X148142857Y-73134819D02*
X148238095Y-73182438D01*
X148238095Y-73182438D02*
X148285714Y-73230057D01*
X148285714Y-73230057D02*
X148333333Y-73325295D01*
X148333333Y-73325295D02*
X148333333Y-73468152D01*
X148333333Y-73468152D02*
X148285714Y-73563390D01*
X148285714Y-73563390D02*
X148238095Y-73611009D01*
X148238095Y-73611009D02*
X148142857Y-73658628D01*
X148142857Y-73658628D02*
X147761905Y-73658628D01*
X149190476Y-73468152D02*
X149190476Y-74134819D01*
X148952381Y-73087200D02*
X148714286Y-73801485D01*
X148714286Y-73801485D02*
X149333333Y-73801485D01*
X173649819Y-83736904D02*
X174459342Y-83736904D01*
X174459342Y-83736904D02*
X174554580Y-83689285D01*
X174554580Y-83689285D02*
X174602200Y-83641666D01*
X174602200Y-83641666D02*
X174649819Y-83546428D01*
X174649819Y-83546428D02*
X174649819Y-83355952D01*
X174649819Y-83355952D02*
X174602200Y-83260714D01*
X174602200Y-83260714D02*
X174554580Y-83213095D01*
X174554580Y-83213095D02*
X174459342Y-83165476D01*
X174459342Y-83165476D02*
X173649819Y-83165476D01*
X173649819Y-82784523D02*
X173649819Y-82165476D01*
X173649819Y-82165476D02*
X174030771Y-82498809D01*
X174030771Y-82498809D02*
X174030771Y-82355952D01*
X174030771Y-82355952D02*
X174078390Y-82260714D01*
X174078390Y-82260714D02*
X174126009Y-82213095D01*
X174126009Y-82213095D02*
X174221247Y-82165476D01*
X174221247Y-82165476D02*
X174459342Y-82165476D01*
X174459342Y-82165476D02*
X174554580Y-82213095D01*
X174554580Y-82213095D02*
X174602200Y-82260714D01*
X174602200Y-82260714D02*
X174649819Y-82355952D01*
X174649819Y-82355952D02*
X174649819Y-82641666D01*
X174649819Y-82641666D02*
X174602200Y-82736904D01*
X174602200Y-82736904D02*
X174554580Y-82784523D01*
X182166666Y-86204819D02*
X182166666Y-86919104D01*
X182166666Y-86919104D02*
X182119047Y-87061961D01*
X182119047Y-87061961D02*
X182023809Y-87157200D01*
X182023809Y-87157200D02*
X181880952Y-87204819D01*
X181880952Y-87204819D02*
X181785714Y-87204819D01*
X182642857Y-87204819D02*
X182642857Y-86204819D01*
X182642857Y-86204819D02*
X183023809Y-86204819D01*
X183023809Y-86204819D02*
X183119047Y-86252438D01*
X183119047Y-86252438D02*
X183166666Y-86300057D01*
X183166666Y-86300057D02*
X183214285Y-86395295D01*
X183214285Y-86395295D02*
X183214285Y-86538152D01*
X183214285Y-86538152D02*
X183166666Y-86633390D01*
X183166666Y-86633390D02*
X183119047Y-86681009D01*
X183119047Y-86681009D02*
X183023809Y-86728628D01*
X183023809Y-86728628D02*
X182642857Y-86728628D01*
X184166666Y-87204819D02*
X183595238Y-87204819D01*
X183880952Y-87204819D02*
X183880952Y-86204819D01*
X183880952Y-86204819D02*
X183785714Y-86347676D01*
X183785714Y-86347676D02*
X183690476Y-86442914D01*
X183690476Y-86442914D02*
X183595238Y-86490533D01*
X135709580Y-69166666D02*
X135757200Y-69214285D01*
X135757200Y-69214285D02*
X135804819Y-69357142D01*
X135804819Y-69357142D02*
X135804819Y-69452380D01*
X135804819Y-69452380D02*
X135757200Y-69595237D01*
X135757200Y-69595237D02*
X135661961Y-69690475D01*
X135661961Y-69690475D02*
X135566723Y-69738094D01*
X135566723Y-69738094D02*
X135376247Y-69785713D01*
X135376247Y-69785713D02*
X135233390Y-69785713D01*
X135233390Y-69785713D02*
X135042914Y-69738094D01*
X135042914Y-69738094D02*
X134947676Y-69690475D01*
X134947676Y-69690475D02*
X134852438Y-69595237D01*
X134852438Y-69595237D02*
X134804819Y-69452380D01*
X134804819Y-69452380D02*
X134804819Y-69357142D01*
X134804819Y-69357142D02*
X134852438Y-69214285D01*
X134852438Y-69214285D02*
X134900057Y-69166666D01*
X135804819Y-68214285D02*
X135804819Y-68785713D01*
X135804819Y-68499999D02*
X134804819Y-68499999D01*
X134804819Y-68499999D02*
X134947676Y-68595237D01*
X134947676Y-68595237D02*
X135042914Y-68690475D01*
X135042914Y-68690475D02*
X135090533Y-68785713D01*
X122488095Y-77456819D02*
X123059523Y-77456819D01*
X122773809Y-78456819D02*
X122773809Y-77456819D01*
X123392857Y-78456819D02*
X123392857Y-77456819D01*
X123392857Y-77456819D02*
X123773809Y-77456819D01*
X123773809Y-77456819D02*
X123869047Y-77504438D01*
X123869047Y-77504438D02*
X123916666Y-77552057D01*
X123916666Y-77552057D02*
X123964285Y-77647295D01*
X123964285Y-77647295D02*
X123964285Y-77790152D01*
X123964285Y-77790152D02*
X123916666Y-77885390D01*
X123916666Y-77885390D02*
X123869047Y-77933009D01*
X123869047Y-77933009D02*
X123773809Y-77980628D01*
X123773809Y-77980628D02*
X123392857Y-77980628D01*
X124916666Y-78456819D02*
X124345238Y-78456819D01*
X124630952Y-78456819D02*
X124630952Y-77456819D01*
X124630952Y-77456819D02*
X124535714Y-77599676D01*
X124535714Y-77599676D02*
X124440476Y-77694914D01*
X124440476Y-77694914D02*
X124345238Y-77742533D01*
X180954819Y-74392857D02*
X180478628Y-74726190D01*
X180954819Y-74964285D02*
X179954819Y-74964285D01*
X179954819Y-74964285D02*
X179954819Y-74583333D01*
X179954819Y-74583333D02*
X180002438Y-74488095D01*
X180002438Y-74488095D02*
X180050057Y-74440476D01*
X180050057Y-74440476D02*
X180145295Y-74392857D01*
X180145295Y-74392857D02*
X180288152Y-74392857D01*
X180288152Y-74392857D02*
X180383390Y-74440476D01*
X180383390Y-74440476D02*
X180431009Y-74488095D01*
X180431009Y-74488095D02*
X180478628Y-74583333D01*
X180478628Y-74583333D02*
X180478628Y-74964285D01*
X180954819Y-73440476D02*
X180954819Y-74011904D01*
X180954819Y-73726190D02*
X179954819Y-73726190D01*
X179954819Y-73726190D02*
X180097676Y-73821428D01*
X180097676Y-73821428D02*
X180192914Y-73916666D01*
X180192914Y-73916666D02*
X180240533Y-74011904D01*
X179954819Y-72583333D02*
X179954819Y-72773809D01*
X179954819Y-72773809D02*
X180002438Y-72869047D01*
X180002438Y-72869047D02*
X180050057Y-72916666D01*
X180050057Y-72916666D02*
X180192914Y-73011904D01*
X180192914Y-73011904D02*
X180383390Y-73059523D01*
X180383390Y-73059523D02*
X180764342Y-73059523D01*
X180764342Y-73059523D02*
X180859580Y-73011904D01*
X180859580Y-73011904D02*
X180907200Y-72964285D01*
X180907200Y-72964285D02*
X180954819Y-72869047D01*
X180954819Y-72869047D02*
X180954819Y-72678571D01*
X180954819Y-72678571D02*
X180907200Y-72583333D01*
X180907200Y-72583333D02*
X180859580Y-72535714D01*
X180859580Y-72535714D02*
X180764342Y-72488095D01*
X180764342Y-72488095D02*
X180526247Y-72488095D01*
X180526247Y-72488095D02*
X180431009Y-72535714D01*
X180431009Y-72535714D02*
X180383390Y-72583333D01*
X180383390Y-72583333D02*
X180335771Y-72678571D01*
X180335771Y-72678571D02*
X180335771Y-72869047D01*
X180335771Y-72869047D02*
X180383390Y-72964285D01*
X180383390Y-72964285D02*
X180431009Y-73011904D01*
X180431009Y-73011904D02*
X180526247Y-73059523D01*
X170738095Y-52706819D02*
X171309523Y-52706819D01*
X171023809Y-53706819D02*
X171023809Y-52706819D01*
X171642857Y-53706819D02*
X171642857Y-52706819D01*
X171642857Y-52706819D02*
X172023809Y-52706819D01*
X172023809Y-52706819D02*
X172119047Y-52754438D01*
X172119047Y-52754438D02*
X172166666Y-52802057D01*
X172166666Y-52802057D02*
X172214285Y-52897295D01*
X172214285Y-52897295D02*
X172214285Y-53040152D01*
X172214285Y-53040152D02*
X172166666Y-53135390D01*
X172166666Y-53135390D02*
X172119047Y-53183009D01*
X172119047Y-53183009D02*
X172023809Y-53230628D01*
X172023809Y-53230628D02*
X171642857Y-53230628D01*
X172547619Y-52706819D02*
X173214285Y-52706819D01*
X173214285Y-52706819D02*
X172785714Y-53706819D01*
X172857142Y-76954819D02*
X172523809Y-76478628D01*
X172285714Y-76954819D02*
X172285714Y-75954819D01*
X172285714Y-75954819D02*
X172666666Y-75954819D01*
X172666666Y-75954819D02*
X172761904Y-76002438D01*
X172761904Y-76002438D02*
X172809523Y-76050057D01*
X172809523Y-76050057D02*
X172857142Y-76145295D01*
X172857142Y-76145295D02*
X172857142Y-76288152D01*
X172857142Y-76288152D02*
X172809523Y-76383390D01*
X172809523Y-76383390D02*
X172761904Y-76431009D01*
X172761904Y-76431009D02*
X172666666Y-76478628D01*
X172666666Y-76478628D02*
X172285714Y-76478628D01*
X173809523Y-76954819D02*
X173238095Y-76954819D01*
X173523809Y-76954819D02*
X173523809Y-75954819D01*
X173523809Y-75954819D02*
X173428571Y-76097676D01*
X173428571Y-76097676D02*
X173333333Y-76192914D01*
X173333333Y-76192914D02*
X173238095Y-76240533D01*
X174714285Y-75954819D02*
X174238095Y-75954819D01*
X174238095Y-75954819D02*
X174190476Y-76431009D01*
X174190476Y-76431009D02*
X174238095Y-76383390D01*
X174238095Y-76383390D02*
X174333333Y-76335771D01*
X174333333Y-76335771D02*
X174571428Y-76335771D01*
X174571428Y-76335771D02*
X174666666Y-76383390D01*
X174666666Y-76383390D02*
X174714285Y-76431009D01*
X174714285Y-76431009D02*
X174761904Y-76526247D01*
X174761904Y-76526247D02*
X174761904Y-76764342D01*
X174761904Y-76764342D02*
X174714285Y-76859580D01*
X174714285Y-76859580D02*
X174666666Y-76907200D01*
X174666666Y-76907200D02*
X174571428Y-76954819D01*
X174571428Y-76954819D02*
X174333333Y-76954819D01*
X174333333Y-76954819D02*
X174238095Y-76907200D01*
X174238095Y-76907200D02*
X174190476Y-76859580D01*
X163833333Y-52304819D02*
X163500000Y-51828628D01*
X163261905Y-52304819D02*
X163261905Y-51304819D01*
X163261905Y-51304819D02*
X163642857Y-51304819D01*
X163642857Y-51304819D02*
X163738095Y-51352438D01*
X163738095Y-51352438D02*
X163785714Y-51400057D01*
X163785714Y-51400057D02*
X163833333Y-51495295D01*
X163833333Y-51495295D02*
X163833333Y-51638152D01*
X163833333Y-51638152D02*
X163785714Y-51733390D01*
X163785714Y-51733390D02*
X163738095Y-51781009D01*
X163738095Y-51781009D02*
X163642857Y-51828628D01*
X163642857Y-51828628D02*
X163261905Y-51828628D01*
X164166667Y-51304819D02*
X164833333Y-51304819D01*
X164833333Y-51304819D02*
X164404762Y-52304819D01*
X142634819Y-55666666D02*
X142158628Y-55999999D01*
X142634819Y-56238094D02*
X141634819Y-56238094D01*
X141634819Y-56238094D02*
X141634819Y-55857142D01*
X141634819Y-55857142D02*
X141682438Y-55761904D01*
X141682438Y-55761904D02*
X141730057Y-55714285D01*
X141730057Y-55714285D02*
X141825295Y-55666666D01*
X141825295Y-55666666D02*
X141968152Y-55666666D01*
X141968152Y-55666666D02*
X142063390Y-55714285D01*
X142063390Y-55714285D02*
X142111009Y-55761904D01*
X142111009Y-55761904D02*
X142158628Y-55857142D01*
X142158628Y-55857142D02*
X142158628Y-56238094D01*
X141634819Y-54761904D02*
X141634819Y-55238094D01*
X141634819Y-55238094D02*
X142111009Y-55285713D01*
X142111009Y-55285713D02*
X142063390Y-55238094D01*
X142063390Y-55238094D02*
X142015771Y-55142856D01*
X142015771Y-55142856D02*
X142015771Y-54904761D01*
X142015771Y-54904761D02*
X142063390Y-54809523D01*
X142063390Y-54809523D02*
X142111009Y-54761904D01*
X142111009Y-54761904D02*
X142206247Y-54714285D01*
X142206247Y-54714285D02*
X142444342Y-54714285D01*
X142444342Y-54714285D02*
X142539580Y-54761904D01*
X142539580Y-54761904D02*
X142587200Y-54809523D01*
X142587200Y-54809523D02*
X142634819Y-54904761D01*
X142634819Y-54904761D02*
X142634819Y-55142856D01*
X142634819Y-55142856D02*
X142587200Y-55238094D01*
X142587200Y-55238094D02*
X142539580Y-55285713D01*
X131357142Y-76204819D02*
X131023809Y-75728628D01*
X130785714Y-76204819D02*
X130785714Y-75204819D01*
X130785714Y-75204819D02*
X131166666Y-75204819D01*
X131166666Y-75204819D02*
X131261904Y-75252438D01*
X131261904Y-75252438D02*
X131309523Y-75300057D01*
X131309523Y-75300057D02*
X131357142Y-75395295D01*
X131357142Y-75395295D02*
X131357142Y-75538152D01*
X131357142Y-75538152D02*
X131309523Y-75633390D01*
X131309523Y-75633390D02*
X131261904Y-75681009D01*
X131261904Y-75681009D02*
X131166666Y-75728628D01*
X131166666Y-75728628D02*
X130785714Y-75728628D01*
X132309523Y-76204819D02*
X131738095Y-76204819D01*
X132023809Y-76204819D02*
X132023809Y-75204819D01*
X132023809Y-75204819D02*
X131928571Y-75347676D01*
X131928571Y-75347676D02*
X131833333Y-75442914D01*
X131833333Y-75442914D02*
X131738095Y-75490533D01*
X132642857Y-75204819D02*
X133261904Y-75204819D01*
X133261904Y-75204819D02*
X132928571Y-75585771D01*
X132928571Y-75585771D02*
X133071428Y-75585771D01*
X133071428Y-75585771D02*
X133166666Y-75633390D01*
X133166666Y-75633390D02*
X133214285Y-75681009D01*
X133214285Y-75681009D02*
X133261904Y-75776247D01*
X133261904Y-75776247D02*
X133261904Y-76014342D01*
X133261904Y-76014342D02*
X133214285Y-76109580D01*
X133214285Y-76109580D02*
X133166666Y-76157200D01*
X133166666Y-76157200D02*
X133071428Y-76204819D01*
X133071428Y-76204819D02*
X132785714Y-76204819D01*
X132785714Y-76204819D02*
X132690476Y-76157200D01*
X132690476Y-76157200D02*
X132642857Y-76109580D01*
X139209580Y-69166666D02*
X139257200Y-69214285D01*
X139257200Y-69214285D02*
X139304819Y-69357142D01*
X139304819Y-69357142D02*
X139304819Y-69452380D01*
X139304819Y-69452380D02*
X139257200Y-69595237D01*
X139257200Y-69595237D02*
X139161961Y-69690475D01*
X139161961Y-69690475D02*
X139066723Y-69738094D01*
X139066723Y-69738094D02*
X138876247Y-69785713D01*
X138876247Y-69785713D02*
X138733390Y-69785713D01*
X138733390Y-69785713D02*
X138542914Y-69738094D01*
X138542914Y-69738094D02*
X138447676Y-69690475D01*
X138447676Y-69690475D02*
X138352438Y-69595237D01*
X138352438Y-69595237D02*
X138304819Y-69452380D01*
X138304819Y-69452380D02*
X138304819Y-69357142D01*
X138304819Y-69357142D02*
X138352438Y-69214285D01*
X138352438Y-69214285D02*
X138400057Y-69166666D01*
X138400057Y-68785713D02*
X138352438Y-68738094D01*
X138352438Y-68738094D02*
X138304819Y-68642856D01*
X138304819Y-68642856D02*
X138304819Y-68404761D01*
X138304819Y-68404761D02*
X138352438Y-68309523D01*
X138352438Y-68309523D02*
X138400057Y-68261904D01*
X138400057Y-68261904D02*
X138495295Y-68214285D01*
X138495295Y-68214285D02*
X138590533Y-68214285D01*
X138590533Y-68214285D02*
X138733390Y-68261904D01*
X138733390Y-68261904D02*
X139304819Y-68833332D01*
X139304819Y-68833332D02*
X139304819Y-68214285D01*
X172304819Y-88142858D02*
X171828628Y-88476191D01*
X172304819Y-88714286D02*
X171304819Y-88714286D01*
X171304819Y-88714286D02*
X171304819Y-88333334D01*
X171304819Y-88333334D02*
X171352438Y-88238096D01*
X171352438Y-88238096D02*
X171400057Y-88190477D01*
X171400057Y-88190477D02*
X171495295Y-88142858D01*
X171495295Y-88142858D02*
X171638152Y-88142858D01*
X171638152Y-88142858D02*
X171733390Y-88190477D01*
X171733390Y-88190477D02*
X171781009Y-88238096D01*
X171781009Y-88238096D02*
X171828628Y-88333334D01*
X171828628Y-88333334D02*
X171828628Y-88714286D01*
X172304819Y-87190477D02*
X172304819Y-87761905D01*
X172304819Y-87476191D02*
X171304819Y-87476191D01*
X171304819Y-87476191D02*
X171447676Y-87571429D01*
X171447676Y-87571429D02*
X171542914Y-87666667D01*
X171542914Y-87666667D02*
X171590533Y-87761905D01*
X172304819Y-86238096D02*
X172304819Y-86809524D01*
X172304819Y-86523810D02*
X171304819Y-86523810D01*
X171304819Y-86523810D02*
X171447676Y-86619048D01*
X171447676Y-86619048D02*
X171542914Y-86714286D01*
X171542914Y-86714286D02*
X171590533Y-86809524D01*
X171857142Y-66859580D02*
X171809523Y-66907200D01*
X171809523Y-66907200D02*
X171666666Y-66954819D01*
X171666666Y-66954819D02*
X171571428Y-66954819D01*
X171571428Y-66954819D02*
X171428571Y-66907200D01*
X171428571Y-66907200D02*
X171333333Y-66811961D01*
X171333333Y-66811961D02*
X171285714Y-66716723D01*
X171285714Y-66716723D02*
X171238095Y-66526247D01*
X171238095Y-66526247D02*
X171238095Y-66383390D01*
X171238095Y-66383390D02*
X171285714Y-66192914D01*
X171285714Y-66192914D02*
X171333333Y-66097676D01*
X171333333Y-66097676D02*
X171428571Y-66002438D01*
X171428571Y-66002438D02*
X171571428Y-65954819D01*
X171571428Y-65954819D02*
X171666666Y-65954819D01*
X171666666Y-65954819D02*
X171809523Y-66002438D01*
X171809523Y-66002438D02*
X171857142Y-66050057D01*
X172809523Y-66954819D02*
X172238095Y-66954819D01*
X172523809Y-66954819D02*
X172523809Y-65954819D01*
X172523809Y-65954819D02*
X172428571Y-66097676D01*
X172428571Y-66097676D02*
X172333333Y-66192914D01*
X172333333Y-66192914D02*
X172238095Y-66240533D01*
X173761904Y-66954819D02*
X173190476Y-66954819D01*
X173476190Y-66954819D02*
X173476190Y-65954819D01*
X173476190Y-65954819D02*
X173380952Y-66097676D01*
X173380952Y-66097676D02*
X173285714Y-66192914D01*
X173285714Y-66192914D02*
X173190476Y-66240533D01*
X161833333Y-66859580D02*
X161785714Y-66907200D01*
X161785714Y-66907200D02*
X161642857Y-66954819D01*
X161642857Y-66954819D02*
X161547619Y-66954819D01*
X161547619Y-66954819D02*
X161404762Y-66907200D01*
X161404762Y-66907200D02*
X161309524Y-66811961D01*
X161309524Y-66811961D02*
X161261905Y-66716723D01*
X161261905Y-66716723D02*
X161214286Y-66526247D01*
X161214286Y-66526247D02*
X161214286Y-66383390D01*
X161214286Y-66383390D02*
X161261905Y-66192914D01*
X161261905Y-66192914D02*
X161309524Y-66097676D01*
X161309524Y-66097676D02*
X161404762Y-66002438D01*
X161404762Y-66002438D02*
X161547619Y-65954819D01*
X161547619Y-65954819D02*
X161642857Y-65954819D01*
X161642857Y-65954819D02*
X161785714Y-66002438D01*
X161785714Y-66002438D02*
X161833333Y-66050057D01*
X162404762Y-66383390D02*
X162309524Y-66335771D01*
X162309524Y-66335771D02*
X162261905Y-66288152D01*
X162261905Y-66288152D02*
X162214286Y-66192914D01*
X162214286Y-66192914D02*
X162214286Y-66145295D01*
X162214286Y-66145295D02*
X162261905Y-66050057D01*
X162261905Y-66050057D02*
X162309524Y-66002438D01*
X162309524Y-66002438D02*
X162404762Y-65954819D01*
X162404762Y-65954819D02*
X162595238Y-65954819D01*
X162595238Y-65954819D02*
X162690476Y-66002438D01*
X162690476Y-66002438D02*
X162738095Y-66050057D01*
X162738095Y-66050057D02*
X162785714Y-66145295D01*
X162785714Y-66145295D02*
X162785714Y-66192914D01*
X162785714Y-66192914D02*
X162738095Y-66288152D01*
X162738095Y-66288152D02*
X162690476Y-66335771D01*
X162690476Y-66335771D02*
X162595238Y-66383390D01*
X162595238Y-66383390D02*
X162404762Y-66383390D01*
X162404762Y-66383390D02*
X162309524Y-66431009D01*
X162309524Y-66431009D02*
X162261905Y-66478628D01*
X162261905Y-66478628D02*
X162214286Y-66573866D01*
X162214286Y-66573866D02*
X162214286Y-66764342D01*
X162214286Y-66764342D02*
X162261905Y-66859580D01*
X162261905Y-66859580D02*
X162309524Y-66907200D01*
X162309524Y-66907200D02*
X162404762Y-66954819D01*
X162404762Y-66954819D02*
X162595238Y-66954819D01*
X162595238Y-66954819D02*
X162690476Y-66907200D01*
X162690476Y-66907200D02*
X162738095Y-66859580D01*
X162738095Y-66859580D02*
X162785714Y-66764342D01*
X162785714Y-66764342D02*
X162785714Y-66573866D01*
X162785714Y-66573866D02*
X162738095Y-66478628D01*
X162738095Y-66478628D02*
X162690476Y-66431009D01*
X162690476Y-66431009D02*
X162595238Y-66383390D01*
X142709580Y-69166666D02*
X142757200Y-69214285D01*
X142757200Y-69214285D02*
X142804819Y-69357142D01*
X142804819Y-69357142D02*
X142804819Y-69452380D01*
X142804819Y-69452380D02*
X142757200Y-69595237D01*
X142757200Y-69595237D02*
X142661961Y-69690475D01*
X142661961Y-69690475D02*
X142566723Y-69738094D01*
X142566723Y-69738094D02*
X142376247Y-69785713D01*
X142376247Y-69785713D02*
X142233390Y-69785713D01*
X142233390Y-69785713D02*
X142042914Y-69738094D01*
X142042914Y-69738094D02*
X141947676Y-69690475D01*
X141947676Y-69690475D02*
X141852438Y-69595237D01*
X141852438Y-69595237D02*
X141804819Y-69452380D01*
X141804819Y-69452380D02*
X141804819Y-69357142D01*
X141804819Y-69357142D02*
X141852438Y-69214285D01*
X141852438Y-69214285D02*
X141900057Y-69166666D01*
X141804819Y-68833332D02*
X141804819Y-68214285D01*
X141804819Y-68214285D02*
X142185771Y-68547618D01*
X142185771Y-68547618D02*
X142185771Y-68404761D01*
X142185771Y-68404761D02*
X142233390Y-68309523D01*
X142233390Y-68309523D02*
X142281009Y-68261904D01*
X142281009Y-68261904D02*
X142376247Y-68214285D01*
X142376247Y-68214285D02*
X142614342Y-68214285D01*
X142614342Y-68214285D02*
X142709580Y-68261904D01*
X142709580Y-68261904D02*
X142757200Y-68309523D01*
X142757200Y-68309523D02*
X142804819Y-68404761D01*
X142804819Y-68404761D02*
X142804819Y-68690475D01*
X142804819Y-68690475D02*
X142757200Y-68785713D01*
X142757200Y-68785713D02*
X142709580Y-68833332D01*
X165333333Y-66859580D02*
X165285714Y-66907200D01*
X165285714Y-66907200D02*
X165142857Y-66954819D01*
X165142857Y-66954819D02*
X165047619Y-66954819D01*
X165047619Y-66954819D02*
X164904762Y-66907200D01*
X164904762Y-66907200D02*
X164809524Y-66811961D01*
X164809524Y-66811961D02*
X164761905Y-66716723D01*
X164761905Y-66716723D02*
X164714286Y-66526247D01*
X164714286Y-66526247D02*
X164714286Y-66383390D01*
X164714286Y-66383390D02*
X164761905Y-66192914D01*
X164761905Y-66192914D02*
X164809524Y-66097676D01*
X164809524Y-66097676D02*
X164904762Y-66002438D01*
X164904762Y-66002438D02*
X165047619Y-65954819D01*
X165047619Y-65954819D02*
X165142857Y-65954819D01*
X165142857Y-65954819D02*
X165285714Y-66002438D01*
X165285714Y-66002438D02*
X165333333Y-66050057D01*
X165809524Y-66954819D02*
X166000000Y-66954819D01*
X166000000Y-66954819D02*
X166095238Y-66907200D01*
X166095238Y-66907200D02*
X166142857Y-66859580D01*
X166142857Y-66859580D02*
X166238095Y-66716723D01*
X166238095Y-66716723D02*
X166285714Y-66526247D01*
X166285714Y-66526247D02*
X166285714Y-66145295D01*
X166285714Y-66145295D02*
X166238095Y-66050057D01*
X166238095Y-66050057D02*
X166190476Y-66002438D01*
X166190476Y-66002438D02*
X166095238Y-65954819D01*
X166095238Y-65954819D02*
X165904762Y-65954819D01*
X165904762Y-65954819D02*
X165809524Y-66002438D01*
X165809524Y-66002438D02*
X165761905Y-66050057D01*
X165761905Y-66050057D02*
X165714286Y-66145295D01*
X165714286Y-66145295D02*
X165714286Y-66383390D01*
X165714286Y-66383390D02*
X165761905Y-66478628D01*
X165761905Y-66478628D02*
X165809524Y-66526247D01*
X165809524Y-66526247D02*
X165904762Y-66573866D01*
X165904762Y-66573866D02*
X166095238Y-66573866D01*
X166095238Y-66573866D02*
X166190476Y-66526247D01*
X166190476Y-66526247D02*
X166238095Y-66478628D01*
X166238095Y-66478628D02*
X166285714Y-66383390D01*
X184387122Y-47930872D02*
X185077069Y-48115742D01*
X185077069Y-48115742D02*
X185202734Y-48198713D01*
X185202734Y-48198713D02*
X185270077Y-48315355D01*
X185270077Y-48315355D02*
X185279100Y-48465670D01*
X185279100Y-48465670D02*
X185254450Y-48557662D01*
X184590038Y-47541553D02*
X184556366Y-47483232D01*
X184556366Y-47483232D02*
X184535019Y-47378914D01*
X184535019Y-47378914D02*
X184596642Y-47148932D01*
X184596642Y-47148932D02*
X184667288Y-47069263D01*
X184667288Y-47069263D02*
X184725609Y-47035592D01*
X184725609Y-47035592D02*
X184829927Y-47014245D01*
X184829927Y-47014245D02*
X184921920Y-47038894D01*
X184921920Y-47038894D02*
X185047585Y-47121865D01*
X185047585Y-47121865D02*
X185451646Y-47821719D01*
X185451646Y-47821719D02*
X185611867Y-47223765D01*
X202649798Y-87878796D02*
X202144722Y-88383872D01*
X202144722Y-88383872D02*
X202010035Y-88451216D01*
X202010035Y-88451216D02*
X201875348Y-88451216D01*
X201875348Y-88451216D02*
X201740661Y-88383872D01*
X201740661Y-88383872D02*
X201673317Y-88316529D01*
X203323233Y-88552231D02*
X202986516Y-88215514D01*
X202986516Y-88215514D02*
X202616127Y-88518559D01*
X202616127Y-88518559D02*
X202683470Y-88518559D01*
X202683470Y-88518559D02*
X202784485Y-88552231D01*
X202784485Y-88552231D02*
X202952844Y-88720590D01*
X202952844Y-88720590D02*
X202986516Y-88821605D01*
X202986516Y-88821605D02*
X202986516Y-88888949D01*
X202986516Y-88888949D02*
X202952844Y-88989964D01*
X202952844Y-88989964D02*
X202784485Y-89158323D01*
X202784485Y-89158323D02*
X202683470Y-89191994D01*
X202683470Y-89191994D02*
X202616127Y-89191994D01*
X202616127Y-89191994D02*
X202515111Y-89158323D01*
X202515111Y-89158323D02*
X202346753Y-88989964D01*
X202346753Y-88989964D02*
X202313081Y-88888949D01*
X202313081Y-88888949D02*
X202313081Y-88821605D01*
X148774819Y-79666666D02*
X148298628Y-79999999D01*
X148774819Y-80238094D02*
X147774819Y-80238094D01*
X147774819Y-80238094D02*
X147774819Y-79857142D01*
X147774819Y-79857142D02*
X147822438Y-79761904D01*
X147822438Y-79761904D02*
X147870057Y-79714285D01*
X147870057Y-79714285D02*
X147965295Y-79666666D01*
X147965295Y-79666666D02*
X148108152Y-79666666D01*
X148108152Y-79666666D02*
X148203390Y-79714285D01*
X148203390Y-79714285D02*
X148251009Y-79761904D01*
X148251009Y-79761904D02*
X148298628Y-79857142D01*
X148298628Y-79857142D02*
X148298628Y-80238094D01*
X147774819Y-79333332D02*
X147774819Y-78714285D01*
X147774819Y-78714285D02*
X148155771Y-79047618D01*
X148155771Y-79047618D02*
X148155771Y-78904761D01*
X148155771Y-78904761D02*
X148203390Y-78809523D01*
X148203390Y-78809523D02*
X148251009Y-78761904D01*
X148251009Y-78761904D02*
X148346247Y-78714285D01*
X148346247Y-78714285D02*
X148584342Y-78714285D01*
X148584342Y-78714285D02*
X148679580Y-78761904D01*
X148679580Y-78761904D02*
X148727200Y-78809523D01*
X148727200Y-78809523D02*
X148774819Y-78904761D01*
X148774819Y-78904761D02*
X148774819Y-79190475D01*
X148774819Y-79190475D02*
X148727200Y-79285713D01*
X148727200Y-79285713D02*
X148679580Y-79333332D01*
X170354819Y-57666666D02*
X169878628Y-57999999D01*
X170354819Y-58238094D02*
X169354819Y-58238094D01*
X169354819Y-58238094D02*
X169354819Y-57857142D01*
X169354819Y-57857142D02*
X169402438Y-57761904D01*
X169402438Y-57761904D02*
X169450057Y-57714285D01*
X169450057Y-57714285D02*
X169545295Y-57666666D01*
X169545295Y-57666666D02*
X169688152Y-57666666D01*
X169688152Y-57666666D02*
X169783390Y-57714285D01*
X169783390Y-57714285D02*
X169831009Y-57761904D01*
X169831009Y-57761904D02*
X169878628Y-57857142D01*
X169878628Y-57857142D02*
X169878628Y-58238094D01*
X169783390Y-57095237D02*
X169735771Y-57190475D01*
X169735771Y-57190475D02*
X169688152Y-57238094D01*
X169688152Y-57238094D02*
X169592914Y-57285713D01*
X169592914Y-57285713D02*
X169545295Y-57285713D01*
X169545295Y-57285713D02*
X169450057Y-57238094D01*
X169450057Y-57238094D02*
X169402438Y-57190475D01*
X169402438Y-57190475D02*
X169354819Y-57095237D01*
X169354819Y-57095237D02*
X169354819Y-56904761D01*
X169354819Y-56904761D02*
X169402438Y-56809523D01*
X169402438Y-56809523D02*
X169450057Y-56761904D01*
X169450057Y-56761904D02*
X169545295Y-56714285D01*
X169545295Y-56714285D02*
X169592914Y-56714285D01*
X169592914Y-56714285D02*
X169688152Y-56761904D01*
X169688152Y-56761904D02*
X169735771Y-56809523D01*
X169735771Y-56809523D02*
X169783390Y-56904761D01*
X169783390Y-56904761D02*
X169783390Y-57095237D01*
X169783390Y-57095237D02*
X169831009Y-57190475D01*
X169831009Y-57190475D02*
X169878628Y-57238094D01*
X169878628Y-57238094D02*
X169973866Y-57285713D01*
X169973866Y-57285713D02*
X170164342Y-57285713D01*
X170164342Y-57285713D02*
X170259580Y-57238094D01*
X170259580Y-57238094D02*
X170307200Y-57190475D01*
X170307200Y-57190475D02*
X170354819Y-57095237D01*
X170354819Y-57095237D02*
X170354819Y-56904761D01*
X170354819Y-56904761D02*
X170307200Y-56809523D01*
X170307200Y-56809523D02*
X170259580Y-56761904D01*
X170259580Y-56761904D02*
X170164342Y-56714285D01*
X170164342Y-56714285D02*
X169973866Y-56714285D01*
X169973866Y-56714285D02*
X169878628Y-56761904D01*
X169878628Y-56761904D02*
X169831009Y-56809523D01*
X169831009Y-56809523D02*
X169783390Y-56904761D01*
X128333333Y-66134819D02*
X128000000Y-65658628D01*
X127761905Y-66134819D02*
X127761905Y-65134819D01*
X127761905Y-65134819D02*
X128142857Y-65134819D01*
X128142857Y-65134819D02*
X128238095Y-65182438D01*
X128238095Y-65182438D02*
X128285714Y-65230057D01*
X128285714Y-65230057D02*
X128333333Y-65325295D01*
X128333333Y-65325295D02*
X128333333Y-65468152D01*
X128333333Y-65468152D02*
X128285714Y-65563390D01*
X128285714Y-65563390D02*
X128238095Y-65611009D01*
X128238095Y-65611009D02*
X128142857Y-65658628D01*
X128142857Y-65658628D02*
X127761905Y-65658628D01*
X129285714Y-66134819D02*
X128714286Y-66134819D01*
X129000000Y-66134819D02*
X129000000Y-65134819D01*
X129000000Y-65134819D02*
X128904762Y-65277676D01*
X128904762Y-65277676D02*
X128809524Y-65372914D01*
X128809524Y-65372914D02*
X128714286Y-65420533D01*
X172857142Y-78359580D02*
X172809523Y-78407200D01*
X172809523Y-78407200D02*
X172666666Y-78454819D01*
X172666666Y-78454819D02*
X172571428Y-78454819D01*
X172571428Y-78454819D02*
X172428571Y-78407200D01*
X172428571Y-78407200D02*
X172333333Y-78311961D01*
X172333333Y-78311961D02*
X172285714Y-78216723D01*
X172285714Y-78216723D02*
X172238095Y-78026247D01*
X172238095Y-78026247D02*
X172238095Y-77883390D01*
X172238095Y-77883390D02*
X172285714Y-77692914D01*
X172285714Y-77692914D02*
X172333333Y-77597676D01*
X172333333Y-77597676D02*
X172428571Y-77502438D01*
X172428571Y-77502438D02*
X172571428Y-77454819D01*
X172571428Y-77454819D02*
X172666666Y-77454819D01*
X172666666Y-77454819D02*
X172809523Y-77502438D01*
X172809523Y-77502438D02*
X172857142Y-77550057D01*
X173809523Y-78454819D02*
X173238095Y-78454819D01*
X173523809Y-78454819D02*
X173523809Y-77454819D01*
X173523809Y-77454819D02*
X173428571Y-77597676D01*
X173428571Y-77597676D02*
X173333333Y-77692914D01*
X173333333Y-77692914D02*
X173238095Y-77740533D01*
X174142857Y-77454819D02*
X174761904Y-77454819D01*
X174761904Y-77454819D02*
X174428571Y-77835771D01*
X174428571Y-77835771D02*
X174571428Y-77835771D01*
X174571428Y-77835771D02*
X174666666Y-77883390D01*
X174666666Y-77883390D02*
X174714285Y-77931009D01*
X174714285Y-77931009D02*
X174761904Y-78026247D01*
X174761904Y-78026247D02*
X174761904Y-78264342D01*
X174761904Y-78264342D02*
X174714285Y-78359580D01*
X174714285Y-78359580D02*
X174666666Y-78407200D01*
X174666666Y-78407200D02*
X174571428Y-78454819D01*
X174571428Y-78454819D02*
X174285714Y-78454819D01*
X174285714Y-78454819D02*
X174190476Y-78407200D01*
X174190476Y-78407200D02*
X174142857Y-78359580D01*
X159833333Y-55454819D02*
X159500000Y-54978628D01*
X159261905Y-55454819D02*
X159261905Y-54454819D01*
X159261905Y-54454819D02*
X159642857Y-54454819D01*
X159642857Y-54454819D02*
X159738095Y-54502438D01*
X159738095Y-54502438D02*
X159785714Y-54550057D01*
X159785714Y-54550057D02*
X159833333Y-54645295D01*
X159833333Y-54645295D02*
X159833333Y-54788152D01*
X159833333Y-54788152D02*
X159785714Y-54883390D01*
X159785714Y-54883390D02*
X159738095Y-54931009D01*
X159738095Y-54931009D02*
X159642857Y-54978628D01*
X159642857Y-54978628D02*
X159261905Y-54978628D01*
X160309524Y-55454819D02*
X160500000Y-55454819D01*
X160500000Y-55454819D02*
X160595238Y-55407200D01*
X160595238Y-55407200D02*
X160642857Y-55359580D01*
X160642857Y-55359580D02*
X160738095Y-55216723D01*
X160738095Y-55216723D02*
X160785714Y-55026247D01*
X160785714Y-55026247D02*
X160785714Y-54645295D01*
X160785714Y-54645295D02*
X160738095Y-54550057D01*
X160738095Y-54550057D02*
X160690476Y-54502438D01*
X160690476Y-54502438D02*
X160595238Y-54454819D01*
X160595238Y-54454819D02*
X160404762Y-54454819D01*
X160404762Y-54454819D02*
X160309524Y-54502438D01*
X160309524Y-54502438D02*
X160261905Y-54550057D01*
X160261905Y-54550057D02*
X160214286Y-54645295D01*
X160214286Y-54645295D02*
X160214286Y-54883390D01*
X160214286Y-54883390D02*
X160261905Y-54978628D01*
X160261905Y-54978628D02*
X160309524Y-55026247D01*
X160309524Y-55026247D02*
X160404762Y-55073866D01*
X160404762Y-55073866D02*
X160595238Y-55073866D01*
X160595238Y-55073866D02*
X160690476Y-55026247D01*
X160690476Y-55026247D02*
X160738095Y-54978628D01*
X160738095Y-54978628D02*
X160785714Y-54883390D01*
X173238095Y-62206819D02*
X173809523Y-62206819D01*
X173523809Y-63206819D02*
X173523809Y-62206819D01*
X174142857Y-63206819D02*
X174142857Y-62206819D01*
X174142857Y-62206819D02*
X174523809Y-62206819D01*
X174523809Y-62206819D02*
X174619047Y-62254438D01*
X174619047Y-62254438D02*
X174666666Y-62302057D01*
X174666666Y-62302057D02*
X174714285Y-62397295D01*
X174714285Y-62397295D02*
X174714285Y-62540152D01*
X174714285Y-62540152D02*
X174666666Y-62635390D01*
X174666666Y-62635390D02*
X174619047Y-62683009D01*
X174619047Y-62683009D02*
X174523809Y-62730628D01*
X174523809Y-62730628D02*
X174142857Y-62730628D01*
X175571428Y-62206819D02*
X175380952Y-62206819D01*
X175380952Y-62206819D02*
X175285714Y-62254438D01*
X175285714Y-62254438D02*
X175238095Y-62302057D01*
X175238095Y-62302057D02*
X175142857Y-62444914D01*
X175142857Y-62444914D02*
X175095238Y-62635390D01*
X175095238Y-62635390D02*
X175095238Y-63016342D01*
X175095238Y-63016342D02*
X175142857Y-63111580D01*
X175142857Y-63111580D02*
X175190476Y-63159200D01*
X175190476Y-63159200D02*
X175285714Y-63206819D01*
X175285714Y-63206819D02*
X175476190Y-63206819D01*
X175476190Y-63206819D02*
X175571428Y-63159200D01*
X175571428Y-63159200D02*
X175619047Y-63111580D01*
X175619047Y-63111580D02*
X175666666Y-63016342D01*
X175666666Y-63016342D02*
X175666666Y-62778247D01*
X175666666Y-62778247D02*
X175619047Y-62683009D01*
X175619047Y-62683009D02*
X175571428Y-62635390D01*
X175571428Y-62635390D02*
X175476190Y-62587771D01*
X175476190Y-62587771D02*
X175285714Y-62587771D01*
X175285714Y-62587771D02*
X175190476Y-62635390D01*
X175190476Y-62635390D02*
X175142857Y-62683009D01*
X175142857Y-62683009D02*
X175095238Y-62778247D01*
X139134819Y-55666666D02*
X138658628Y-55999999D01*
X139134819Y-56238094D02*
X138134819Y-56238094D01*
X138134819Y-56238094D02*
X138134819Y-55857142D01*
X138134819Y-55857142D02*
X138182438Y-55761904D01*
X138182438Y-55761904D02*
X138230057Y-55714285D01*
X138230057Y-55714285D02*
X138325295Y-55666666D01*
X138325295Y-55666666D02*
X138468152Y-55666666D01*
X138468152Y-55666666D02*
X138563390Y-55714285D01*
X138563390Y-55714285D02*
X138611009Y-55761904D01*
X138611009Y-55761904D02*
X138658628Y-55857142D01*
X138658628Y-55857142D02*
X138658628Y-56238094D01*
X138134819Y-54809523D02*
X138134819Y-54999999D01*
X138134819Y-54999999D02*
X138182438Y-55095237D01*
X138182438Y-55095237D02*
X138230057Y-55142856D01*
X138230057Y-55142856D02*
X138372914Y-55238094D01*
X138372914Y-55238094D02*
X138563390Y-55285713D01*
X138563390Y-55285713D02*
X138944342Y-55285713D01*
X138944342Y-55285713D02*
X139039580Y-55238094D01*
X139039580Y-55238094D02*
X139087200Y-55190475D01*
X139087200Y-55190475D02*
X139134819Y-55095237D01*
X139134819Y-55095237D02*
X139134819Y-54904761D01*
X139134819Y-54904761D02*
X139087200Y-54809523D01*
X139087200Y-54809523D02*
X139039580Y-54761904D01*
X139039580Y-54761904D02*
X138944342Y-54714285D01*
X138944342Y-54714285D02*
X138706247Y-54714285D01*
X138706247Y-54714285D02*
X138611009Y-54761904D01*
X138611009Y-54761904D02*
X138563390Y-54809523D01*
X138563390Y-54809523D02*
X138515771Y-54904761D01*
X138515771Y-54904761D02*
X138515771Y-55095237D01*
X138515771Y-55095237D02*
X138563390Y-55190475D01*
X138563390Y-55190475D02*
X138611009Y-55238094D01*
X138611009Y-55238094D02*
X138706247Y-55285713D01*
X166454819Y-50238094D02*
X165454819Y-50238094D01*
X165454819Y-50238094D02*
X165454819Y-49999999D01*
X165454819Y-49999999D02*
X165502438Y-49857142D01*
X165502438Y-49857142D02*
X165597676Y-49761904D01*
X165597676Y-49761904D02*
X165692914Y-49714285D01*
X165692914Y-49714285D02*
X165883390Y-49666666D01*
X165883390Y-49666666D02*
X166026247Y-49666666D01*
X166026247Y-49666666D02*
X166216723Y-49714285D01*
X166216723Y-49714285D02*
X166311961Y-49761904D01*
X166311961Y-49761904D02*
X166407200Y-49857142D01*
X166407200Y-49857142D02*
X166454819Y-49999999D01*
X166454819Y-49999999D02*
X166454819Y-50238094D01*
X166454819Y-48714285D02*
X166454819Y-49285713D01*
X166454819Y-48999999D02*
X165454819Y-48999999D01*
X165454819Y-48999999D02*
X165597676Y-49095237D01*
X165597676Y-49095237D02*
X165692914Y-49190475D01*
X165692914Y-49190475D02*
X165740533Y-49285713D01*
X158238095Y-77456819D02*
X158809523Y-77456819D01*
X158523809Y-78456819D02*
X158523809Y-77456819D01*
X159142857Y-78456819D02*
X159142857Y-77456819D01*
X159142857Y-77456819D02*
X159523809Y-77456819D01*
X159523809Y-77456819D02*
X159619047Y-77504438D01*
X159619047Y-77504438D02*
X159666666Y-77552057D01*
X159666666Y-77552057D02*
X159714285Y-77647295D01*
X159714285Y-77647295D02*
X159714285Y-77790152D01*
X159714285Y-77790152D02*
X159666666Y-77885390D01*
X159666666Y-77885390D02*
X159619047Y-77933009D01*
X159619047Y-77933009D02*
X159523809Y-77980628D01*
X159523809Y-77980628D02*
X159142857Y-77980628D01*
X160619047Y-77456819D02*
X160142857Y-77456819D01*
X160142857Y-77456819D02*
X160095238Y-77933009D01*
X160095238Y-77933009D02*
X160142857Y-77885390D01*
X160142857Y-77885390D02*
X160238095Y-77837771D01*
X160238095Y-77837771D02*
X160476190Y-77837771D01*
X160476190Y-77837771D02*
X160571428Y-77885390D01*
X160571428Y-77885390D02*
X160619047Y-77933009D01*
X160619047Y-77933009D02*
X160666666Y-78028247D01*
X160666666Y-78028247D02*
X160666666Y-78266342D01*
X160666666Y-78266342D02*
X160619047Y-78361580D01*
X160619047Y-78361580D02*
X160571428Y-78409200D01*
X160571428Y-78409200D02*
X160476190Y-78456819D01*
X160476190Y-78456819D02*
X160238095Y-78456819D01*
X160238095Y-78456819D02*
X160142857Y-78409200D01*
X160142857Y-78409200D02*
X160095238Y-78361580D01*
X127607143Y-79709578D02*
X127559524Y-79757198D01*
X127559524Y-79757198D02*
X127416667Y-79804817D01*
X127416667Y-79804817D02*
X127321429Y-79804817D01*
X127321429Y-79804817D02*
X127178572Y-79757198D01*
X127178572Y-79757198D02*
X127083334Y-79661959D01*
X127083334Y-79661959D02*
X127035715Y-79566721D01*
X127035715Y-79566721D02*
X126988096Y-79376245D01*
X126988096Y-79376245D02*
X126988096Y-79233388D01*
X126988096Y-79233388D02*
X127035715Y-79042912D01*
X127035715Y-79042912D02*
X127083334Y-78947674D01*
X127083334Y-78947674D02*
X127178572Y-78852436D01*
X127178572Y-78852436D02*
X127321429Y-78804817D01*
X127321429Y-78804817D02*
X127416667Y-78804817D01*
X127416667Y-78804817D02*
X127559524Y-78852436D01*
X127559524Y-78852436D02*
X127607143Y-78900055D01*
X128559524Y-79804817D02*
X127988096Y-79804817D01*
X128273810Y-79804817D02*
X128273810Y-78804817D01*
X128273810Y-78804817D02*
X128178572Y-78947674D01*
X128178572Y-78947674D02*
X128083334Y-79042912D01*
X128083334Y-79042912D02*
X127988096Y-79090531D01*
X128940477Y-78900055D02*
X128988096Y-78852436D01*
X128988096Y-78852436D02*
X129083334Y-78804817D01*
X129083334Y-78804817D02*
X129321429Y-78804817D01*
X129321429Y-78804817D02*
X129416667Y-78852436D01*
X129416667Y-78852436D02*
X129464286Y-78900055D01*
X129464286Y-78900055D02*
X129511905Y-78995293D01*
X129511905Y-78995293D02*
X129511905Y-79090531D01*
X129511905Y-79090531D02*
X129464286Y-79233388D01*
X129464286Y-79233388D02*
X128892858Y-79804817D01*
X128892858Y-79804817D02*
X129511905Y-79804817D01*
X123857142Y-76204819D02*
X123523809Y-75728628D01*
X123285714Y-76204819D02*
X123285714Y-75204819D01*
X123285714Y-75204819D02*
X123666666Y-75204819D01*
X123666666Y-75204819D02*
X123761904Y-75252438D01*
X123761904Y-75252438D02*
X123809523Y-75300057D01*
X123809523Y-75300057D02*
X123857142Y-75395295D01*
X123857142Y-75395295D02*
X123857142Y-75538152D01*
X123857142Y-75538152D02*
X123809523Y-75633390D01*
X123809523Y-75633390D02*
X123761904Y-75681009D01*
X123761904Y-75681009D02*
X123666666Y-75728628D01*
X123666666Y-75728628D02*
X123285714Y-75728628D01*
X124809523Y-76204819D02*
X124238095Y-76204819D01*
X124523809Y-76204819D02*
X124523809Y-75204819D01*
X124523809Y-75204819D02*
X124428571Y-75347676D01*
X124428571Y-75347676D02*
X124333333Y-75442914D01*
X124333333Y-75442914D02*
X124238095Y-75490533D01*
X125666666Y-75538152D02*
X125666666Y-76204819D01*
X125428571Y-75157200D02*
X125190476Y-75871485D01*
X125190476Y-75871485D02*
X125809523Y-75871485D01*
X153738095Y-77456819D02*
X154309523Y-77456819D01*
X154023809Y-78456819D02*
X154023809Y-77456819D01*
X154642857Y-78456819D02*
X154642857Y-77456819D01*
X154642857Y-77456819D02*
X155023809Y-77456819D01*
X155023809Y-77456819D02*
X155119047Y-77504438D01*
X155119047Y-77504438D02*
X155166666Y-77552057D01*
X155166666Y-77552057D02*
X155214285Y-77647295D01*
X155214285Y-77647295D02*
X155214285Y-77790152D01*
X155214285Y-77790152D02*
X155166666Y-77885390D01*
X155166666Y-77885390D02*
X155119047Y-77933009D01*
X155119047Y-77933009D02*
X155023809Y-77980628D01*
X155023809Y-77980628D02*
X154642857Y-77980628D01*
X156071428Y-77790152D02*
X156071428Y-78456819D01*
X155833333Y-77409200D02*
X155595238Y-78123485D01*
X155595238Y-78123485D02*
X156214285Y-78123485D01*
D13*
X148450000Y-57250000D02*
G75*
G02*
X146050000Y-57250000I-1200000J0D01*
G01*
X146050000Y-57250000D02*
G75*
G02*
X148450000Y-57250000I1200000J0D01*
G01*
X183451149Y-78452751D02*
X182286462Y-74106084D01*
X183832624Y-71569475D02*
X186730402Y-70793019D01*
X186802854Y-90961491D02*
X184098195Y-80867566D01*
X186802854Y-90961491D02*
X193854114Y-89072112D01*
X190502407Y-76563372D02*
X189337721Y-72216707D01*
X191133456Y-77450265D02*
X190874635Y-76484338D01*
X193854114Y-89072112D02*
X191149457Y-78978186D01*
X159040002Y-47640001D02*
X159040000Y-50500000D01*
X160960000Y-47640002D02*
X159040002Y-47640001D01*
X160960000Y-50500002D02*
X160960000Y-47640002D01*
D14*
X149530100Y-63275600D02*
X149530100Y-64936760D01*
X149530100Y-71063240D02*
X149530100Y-72724400D01*
X149530100Y-72724400D02*
X158978900Y-72724400D01*
X158978900Y-63275600D02*
X149530100Y-63275600D01*
X158978900Y-64936760D02*
X158978900Y-63275600D01*
X158978900Y-72724400D02*
X158978900Y-71063240D01*
D13*
X143090000Y-61711252D02*
X143090000Y-60288748D01*
X144910000Y-61711252D02*
X144910000Y-60288748D01*
X139590000Y-60272936D02*
X139590000Y-61727064D01*
X141410000Y-60272936D02*
X141410000Y-61727064D01*
X195432516Y-66804693D02*
X193311196Y-64683372D01*
X196422466Y-58531543D02*
X193240486Y-61713523D01*
X196875013Y-57541592D02*
X196167906Y-58248701D01*
X201584345Y-63693422D02*
X198402365Y-66875404D01*
X205579499Y-49374510D02*
X198190233Y-56763775D01*
X210741378Y-54536389D02*
X203352112Y-61925655D01*
X210741378Y-54536389D02*
X205579499Y-49374510D01*
X176367936Y-67115000D02*
X177822064Y-67115000D01*
X176367936Y-68935000D02*
X177822064Y-68935000D01*
X203855887Y-63580000D02*
X203855887Y-64380000D01*
X204095887Y-63820000D02*
X204095887Y-74720000D01*
X204895887Y-63580000D02*
X203855887Y-63580000D01*
X205015887Y-63820000D02*
X205015887Y-74720000D01*
X206015887Y-63820000D02*
X206015887Y-74720000D01*
X209116887Y-63820000D02*
X209116887Y-74720000D01*
X210835887Y-63820000D02*
X204095887Y-63820000D01*
X210835887Y-63820000D02*
X210835887Y-74720000D01*
X210835887Y-74720000D02*
X204095887Y-74720000D01*
X117780000Y-66110000D02*
X124520000Y-66110000D01*
X117780000Y-71930000D02*
X117780000Y-66110000D01*
X117780000Y-71930000D02*
X124520000Y-71930000D01*
X119499000Y-71930000D02*
X119499000Y-66110000D01*
X122600000Y-71930000D02*
X122600000Y-66110000D01*
X123600000Y-71930000D02*
X123600000Y-66110000D01*
X123720000Y-72170000D02*
X124760000Y-72170000D01*
X124520000Y-71930000D02*
X124520000Y-66110000D01*
X124760000Y-72170000D02*
X124760000Y-71370000D01*
X169015000Y-87727064D02*
X169015000Y-87272936D01*
X170485000Y-87727064D02*
X170485000Y-87272936D01*
X126940000Y-83750000D02*
X126940000Y-81800000D01*
X126940000Y-83750000D02*
X126940000Y-85700000D01*
X132060000Y-83750000D02*
X132060000Y-81800000D01*
X132060000Y-83750000D02*
X132060000Y-85700000D01*
X127035000Y-86450000D02*
X126705000Y-86690000D01*
X126705000Y-86210000D01*
X127035000Y-86450000D01*
G36*
X127035000Y-86450000D02*
G01*
X126705000Y-86690000D01*
X126705000Y-86210000D01*
X127035000Y-86450000D01*
G37*
D14*
X146174799Y-68459740D02*
X146174799Y-68959723D01*
D13*
X148288748Y-59590000D02*
X149711252Y-59590000D01*
X148288748Y-61410000D02*
X149711252Y-61410000D01*
X156130001Y-87420003D02*
X156130000Y-90080001D01*
X163810000Y-90080001D02*
X156130000Y-90080001D01*
X163810001Y-87420000D02*
X156130001Y-87420003D01*
X163810001Y-87420000D02*
X163810000Y-90080001D01*
X165079999Y-87419998D02*
X166410000Y-87420000D01*
X166410000Y-87420000D02*
X166410002Y-88749999D01*
X162340000Y-58210000D02*
X162340000Y-56800000D01*
X164660000Y-58200000D02*
X164660000Y-56800000D01*
X162390000Y-58580000D02*
X162060000Y-58820000D01*
X162060000Y-58340000D01*
X162390000Y-58580000D01*
G36*
X162390000Y-58580000D02*
G01*
X162060000Y-58820000D01*
X162060000Y-58340000D01*
X162390000Y-58580000D01*
G37*
X133200000Y-65000000D02*
G75*
G02*
X130800000Y-65000000I-1200000J0D01*
G01*
X130800000Y-65000000D02*
G75*
G02*
X133200000Y-65000000I1200000J0D01*
G01*
X149590000Y-78788748D02*
X149590000Y-80211252D01*
X151410000Y-78788748D02*
X151410000Y-80211252D01*
X168194000Y-68813748D02*
X168194000Y-70236252D01*
X170014000Y-68813748D02*
X170014000Y-70236252D01*
X143090000Y-75288748D02*
X143090000Y-76711252D01*
X144910000Y-75288748D02*
X144910000Y-76711252D01*
X147772936Y-74590000D02*
X149227064Y-74590000D01*
X147772936Y-76410000D02*
X149227064Y-76410000D01*
X175035000Y-82975000D02*
X175035000Y-81025000D01*
X175035000Y-82975000D02*
X175035000Y-84925000D01*
X180155000Y-82975000D02*
X180155000Y-81025000D01*
X180155000Y-82975000D02*
X180155000Y-84925000D01*
X175130000Y-85675000D02*
X174800000Y-85915000D01*
X174800000Y-85435000D01*
X175130000Y-85675000D01*
G36*
X175130000Y-85675000D02*
G01*
X174800000Y-85915000D01*
X174800000Y-85435000D01*
X175130000Y-85675000D01*
G37*
X180875000Y-87750000D02*
X183675000Y-87750000D01*
X180875000Y-89750000D02*
X180875000Y-87750000D01*
X183675000Y-87750000D02*
X183675000Y-89750000D01*
X183675000Y-89750000D02*
X180875000Y-89750000D01*
X132590000Y-68288748D02*
X132590000Y-69711252D01*
X134410000Y-68288748D02*
X134410000Y-69711252D01*
X124950000Y-80000000D02*
G75*
G02*
X122550000Y-80000000I-1200000J0D01*
G01*
X122550000Y-80000000D02*
G75*
G02*
X124950000Y-80000000I1200000J0D01*
G01*
X177840001Y-74227064D02*
X177839999Y-72772935D01*
X179660001Y-74227065D02*
X179659999Y-72772936D01*
X173200000Y-55250000D02*
G75*
G02*
X170800000Y-55250000I-1200000J0D01*
G01*
X170800000Y-55250000D02*
G75*
G02*
X173200000Y-55250000I1200000J0D01*
G01*
X175340001Y-74227064D02*
X175339999Y-72772935D01*
X177160001Y-74227065D02*
X177159999Y-72772936D01*
X163772936Y-52765000D02*
X164227064Y-52765000D01*
X163772936Y-54235000D02*
X164227064Y-54235000D01*
X143090000Y-56227064D02*
X143090000Y-54772936D01*
X144910000Y-56227064D02*
X144910000Y-54772936D01*
X128590001Y-74227064D02*
X128589999Y-72772935D01*
X130410001Y-74227065D02*
X130409999Y-72772936D01*
X136090000Y-68288748D02*
X136090000Y-69711252D01*
X137910000Y-68288748D02*
X137910000Y-69711252D01*
X172765000Y-87727064D02*
X172765000Y-87272936D01*
X174235000Y-87727064D02*
X174235000Y-87272936D01*
X171694000Y-68813748D02*
X171694000Y-70236252D01*
X173514000Y-68813748D02*
X173514000Y-70236252D01*
X161194000Y-68813748D02*
X161194000Y-70236252D01*
X163014000Y-68813748D02*
X163014000Y-70236252D01*
X139590000Y-68288748D02*
X139590000Y-69711252D01*
X141410000Y-68288748D02*
X141410000Y-69711252D01*
X164694000Y-68813748D02*
X164694000Y-70236252D01*
X166514000Y-68813748D02*
X166514000Y-70236252D01*
X183348091Y-59107418D02*
X183089273Y-60073345D01*
X183451149Y-60191014D02*
X182286464Y-64537679D01*
X186730402Y-67850747D02*
X183832625Y-67074289D01*
X186802854Y-47682275D02*
X184098195Y-57776199D01*
X190502407Y-62080393D02*
X189337722Y-66427060D01*
X193854114Y-49571653D02*
X186802854Y-47682275D01*
X193854114Y-49571653D02*
X191149455Y-59665578D01*
X193331327Y-73816629D02*
X195452648Y-71695309D01*
X196442598Y-79968458D02*
X193260616Y-76786478D01*
X201604477Y-74806579D02*
X198422497Y-71624599D01*
X202594428Y-75259126D02*
X201887319Y-74552019D01*
X205599631Y-89125491D02*
X198210365Y-81736225D01*
X205599631Y-89125491D02*
X210761510Y-83963612D01*
X210761510Y-83963612D02*
X203372245Y-76574346D01*
X145590000Y-78772936D02*
X145590000Y-80227064D01*
X147410000Y-78772936D02*
X147410000Y-80227064D01*
X167515000Y-57272936D02*
X167515000Y-57727064D01*
X168985000Y-57272936D02*
X168985000Y-57727064D01*
X127772936Y-66590000D02*
X129227064Y-66590000D01*
X127772936Y-68410000D02*
X129227064Y-68410000D01*
X178211252Y-76340000D02*
X176788748Y-76340000D01*
X178211252Y-78160000D02*
X176788748Y-78160000D01*
X159265000Y-57272936D02*
X159265000Y-57727064D01*
X160735000Y-57272936D02*
X160735000Y-57727064D01*
X175700000Y-64750000D02*
G75*
G02*
X173300000Y-64750000I-1200000J0D01*
G01*
X173300000Y-64750000D02*
G75*
G02*
X175700000Y-64750000I1200000J0D01*
G01*
X139590000Y-56227064D02*
X139590000Y-54772936D01*
X141410000Y-56227064D02*
X141410000Y-54772936D01*
X167040002Y-47640001D02*
X167040000Y-50500000D01*
X168960000Y-47640002D02*
X167040002Y-47640001D01*
X168960000Y-50500001D02*
X168960000Y-47640002D01*
X160700000Y-80000000D02*
G75*
G02*
X158300000Y-80000000I-1200000J0D01*
G01*
X158300000Y-80000000D02*
G75*
G02*
X160700000Y-80000000I1200000J0D01*
G01*
X128961252Y-76589998D02*
X127538748Y-76589998D01*
X128961252Y-78409998D02*
X127538748Y-78409998D01*
X126089996Y-72772933D02*
X126090001Y-74227064D01*
X127909999Y-72772936D02*
X127910004Y-74227067D01*
X156200000Y-80000000D02*
G75*
G02*
X153800000Y-80000000I-1200000J0D01*
G01*
X153800000Y-80000000D02*
G75*
G02*
X156200000Y-80000000I1200000J0D01*
G01*
%LPC*%
D15*
X147250000Y-57250000D03*
D16*
X187111364Y-78010343D03*
D17*
X186593726Y-76078491D03*
X186076088Y-74146640D03*
X185558449Y-72214787D03*
D18*
X184672983Y-79419458D03*
X189927619Y-78011480D03*
X182861251Y-72657977D03*
X188115888Y-71250000D03*
D19*
X160000001Y-48475002D03*
X159999999Y-50524998D03*
D20*
X150000000Y-68000000D03*
X158509000Y-68000000D03*
D21*
X144000000Y-62562500D03*
X144000000Y-59437500D03*
D22*
X140500000Y-59450000D03*
X140500000Y-62550000D03*
D23*
X199371101Y-60744787D03*
D17*
X197956887Y-62159001D03*
X196542674Y-63573214D03*
X195128460Y-64987429D03*
D18*
X201810620Y-62151929D03*
X197963959Y-58305270D03*
X196860873Y-67101676D03*
X193014210Y-63255016D03*
D24*
X175545000Y-68025000D03*
X178645000Y-68025000D03*
D25*
X207615887Y-65460000D03*
D15*
X207615887Y-68000000D03*
X207615887Y-70540000D03*
X207615887Y-73080000D03*
D25*
X121000000Y-70290000D03*
D15*
X121000000Y-67750000D03*
D26*
X169750000Y-88500000D03*
X169750000Y-86500000D03*
D27*
X127595000Y-86225000D03*
X128865000Y-86225000D03*
X130135000Y-86225000D03*
X131405000Y-86225000D03*
X131405000Y-81275000D03*
X130135000Y-81275000D03*
X128865000Y-81275000D03*
X127595000Y-81275000D03*
D28*
X144487398Y-67499874D03*
X144487398Y-68500126D03*
D29*
X144243510Y-69400000D03*
X144743636Y-69400000D03*
X145243762Y-69400000D03*
X145743888Y-69400000D03*
D28*
X145500000Y-68000000D03*
D30*
X145893700Y-67499874D03*
D29*
X145743888Y-66600000D03*
X145243762Y-66600000D03*
X144743636Y-66600000D03*
X144243510Y-66600000D03*
D31*
X147437500Y-60500000D03*
X150562500Y-60500000D03*
D32*
X165080000Y-88750000D03*
D33*
X162539996Y-88749998D03*
X160000000Y-88750000D03*
X157460000Y-88750000D03*
D34*
X162850000Y-58830000D03*
X163500000Y-58830000D03*
X164150000Y-58830000D03*
X164150000Y-56170000D03*
X163500000Y-56170000D03*
X162850000Y-56170000D03*
D15*
X132000000Y-65000000D03*
D35*
X150500000Y-77937500D03*
X150500000Y-81062500D03*
X169104000Y-67962500D03*
X169104000Y-71087500D03*
X144000000Y-74437500D03*
X144000000Y-77562500D03*
D24*
X146950000Y-75500000D03*
X150050000Y-75500000D03*
D27*
X175690000Y-85450000D03*
X176960000Y-85450000D03*
X178230000Y-85450000D03*
X179500000Y-85450000D03*
X179500000Y-80500000D03*
X178230000Y-80500000D03*
X176960000Y-80500000D03*
X175690000Y-80500000D03*
D36*
X183000000Y-88750000D03*
D37*
X181550000Y-88750000D03*
D35*
X133500000Y-67437500D03*
X133500000Y-70562500D03*
D15*
X123750000Y-80000000D03*
D38*
X178750000Y-75050000D03*
X178750000Y-71950000D03*
D15*
X172000000Y-55250000D03*
D38*
X176250000Y-75050000D03*
X176250000Y-71950000D03*
D39*
X163000000Y-53500000D03*
X165000000Y-53500000D03*
D38*
X144000000Y-57050000D03*
X144000000Y-53950000D03*
X129500000Y-75050000D03*
X129500000Y-71950000D03*
D35*
X137000000Y-67437500D03*
X137000000Y-70562500D03*
D26*
X173500000Y-88500000D03*
X173500000Y-86500000D03*
D35*
X172604000Y-67962500D03*
X172604000Y-71087500D03*
X162104000Y-67962500D03*
X162104000Y-71087500D03*
X140500000Y-67437500D03*
X140500000Y-70562500D03*
X165604000Y-67962500D03*
X165604000Y-71087500D03*
D40*
X187111364Y-60633422D03*
D17*
X186593726Y-62565274D03*
X186076088Y-64497125D03*
X185558450Y-66428978D03*
D18*
X189927621Y-60632283D03*
X184672984Y-59224311D03*
X188115887Y-67393764D03*
X182861249Y-65985789D03*
D41*
X199391233Y-77755214D03*
D17*
X197977019Y-76341000D03*
X196562806Y-74926787D03*
X195148591Y-73512573D03*
D18*
X197984091Y-80194733D03*
X201830750Y-76348072D03*
X193034344Y-75244986D03*
X196881004Y-71398323D03*
D22*
X146500000Y-77950000D03*
X146500000Y-81050000D03*
D42*
X168250000Y-56500000D03*
X168250000Y-58500000D03*
D24*
X126950000Y-67500000D03*
X130050000Y-67500000D03*
D43*
X179062501Y-77250002D03*
X175937499Y-77249998D03*
D42*
X160000000Y-56500000D03*
X160000000Y-58500000D03*
D15*
X174500000Y-64750000D03*
D38*
X140500000Y-57050000D03*
X140500000Y-53950000D03*
D19*
X168000001Y-48475002D03*
X167999999Y-50524998D03*
D15*
X159500000Y-80000000D03*
D43*
X129812501Y-77500000D03*
X126687499Y-77499996D03*
D22*
X127000000Y-71950000D03*
X127000000Y-75050000D03*
D15*
X155000000Y-80000000D03*
%LPD*%
M02*
