G04 #@! TF.GenerationSoftware,KiCad,Pcbnew,8.0.2*
G04 #@! TF.CreationDate,2024-09-05T18:17:44-04:00*
G04 #@! TF.ProjectId,5v-regulator-v1,35762d72-6567-4756-9c61-746f722d7631,rev?*
G04 #@! TF.SameCoordinates,Original*
G04 #@! TF.FileFunction,Soldermask,Bot*
G04 #@! TF.FilePolarity,Negative*
%FSLAX46Y46*%
G04 Gerber Fmt 4.6, Leading zero omitted, Abs format (unit mm)*
G04 Created by KiCad (PCBNEW 8.0.2) date 2024-09-05 18:17:44*
%MOMM*%
%LPD*%
G01*
G04 APERTURE LIST*
G04 Aperture macros list*
%AMRotRect*
0 Rectangle, with rotation*
0 The origin of the aperture is its center*
0 $1 length*
0 $2 width*
0 $3 Rotation angle, in degrees counterclockwise*
0 Add horizontal line*
21,1,$1,$2,0,0,$3*%
G04 Aperture macros list end*
%ADD10RotRect,1.600000X1.600000X105.000000*%
%ADD11C,1.600000*%
%ADD12C,2.150000*%
%ADD13RotRect,1.600000X1.600000X225.000000*%
%ADD14R,2.000000X2.000000*%
%ADD15C,2.000000*%
%ADD16R,1.700000X1.700000*%
%ADD17O,1.700000X1.700000*%
%ADD18RotRect,1.600000X1.600000X255.000000*%
%ADD19RotRect,1.600000X1.600000X135.000000*%
G04 APERTURE END LIST*
D10*
X187111364Y-78010343D03*
D11*
X186593726Y-76078491D03*
X186076088Y-74146640D03*
X185558449Y-72214787D03*
D12*
X184672983Y-79419458D03*
X189927619Y-78011480D03*
X182861251Y-72657977D03*
X188115888Y-71250000D03*
D13*
X199371101Y-60744787D03*
D11*
X197956887Y-62159001D03*
X196542674Y-63573214D03*
X195128460Y-64987429D03*
D12*
X201810620Y-62151929D03*
X197963959Y-58305270D03*
X196860873Y-67101676D03*
X193014210Y-63255016D03*
D14*
X207615887Y-65460000D03*
D15*
X207615887Y-68000000D03*
X207615887Y-70540000D03*
X207615887Y-73080000D03*
D14*
X121000000Y-70290000D03*
D15*
X121000000Y-67750000D03*
D16*
X165080000Y-88750000D03*
D17*
X162539996Y-88749998D03*
X160000000Y-88750000D03*
X157460000Y-88750000D03*
D18*
X187111364Y-60633422D03*
D11*
X186593726Y-62565274D03*
X186076088Y-64497125D03*
X185558450Y-66428978D03*
D12*
X189927621Y-60632283D03*
X184672984Y-59224311D03*
X188115887Y-67393764D03*
X182861249Y-65985789D03*
D19*
X199391233Y-77755214D03*
D11*
X197977019Y-76341000D03*
X196562806Y-74926787D03*
X195148591Y-73512573D03*
D12*
X197984091Y-80194733D03*
X201830750Y-76348072D03*
X193034344Y-75244986D03*
X196881004Y-71398323D03*
M02*
