G04 #@! TF.GenerationSoftware,KiCad,Pcbnew,8.0.2*
G04 #@! TF.CreationDate,2024-09-05T18:17:44-04:00*
G04 #@! TF.ProjectId,5v-regulator-v1,35762d72-6567-4756-9c61-746f722d7631,rev?*
G04 #@! TF.SameCoordinates,Original*
G04 #@! TF.FileFunction,Copper,L1,Top*
G04 #@! TF.FilePolarity,Positive*
%FSLAX46Y46*%
G04 Gerber Fmt 4.6, Leading zero omitted, Abs format (unit mm)*
G04 Created by KiCad (PCBNEW 8.0.2) date 2024-09-05 18:17:44*
%MOMM*%
%LPD*%
G01*
G04 APERTURE LIST*
G04 Aperture macros list*
%AMRoundRect*
0 Rectangle with rounded corners*
0 $1 Rounding radius*
0 $2 $3 $4 $5 $6 $7 $8 $9 X,Y pos of 4 corners*
0 Add a 4 corners polygon primitive as box body*
4,1,4,$2,$3,$4,$5,$6,$7,$8,$9,$2,$3,0*
0 Add four circle primitives for the rounded corners*
1,1,$1+$1,$2,$3*
1,1,$1+$1,$4,$5*
1,1,$1+$1,$6,$7*
1,1,$1+$1,$8,$9*
0 Add four rect primitives between the rounded corners*
20,1,$1+$1,$2,$3,$4,$5,0*
20,1,$1+$1,$4,$5,$6,$7,0*
20,1,$1+$1,$6,$7,$8,$9,0*
20,1,$1+$1,$8,$9,$2,$3,0*%
%AMRotRect*
0 Rectangle, with rotation*
0 The origin of the aperture is its center*
0 $1 length*
0 $2 width*
0 $3 Rotation angle, in degrees counterclockwise*
0 Add horizontal line*
21,1,$1,$2,0,0,$3*%
%AMFreePoly0*
4,1,6,1.000000,0.000000,0.500000,-0.750000,-0.500000,-0.750000,-0.500000,0.750000,0.500000,0.750000,1.000000,0.000000,1.000000,0.000000,$1*%
%AMFreePoly1*
4,1,6,0.500000,-0.750000,-0.650000,-0.750000,-0.150000,0.000000,-0.650000,0.750000,0.500000,0.750000,0.500000,-0.750000,0.500000,-0.750000,$1*%
G04 Aperture macros list end*
G04 #@! TA.AperFunction,SMDPad,CuDef*
%ADD10C,2.000000*%
G04 #@! TD*
G04 #@! TA.AperFunction,ComponentPad*
%ADD11RotRect,1.600000X1.600000X105.000000*%
G04 #@! TD*
G04 #@! TA.AperFunction,ComponentPad*
%ADD12C,1.600000*%
G04 #@! TD*
G04 #@! TA.AperFunction,ComponentPad*
%ADD13C,2.150000*%
G04 #@! TD*
G04 #@! TA.AperFunction,SMDPad,CuDef*
%ADD14RoundRect,0.250000X-0.450000X0.325000X-0.450000X-0.325000X0.450000X-0.325000X0.450000X0.325000X0*%
G04 #@! TD*
G04 #@! TA.AperFunction,SMDPad,CuDef*
%ADD15R,2.311400X5.461000*%
G04 #@! TD*
G04 #@! TA.AperFunction,SMDPad,CuDef*
%ADD16RoundRect,0.250000X0.650000X-0.412500X0.650000X0.412500X-0.650000X0.412500X-0.650000X-0.412500X0*%
G04 #@! TD*
G04 #@! TA.AperFunction,SMDPad,CuDef*
%ADD17RoundRect,0.250000X-0.625000X0.400000X-0.625000X-0.400000X0.625000X-0.400000X0.625000X0.400000X0*%
G04 #@! TD*
G04 #@! TA.AperFunction,ComponentPad*
%ADD18RotRect,1.600000X1.600000X225.000000*%
G04 #@! TD*
G04 #@! TA.AperFunction,SMDPad,CuDef*
%ADD19RoundRect,0.250000X-0.400000X-0.625000X0.400000X-0.625000X0.400000X0.625000X-0.400000X0.625000X0*%
G04 #@! TD*
G04 #@! TA.AperFunction,ComponentPad*
%ADD20R,2.000000X2.000000*%
G04 #@! TD*
G04 #@! TA.AperFunction,ComponentPad*
%ADD21C,2.000000*%
G04 #@! TD*
G04 #@! TA.AperFunction,SMDPad,CuDef*
%ADD22RoundRect,0.250000X0.450000X-0.350000X0.450000X0.350000X-0.450000X0.350000X-0.450000X-0.350000X0*%
G04 #@! TD*
G04 #@! TA.AperFunction,SMDPad,CuDef*
%ADD23RoundRect,0.150000X0.150000X-0.825000X0.150000X0.825000X-0.150000X0.825000X-0.150000X-0.825000X0*%
G04 #@! TD*
G04 #@! TA.AperFunction,SMDPad,CuDef*
%ADD24R,1.397000X0.254000*%
G04 #@! TD*
G04 #@! TA.AperFunction,SMDPad,CuDef*
%ADD25R,0.254000X0.609600*%
G04 #@! TD*
G04 #@! TA.AperFunction,SMDPad,CuDef*
%ADD26R,0.609600X0.254000*%
G04 #@! TD*
G04 #@! TA.AperFunction,SMDPad,CuDef*
%ADD27RoundRect,0.250000X-0.412500X-0.650000X0.412500X-0.650000X0.412500X0.650000X-0.412500X0.650000X0*%
G04 #@! TD*
G04 #@! TA.AperFunction,ComponentPad*
%ADD28R,1.700000X1.700000*%
G04 #@! TD*
G04 #@! TA.AperFunction,ComponentPad*
%ADD29O,1.700000X1.700000*%
G04 #@! TD*
G04 #@! TA.AperFunction,SMDPad,CuDef*
%ADD30RoundRect,0.100000X0.100000X-0.650000X0.100000X0.650000X-0.100000X0.650000X-0.100000X-0.650000X0*%
G04 #@! TD*
G04 #@! TA.AperFunction,SMDPad,CuDef*
%ADD31RoundRect,0.250000X-0.650000X0.412500X-0.650000X-0.412500X0.650000X-0.412500X0.650000X0.412500X0*%
G04 #@! TD*
G04 #@! TA.AperFunction,SMDPad,CuDef*
%ADD32FreePoly0,180.000000*%
G04 #@! TD*
G04 #@! TA.AperFunction,SMDPad,CuDef*
%ADD33FreePoly1,180.000000*%
G04 #@! TD*
G04 #@! TA.AperFunction,SMDPad,CuDef*
%ADD34RoundRect,0.250000X0.625000X-0.400000X0.625000X0.400000X-0.625000X0.400000X-0.625000X-0.400000X0*%
G04 #@! TD*
G04 #@! TA.AperFunction,SMDPad,CuDef*
%ADD35RoundRect,0.250000X-0.350000X-0.450000X0.350000X-0.450000X0.350000X0.450000X-0.350000X0.450000X0*%
G04 #@! TD*
G04 #@! TA.AperFunction,ComponentPad*
%ADD36RotRect,1.600000X1.600000X255.000000*%
G04 #@! TD*
G04 #@! TA.AperFunction,ComponentPad*
%ADD37RotRect,1.600000X1.600000X135.000000*%
G04 #@! TD*
G04 #@! TA.AperFunction,SMDPad,CuDef*
%ADD38RoundRect,0.250000X-0.450000X0.350000X-0.450000X-0.350000X0.450000X-0.350000X0.450000X0.350000X0*%
G04 #@! TD*
G04 #@! TA.AperFunction,SMDPad,CuDef*
%ADD39RoundRect,0.250000X0.412500X0.650000X-0.412500X0.650000X-0.412500X-0.650000X0.412500X-0.650000X0*%
G04 #@! TD*
G04 #@! TA.AperFunction,ViaPad*
%ADD40C,0.600000*%
G04 #@! TD*
G04 #@! TA.AperFunction,Conductor*
%ADD41C,0.200000*%
G04 #@! TD*
G04 #@! TA.AperFunction,Conductor*
%ADD42C,0.400000*%
G04 #@! TD*
G04 APERTURE END LIST*
D10*
X147250000Y-57250000D03*
D11*
X187111364Y-78010343D03*
D12*
X186593726Y-76078491D03*
X186076088Y-74146640D03*
X185558449Y-72214787D03*
D13*
X184672983Y-79419458D03*
X189927619Y-78011480D03*
X182861251Y-72657977D03*
X188115888Y-71250000D03*
D14*
X160000001Y-48475002D03*
X159999999Y-50524998D03*
D15*
X150000000Y-68000000D03*
X158509000Y-68000000D03*
D16*
X144000000Y-62562500D03*
X144000000Y-59437500D03*
D17*
X140500000Y-59450000D03*
X140500000Y-62550000D03*
D18*
X199371101Y-60744787D03*
D12*
X197956887Y-62159001D03*
X196542674Y-63573214D03*
X195128460Y-64987429D03*
D13*
X201810620Y-62151929D03*
X197963959Y-58305270D03*
X196860873Y-67101676D03*
X193014210Y-63255016D03*
D19*
X175545000Y-68025000D03*
X178645000Y-68025000D03*
D20*
X207615887Y-65460000D03*
D21*
X207615887Y-68000000D03*
X207615887Y-70540000D03*
X207615887Y-73080000D03*
D20*
X121000000Y-70290000D03*
D21*
X121000000Y-67750000D03*
D22*
X169750000Y-88500000D03*
X169750000Y-86500000D03*
D23*
X127595000Y-86225000D03*
X128865000Y-86225000D03*
X130135000Y-86225000D03*
X131405000Y-86225000D03*
X131405000Y-81275000D03*
X130135000Y-81275000D03*
X128865000Y-81275000D03*
X127595000Y-81275000D03*
D24*
X144487398Y-67499874D03*
X144487398Y-68500126D03*
D25*
X144243510Y-69400000D03*
X144743636Y-69400000D03*
X145243762Y-69400000D03*
X145743888Y-69400000D03*
D24*
X145500000Y-68000000D03*
D26*
X145893700Y-67499874D03*
D25*
X145743888Y-66600000D03*
X145243762Y-66600000D03*
X144743636Y-66600000D03*
X144243510Y-66600000D03*
D27*
X147437500Y-60500000D03*
X150562500Y-60500000D03*
D28*
X165080000Y-88750000D03*
D29*
X162539996Y-88749998D03*
X160000000Y-88750000D03*
X157460000Y-88750000D03*
D30*
X162850000Y-58830000D03*
X163500000Y-58830000D03*
X164150000Y-58830000D03*
X164150000Y-56170000D03*
X163500000Y-56170000D03*
X162850000Y-56170000D03*
D10*
X132000000Y-65000000D03*
D31*
X150500000Y-77937500D03*
X150500000Y-81062500D03*
X169104000Y-67962500D03*
X169104000Y-71087500D03*
X144000000Y-74437500D03*
X144000000Y-77562500D03*
D19*
X146950000Y-75500000D03*
X150050000Y-75500000D03*
D23*
X175690000Y-85450000D03*
X176960000Y-85450000D03*
X178230000Y-85450000D03*
X179500000Y-85450000D03*
X179500000Y-80500000D03*
X178230000Y-80500000D03*
X176960000Y-80500000D03*
X175690000Y-80500000D03*
D32*
X183000000Y-88750000D03*
D33*
X181550000Y-88750000D03*
D31*
X133500000Y-67437500D03*
X133500000Y-70562500D03*
D10*
X123750000Y-80000000D03*
D34*
X178750000Y-75050000D03*
X178750000Y-71950000D03*
D10*
X172000000Y-55250000D03*
D34*
X176250000Y-75050000D03*
X176250000Y-71950000D03*
D35*
X163000000Y-53500000D03*
X165000000Y-53500000D03*
D34*
X144000000Y-57050000D03*
X144000000Y-53950000D03*
X129500000Y-75050000D03*
X129500000Y-71950000D03*
D31*
X137000000Y-67437500D03*
X137000000Y-70562500D03*
D22*
X173500000Y-88500000D03*
X173500000Y-86500000D03*
D31*
X172604000Y-67962500D03*
X172604000Y-71087500D03*
X162104000Y-67962500D03*
X162104000Y-71087500D03*
X140500000Y-67437500D03*
X140500000Y-70562500D03*
X165604000Y-67962500D03*
X165604000Y-71087500D03*
D36*
X187111364Y-60633422D03*
D12*
X186593726Y-62565274D03*
X186076088Y-64497125D03*
X185558450Y-66428978D03*
D13*
X189927621Y-60632283D03*
X184672984Y-59224311D03*
X188115887Y-67393764D03*
X182861249Y-65985789D03*
D37*
X199391233Y-77755214D03*
D12*
X197977019Y-76341000D03*
X196562806Y-74926787D03*
X195148591Y-73512573D03*
D13*
X197984091Y-80194733D03*
X201830750Y-76348072D03*
X193034344Y-75244986D03*
X196881004Y-71398323D03*
D17*
X146500000Y-77950000D03*
X146500000Y-81050000D03*
D38*
X168250000Y-56500000D03*
X168250000Y-58500000D03*
D19*
X126950000Y-67500000D03*
X130050000Y-67500000D03*
D39*
X179062501Y-77250002D03*
X175937499Y-77249998D03*
D38*
X160000000Y-56500000D03*
X160000000Y-58500000D03*
D10*
X174500000Y-64750000D03*
D34*
X140500000Y-57050000D03*
X140500000Y-53950000D03*
D14*
X168000001Y-48475002D03*
X167999999Y-50524998D03*
D10*
X159500000Y-80000000D03*
D39*
X129812501Y-77500000D03*
X126687499Y-77499996D03*
D17*
X127000000Y-71950000D03*
X127000000Y-75050000D03*
D10*
X155000000Y-80000000D03*
D40*
X151000000Y-75500000D03*
X161500000Y-65000000D03*
X141500000Y-63500000D03*
X163500000Y-60500000D03*
X143643510Y-70000000D03*
X146100000Y-55500000D03*
X159500000Y-73500000D03*
X135500000Y-75000000D03*
X124500000Y-74500000D03*
X174250000Y-85000000D03*
X121500000Y-73500000D03*
X145000000Y-65500000D03*
X154500000Y-75500000D03*
X134500000Y-75000000D03*
X136500000Y-75000000D03*
X123500000Y-74500000D03*
X133500000Y-72000000D03*
X119500000Y-72500000D03*
X167750000Y-54000000D03*
X137500000Y-72000000D03*
X170500000Y-75500000D03*
X134500000Y-72000000D03*
X174500000Y-72500000D03*
X164500000Y-74500000D03*
X152500000Y-75500000D03*
X165500000Y-74500000D03*
X165500000Y-73500000D03*
X167500000Y-75500000D03*
X158500000Y-75500000D03*
X136500000Y-73000000D03*
X123500000Y-73500000D03*
X139500000Y-74000000D03*
X161500000Y-75500000D03*
X132500000Y-72000000D03*
X131500000Y-73000000D03*
X162500000Y-75500000D03*
X119500000Y-73500000D03*
X171500000Y-73500000D03*
X172500000Y-73500000D03*
X131500000Y-72000000D03*
X121500000Y-74500000D03*
X138500000Y-74000000D03*
X138500000Y-75000000D03*
X197250000Y-49500000D03*
X154500000Y-73500000D03*
X163500000Y-74500000D03*
X169500000Y-73500000D03*
X137500000Y-75000000D03*
X141500000Y-75000000D03*
X137500000Y-74000000D03*
X134500000Y-73000000D03*
X176750000Y-87750000D03*
X162500000Y-72500000D03*
X160500000Y-74500000D03*
X145500000Y-54000000D03*
X161500000Y-74500000D03*
X141500000Y-74000000D03*
X163500000Y-72500000D03*
X176250000Y-56250000D03*
X159500000Y-75500000D03*
X135500000Y-73000000D03*
X156500000Y-75500000D03*
X174500000Y-74500000D03*
X131500000Y-71000000D03*
X171500000Y-72500000D03*
X153500000Y-75500000D03*
X166500000Y-75500000D03*
X170500000Y-74500000D03*
X160500000Y-75500000D03*
X132500000Y-73000000D03*
X168500000Y-72500000D03*
X163500000Y-75500000D03*
X156500000Y-73500000D03*
X164500000Y-72500000D03*
X156500000Y-74500000D03*
X169500000Y-74500000D03*
X119500000Y-74500000D03*
X162500000Y-74500000D03*
X173500000Y-72500000D03*
X120500000Y-73500000D03*
X139500000Y-72000000D03*
X166500000Y-73500000D03*
X168500000Y-75500000D03*
X165500000Y-75500000D03*
X161500000Y-73500000D03*
X160500000Y-72500000D03*
X172500000Y-74500000D03*
X136500000Y-72000000D03*
X154500000Y-74500000D03*
X120500000Y-72500000D03*
X173500000Y-74500000D03*
X138500000Y-72000000D03*
X157500000Y-74500000D03*
X168500000Y-74500000D03*
X137500000Y-73000000D03*
X167500000Y-74500000D03*
X173500000Y-75500000D03*
X153500000Y-74500000D03*
X164500000Y-75500000D03*
X169500000Y-72500000D03*
X133500000Y-73000000D03*
X120500000Y-74500000D03*
X174500000Y-75500000D03*
X157500000Y-75500000D03*
X138500000Y-73000000D03*
X137000000Y-61000000D03*
X160500000Y-73500000D03*
X121500000Y-72500000D03*
X131500000Y-70000000D03*
X165500000Y-72500000D03*
X157500000Y-73500000D03*
X158500000Y-73500000D03*
X158500000Y-74500000D03*
X140500000Y-72000000D03*
X133000000Y-61000000D03*
X159500000Y-74500000D03*
X171500000Y-75500000D03*
X134500000Y-74000000D03*
X170500000Y-72500000D03*
X169500000Y-75500000D03*
X157500000Y-61000000D03*
X170750000Y-91000000D03*
X171500000Y-74500000D03*
X174500000Y-73500000D03*
X195250000Y-86000000D03*
X166500000Y-74500000D03*
X155500000Y-74500000D03*
X172500000Y-61000000D03*
X139500000Y-73000000D03*
X166500000Y-72500000D03*
X173500000Y-73500000D03*
X141500000Y-72000000D03*
X155500000Y-73500000D03*
X122500000Y-73500000D03*
X141500000Y-73000000D03*
X167500000Y-72500000D03*
X137000000Y-56500000D03*
X135500000Y-74000000D03*
X164500000Y-73500000D03*
X136500000Y-74000000D03*
X168500000Y-73500000D03*
X122500000Y-74500000D03*
X162500000Y-73500000D03*
X140500000Y-75000000D03*
X179500000Y-51000000D03*
X167000000Y-61000000D03*
X170500000Y-73500000D03*
X139500000Y-75000000D03*
X163500000Y-73500000D03*
X155500000Y-75500000D03*
X122500000Y-72500000D03*
X140500000Y-73000000D03*
X172500000Y-72500000D03*
X161500000Y-72500000D03*
X140500000Y-74000000D03*
X172500000Y-75500000D03*
X135500000Y-72000000D03*
X167500000Y-73500000D03*
X143325735Y-65674265D03*
X142500000Y-59500000D03*
D41*
X131500000Y-64500000D02*
X131500000Y-65000000D01*
X129500000Y-68050000D02*
X129500000Y-71950000D01*
X129770000Y-67780000D02*
X130050000Y-67500000D01*
X130050000Y-67500000D02*
X129500000Y-68050000D01*
X130050000Y-67500000D02*
X133437500Y-67500000D01*
X133437500Y-67500000D02*
X133500000Y-67437500D01*
X137000000Y-67437500D02*
X140500000Y-67437500D01*
X140500000Y-67437500D02*
X144425024Y-67437500D01*
X144425024Y-67437500D02*
X144487398Y-67499874D01*
X131500000Y-65000000D02*
X130050000Y-66450000D01*
X133500000Y-67437500D02*
X137000000Y-67437500D01*
X130050000Y-66450000D02*
X130050000Y-67500000D01*
X150500000Y-75950000D02*
X150050000Y-75500000D01*
X172604000Y-67962500D02*
X169104000Y-67962500D01*
X173500000Y-65000000D02*
X168750000Y-65000000D01*
X168250000Y-64500000D02*
X168250000Y-58500000D01*
X173500000Y-65500000D02*
X173500000Y-65000000D01*
X176250000Y-68730000D02*
X176250000Y-71950000D01*
X160000000Y-58500000D02*
X160000000Y-63500000D01*
X168750000Y-65000000D02*
X168250000Y-64500000D01*
X173032500Y-67962500D02*
X173095000Y-68025000D01*
X162041500Y-68025000D02*
X162104000Y-67962500D01*
X175482500Y-67962500D02*
X175545000Y-68025000D01*
X165604000Y-67962500D02*
X169104000Y-67962500D01*
D42*
X150500000Y-77937500D02*
X150500000Y-75950000D01*
X151009000Y-75500000D02*
X150050000Y-75500000D01*
D41*
X158509000Y-68000000D02*
X163446500Y-68000000D01*
X172604000Y-67962500D02*
X175482500Y-67962500D01*
X172604000Y-66396000D02*
X173500000Y-65500000D01*
X160000000Y-63500000D02*
X161500000Y-65000000D01*
D42*
X151009000Y-75500000D02*
X151000000Y-75500000D01*
D41*
X175545000Y-68025000D02*
X176250000Y-68730000D01*
X162104000Y-67962500D02*
X165604000Y-67962500D01*
X172604000Y-67962500D02*
X173032500Y-67962500D01*
X172604000Y-67962500D02*
X172604000Y-66396000D01*
D42*
X150562500Y-60500000D02*
X150562500Y-67437500D01*
D41*
X145500000Y-68000000D02*
X150000000Y-68000000D01*
X150562500Y-67437500D02*
X150000000Y-68000000D01*
X187111364Y-78925621D02*
X187111364Y-78010343D01*
X178645000Y-68025000D02*
X178750000Y-68130000D01*
X178750000Y-68130000D02*
X178750000Y-71950000D01*
X187111364Y-78925621D02*
X187111364Y-78260343D01*
X185250000Y-88750000D02*
X183000000Y-88750000D01*
X187111364Y-78925621D02*
X187111364Y-86888636D01*
X187111364Y-86888636D02*
X185250000Y-88750000D01*
X159999999Y-50524998D02*
X159999999Y-56499999D01*
X159999999Y-56499999D02*
X160000000Y-56500000D01*
X159975000Y-56475000D02*
X160000000Y-56500000D01*
X163000000Y-53500000D02*
X161000000Y-55500000D01*
X126950000Y-67500000D02*
X126950000Y-71900000D01*
X126950000Y-71900000D02*
X127000000Y-71950000D01*
X163500000Y-54500000D02*
X163500000Y-56170000D01*
X121000000Y-67750000D02*
X126700000Y-67750000D01*
X151150000Y-57400000D02*
X146500000Y-52750000D01*
X127250000Y-67200000D02*
X126950000Y-67500000D01*
X163000000Y-54000000D02*
X163500000Y-54500000D01*
X126950000Y-63849996D02*
X126950000Y-67500000D01*
X126700000Y-67750000D02*
X126950000Y-67500000D01*
X160684744Y-57400000D02*
X151150000Y-57400000D01*
X161000000Y-55500000D02*
X161000000Y-57084744D01*
X161000000Y-57084744D02*
X160684744Y-57400000D01*
X146500000Y-52750000D02*
X138049996Y-52750000D01*
X163000000Y-53500000D02*
X163000000Y-54000000D01*
X138049996Y-52750000D02*
X126950000Y-63849996D01*
X163900000Y-51584314D02*
X163900000Y-54601544D01*
X164650000Y-55351544D02*
X164650000Y-56988456D01*
X160790688Y-48475002D02*
X163900000Y-51584314D01*
X164418456Y-57220000D02*
X163231544Y-57220000D01*
X164650000Y-56988456D02*
X164418456Y-57220000D01*
X162850000Y-56838456D02*
X162850000Y-56170000D01*
X160000001Y-48475002D02*
X160790688Y-48475002D01*
X163900000Y-54601544D02*
X164650000Y-55351544D01*
X163231544Y-57220000D02*
X162850000Y-56838456D01*
X146100000Y-55500000D02*
X146250000Y-55500000D01*
X139950000Y-62000000D02*
X140500000Y-62550000D01*
X163500000Y-58830000D02*
X163500000Y-60500000D01*
X140500000Y-62550000D02*
X140550000Y-62550000D01*
X146250000Y-55500000D02*
X147250000Y-56500000D01*
X143643510Y-70000000D02*
X144243510Y-69400000D01*
X140550000Y-62550000D02*
X141500000Y-63500000D01*
X147250000Y-56500000D02*
X147250000Y-57250000D01*
D42*
X147437500Y-66133874D02*
X147437500Y-60500000D01*
D41*
X146071500Y-67499874D02*
X147437500Y-66133874D01*
X145893700Y-67499874D02*
X146071500Y-67499874D01*
X162104000Y-71087500D02*
X165604000Y-71087500D01*
X145500000Y-57937500D02*
X145500000Y-54000000D01*
X165604000Y-71087500D02*
X169104000Y-71087500D01*
X145243762Y-66600000D02*
X145243762Y-65743762D01*
X145450000Y-53950000D02*
X145500000Y-54000000D01*
X175690000Y-85450000D02*
X175240000Y-85000000D01*
X133500000Y-70562500D02*
X137000000Y-70562500D01*
X142562374Y-68500126D02*
X144487398Y-68500126D01*
X144000000Y-53950000D02*
X145450000Y-53950000D01*
X137000000Y-70562500D02*
X140500000Y-70562500D01*
X144000000Y-59437500D02*
X145500000Y-57937500D01*
X140500000Y-70562500D02*
X142562374Y-68500126D01*
X145243762Y-65743762D02*
X145000000Y-65500000D01*
X172604000Y-71087500D02*
X169104000Y-71087500D01*
X175240000Y-85000000D02*
X174250000Y-85000000D01*
X168600000Y-51124999D02*
X168600000Y-56150000D01*
X167999999Y-50524998D02*
X168600000Y-51124999D01*
X168600000Y-56150000D02*
X168250000Y-56500000D01*
X168000001Y-48475002D02*
X166750000Y-49725003D01*
X166750000Y-49725003D02*
X166750000Y-56230000D01*
X166750000Y-56230000D02*
X164150000Y-58830000D01*
X140500000Y-53950000D02*
X141675000Y-55125000D01*
X145743888Y-64306388D02*
X145743888Y-66600000D01*
D42*
X144000000Y-62562500D02*
X145743888Y-64306388D01*
D41*
X141675000Y-55125000D02*
X141675000Y-58275000D01*
X141675000Y-58275000D02*
X140500000Y-59450000D01*
X143612500Y-62562500D02*
X144000000Y-62562500D01*
D42*
X140500000Y-59450000D02*
X143612500Y-62562500D01*
D41*
X145243762Y-73193738D02*
X144000000Y-74437500D01*
X145243762Y-69400000D02*
X145243762Y-73193738D01*
X144743636Y-69931674D02*
X142500000Y-72175310D01*
D42*
X150500000Y-81062500D02*
X153937500Y-81062500D01*
X153937500Y-81062500D02*
X155000000Y-80000000D01*
X143000000Y-76000000D02*
X146450000Y-76000000D01*
D41*
X147387500Y-77950000D02*
X146500000Y-77950000D01*
D42*
X146950000Y-75500000D02*
X146950000Y-77500000D01*
X150500000Y-81062500D02*
X147387500Y-77950000D01*
X146450000Y-76000000D02*
X146950000Y-75500000D01*
X142500000Y-72175310D02*
X142500000Y-75500000D01*
X142500000Y-75500000D02*
X143000000Y-76000000D01*
D41*
X146950000Y-77500000D02*
X146500000Y-77950000D01*
X144743636Y-69400000D02*
X144743636Y-69931674D01*
X143325735Y-65682225D02*
X144243510Y-66600000D01*
X144000000Y-57050000D02*
X142550000Y-58500000D01*
X142550000Y-58500000D02*
X142500000Y-58500000D01*
X143325735Y-65674265D02*
X143325735Y-65682225D01*
X142500000Y-58500000D02*
X142500000Y-59500000D01*
X139325000Y-58225000D02*
X139325000Y-60084744D01*
X141507843Y-61507843D02*
X142800000Y-62800000D01*
X140500000Y-57050000D02*
X139325000Y-58225000D01*
X140748099Y-61507843D02*
X141507843Y-61507843D01*
X139325000Y-60084744D02*
X140748099Y-61507843D01*
X142800000Y-64300000D02*
X144743636Y-66243636D01*
X142800000Y-62800000D02*
X142800000Y-64300000D01*
X144743636Y-66243636D02*
X144743636Y-66600000D01*
X159210000Y-87000000D02*
X157460000Y-88750000D01*
X131405000Y-87274866D02*
X133630134Y-89500000D01*
X169250000Y-87000000D02*
X159210000Y-87000000D01*
X158000000Y-88750000D02*
X157460000Y-88750000D01*
X179500000Y-85104448D02*
X178570552Y-84175000D01*
X133630134Y-89500000D02*
X156710000Y-89500000D01*
X176960000Y-85450000D02*
X176960000Y-84385000D01*
X176960000Y-84385000D02*
X176750000Y-84175000D01*
X176750000Y-84175000D02*
X172075000Y-84175000D01*
X172075000Y-84175000D02*
X169750000Y-86500000D01*
X178570552Y-84175000D02*
X176750000Y-84175000D01*
X179500000Y-85450000D02*
X179500000Y-85104448D01*
X169750000Y-86500000D02*
X169250000Y-87000000D01*
X131405000Y-86225000D02*
X131405000Y-87274866D01*
X156710000Y-89500000D02*
X157460000Y-88750000D01*
X170434744Y-87400000D02*
X161350000Y-87400000D01*
X173500000Y-86500000D02*
X173000000Y-87000000D01*
X177929999Y-86725000D02*
X173725000Y-86725000D01*
X158850000Y-89900000D02*
X160000000Y-88750000D01*
X178230000Y-86424999D02*
X177929999Y-86725000D01*
X130135000Y-86225000D02*
X130135000Y-86570552D01*
X173725000Y-86725000D02*
X173500000Y-86500000D01*
X130135000Y-86570552D02*
X133464448Y-89900000D01*
X178230000Y-85450000D02*
X178230000Y-86424999D01*
X170834744Y-87000000D02*
X170434744Y-87400000D01*
X133464448Y-89900000D02*
X158850000Y-89900000D01*
X161350000Y-87400000D02*
X160000000Y-88750000D01*
X128865000Y-86225000D02*
X130135000Y-86225000D01*
X173000000Y-87000000D02*
X170834744Y-87000000D01*
X127000000Y-75050000D02*
X127000000Y-77187495D01*
X127595000Y-78407497D02*
X126687499Y-77499996D01*
X127000000Y-77187495D02*
X126687499Y-77499996D01*
X127000000Y-75050000D02*
X127050000Y-75050000D01*
X127595000Y-81275000D02*
X127595000Y-78407497D01*
X129500000Y-75050000D02*
X129500000Y-77187499D01*
X129500000Y-75050000D02*
X129550000Y-75050000D01*
X129812501Y-77500000D02*
X128865000Y-78447501D01*
X129500000Y-77187499D02*
X129812501Y-77500000D01*
X128865000Y-78447501D02*
X128865000Y-81275000D01*
X178750000Y-75050000D02*
X178750000Y-76937501D01*
X179062501Y-77250002D02*
X176960000Y-79352503D01*
X178750000Y-76937501D02*
X179062501Y-77250002D01*
X176960000Y-79352503D02*
X176960000Y-80500000D01*
X176250000Y-75050000D02*
X176250000Y-76937497D01*
X176250000Y-76937497D02*
X175937499Y-77249998D01*
X175750000Y-80440000D02*
X175690000Y-80500000D01*
X175937499Y-77249998D02*
X175750000Y-77437497D01*
X175750000Y-77437497D02*
X175750000Y-80440000D01*
X177500000Y-88750000D02*
X178000000Y-88750000D01*
X128265000Y-87240552D02*
X128524448Y-87500000D01*
X179500000Y-80500000D02*
X179955542Y-80500000D01*
X179500000Y-80500000D02*
X179800000Y-80800000D01*
X179955542Y-80500000D02*
X180250000Y-80794458D01*
X131405000Y-82069448D02*
X128265000Y-85209448D01*
X133298762Y-90300000D02*
X163530000Y-90300000D01*
X165080000Y-88750000D02*
X177500000Y-88750000D01*
X130498762Y-87500000D02*
X133298762Y-90300000D01*
X181550000Y-88750000D02*
X177500000Y-88750000D01*
X128265000Y-85209448D02*
X128265000Y-87240552D01*
X178000000Y-88750000D02*
X180250000Y-86500000D01*
X128524448Y-87500000D02*
X130498762Y-87500000D01*
X180250000Y-86500000D02*
X180250000Y-80794458D01*
X163530000Y-90300000D02*
X165080000Y-88750000D01*
X131405000Y-81275000D02*
X131405000Y-82069448D01*
G04 #@! TA.AperFunction,Conductor*
G36*
X152985648Y-62014352D02*
G01*
X153000000Y-62049000D01*
X153000000Y-70983666D01*
X152990200Y-71013066D01*
X151668825Y-72774900D01*
X151636555Y-72794008D01*
X151629625Y-72794500D01*
X150580628Y-72794500D01*
X150569998Y-72793333D01*
X147013928Y-72003095D01*
X146989910Y-71989910D01*
X146014352Y-71014352D01*
X146000000Y-70979704D01*
X146000000Y-69885088D01*
X146013057Y-69853565D01*
X146012758Y-69853365D01*
X146013764Y-69851859D01*
X146014352Y-69850440D01*
X146015436Y-69849354D01*
X146015440Y-69849352D01*
X146059755Y-69783031D01*
X146071388Y-69724548D01*
X146071388Y-69075452D01*
X146059755Y-69016969D01*
X146033189Y-68977212D01*
X146015440Y-68950647D01*
X145949119Y-68906333D01*
X145949116Y-68906332D01*
X145909382Y-68898428D01*
X145884403Y-68885127D01*
X145745071Y-68746667D01*
X145730910Y-68717321D01*
X145706141Y-68494391D01*
X145687116Y-68428063D01*
X145673064Y-68398826D01*
X145633156Y-68342536D01*
X145487162Y-68196542D01*
X145420495Y-68151995D01*
X145420491Y-68151993D01*
X145420489Y-68151992D01*
X145385854Y-68137645D01*
X145385844Y-68137642D01*
X145354130Y-68131334D01*
X145307204Y-68122000D01*
X145307201Y-68122000D01*
X145136674Y-68122000D01*
X145102135Y-68107757D01*
X145055365Y-68061280D01*
X145040904Y-68026677D01*
X145055147Y-67991984D01*
X145078054Y-67978977D01*
X145641761Y-67838493D01*
X145672357Y-67840768D01*
X145687719Y-67847132D01*
X145698562Y-67851132D01*
X145717586Y-67858150D01*
X145717590Y-67858152D01*
X145717592Y-67858152D01*
X145717594Y-67858153D01*
X145842900Y-67878000D01*
X146194245Y-67878000D01*
X146201910Y-67878603D01*
X146221464Y-67881700D01*
X146230757Y-67884125D01*
X146234890Y-67885649D01*
X146242490Y-67888453D01*
X146264735Y-67893794D01*
X146264738Y-67893794D01*
X146264741Y-67893795D01*
X146304043Y-67898446D01*
X146359405Y-67905000D01*
X147953115Y-67905000D01*
X147966054Y-67904632D01*
X147976125Y-67904346D01*
X148100103Y-67877418D01*
X148133214Y-67864539D01*
X148182878Y-67841240D01*
X148282836Y-67763113D01*
X148353759Y-67657920D01*
X148369602Y-67623927D01*
X148381906Y-67594569D01*
X148407177Y-67470243D01*
X148410955Y-67383355D01*
X148410955Y-67383354D01*
X148565392Y-63831287D01*
X148642975Y-62046872D01*
X148658818Y-62012879D01*
X148691929Y-62000000D01*
X152951000Y-62000000D01*
X152985648Y-62014352D01*
G37*
G04 #@! TD.AperFunction*
G04 #@! TA.AperFunction,Conductor*
G36*
X128715034Y-63417839D02*
G01*
X128747188Y-63424920D01*
X139659072Y-64233208D01*
X139674630Y-64234060D01*
X139684144Y-64234398D01*
X139688114Y-64234520D01*
X139777649Y-64222689D01*
X139801306Y-64225401D01*
X139804886Y-64226747D01*
X139807502Y-64227731D01*
X139807503Y-64227731D01*
X139807508Y-64227733D01*
X139920225Y-64252553D01*
X140379526Y-64286575D01*
X140685726Y-64309257D01*
X140685789Y-64309257D01*
X140745204Y-64309289D01*
X140781385Y-64306648D01*
X140828889Y-64300341D01*
X140948144Y-64257054D01*
X141009283Y-64223234D01*
X141093040Y-64161678D01*
X141169960Y-64060788D01*
X141203109Y-63999282D01*
X141210796Y-63979212D01*
X141236590Y-63951990D01*
X141274079Y-63950980D01*
X141283042Y-63955515D01*
X141289947Y-63959953D01*
X141342685Y-63975438D01*
X141428034Y-64000499D01*
X141428037Y-64000499D01*
X141428039Y-64000500D01*
X141428040Y-64000500D01*
X141571958Y-64000500D01*
X141571961Y-64000500D01*
X141651015Y-63977287D01*
X141668423Y-63975438D01*
X141972242Y-63997943D01*
X142005734Y-64014815D01*
X142012448Y-64024896D01*
X142817038Y-65634077D01*
X142821713Y-65662961D01*
X142820088Y-65674267D01*
X142840568Y-65816719D01*
X142857527Y-65853852D01*
X142900358Y-65947638D01*
X142900359Y-65947639D01*
X142900360Y-65947641D01*
X142994606Y-66056407D01*
X142994607Y-66056408D01*
X143028381Y-66078113D01*
X143032792Y-66080948D01*
X143050128Y-66100257D01*
X143499999Y-67000000D01*
X143500000Y-67000000D01*
X143912791Y-67000000D01*
X143947439Y-67014352D01*
X143953533Y-67021777D01*
X143971957Y-67049352D01*
X143993446Y-67063710D01*
X144038279Y-67093667D01*
X144096762Y-67105300D01*
X144096765Y-67105300D01*
X144390255Y-67105300D01*
X144390258Y-67105300D01*
X144448741Y-67093667D01*
X144466349Y-67081900D01*
X144503130Y-67074583D01*
X144520794Y-67081899D01*
X144538405Y-67093667D01*
X144596888Y-67105300D01*
X144596891Y-67105300D01*
X144890381Y-67105300D01*
X144890384Y-67105300D01*
X144948867Y-67093667D01*
X144966475Y-67081900D01*
X145003256Y-67074583D01*
X145020920Y-67081899D01*
X145038531Y-67093667D01*
X145092780Y-67104457D01*
X145117868Y-67117868D01*
X145374048Y-67374048D01*
X145388400Y-67408696D01*
X145388400Y-67525516D01*
X145374048Y-67560164D01*
X145361314Y-67569343D01*
X145165345Y-67667327D01*
X145143433Y-67672500D01*
X144781752Y-67672500D01*
X144723269Y-67684133D01*
X144656947Y-67728447D01*
X144623868Y-67777954D01*
X144592685Y-67798790D01*
X144573569Y-67798790D01*
X144552000Y-67794500D01*
X142520296Y-67794500D01*
X142481155Y-67802285D01*
X142441655Y-67810142D01*
X142441645Y-67810145D01*
X142407010Y-67824492D01*
X142407006Y-67824494D01*
X142407005Y-67824495D01*
X142341223Y-67868450D01*
X142340335Y-67869044D01*
X140929232Y-69280148D01*
X140894584Y-69294500D01*
X129849500Y-69294500D01*
X129810359Y-69302285D01*
X129770859Y-69310142D01*
X129770849Y-69310145D01*
X129736216Y-69324491D01*
X129736210Y-69324494D01*
X129736209Y-69324495D01*
X129718118Y-69335861D01*
X129677916Y-69361122D01*
X129624995Y-69435706D01*
X129624994Y-69435708D01*
X129610894Y-69469751D01*
X129584375Y-69496270D01*
X129565624Y-69500000D01*
X129434376Y-69500000D01*
X129399728Y-69485648D01*
X129389106Y-69469751D01*
X129375008Y-69435716D01*
X129375007Y-69435715D01*
X129375005Y-69435709D01*
X129338379Y-69377419D01*
X129338378Y-69377418D01*
X129338377Y-69377416D01*
X129263793Y-69324496D01*
X129229146Y-69310144D01*
X129229140Y-69310142D01*
X129197426Y-69303834D01*
X129150500Y-69294500D01*
X128704500Y-69294500D01*
X128669852Y-69280148D01*
X128655500Y-69245500D01*
X128655500Y-63465694D01*
X128669852Y-63431046D01*
X128704500Y-63416694D01*
X128715034Y-63417839D01*
G37*
G04 #@! TD.AperFunction*
G04 #@! TA.AperFunction,Conductor*
G36*
X139186502Y-53270185D02*
G01*
X139232257Y-53322989D01*
X139242201Y-53392147D01*
X139238540Y-53409094D01*
X139227401Y-53447432D01*
X139224500Y-53484298D01*
X139224500Y-54415701D01*
X139227401Y-54452567D01*
X139227402Y-54452573D01*
X139273254Y-54610393D01*
X139273255Y-54610396D01*
X139356917Y-54751862D01*
X139356923Y-54751870D01*
X139473129Y-54868076D01*
X139473133Y-54868079D01*
X139473135Y-54868081D01*
X139614602Y-54951744D01*
X139651758Y-54962539D01*
X139772426Y-54997597D01*
X139772429Y-54997597D01*
X139772431Y-54997598D01*
X139809306Y-55000500D01*
X140791324Y-55000500D01*
X140858363Y-55020185D01*
X140879005Y-55036819D01*
X141138181Y-55295995D01*
X141171666Y-55357318D01*
X141174500Y-55383676D01*
X141174500Y-55875500D01*
X141154815Y-55942539D01*
X141102011Y-55988294D01*
X141050500Y-55999500D01*
X139809298Y-55999500D01*
X139772432Y-56002401D01*
X139772426Y-56002402D01*
X139614606Y-56048254D01*
X139614603Y-56048255D01*
X139473137Y-56131917D01*
X139473129Y-56131923D01*
X139356923Y-56248129D01*
X139356917Y-56248137D01*
X139273255Y-56389603D01*
X139273254Y-56389606D01*
X139227402Y-56547426D01*
X139227401Y-56547432D01*
X139224500Y-56584298D01*
X139224500Y-57515701D01*
X139227456Y-57553257D01*
X139213091Y-57621634D01*
X139191519Y-57650666D01*
X139017686Y-57824500D01*
X138924502Y-57917683D01*
X138924500Y-57917686D01*
X138858608Y-58031812D01*
X138824500Y-58159108D01*
X138824500Y-60150635D01*
X138858608Y-60277931D01*
X138889320Y-60331125D01*
X138924500Y-60392058D01*
X138924502Y-60392060D01*
X139827508Y-61295066D01*
X139860993Y-61356389D01*
X139856009Y-61426081D01*
X139814137Y-61482014D01*
X139774422Y-61501823D01*
X139614606Y-61548254D01*
X139614603Y-61548255D01*
X139473137Y-61631917D01*
X139473129Y-61631923D01*
X139356923Y-61748129D01*
X139356917Y-61748137D01*
X139273255Y-61889603D01*
X139273254Y-61889606D01*
X139227402Y-62047426D01*
X139227401Y-62047432D01*
X139224500Y-62084298D01*
X139224500Y-63015701D01*
X139227401Y-63052567D01*
X139227402Y-63052573D01*
X139273254Y-63210393D01*
X139273255Y-63210396D01*
X139356917Y-63351862D01*
X139356923Y-63351870D01*
X139473129Y-63468076D01*
X139473133Y-63468079D01*
X139473135Y-63468081D01*
X139614602Y-63551744D01*
X139663299Y-63565892D01*
X139732782Y-63586079D01*
X139791668Y-63623685D01*
X139820874Y-63687157D01*
X139811128Y-63756344D01*
X139765524Y-63809279D01*
X139698541Y-63829154D01*
X139689027Y-63828816D01*
X128777143Y-63020528D01*
X128711741Y-62995945D01*
X128670012Y-62939905D01*
X128665204Y-62870201D01*
X128698619Y-62809190D01*
X138220991Y-53286819D01*
X138282314Y-53253334D01*
X138308672Y-53250500D01*
X139119463Y-53250500D01*
X139186502Y-53270185D01*
G37*
G04 #@! TD.AperFunction*
G04 #@! TA.AperFunction,Conductor*
G36*
X146308363Y-53270185D02*
G01*
X146329005Y-53286819D01*
X150749500Y-57707314D01*
X150842686Y-57800500D01*
X150956814Y-57866392D01*
X151084108Y-57900500D01*
X158780539Y-57900500D01*
X158847578Y-57920185D01*
X158893333Y-57972989D01*
X158903277Y-58042147D01*
X158902520Y-58046785D01*
X158902401Y-58047431D01*
X158899500Y-58084298D01*
X158899500Y-58915701D01*
X158902401Y-58952567D01*
X158902402Y-58952573D01*
X158948254Y-59110393D01*
X158948255Y-59110396D01*
X159031917Y-59251862D01*
X159031923Y-59251870D01*
X159148129Y-59368076D01*
X159148133Y-59368079D01*
X159148135Y-59368081D01*
X159289602Y-59451744D01*
X159341535Y-59466832D01*
X159410095Y-59486751D01*
X159468981Y-59524357D01*
X159498187Y-59587829D01*
X159499500Y-59605827D01*
X159499500Y-62376000D01*
X159479815Y-62443039D01*
X159427011Y-62488794D01*
X159375500Y-62500000D01*
X155539356Y-62500000D01*
X155472317Y-62480315D01*
X155467847Y-62477304D01*
X155445758Y-62461712D01*
X153978615Y-61426081D01*
X151663750Y-59792058D01*
X151620333Y-59737316D01*
X151616183Y-59725349D01*
X151576745Y-59589606D01*
X151576744Y-59589603D01*
X151576744Y-59589602D01*
X151493081Y-59448135D01*
X151493079Y-59448133D01*
X151493076Y-59448129D01*
X151376870Y-59331923D01*
X151376862Y-59331917D01*
X151252916Y-59258616D01*
X151235398Y-59248256D01*
X151235397Y-59248255D01*
X151235396Y-59248255D01*
X151235393Y-59248254D01*
X151077573Y-59202402D01*
X151077567Y-59202401D01*
X151040701Y-59199500D01*
X151040694Y-59199500D01*
X150084306Y-59199500D01*
X150084298Y-59199500D01*
X150047432Y-59202401D01*
X150047426Y-59202402D01*
X149889606Y-59248254D01*
X149889603Y-59248255D01*
X149748137Y-59331917D01*
X149748129Y-59331923D01*
X149631922Y-59448130D01*
X149628921Y-59452000D01*
X149572278Y-59492907D01*
X149530941Y-59500000D01*
X148469059Y-59500000D01*
X148402020Y-59480315D01*
X148371079Y-59452000D01*
X148368077Y-59448130D01*
X148251870Y-59331923D01*
X148251862Y-59331917D01*
X148127916Y-59258616D01*
X148110398Y-59248256D01*
X148110397Y-59248255D01*
X148110396Y-59248255D01*
X148110393Y-59248254D01*
X147952573Y-59202402D01*
X147952567Y-59202401D01*
X147915701Y-59199500D01*
X147915694Y-59199500D01*
X146959306Y-59199500D01*
X146959298Y-59199500D01*
X146922432Y-59202401D01*
X146922426Y-59202402D01*
X146764606Y-59248254D01*
X146764603Y-59248255D01*
X146623137Y-59331917D01*
X146623129Y-59331923D01*
X146506923Y-59448129D01*
X146506917Y-59448137D01*
X146423255Y-59589603D01*
X146423254Y-59589606D01*
X146377402Y-59747426D01*
X146377401Y-59747432D01*
X146374500Y-59784298D01*
X146374500Y-60496284D01*
X146373542Y-60511664D01*
X146011466Y-63408265D01*
X145983619Y-63472346D01*
X145925547Y-63511198D01*
X145908807Y-63515198D01*
X145880142Y-63519975D01*
X145810779Y-63511579D01*
X145772078Y-63485343D01*
X145336819Y-63050084D01*
X145303334Y-62988761D01*
X145300500Y-62962403D01*
X145300500Y-62084313D01*
X145300499Y-62084298D01*
X145297598Y-62047432D01*
X145297597Y-62047426D01*
X145251745Y-61889606D01*
X145251744Y-61889603D01*
X145251744Y-61889602D01*
X145168081Y-61748135D01*
X145168079Y-61748133D01*
X145168076Y-61748129D01*
X145051870Y-61631923D01*
X145051862Y-61631917D01*
X144921223Y-61554658D01*
X144910398Y-61548256D01*
X144910397Y-61548255D01*
X144910396Y-61548255D01*
X144910393Y-61548254D01*
X144752573Y-61502402D01*
X144752567Y-61502401D01*
X144715701Y-61499500D01*
X144715694Y-61499500D01*
X143450098Y-61499500D01*
X143383059Y-61479815D01*
X143362417Y-61463181D01*
X142310263Y-60411027D01*
X142276778Y-60349704D01*
X142281762Y-60280012D01*
X142323634Y-60224079D01*
X142389098Y-60199662D01*
X142412898Y-60200251D01*
X142414940Y-60200499D01*
X142414944Y-60200500D01*
X142414948Y-60200500D01*
X142585056Y-60200500D01*
X142750225Y-60159790D01*
X142847768Y-60108595D01*
X142900849Y-60080736D01*
X142900850Y-60080734D01*
X142900852Y-60080734D01*
X143028183Y-59967929D01*
X143124818Y-59827930D01*
X143185140Y-59668872D01*
X143205645Y-59500000D01*
X143185140Y-59331128D01*
X143124818Y-59172070D01*
X143081627Y-59109498D01*
X143023922Y-59025898D01*
X143026186Y-59024334D01*
X143001961Y-58972774D01*
X143000500Y-58953796D01*
X143000500Y-58808676D01*
X143020185Y-58741637D01*
X143036819Y-58720995D01*
X143620995Y-58136819D01*
X143682318Y-58103334D01*
X143708676Y-58100500D01*
X144690686Y-58100500D01*
X144690694Y-58100500D01*
X144727569Y-58097598D01*
X144727571Y-58097597D01*
X144727573Y-58097597D01*
X144773347Y-58084298D01*
X144885398Y-58051744D01*
X145026865Y-57968081D01*
X145143081Y-57851865D01*
X145226744Y-57710398D01*
X145272398Y-57553257D01*
X145272597Y-57552573D01*
X145272598Y-57552567D01*
X145275499Y-57515701D01*
X145275500Y-57515694D01*
X145275500Y-56584306D01*
X145272598Y-56547431D01*
X145269949Y-56538314D01*
X145226745Y-56389606D01*
X145226744Y-56389603D01*
X145226744Y-56389602D01*
X145143081Y-56248135D01*
X145143079Y-56248133D01*
X145143076Y-56248129D01*
X145026870Y-56131923D01*
X145026862Y-56131917D01*
X144940319Y-56080736D01*
X144885398Y-56048256D01*
X144885397Y-56048255D01*
X144885396Y-56048255D01*
X144885393Y-56048254D01*
X144727573Y-56002402D01*
X144727567Y-56002401D01*
X144690701Y-55999500D01*
X144690694Y-55999500D01*
X143309306Y-55999500D01*
X143309298Y-55999500D01*
X143272432Y-56002401D01*
X143272426Y-56002402D01*
X143114606Y-56048254D01*
X143114603Y-56048255D01*
X142973137Y-56131917D01*
X142973129Y-56131923D01*
X142856923Y-56248129D01*
X142856917Y-56248137D01*
X142773255Y-56389603D01*
X142773254Y-56389606D01*
X142727402Y-56547426D01*
X142727401Y-56547432D01*
X142724500Y-56584298D01*
X142724500Y-57515701D01*
X142727456Y-57553256D01*
X142713091Y-57621633D01*
X142691519Y-57650665D01*
X142387181Y-57955004D01*
X142325858Y-57988489D01*
X142256167Y-57983505D01*
X142200233Y-57941634D01*
X142175816Y-57876169D01*
X142175500Y-57867323D01*
X142175500Y-55500000D01*
X145394355Y-55500000D01*
X145414859Y-55668869D01*
X145414860Y-55668874D01*
X145475182Y-55827931D01*
X145508017Y-55875500D01*
X145571817Y-55967929D01*
X145651320Y-56038362D01*
X145699150Y-56080736D01*
X145796679Y-56131923D01*
X145849775Y-56159790D01*
X146014944Y-56200500D01*
X146033635Y-56200500D01*
X146100674Y-56220185D01*
X146146429Y-56272989D01*
X146156373Y-56342147D01*
X146137444Y-56392321D01*
X146014075Y-56581151D01*
X145920842Y-56793699D01*
X145863866Y-57018691D01*
X145863864Y-57018702D01*
X145844700Y-57249993D01*
X145844700Y-57250006D01*
X145863864Y-57481297D01*
X145863866Y-57481308D01*
X145920842Y-57706300D01*
X146014075Y-57918848D01*
X146141016Y-58113147D01*
X146141019Y-58113151D01*
X146141021Y-58113153D01*
X146298216Y-58283913D01*
X146298219Y-58283915D01*
X146298222Y-58283918D01*
X146481365Y-58426464D01*
X146481371Y-58426468D01*
X146481374Y-58426470D01*
X146685497Y-58536936D01*
X146799487Y-58576068D01*
X146905015Y-58612297D01*
X146905017Y-58612297D01*
X146905019Y-58612298D01*
X147133951Y-58650500D01*
X147133952Y-58650500D01*
X147366048Y-58650500D01*
X147366049Y-58650500D01*
X147594981Y-58612298D01*
X147814503Y-58536936D01*
X148018626Y-58426470D01*
X148201784Y-58283913D01*
X148358979Y-58113153D01*
X148485924Y-57918849D01*
X148579157Y-57706300D01*
X148636134Y-57481305D01*
X148637393Y-57466112D01*
X148655300Y-57250006D01*
X148655300Y-57249993D01*
X148636135Y-57018702D01*
X148636133Y-57018691D01*
X148579157Y-56793699D01*
X148485924Y-56581151D01*
X148358983Y-56386852D01*
X148358980Y-56386849D01*
X148358979Y-56386847D01*
X148201784Y-56216087D01*
X148201779Y-56216083D01*
X148201777Y-56216081D01*
X148018634Y-56073535D01*
X148018628Y-56073531D01*
X147814504Y-55963064D01*
X147814495Y-55963061D01*
X147594984Y-55887702D01*
X147423282Y-55859050D01*
X147366049Y-55849500D01*
X147366048Y-55849500D01*
X147358676Y-55849500D01*
X147291637Y-55829815D01*
X147270995Y-55813181D01*
X146801638Y-55343824D01*
X146773378Y-55300115D01*
X146724818Y-55172070D01*
X146715353Y-55158358D01*
X146690476Y-55122318D01*
X146628183Y-55032071D01*
X146500852Y-54919266D01*
X146500849Y-54919263D01*
X146350226Y-54840210D01*
X146185056Y-54799500D01*
X146014944Y-54799500D01*
X145849773Y-54840210D01*
X145699150Y-54919263D01*
X145607453Y-55000500D01*
X145578773Y-55025909D01*
X145571816Y-55032072D01*
X145475182Y-55172068D01*
X145414860Y-55331125D01*
X145414859Y-55331130D01*
X145394355Y-55500000D01*
X142175500Y-55500000D01*
X142175500Y-55059110D01*
X142175500Y-55059108D01*
X142141392Y-54931814D01*
X142075500Y-54817686D01*
X141982314Y-54724500D01*
X141808480Y-54550666D01*
X141774995Y-54489343D01*
X141772543Y-54453254D01*
X141772597Y-54452573D01*
X141772598Y-54452569D01*
X141775500Y-54415694D01*
X141775500Y-53484306D01*
X141772598Y-53447431D01*
X141761460Y-53409094D01*
X141761660Y-53339225D01*
X141799603Y-53280555D01*
X141863241Y-53251712D01*
X141880537Y-53250500D01*
X146241324Y-53250500D01*
X146308363Y-53270185D01*
G37*
G04 #@! TD.AperFunction*
G04 #@! TA.AperFunction,Conductor*
G36*
X192739740Y-46000498D02*
G01*
X192744703Y-46000600D01*
X193670434Y-46038300D01*
X193675308Y-46038595D01*
X194601539Y-46113267D01*
X194606355Y-46113752D01*
X195528831Y-46225159D01*
X195533668Y-46225840D01*
X196451055Y-46373821D01*
X196455846Y-46374692D01*
X197366559Y-46558992D01*
X197371327Y-46560056D01*
X198009217Y-46715764D01*
X198273992Y-46780395D01*
X198278755Y-46781658D01*
X199171955Y-47037687D01*
X199176664Y-47039139D01*
X200058965Y-47330448D01*
X200063612Y-47332086D01*
X200933638Y-47658219D01*
X200938199Y-47660032D01*
X201794618Y-48020492D01*
X201799095Y-48022482D01*
X202640511Y-48416683D01*
X202644912Y-48418852D01*
X203470000Y-48846172D01*
X203474302Y-48848510D01*
X203846428Y-49060398D01*
X204281747Y-49308268D01*
X204285980Y-49310791D01*
X204297680Y-49318083D01*
X205074517Y-49802265D01*
X205078611Y-49804931D01*
X205276692Y-49939604D01*
X205847019Y-50327363D01*
X205851038Y-50330214D01*
X206598042Y-50882733D01*
X206601945Y-50885741D01*
X206817838Y-51059109D01*
X207326445Y-51467535D01*
X207330208Y-51470683D01*
X208031004Y-52080791D01*
X208034655Y-52084099D01*
X208316491Y-52349870D01*
X208632786Y-52648137D01*
X208710636Y-52721549D01*
X208714154Y-52725001D01*
X209364285Y-53388818D01*
X209367662Y-53392406D01*
X209450783Y-53484313D01*
X209990925Y-54081551D01*
X209994127Y-54085237D01*
X210432433Y-54610393D01*
X210589501Y-54798584D01*
X210592583Y-54802429D01*
X211159156Y-55538883D01*
X211162082Y-55542848D01*
X211698920Y-56301194D01*
X211701678Y-56305258D01*
X211866204Y-56558434D01*
X211886228Y-56625371D01*
X211866884Y-56692510D01*
X211814313Y-56738532D01*
X211762230Y-56750000D01*
X182000000Y-56750000D01*
X176536623Y-62461712D01*
X176476058Y-62496551D01*
X176447015Y-62500000D01*
X168874500Y-62500000D01*
X168807461Y-62480315D01*
X168761706Y-62427511D01*
X168750500Y-62376000D01*
X168750500Y-59605827D01*
X168770185Y-59538788D01*
X168822989Y-59493033D01*
X168839905Y-59486751D01*
X168878587Y-59475512D01*
X168960398Y-59451744D01*
X169101865Y-59368081D01*
X169218081Y-59251865D01*
X169301744Y-59110398D01*
X169347598Y-58952569D01*
X169350500Y-58915694D01*
X169350500Y-58084306D01*
X169347598Y-58047431D01*
X169347410Y-58046785D01*
X169301745Y-57889606D01*
X169301744Y-57889603D01*
X169301744Y-57889602D01*
X169218081Y-57748135D01*
X169218079Y-57748133D01*
X169218076Y-57748129D01*
X169101870Y-57631923D01*
X169101862Y-57631917D01*
X169059276Y-57606732D01*
X169011593Y-57555663D01*
X168999089Y-57486922D01*
X169025734Y-57422332D01*
X169059276Y-57393268D01*
X169061425Y-57391996D01*
X169101865Y-57368081D01*
X169218081Y-57251865D01*
X169301744Y-57110398D01*
X169347598Y-56952569D01*
X169350500Y-56915694D01*
X169350500Y-56084306D01*
X169347598Y-56047431D01*
X169344963Y-56038362D01*
X169301745Y-55889606D01*
X169301744Y-55889603D01*
X169301744Y-55889602D01*
X169218081Y-55748135D01*
X169218079Y-55748133D01*
X169218076Y-55748129D01*
X169136819Y-55666872D01*
X169103334Y-55605549D01*
X169100500Y-55579191D01*
X169100500Y-51059109D01*
X169100499Y-51059105D01*
X169093217Y-51031928D01*
X169093916Y-50965232D01*
X169097597Y-50952567D01*
X169100499Y-50915692D01*
X169100499Y-50134304D01*
X169097597Y-50097429D01*
X169051743Y-49939600D01*
X168968080Y-49798133D01*
X168968078Y-49798131D01*
X168968075Y-49798127D01*
X168851869Y-49681921D01*
X168851860Y-49681914D01*
X168724733Y-49606732D01*
X168677050Y-49555663D01*
X168664546Y-49486921D01*
X168691191Y-49422332D01*
X168724729Y-49393271D01*
X168851866Y-49318083D01*
X168968082Y-49201867D01*
X169051745Y-49060400D01*
X169097599Y-48902571D01*
X169100501Y-48865696D01*
X169100501Y-48084308D01*
X169097599Y-48047433D01*
X169090048Y-48021444D01*
X169051746Y-47889608D01*
X169051745Y-47889605D01*
X169051745Y-47889604D01*
X168968082Y-47748137D01*
X168968080Y-47748135D01*
X168968077Y-47748131D01*
X168851871Y-47631925D01*
X168851863Y-47631919D01*
X168710397Y-47548257D01*
X168710394Y-47548256D01*
X168552574Y-47502404D01*
X168552568Y-47502403D01*
X168515702Y-47499502D01*
X168515695Y-47499502D01*
X167484307Y-47499502D01*
X167484299Y-47499502D01*
X167447433Y-47502403D01*
X167447427Y-47502404D01*
X167289607Y-47548256D01*
X167289604Y-47548257D01*
X167148138Y-47631919D01*
X167148130Y-47631925D01*
X167031924Y-47748131D01*
X167031918Y-47748139D01*
X166948256Y-47889605D01*
X166948255Y-47889608D01*
X166902403Y-48047428D01*
X166902402Y-48047434D01*
X166899501Y-48084300D01*
X166899501Y-48816325D01*
X166879816Y-48883364D01*
X166863182Y-48904006D01*
X166442686Y-49324503D01*
X166349502Y-49417686D01*
X166349500Y-49417689D01*
X166283608Y-49531815D01*
X166249500Y-49659111D01*
X166249500Y-55971323D01*
X166229815Y-56038362D01*
X166213181Y-56059004D01*
X165362181Y-56910004D01*
X165300858Y-56943489D01*
X165231166Y-56938505D01*
X165175233Y-56896633D01*
X165150816Y-56831169D01*
X165150500Y-56822323D01*
X165150500Y-55285654D01*
X165150500Y-55285652D01*
X165116392Y-55158358D01*
X165050500Y-55044230D01*
X164957314Y-54951044D01*
X164436819Y-54430549D01*
X164403334Y-54369226D01*
X164400500Y-54342868D01*
X164400500Y-51518423D01*
X164400500Y-51518422D01*
X164395697Y-51500498D01*
X164366392Y-51391128D01*
X164300500Y-51277000D01*
X164207314Y-51183814D01*
X164207313Y-51183813D01*
X164202983Y-51179483D01*
X164202972Y-51179473D01*
X161130909Y-48107409D01*
X161101192Y-48052987D01*
X161099367Y-48053518D01*
X161051746Y-47889608D01*
X161051745Y-47889605D01*
X161051745Y-47889604D01*
X160968082Y-47748137D01*
X160968080Y-47748135D01*
X160968077Y-47748131D01*
X160851871Y-47631925D01*
X160851863Y-47631919D01*
X160710397Y-47548257D01*
X160710394Y-47548256D01*
X160552574Y-47502404D01*
X160552568Y-47502403D01*
X160515702Y-47499502D01*
X160515695Y-47499502D01*
X159484307Y-47499502D01*
X159484299Y-47499502D01*
X159447433Y-47502403D01*
X159447427Y-47502404D01*
X159289607Y-47548256D01*
X159289604Y-47548257D01*
X159148138Y-47631919D01*
X159148130Y-47631925D01*
X159031924Y-47748131D01*
X159031918Y-47748139D01*
X158948256Y-47889605D01*
X158948255Y-47889608D01*
X158902403Y-48047428D01*
X158902402Y-48047434D01*
X158899501Y-48084300D01*
X158899501Y-48865703D01*
X158902402Y-48902569D01*
X158902403Y-48902575D01*
X158948255Y-49060395D01*
X158948256Y-49060398D01*
X159031918Y-49201864D01*
X159031924Y-49201872D01*
X159148130Y-49318078D01*
X159148134Y-49318081D01*
X159148136Y-49318083D01*
X159148138Y-49318084D01*
X159275266Y-49393267D01*
X159322949Y-49444336D01*
X159335453Y-49513077D01*
X159308808Y-49577667D01*
X159275266Y-49606731D01*
X159148137Y-49681914D01*
X159148128Y-49681921D01*
X159031922Y-49798127D01*
X159031916Y-49798135D01*
X158948254Y-49939601D01*
X158948253Y-49939604D01*
X158902401Y-50097424D01*
X158902400Y-50097430D01*
X158899499Y-50134296D01*
X158899499Y-50915699D01*
X158902400Y-50952565D01*
X158902401Y-50952571D01*
X158948253Y-51110391D01*
X158948254Y-51110394D01*
X159031916Y-51251860D01*
X159031922Y-51251868D01*
X159148128Y-51368074D01*
X159148132Y-51368077D01*
X159148134Y-51368079D01*
X159289601Y-51451742D01*
X159341534Y-51466830D01*
X159410094Y-51486749D01*
X159468980Y-51524355D01*
X159498186Y-51587827D01*
X159499499Y-51605825D01*
X159499499Y-55394173D01*
X159479814Y-55461212D01*
X159427010Y-55506967D01*
X159410094Y-55513249D01*
X159289606Y-55548254D01*
X159289603Y-55548255D01*
X159148137Y-55631917D01*
X159148129Y-55631923D01*
X159031923Y-55748129D01*
X159031917Y-55748137D01*
X158948255Y-55889603D01*
X158948254Y-55889606D01*
X158902402Y-56047426D01*
X158902401Y-56047432D01*
X158899500Y-56084298D01*
X158899500Y-56775500D01*
X158879815Y-56842539D01*
X158827011Y-56888294D01*
X158775500Y-56899500D01*
X151408676Y-56899500D01*
X151341637Y-56879815D01*
X151320995Y-56863181D01*
X146807316Y-52349502D01*
X146807314Y-52349500D01*
X146750250Y-52316554D01*
X146693187Y-52283608D01*
X146629539Y-52266554D01*
X146565892Y-52249500D01*
X138115889Y-52249500D01*
X137984104Y-52249500D01*
X137856808Y-52283608D01*
X137742682Y-52349500D01*
X137742679Y-52349502D01*
X127128501Y-62963681D01*
X127067178Y-62997166D01*
X127040820Y-63000000D01*
X118581275Y-63000000D01*
X118514236Y-62980315D01*
X118468481Y-62927511D01*
X118458537Y-62858353D01*
X118462075Y-62841833D01*
X118537687Y-62578045D01*
X118539139Y-62573335D01*
X118830454Y-61691016D01*
X118832086Y-61686387D01*
X118883866Y-61548254D01*
X119158227Y-60816340D01*
X119160025Y-60811817D01*
X119520500Y-59955362D01*
X119522474Y-59950923D01*
X119916692Y-59109468D01*
X119918842Y-59105107D01*
X120346183Y-58279978D01*
X120348498Y-58275718D01*
X120808278Y-57468233D01*
X120810779Y-57464037D01*
X121302280Y-56675459D01*
X121304916Y-56671410D01*
X121827373Y-55902965D01*
X121830214Y-55898961D01*
X121837134Y-55889606D01*
X122382742Y-55151945D01*
X122385741Y-55148054D01*
X122413496Y-55113491D01*
X122967555Y-54423529D01*
X122970683Y-54419791D01*
X122992937Y-54394230D01*
X123202855Y-54153108D01*
X123580791Y-53718995D01*
X123584099Y-53715344D01*
X124221581Y-53039330D01*
X124224969Y-53035877D01*
X124888836Y-52385696D01*
X124892388Y-52382353D01*
X125581579Y-51759049D01*
X125585208Y-51755896D01*
X126298612Y-51160475D01*
X126302401Y-51157438D01*
X127038898Y-50590831D01*
X127042831Y-50587929D01*
X127801218Y-50051062D01*
X127805247Y-50048328D01*
X128584366Y-49542019D01*
X128588526Y-49539430D01*
X129387209Y-49064440D01*
X129391385Y-49062067D01*
X130208304Y-48619188D01*
X130212591Y-48616973D01*
X131046459Y-48206902D01*
X131050891Y-48204831D01*
X131900347Y-47828237D01*
X131904819Y-47826360D01*
X132768589Y-47483804D01*
X132773125Y-47482108D01*
X133649852Y-47174133D01*
X133654488Y-47172608D01*
X134542696Y-46899730D01*
X134547407Y-46898384D01*
X135445791Y-46661002D01*
X135450474Y-46659864D01*
X136357589Y-46458363D01*
X136362367Y-46457401D01*
X137276755Y-46292104D01*
X137281566Y-46291333D01*
X138201783Y-46162498D01*
X138206658Y-46161915D01*
X139131229Y-46069749D01*
X139136109Y-46069360D01*
X140063647Y-46013999D01*
X140068554Y-46013804D01*
X140998791Y-45995316D01*
X141001255Y-45995293D01*
X141003617Y-45995293D01*
X192739740Y-46000498D01*
G37*
G04 #@! TD.AperFunction*
G04 #@! TA.AperFunction,Conductor*
G36*
X162908363Y-54620185D02*
G01*
X162929005Y-54636819D01*
X162963181Y-54670995D01*
X162996666Y-54732318D01*
X162999500Y-54758676D01*
X162999500Y-54895500D01*
X162979815Y-54962539D01*
X162927011Y-55008294D01*
X162875501Y-55019500D01*
X162702130Y-55019500D01*
X162702123Y-55019501D01*
X162642516Y-55025908D01*
X162507671Y-55076202D01*
X162507668Y-55076204D01*
X162399794Y-55156959D01*
X162393761Y-55159209D01*
X162386959Y-55169794D01*
X162306204Y-55277668D01*
X162306202Y-55277671D01*
X162255908Y-55412517D01*
X162249501Y-55472116D01*
X162249500Y-55472135D01*
X162249500Y-56867870D01*
X162249501Y-56867876D01*
X162255908Y-56927483D01*
X162306202Y-57062328D01*
X162306206Y-57062335D01*
X162392452Y-57177544D01*
X162392455Y-57177547D01*
X162507666Y-57263794D01*
X162507668Y-57263796D01*
X162552815Y-57280634D01*
X162577855Y-57289973D01*
X162622204Y-57318474D01*
X162924230Y-57620500D01*
X162976477Y-57650665D01*
X162991343Y-57659248D01*
X163039559Y-57709815D01*
X163052781Y-57778422D01*
X163028610Y-57840945D01*
X162956206Y-57937665D01*
X162956202Y-57937671D01*
X162905908Y-58072517D01*
X162899501Y-58132116D01*
X162899500Y-58132135D01*
X162899500Y-59527870D01*
X162899501Y-59527876D01*
X162905908Y-59587483D01*
X162956203Y-59722328D01*
X162956204Y-59722331D01*
X162960195Y-59727662D01*
X162974766Y-59747126D01*
X162999184Y-59812590D01*
X162999500Y-59821438D01*
X162999500Y-59953796D01*
X162979815Y-60020835D01*
X162976015Y-60025854D01*
X162976078Y-60025898D01*
X162875182Y-60172068D01*
X162814860Y-60331125D01*
X162814859Y-60331130D01*
X162794355Y-60500000D01*
X162814859Y-60668869D01*
X162814860Y-60668874D01*
X162875182Y-60827931D01*
X162937475Y-60918177D01*
X162971817Y-60967929D01*
X163077505Y-61061560D01*
X163099150Y-61080736D01*
X163249773Y-61159789D01*
X163249775Y-61159790D01*
X163414944Y-61200500D01*
X163585056Y-61200500D01*
X163750225Y-61159790D01*
X163829692Y-61118081D01*
X163900849Y-61080736D01*
X163900850Y-61080734D01*
X163900852Y-61080734D01*
X164028183Y-60967929D01*
X164124818Y-60827930D01*
X164185140Y-60668872D01*
X164205645Y-60500000D01*
X164185140Y-60331128D01*
X164165754Y-60280012D01*
X164135600Y-60200500D01*
X164124818Y-60172070D01*
X164124817Y-60172068D01*
X164121331Y-60165426D01*
X164123318Y-60164382D01*
X164104916Y-60108595D01*
X164122375Y-60040942D01*
X164173639Y-59993468D01*
X164228847Y-59980499D01*
X164297872Y-59980499D01*
X164357483Y-59974091D01*
X164492331Y-59923796D01*
X164607546Y-59837546D01*
X164693796Y-59722331D01*
X164744091Y-59587483D01*
X164750500Y-59527873D01*
X164750499Y-58988674D01*
X164770183Y-58921636D01*
X164786813Y-58900999D01*
X166937819Y-56749992D01*
X166999142Y-56716508D01*
X167068834Y-56721492D01*
X167124767Y-56763364D01*
X167149184Y-56828828D01*
X167149500Y-56837674D01*
X167149500Y-56915701D01*
X167152401Y-56952567D01*
X167152402Y-56952573D01*
X167198254Y-57110393D01*
X167198255Y-57110396D01*
X167281917Y-57251862D01*
X167281923Y-57251870D01*
X167398129Y-57368076D01*
X167398132Y-57368078D01*
X167398135Y-57368081D01*
X167438676Y-57392057D01*
X167440724Y-57393268D01*
X167488407Y-57444338D01*
X167500910Y-57513079D01*
X167474264Y-57577669D01*
X167440724Y-57606732D01*
X167398135Y-57631919D01*
X167398129Y-57631923D01*
X167281923Y-57748129D01*
X167281917Y-57748137D01*
X167198255Y-57889603D01*
X167198254Y-57889606D01*
X167152402Y-58047426D01*
X167152401Y-58047432D01*
X167149500Y-58084298D01*
X167149500Y-58915701D01*
X167152401Y-58952567D01*
X167152402Y-58952573D01*
X167198254Y-59110393D01*
X167198255Y-59110396D01*
X167281917Y-59251862D01*
X167281923Y-59251870D01*
X167398129Y-59368076D01*
X167398133Y-59368079D01*
X167398135Y-59368081D01*
X167539602Y-59451744D01*
X167591535Y-59466832D01*
X167660095Y-59486751D01*
X167718981Y-59524357D01*
X167748187Y-59587829D01*
X167749500Y-59605827D01*
X167749500Y-62376000D01*
X167729815Y-62443039D01*
X167677011Y-62488794D01*
X167625500Y-62500000D01*
X160624500Y-62500000D01*
X160557461Y-62480315D01*
X160511706Y-62427511D01*
X160500500Y-62376000D01*
X160500500Y-59605827D01*
X160520185Y-59538788D01*
X160572989Y-59493033D01*
X160589905Y-59486751D01*
X160628587Y-59475512D01*
X160710398Y-59451744D01*
X160851865Y-59368081D01*
X160968081Y-59251865D01*
X161051744Y-59110398D01*
X161097598Y-58952569D01*
X161100500Y-58915694D01*
X161100500Y-58084306D01*
X161097598Y-58047431D01*
X161097410Y-58046785D01*
X161051745Y-57889606D01*
X161051745Y-57889605D01*
X161051744Y-57889603D01*
X161051744Y-57889602D01*
X161045410Y-57878892D01*
X161028230Y-57811169D01*
X161050390Y-57744907D01*
X161064457Y-57728099D01*
X161307312Y-57485245D01*
X161307314Y-57485244D01*
X161400500Y-57392058D01*
X161466392Y-57277930D01*
X161500500Y-57150636D01*
X161500500Y-55758676D01*
X161520185Y-55691637D01*
X161536819Y-55670995D01*
X161863990Y-55343824D01*
X162200013Y-55007800D01*
X162221480Y-54996078D01*
X162226216Y-54983382D01*
X162237795Y-54970018D01*
X162570995Y-54636819D01*
X162632318Y-54603334D01*
X162658676Y-54600500D01*
X162841324Y-54600500D01*
X162908363Y-54620185D01*
G37*
G04 #@! TD.AperFunction*
G04 #@! TA.AperFunction,Conductor*
G36*
X167409095Y-51486459D02*
G01*
X167447425Y-51497595D01*
X167447428Y-51497595D01*
X167447430Y-51497596D01*
X167484305Y-51500498D01*
X167975500Y-51500498D01*
X168042539Y-51520183D01*
X168088294Y-51572987D01*
X168099500Y-51624498D01*
X168099500Y-55375500D01*
X168079815Y-55442539D01*
X168027011Y-55488294D01*
X167975500Y-55499500D01*
X167734298Y-55499500D01*
X167697432Y-55502401D01*
X167697426Y-55502402D01*
X167539606Y-55548254D01*
X167539603Y-55548255D01*
X167437621Y-55608567D01*
X167369897Y-55625750D01*
X167303634Y-55603590D01*
X167259871Y-55549124D01*
X167250500Y-55501835D01*
X167250500Y-51605535D01*
X167270185Y-51538496D01*
X167322989Y-51492741D01*
X167392147Y-51482797D01*
X167409095Y-51486459D01*
G37*
G04 #@! TD.AperFunction*
G04 #@! TA.AperFunction,Conductor*
G36*
X176730148Y-63514352D02*
G01*
X176744500Y-63549000D01*
X176744500Y-69745500D01*
X176730148Y-69780148D01*
X176695500Y-69794500D01*
X176599500Y-69794500D01*
X176560359Y-69802285D01*
X176520859Y-69810142D01*
X176520849Y-69810145D01*
X176486216Y-69824491D01*
X176486210Y-69824494D01*
X176486209Y-69824495D01*
X176476442Y-69830632D01*
X176427916Y-69861122D01*
X176374995Y-69935706D01*
X176374994Y-69935708D01*
X176360894Y-69969751D01*
X176334375Y-69996270D01*
X176315624Y-70000000D01*
X176184376Y-70000000D01*
X176149728Y-69985648D01*
X176139106Y-69969751D01*
X176125008Y-69935716D01*
X176125007Y-69935715D01*
X176125005Y-69935709D01*
X176088379Y-69877419D01*
X176088378Y-69877418D01*
X176088377Y-69877416D01*
X176013793Y-69824496D01*
X175979146Y-69810144D01*
X175979140Y-69810142D01*
X175947426Y-69803834D01*
X175900500Y-69794500D01*
X160535317Y-69794500D01*
X160531243Y-69794974D01*
X160488100Y-69799996D01*
X160488099Y-69799997D01*
X160466202Y-69805166D01*
X160466186Y-69805171D01*
X160431952Y-69816504D01*
X160431950Y-69816505D01*
X160389339Y-69847701D01*
X160358158Y-69870530D01*
X160358156Y-69870531D01*
X160358156Y-69870532D01*
X160333589Y-69898857D01*
X160333582Y-69898867D01*
X160293880Y-69968516D01*
X160293875Y-69968526D01*
X160110330Y-70519163D01*
X159794552Y-71466495D01*
X159769980Y-71494827D01*
X159748067Y-71500000D01*
X156049000Y-71500000D01*
X156014352Y-71485648D01*
X156000000Y-71451000D01*
X156000000Y-63549000D01*
X156014352Y-63514352D01*
X156049000Y-63500000D01*
X176695500Y-63500000D01*
X176730148Y-63514352D01*
G37*
G04 #@! TD.AperFunction*
G04 #@! TA.AperFunction,Conductor*
G36*
X144586648Y-68014352D02*
G01*
X144601000Y-68049000D01*
X144601000Y-68146748D01*
X144612633Y-68205231D01*
X144620206Y-68216564D01*
X144656947Y-68271552D01*
X144683512Y-68289301D01*
X144723269Y-68315867D01*
X144781752Y-68327500D01*
X144781755Y-68327500D01*
X145307204Y-68327500D01*
X145341852Y-68341852D01*
X145487846Y-68487846D01*
X145501898Y-68517083D01*
X145541230Y-68871081D01*
X145530792Y-68907102D01*
X145497941Y-68925192D01*
X145465307Y-68917234D01*
X145448993Y-68906333D01*
X145390510Y-68894700D01*
X145097014Y-68894700D01*
X145061924Y-68901679D01*
X145038529Y-68906333D01*
X145020921Y-68918099D01*
X144984139Y-68925415D01*
X144966477Y-68918099D01*
X144948868Y-68906333D01*
X144934246Y-68903424D01*
X144890384Y-68894700D01*
X144596888Y-68894700D01*
X144561798Y-68901679D01*
X144538403Y-68906333D01*
X144520795Y-68918099D01*
X144484013Y-68925415D01*
X144466351Y-68918099D01*
X144448742Y-68906333D01*
X144434120Y-68903424D01*
X144390258Y-68894700D01*
X144096762Y-68894700D01*
X144038279Y-68906333D01*
X143971957Y-68950647D01*
X143942453Y-68994804D01*
X143927643Y-69016969D01*
X143916010Y-69075452D01*
X143916010Y-69075455D01*
X143916010Y-69282232D01*
X143901658Y-69316880D01*
X143733390Y-69485148D01*
X143698742Y-69499500D01*
X143571544Y-69499500D01*
X143433459Y-69540046D01*
X143312381Y-69617857D01*
X143218135Y-69726623D01*
X143218134Y-69726625D01*
X143158343Y-69857545D01*
X143137863Y-69999997D01*
X143137863Y-70000000D01*
X143158343Y-70142454D01*
X143164995Y-70157019D01*
X143218133Y-70273373D01*
X143218134Y-70273374D01*
X143218135Y-70273376D01*
X143276345Y-70340554D01*
X143312382Y-70382143D01*
X143433457Y-70459953D01*
X143510295Y-70482514D01*
X143571544Y-70500499D01*
X143571547Y-70500499D01*
X143571549Y-70500500D01*
X143571550Y-70500500D01*
X143631542Y-70500500D01*
X143666190Y-70514852D01*
X143680542Y-70549500D01*
X143666190Y-70584148D01*
X142489881Y-71760458D01*
X142455233Y-71774810D01*
X142447270Y-71774810D01*
X142345414Y-71802102D01*
X142345410Y-71802103D01*
X142254086Y-71854830D01*
X142254086Y-71854831D01*
X142179521Y-71929396D01*
X142179520Y-71929396D01*
X142126793Y-72020720D01*
X142126792Y-72020724D01*
X142099500Y-72122579D01*
X142099500Y-75552730D01*
X142126792Y-75654587D01*
X142126793Y-75654589D01*
X142179520Y-75745913D01*
X142677804Y-76244196D01*
X142677809Y-76244202D01*
X142679520Y-76245913D01*
X142754087Y-76320480D01*
X142784218Y-76337876D01*
X142789627Y-76340999D01*
X142845410Y-76373206D01*
X142845412Y-76373207D01*
X142947269Y-76400499D01*
X142947270Y-76400500D01*
X142947273Y-76400500D01*
X143052727Y-76400500D01*
X146168685Y-76400500D01*
X146203333Y-76414852D01*
X146208108Y-76420401D01*
X146213725Y-76428011D01*
X146227850Y-76447151D01*
X146337114Y-76527791D01*
X146337117Y-76527792D01*
X146337118Y-76527793D01*
X146337120Y-76527793D01*
X146337123Y-76527795D01*
X146388422Y-76545745D01*
X146465301Y-76572646D01*
X146495734Y-76575500D01*
X146500500Y-76575500D01*
X146535148Y-76589852D01*
X146549500Y-76624500D01*
X146549500Y-77050500D01*
X146535148Y-77085148D01*
X146500500Y-77099500D01*
X145820724Y-77099500D01*
X145790301Y-77102353D01*
X145790300Y-77102353D01*
X145662123Y-77147204D01*
X145662114Y-77147208D01*
X145552849Y-77227849D01*
X145472208Y-77337114D01*
X145472204Y-77337123D01*
X145427353Y-77465300D01*
X145427353Y-77465301D01*
X145424500Y-77495724D01*
X145424500Y-78404275D01*
X145427353Y-78434698D01*
X145427353Y-78434699D01*
X145472204Y-78562876D01*
X145472208Y-78562885D01*
X145552849Y-78672150D01*
X145662114Y-78752791D01*
X145662117Y-78752792D01*
X145662118Y-78752793D01*
X145662120Y-78752793D01*
X145662123Y-78752795D01*
X145790301Y-78797646D01*
X145820734Y-78800500D01*
X145820744Y-78800500D01*
X147179256Y-78800500D01*
X147179266Y-78800500D01*
X147209699Y-78797646D01*
X147337882Y-78752793D01*
X147447150Y-78672150D01*
X147454149Y-78662666D01*
X147486269Y-78643311D01*
X147522670Y-78652337D01*
X147528222Y-78657115D01*
X149389520Y-80518412D01*
X149403872Y-80553060D01*
X149402744Y-80563515D01*
X149402353Y-80565303D01*
X149399500Y-80595724D01*
X149399500Y-81529275D01*
X149402353Y-81559698D01*
X149402353Y-81559699D01*
X149447204Y-81687876D01*
X149447208Y-81687885D01*
X149527849Y-81797150D01*
X149637114Y-81877791D01*
X149637117Y-81877792D01*
X149637118Y-81877793D01*
X149637120Y-81877793D01*
X149637123Y-81877795D01*
X149747199Y-81916312D01*
X149765301Y-81922646D01*
X149795734Y-81925500D01*
X149795744Y-81925500D01*
X151204256Y-81925500D01*
X151204266Y-81925500D01*
X151234699Y-81922646D01*
X151362882Y-81877793D01*
X151472150Y-81797150D01*
X151552793Y-81687882D01*
X151597646Y-81559699D01*
X151600500Y-81529266D01*
X151600500Y-81512000D01*
X151614852Y-81477352D01*
X151649500Y-81463000D01*
X153990230Y-81463000D01*
X153990230Y-81462999D01*
X154092088Y-81435707D01*
X154183413Y-81382980D01*
X154457715Y-81108676D01*
X154492362Y-81094325D01*
X154510059Y-81097633D01*
X154670060Y-81159618D01*
X154888757Y-81200500D01*
X154888759Y-81200500D01*
X155111241Y-81200500D01*
X155111243Y-81200500D01*
X155329940Y-81159618D01*
X155537401Y-81079247D01*
X155726562Y-80962124D01*
X155890981Y-80812236D01*
X156025058Y-80634689D01*
X156124229Y-80435528D01*
X156185115Y-80221536D01*
X156205643Y-80000000D01*
X156185115Y-79778464D01*
X156124229Y-79564472D01*
X156025058Y-79365311D01*
X155927795Y-79236514D01*
X155890983Y-79187766D01*
X155890980Y-79187763D01*
X155726566Y-79037879D01*
X155726563Y-79037877D01*
X155726562Y-79037876D01*
X155537401Y-78920753D01*
X155537398Y-78920752D01*
X155537397Y-78920751D01*
X155429358Y-78878897D01*
X155329940Y-78840382D01*
X155111243Y-78799500D01*
X154888757Y-78799500D01*
X154670060Y-78840382D01*
X154670055Y-78840384D01*
X154462602Y-78920751D01*
X154273433Y-79037879D01*
X154109019Y-79187763D01*
X154109016Y-79187766D01*
X153974943Y-79365309D01*
X153974940Y-79365313D01*
X153875773Y-79564466D01*
X153875770Y-79564473D01*
X153814885Y-79778461D01*
X153814884Y-79778467D01*
X153794357Y-80000000D01*
X153814884Y-80221532D01*
X153814885Y-80221538D01*
X153875770Y-80435526D01*
X153875773Y-80435533D01*
X153900713Y-80485618D01*
X153903310Y-80523031D01*
X153891498Y-80542107D01*
X153785958Y-80647648D01*
X153751311Y-80662000D01*
X151649500Y-80662000D01*
X151614852Y-80647648D01*
X151600500Y-80613000D01*
X151600500Y-80595743D01*
X151600499Y-80595724D01*
X151597646Y-80565301D01*
X151597646Y-80565300D01*
X151552795Y-80437123D01*
X151552791Y-80437114D01*
X151472150Y-80327849D01*
X151362885Y-80247208D01*
X151362876Y-80247204D01*
X151234698Y-80202353D01*
X151204275Y-80199500D01*
X151204266Y-80199500D01*
X150223688Y-80199500D01*
X150189040Y-80185148D01*
X147633416Y-77629523D01*
X147633415Y-77629522D01*
X147633413Y-77629520D01*
X147599998Y-77610227D01*
X147577169Y-77580474D01*
X147575500Y-77567793D01*
X147575500Y-77495743D01*
X147575499Y-77495724D01*
X147573155Y-77470734D01*
X147572646Y-77465301D01*
X147543362Y-77381613D01*
X147527795Y-77337123D01*
X147527791Y-77337114D01*
X147447150Y-77227849D01*
X147370403Y-77171207D01*
X147351047Y-77139085D01*
X147350500Y-77131782D01*
X147350500Y-76624500D01*
X147364852Y-76589852D01*
X147399500Y-76575500D01*
X147404256Y-76575500D01*
X147404266Y-76575500D01*
X147434699Y-76572646D01*
X147562882Y-76527793D01*
X147579806Y-76515303D01*
X147672150Y-76447150D01*
X147752791Y-76337885D01*
X147752791Y-76337884D01*
X147752793Y-76337882D01*
X147797646Y-76209699D01*
X147800500Y-76179266D01*
X147800500Y-74820734D01*
X147800499Y-74820724D01*
X149199500Y-74820724D01*
X149199500Y-76179275D01*
X149202353Y-76209698D01*
X149202353Y-76209699D01*
X149247204Y-76337876D01*
X149247208Y-76337885D01*
X149327849Y-76447150D01*
X149437114Y-76527791D01*
X149437117Y-76527792D01*
X149437118Y-76527793D01*
X149437120Y-76527793D01*
X149437123Y-76527795D01*
X149488422Y-76545745D01*
X149565301Y-76572646D01*
X149595734Y-76575500D01*
X150050500Y-76575500D01*
X150085148Y-76589852D01*
X150099500Y-76624500D01*
X150099500Y-77025500D01*
X150085148Y-77060148D01*
X150050500Y-77074500D01*
X149795724Y-77074500D01*
X149765301Y-77077353D01*
X149765300Y-77077353D01*
X149637123Y-77122204D01*
X149637114Y-77122208D01*
X149527849Y-77202849D01*
X149447208Y-77312114D01*
X149447204Y-77312123D01*
X149402353Y-77440300D01*
X149402353Y-77440301D01*
X149399500Y-77470724D01*
X149399500Y-78404275D01*
X149402353Y-78434698D01*
X149402353Y-78434699D01*
X149447204Y-78562876D01*
X149447208Y-78562885D01*
X149527849Y-78672150D01*
X149637114Y-78752791D01*
X149637117Y-78752792D01*
X149637118Y-78752793D01*
X149637120Y-78752793D01*
X149637123Y-78752795D01*
X149765301Y-78797646D01*
X149795734Y-78800500D01*
X149795744Y-78800500D01*
X151204256Y-78800500D01*
X151204266Y-78800500D01*
X151234699Y-78797646D01*
X151362882Y-78752793D01*
X151472150Y-78672150D01*
X151525033Y-78600496D01*
X151552791Y-78562885D01*
X151552791Y-78562884D01*
X151552793Y-78562882D01*
X151597646Y-78434699D01*
X151600500Y-78404266D01*
X151600500Y-77470734D01*
X151597646Y-77440301D01*
X151577110Y-77381613D01*
X151552795Y-77312123D01*
X151552791Y-77312114D01*
X151472150Y-77202849D01*
X151362885Y-77122208D01*
X151362876Y-77122204D01*
X151234698Y-77077353D01*
X151204275Y-77074500D01*
X151204266Y-77074500D01*
X150949500Y-77074500D01*
X150914852Y-77060148D01*
X150900500Y-77025500D01*
X150900500Y-76545722D01*
X175074499Y-76545722D01*
X175074499Y-77954273D01*
X175077352Y-77984696D01*
X175077352Y-77984697D01*
X175122203Y-78112874D01*
X175122207Y-78112883D01*
X175202848Y-78222148D01*
X175312113Y-78302789D01*
X175312116Y-78302790D01*
X175312117Y-78302791D01*
X175312119Y-78302791D01*
X175312122Y-78302793D01*
X175416683Y-78339380D01*
X175444647Y-78364369D01*
X175449500Y-78385630D01*
X175449500Y-79298514D01*
X175435148Y-79333162D01*
X175422021Y-79342535D01*
X175333519Y-79385801D01*
X175333515Y-79385803D01*
X175250803Y-79468515D01*
X175250801Y-79468519D01*
X175199428Y-79573603D01*
X175199427Y-79573605D01*
X175189500Y-79641738D01*
X175189500Y-81358261D01*
X175199427Y-81426394D01*
X175199428Y-81426396D01*
X175203980Y-81435707D01*
X175250802Y-81531483D01*
X175333517Y-81614198D01*
X175438607Y-81665573D01*
X175486884Y-81672606D01*
X175506738Y-81675500D01*
X175506740Y-81675500D01*
X175873262Y-81675500D01*
X175890590Y-81672974D01*
X175941393Y-81665573D01*
X176046483Y-81614198D01*
X176129198Y-81531483D01*
X176180573Y-81426393D01*
X176190500Y-81358260D01*
X176190500Y-79641740D01*
X176190500Y-79641738D01*
X176459500Y-79641738D01*
X176459500Y-81358261D01*
X176469427Y-81426394D01*
X176469428Y-81426396D01*
X176473980Y-81435707D01*
X176520802Y-81531483D01*
X176603517Y-81614198D01*
X176708607Y-81665573D01*
X176756884Y-81672606D01*
X176776738Y-81675500D01*
X176776740Y-81675500D01*
X177143262Y-81675500D01*
X177160590Y-81672974D01*
X177211393Y-81665573D01*
X177316483Y-81614198D01*
X177399198Y-81531483D01*
X177450573Y-81426393D01*
X177460500Y-81358260D01*
X177460500Y-79641740D01*
X177450573Y-79573607D01*
X177399198Y-79468517D01*
X177368725Y-79438044D01*
X177354373Y-79403396D01*
X177368725Y-79368748D01*
X177858576Y-78878897D01*
X178413540Y-78323932D01*
X178448187Y-78309581D01*
X178464371Y-78312331D01*
X178565302Y-78347648D01*
X178595735Y-78350502D01*
X178595745Y-78350502D01*
X179529257Y-78350502D01*
X179529267Y-78350502D01*
X179559700Y-78347648D01*
X179687883Y-78302795D01*
X179687889Y-78302791D01*
X179797151Y-78222152D01*
X179877792Y-78112887D01*
X179877792Y-78112886D01*
X179877794Y-78112884D01*
X179922647Y-77984701D01*
X179925501Y-77954268D01*
X179925501Y-76545736D01*
X179922647Y-76515303D01*
X179922645Y-76515298D01*
X179877796Y-76387125D01*
X179877792Y-76387116D01*
X179797151Y-76277851D01*
X179687886Y-76197210D01*
X179687877Y-76197206D01*
X179559699Y-76152355D01*
X179529276Y-76149502D01*
X179529267Y-76149502D01*
X179099500Y-76149502D01*
X179064852Y-76135150D01*
X179050500Y-76100502D01*
X179050500Y-75949500D01*
X179064852Y-75914852D01*
X179099500Y-75900500D01*
X179429256Y-75900500D01*
X179429266Y-75900500D01*
X179459699Y-75897646D01*
X179587882Y-75852793D01*
X179697150Y-75772150D01*
X179777793Y-75662882D01*
X179822646Y-75534699D01*
X179825500Y-75504266D01*
X179825500Y-74595734D01*
X179822646Y-74565301D01*
X179818289Y-74552850D01*
X179777795Y-74437123D01*
X179777791Y-74437114D01*
X179697150Y-74327849D01*
X179587885Y-74247208D01*
X179587876Y-74247204D01*
X179459698Y-74202353D01*
X179429275Y-74199500D01*
X179429266Y-74199500D01*
X178070734Y-74199500D01*
X178070724Y-74199500D01*
X178040301Y-74202353D01*
X178040300Y-74202353D01*
X177912123Y-74247204D01*
X177912114Y-74247208D01*
X177802849Y-74327849D01*
X177722208Y-74437114D01*
X177722204Y-74437123D01*
X177677353Y-74565300D01*
X177677353Y-74565301D01*
X177674500Y-74595724D01*
X177674500Y-75504275D01*
X177677353Y-75534698D01*
X177677353Y-75534699D01*
X177722204Y-75662876D01*
X177722208Y-75662885D01*
X177802849Y-75772150D01*
X177912114Y-75852791D01*
X177912117Y-75852792D01*
X177912118Y-75852793D01*
X177912120Y-75852793D01*
X177912123Y-75852795D01*
X177995993Y-75882142D01*
X178040301Y-75897646D01*
X178070734Y-75900500D01*
X178400500Y-75900500D01*
X178435148Y-75914852D01*
X178449500Y-75949500D01*
X178449500Y-76163334D01*
X178435148Y-76197982D01*
X178429597Y-76202759D01*
X178327850Y-76277851D01*
X178247209Y-76387116D01*
X178247205Y-76387125D01*
X178202354Y-76515302D01*
X178202354Y-76515303D01*
X178199501Y-76545726D01*
X178199501Y-77667735D01*
X178185149Y-77702383D01*
X176719541Y-79167991D01*
X176719540Y-79167991D01*
X176679979Y-79236511D01*
X176679979Y-79236513D01*
X176659500Y-79312939D01*
X176659500Y-79327845D01*
X176645148Y-79362493D01*
X176632022Y-79371866D01*
X176603518Y-79385801D01*
X176603515Y-79385803D01*
X176520803Y-79468515D01*
X176520801Y-79468519D01*
X176469428Y-79573603D01*
X176469427Y-79573605D01*
X176459500Y-79641738D01*
X176190500Y-79641738D01*
X176180573Y-79573607D01*
X176129198Y-79468517D01*
X176064852Y-79404171D01*
X176050500Y-79369523D01*
X176050500Y-78399498D01*
X176064852Y-78364850D01*
X176099500Y-78350498D01*
X176404255Y-78350498D01*
X176404265Y-78350498D01*
X176434698Y-78347644D01*
X176562881Y-78302791D01*
X176578171Y-78291507D01*
X176672149Y-78222148D01*
X176752790Y-78112883D01*
X176752790Y-78112882D01*
X176752792Y-78112880D01*
X176797645Y-77984697D01*
X176800499Y-77954264D01*
X176800499Y-76545732D01*
X176797645Y-76515299D01*
X176775759Y-76452753D01*
X176752794Y-76387121D01*
X176752790Y-76387112D01*
X176672149Y-76277847D01*
X176570403Y-76202755D01*
X176551047Y-76170633D01*
X176550500Y-76163330D01*
X176550500Y-75949500D01*
X176564852Y-75914852D01*
X176599500Y-75900500D01*
X176929256Y-75900500D01*
X176929266Y-75900500D01*
X176959699Y-75897646D01*
X177087882Y-75852793D01*
X177197150Y-75772150D01*
X177277793Y-75662882D01*
X177322646Y-75534699D01*
X177325500Y-75504266D01*
X177325500Y-74595734D01*
X177322646Y-74565301D01*
X177318289Y-74552850D01*
X177277795Y-74437123D01*
X177277791Y-74437114D01*
X177197150Y-74327849D01*
X177087885Y-74247208D01*
X177087876Y-74247204D01*
X176959698Y-74202353D01*
X176929275Y-74199500D01*
X176929266Y-74199500D01*
X175570734Y-74199500D01*
X175570724Y-74199500D01*
X175540301Y-74202353D01*
X175540300Y-74202353D01*
X175412123Y-74247204D01*
X175412114Y-74247208D01*
X175302849Y-74327849D01*
X175222208Y-74437114D01*
X175222204Y-74437123D01*
X175177353Y-74565300D01*
X175177353Y-74565301D01*
X175174500Y-74595724D01*
X175174500Y-75504275D01*
X175177353Y-75534698D01*
X175177353Y-75534699D01*
X175222204Y-75662876D01*
X175222208Y-75662885D01*
X175302849Y-75772150D01*
X175412114Y-75852791D01*
X175412117Y-75852792D01*
X175412118Y-75852793D01*
X175412120Y-75852793D01*
X175412123Y-75852795D01*
X175495993Y-75882142D01*
X175540301Y-75897646D01*
X175570734Y-75900500D01*
X175900500Y-75900500D01*
X175935148Y-75914852D01*
X175949500Y-75949500D01*
X175949500Y-76100498D01*
X175935148Y-76135146D01*
X175900500Y-76149498D01*
X175470723Y-76149498D01*
X175440300Y-76152351D01*
X175440299Y-76152351D01*
X175312122Y-76197202D01*
X175312113Y-76197206D01*
X175202848Y-76277847D01*
X175122207Y-76387112D01*
X175122203Y-76387121D01*
X175077352Y-76515298D01*
X175077352Y-76515299D01*
X175074499Y-76545722D01*
X150900500Y-76545722D01*
X150900500Y-76049500D01*
X150914852Y-76014852D01*
X150949500Y-76000500D01*
X151071960Y-76000500D01*
X151071961Y-76000500D01*
X151071963Y-76000499D01*
X151071965Y-76000499D01*
X151099503Y-75992413D01*
X151210053Y-75959953D01*
X151331128Y-75882143D01*
X151425377Y-75773373D01*
X151485165Y-75642457D01*
X151485165Y-75642455D01*
X151485166Y-75642454D01*
X151505647Y-75500002D01*
X151505647Y-75499997D01*
X151485166Y-75357545D01*
X151480751Y-75347879D01*
X151425377Y-75226627D01*
X151331128Y-75117857D01*
X151210053Y-75040047D01*
X151210050Y-75040046D01*
X151071965Y-74999500D01*
X151071961Y-74999500D01*
X150949500Y-74999500D01*
X150914852Y-74985148D01*
X150900500Y-74950500D01*
X150900500Y-74820743D01*
X150900499Y-74820724D01*
X150897646Y-74790301D01*
X150897646Y-74790300D01*
X150852795Y-74662123D01*
X150852791Y-74662114D01*
X150772150Y-74552849D01*
X150662885Y-74472208D01*
X150662876Y-74472204D01*
X150534698Y-74427353D01*
X150504275Y-74424500D01*
X150504266Y-74424500D01*
X149595734Y-74424500D01*
X149595724Y-74424500D01*
X149565301Y-74427353D01*
X149565300Y-74427353D01*
X149437123Y-74472204D01*
X149437114Y-74472208D01*
X149327849Y-74552849D01*
X149247208Y-74662114D01*
X149247204Y-74662123D01*
X149202353Y-74790300D01*
X149202353Y-74790301D01*
X149199500Y-74820724D01*
X147800499Y-74820724D01*
X147797646Y-74790301D01*
X147769584Y-74710105D01*
X147752795Y-74662123D01*
X147752791Y-74662114D01*
X147672150Y-74552849D01*
X147562885Y-74472208D01*
X147562876Y-74472204D01*
X147434698Y-74427353D01*
X147404275Y-74424500D01*
X147404266Y-74424500D01*
X146495734Y-74424500D01*
X146495724Y-74424500D01*
X146465301Y-74427353D01*
X146465300Y-74427353D01*
X146337123Y-74472204D01*
X146337114Y-74472208D01*
X146227849Y-74552849D01*
X146147208Y-74662114D01*
X146147204Y-74662123D01*
X146102353Y-74790300D01*
X146102353Y-74790301D01*
X146099500Y-74820724D01*
X146099500Y-75550500D01*
X146085148Y-75585148D01*
X146050500Y-75599500D01*
X143186188Y-75599500D01*
X143151540Y-75585148D01*
X142914852Y-75348459D01*
X142900500Y-75313811D01*
X142900500Y-75148506D01*
X142914852Y-75113858D01*
X142949500Y-75099506D01*
X142984148Y-75113858D01*
X142988925Y-75119409D01*
X143027849Y-75172150D01*
X143137114Y-75252791D01*
X143137117Y-75252792D01*
X143137118Y-75252793D01*
X143137120Y-75252793D01*
X143137123Y-75252795D01*
X143197681Y-75273985D01*
X143265301Y-75297646D01*
X143295734Y-75300500D01*
X143295744Y-75300500D01*
X144704256Y-75300500D01*
X144704266Y-75300500D01*
X144734699Y-75297646D01*
X144862882Y-75252793D01*
X144972150Y-75172150D01*
X145000524Y-75133704D01*
X145052791Y-75062885D01*
X145052791Y-75062884D01*
X145052793Y-75062882D01*
X145097646Y-74934699D01*
X145100500Y-74904266D01*
X145100500Y-73970734D01*
X145097646Y-73940301D01*
X145062329Y-73839370D01*
X145064432Y-73801926D01*
X145073928Y-73788541D01*
X145484222Y-73378249D01*
X145501467Y-73348380D01*
X145523783Y-73309727D01*
X145544262Y-73233300D01*
X145544262Y-69954155D01*
X145558614Y-69919507D01*
X145593262Y-69905155D01*
X145596215Y-69905300D01*
X145612287Y-69905300D01*
X145646935Y-69919652D01*
X145660987Y-69948889D01*
X146000000Y-73000000D01*
X159499999Y-73000000D01*
X159500000Y-73000000D01*
X160305284Y-70584148D01*
X160488832Y-70033505D01*
X160513404Y-70005173D01*
X160535317Y-70000000D01*
X175900500Y-70000000D01*
X175935148Y-70014352D01*
X175949500Y-70049000D01*
X175949500Y-71050500D01*
X175935148Y-71085148D01*
X175900500Y-71099500D01*
X175570724Y-71099500D01*
X175540301Y-71102353D01*
X175540300Y-71102353D01*
X175412123Y-71147204D01*
X175412114Y-71147208D01*
X175302849Y-71227849D01*
X175222208Y-71337114D01*
X175222204Y-71337123D01*
X175177353Y-71465300D01*
X175177353Y-71465301D01*
X175174500Y-71495724D01*
X175174500Y-72404275D01*
X175177353Y-72434698D01*
X175177353Y-72434699D01*
X175222204Y-72562876D01*
X175222208Y-72562885D01*
X175302849Y-72672150D01*
X175412114Y-72752791D01*
X175412117Y-72752792D01*
X175412118Y-72752793D01*
X175412120Y-72752793D01*
X175412123Y-72752795D01*
X175474253Y-72774535D01*
X175540301Y-72797646D01*
X175570734Y-72800500D01*
X175570744Y-72800500D01*
X176929256Y-72800500D01*
X176929266Y-72800500D01*
X176959699Y-72797646D01*
X177087882Y-72752793D01*
X177132454Y-72719898D01*
X177197150Y-72672150D01*
X177277791Y-72562885D01*
X177277791Y-72562884D01*
X177277793Y-72562882D01*
X177322646Y-72434699D01*
X177325500Y-72404266D01*
X177325500Y-71495734D01*
X177322646Y-71465301D01*
X177313635Y-71439550D01*
X177277795Y-71337123D01*
X177277791Y-71337114D01*
X177197150Y-71227849D01*
X177087885Y-71147208D01*
X177087876Y-71147204D01*
X176959698Y-71102353D01*
X176929275Y-71099500D01*
X176929266Y-71099500D01*
X176599500Y-71099500D01*
X176564852Y-71085148D01*
X176550500Y-71050500D01*
X176550500Y-70049000D01*
X176564852Y-70014352D01*
X176599500Y-70000000D01*
X176714034Y-70000000D01*
X176748682Y-70014352D01*
X176762093Y-70039441D01*
X176763950Y-70048779D01*
X176763950Y-70048780D01*
X176778300Y-70083423D01*
X176833684Y-70166312D01*
X176888819Y-70203152D01*
X176916574Y-70221698D01*
X176916575Y-70221698D01*
X176916576Y-70221699D01*
X176949621Y-70235387D01*
X176950626Y-70235845D01*
X176951211Y-70236045D01*
X176951222Y-70236050D01*
X176951224Y-70236051D01*
X176951231Y-70236052D01*
X176951233Y-70236053D01*
X177048994Y-70255499D01*
X177049000Y-70255500D01*
X178400500Y-70255500D01*
X178435148Y-70269852D01*
X178449500Y-70304500D01*
X178449500Y-71050500D01*
X178435148Y-71085148D01*
X178400500Y-71099500D01*
X178070724Y-71099500D01*
X178040301Y-71102353D01*
X178040300Y-71102353D01*
X177912123Y-71147204D01*
X177912114Y-71147208D01*
X177802849Y-71227849D01*
X177722208Y-71337114D01*
X177722204Y-71337123D01*
X177677353Y-71465300D01*
X177677353Y-71465301D01*
X177674500Y-71495724D01*
X177674500Y-72404275D01*
X177677353Y-72434698D01*
X177677353Y-72434699D01*
X177722204Y-72562876D01*
X177722208Y-72562885D01*
X177802849Y-72672150D01*
X177912114Y-72752791D01*
X177912117Y-72752792D01*
X177912118Y-72752793D01*
X177912120Y-72752793D01*
X177912123Y-72752795D01*
X177974253Y-72774535D01*
X178040301Y-72797646D01*
X178070734Y-72800500D01*
X178070744Y-72800500D01*
X179429256Y-72800500D01*
X179429266Y-72800500D01*
X179459699Y-72797646D01*
X179587882Y-72752793D01*
X179632454Y-72719898D01*
X179697150Y-72672150D01*
X179777791Y-72562885D01*
X179777791Y-72562884D01*
X179777793Y-72562882D01*
X179822646Y-72434699D01*
X179825500Y-72404266D01*
X179825500Y-71495734D01*
X179822646Y-71465301D01*
X179813635Y-71439550D01*
X179777795Y-71337123D01*
X179777791Y-71337114D01*
X179697150Y-71227849D01*
X179587885Y-71147208D01*
X179587876Y-71147204D01*
X179459698Y-71102353D01*
X179429275Y-71099500D01*
X179429266Y-71099500D01*
X179099500Y-71099500D01*
X179064852Y-71085148D01*
X179050500Y-71050500D01*
X179050500Y-70304500D01*
X179064852Y-70269852D01*
X179099500Y-70255500D01*
X180951910Y-70255500D01*
X180986558Y-70269852D01*
X181000899Y-70303458D01*
X181015919Y-71009381D01*
X181021038Y-71249999D01*
X181047026Y-72471456D01*
X181050995Y-72657975D01*
X181051111Y-72663412D01*
X181051111Y-72663415D01*
X181164899Y-78011478D01*
X181165015Y-78016915D01*
X181165015Y-78016918D01*
X181194856Y-79419456D01*
X181194972Y-79424893D01*
X181194972Y-79424896D01*
X181212731Y-80259540D01*
X181243538Y-81707477D01*
X181263983Y-81802325D01*
X181278324Y-81835931D01*
X181332654Y-81916312D01*
X181415543Y-81971698D01*
X181415544Y-81971698D01*
X181415545Y-81971699D01*
X181448590Y-81985387D01*
X181449595Y-81985845D01*
X181450180Y-81986045D01*
X181450191Y-81986050D01*
X181450193Y-81986051D01*
X181450200Y-81986052D01*
X181450202Y-81986053D01*
X181547963Y-82005499D01*
X181547969Y-82005500D01*
X186761864Y-82005500D01*
X186796512Y-82019852D01*
X186810864Y-82054500D01*
X186810864Y-86743869D01*
X186796512Y-86778517D01*
X185139881Y-88435148D01*
X185105233Y-88449500D01*
X183754500Y-88449500D01*
X183719852Y-88435148D01*
X183705500Y-88400500D01*
X183705500Y-87999999D01*
X183704919Y-87994847D01*
X183700348Y-87954272D01*
X183660666Y-87871873D01*
X183651581Y-87864628D01*
X183589167Y-87814853D01*
X183589160Y-87814849D01*
X183500003Y-87794500D01*
X183500000Y-87794500D01*
X182500000Y-87794500D01*
X182485427Y-87795120D01*
X182482511Y-87795245D01*
X182482510Y-87795245D01*
X182395408Y-87823108D01*
X182395403Y-87823111D01*
X182382515Y-87835321D01*
X182347491Y-87848731D01*
X182318265Y-87838059D01*
X182289164Y-87814851D01*
X182289160Y-87814849D01*
X182200003Y-87794500D01*
X182200000Y-87794500D01*
X181050000Y-87794500D01*
X181049999Y-87794500D01*
X181004271Y-87799652D01*
X181004268Y-87799653D01*
X180921873Y-87839333D01*
X180864853Y-87910832D01*
X180864849Y-87910839D01*
X180844500Y-87999997D01*
X180844500Y-88400500D01*
X180830148Y-88435148D01*
X180795500Y-88449500D01*
X178843767Y-88449500D01*
X178809119Y-88435148D01*
X178794767Y-88400500D01*
X178809119Y-88365852D01*
X180490459Y-86684512D01*
X180490460Y-86684511D01*
X180530022Y-86615988D01*
X180550499Y-86539565D01*
X180550500Y-86539565D01*
X180550500Y-80754894D01*
X180541843Y-80722592D01*
X180530021Y-80678469D01*
X180530020Y-80678467D01*
X180530020Y-80678466D01*
X180504743Y-80634686D01*
X180490460Y-80609947D01*
X180434511Y-80553998D01*
X180140053Y-80259540D01*
X180136378Y-80257418D01*
X180133035Y-80255488D01*
X180133034Y-80255488D01*
X180071533Y-80219979D01*
X180071530Y-80219978D01*
X180036816Y-80210676D01*
X180007064Y-80187845D01*
X180000500Y-80163346D01*
X180000500Y-79641738D01*
X179994667Y-79601709D01*
X179990573Y-79573607D01*
X179939198Y-79468517D01*
X179856483Y-79385802D01*
X179800498Y-79358433D01*
X179751396Y-79334428D01*
X179751394Y-79334427D01*
X179683262Y-79324500D01*
X179683260Y-79324500D01*
X179316740Y-79324500D01*
X179316738Y-79324500D01*
X179248605Y-79334427D01*
X179248603Y-79334428D01*
X179143519Y-79385801D01*
X179143515Y-79385803D01*
X179060803Y-79468515D01*
X179060801Y-79468519D01*
X179009428Y-79573603D01*
X179009427Y-79573605D01*
X178999500Y-79641738D01*
X178999500Y-81358261D01*
X179009427Y-81426394D01*
X179009428Y-81426396D01*
X179013980Y-81435707D01*
X179060802Y-81531483D01*
X179143517Y-81614198D01*
X179248607Y-81665573D01*
X179296884Y-81672606D01*
X179316738Y-81675500D01*
X179316740Y-81675500D01*
X179683262Y-81675500D01*
X179700590Y-81672974D01*
X179751393Y-81665573D01*
X179856483Y-81614198D01*
X179865852Y-81604829D01*
X179900500Y-81590477D01*
X179935148Y-81604829D01*
X179949500Y-81639477D01*
X179949500Y-84310523D01*
X179935148Y-84345171D01*
X179900500Y-84359523D01*
X179865852Y-84345171D01*
X179856484Y-84335803D01*
X179856483Y-84335802D01*
X179797275Y-84306857D01*
X179751396Y-84284428D01*
X179751394Y-84284427D01*
X179683262Y-84274500D01*
X179683260Y-84274500D01*
X179316740Y-84274500D01*
X179316738Y-84274500D01*
X179248605Y-84284427D01*
X179183548Y-84316231D01*
X179146117Y-84318554D01*
X179127380Y-84306857D01*
X178755063Y-83934540D01*
X178686542Y-83894979D01*
X178610116Y-83874500D01*
X178610114Y-83874500D01*
X176789562Y-83874500D01*
X172114562Y-83874500D01*
X172035438Y-83874500D01*
X172035435Y-83874500D01*
X171959013Y-83894977D01*
X171959010Y-83894978D01*
X171890488Y-83934540D01*
X171890488Y-83934541D01*
X170139881Y-85685148D01*
X170105233Y-85699500D01*
X169245724Y-85699500D01*
X169215301Y-85702353D01*
X169215300Y-85702353D01*
X169087123Y-85747204D01*
X169087114Y-85747208D01*
X168977849Y-85827849D01*
X168897208Y-85937114D01*
X168897204Y-85937123D01*
X168852353Y-86065300D01*
X168852353Y-86065301D01*
X168849500Y-86095724D01*
X168849500Y-86650500D01*
X168835148Y-86685148D01*
X168800500Y-86699500D01*
X159170435Y-86699500D01*
X159094013Y-86719977D01*
X159094010Y-86719978D01*
X159025488Y-86759540D01*
X159025487Y-86759541D01*
X157984994Y-87800033D01*
X157950346Y-87814385D01*
X157927248Y-87808599D01*
X157863962Y-87774772D01*
X157863959Y-87774771D01*
X157863954Y-87774768D01*
X157665934Y-87714700D01*
X157460000Y-87694417D01*
X157254065Y-87714700D01*
X157254064Y-87714700D01*
X157119736Y-87755448D01*
X157056050Y-87774767D01*
X157056043Y-87774769D01*
X156873548Y-87872316D01*
X156713590Y-88003590D01*
X156582316Y-88163548D01*
X156484769Y-88346043D01*
X156424700Y-88544064D01*
X156424700Y-88544065D01*
X156404417Y-88749999D01*
X156404417Y-88750000D01*
X156424700Y-88955934D01*
X156424700Y-88955935D01*
X156435173Y-88990459D01*
X156459423Y-89070403D01*
X156479406Y-89136276D01*
X156475730Y-89173598D01*
X156446740Y-89197390D01*
X156432516Y-89199500D01*
X133774901Y-89199500D01*
X133740253Y-89185148D01*
X131858228Y-87303123D01*
X131843876Y-87268475D01*
X131848853Y-87246959D01*
X131895573Y-87151393D01*
X131905500Y-87083260D01*
X131905500Y-85366740D01*
X131895573Y-85298607D01*
X131844198Y-85193517D01*
X131761483Y-85110802D01*
X131708938Y-85085114D01*
X131656396Y-85059428D01*
X131656394Y-85059427D01*
X131588262Y-85049500D01*
X131588260Y-85049500D01*
X131221740Y-85049500D01*
X131221738Y-85049500D01*
X131153605Y-85059427D01*
X131153603Y-85059428D01*
X131048519Y-85110801D01*
X131048515Y-85110803D01*
X130965803Y-85193515D01*
X130965801Y-85193519D01*
X130914428Y-85298603D01*
X130914427Y-85298605D01*
X130904500Y-85366738D01*
X130904500Y-86796785D01*
X130890148Y-86831433D01*
X130855500Y-86845785D01*
X130820852Y-86831433D01*
X130649852Y-86660433D01*
X130635500Y-86625785D01*
X130635500Y-85366738D01*
X130632606Y-85346884D01*
X130625573Y-85298607D01*
X130574198Y-85193517D01*
X130491483Y-85110802D01*
X130438938Y-85085114D01*
X130386396Y-85059428D01*
X130386394Y-85059427D01*
X130318262Y-85049500D01*
X130318260Y-85049500D01*
X129951740Y-85049500D01*
X129951738Y-85049500D01*
X129883605Y-85059427D01*
X129883603Y-85059428D01*
X129778519Y-85110801D01*
X129778515Y-85110803D01*
X129695803Y-85193515D01*
X129695801Y-85193519D01*
X129644428Y-85298603D01*
X129644427Y-85298605D01*
X129634500Y-85366738D01*
X129634500Y-85875500D01*
X129620148Y-85910148D01*
X129585500Y-85924500D01*
X129414500Y-85924500D01*
X129379852Y-85910148D01*
X129365500Y-85875500D01*
X129365500Y-85366738D01*
X129362606Y-85346884D01*
X129355573Y-85298607D01*
X129304198Y-85193517D01*
X129221483Y-85110802D01*
X129168938Y-85085114D01*
X129116396Y-85059428D01*
X129116394Y-85059427D01*
X129048262Y-85049500D01*
X129048260Y-85049500D01*
X128968215Y-85049500D01*
X128933567Y-85035148D01*
X128919215Y-85000500D01*
X128933567Y-84965852D01*
X131434567Y-82464852D01*
X131469215Y-82450500D01*
X131588262Y-82450500D01*
X131605590Y-82447974D01*
X131656393Y-82440573D01*
X131761483Y-82389198D01*
X131844198Y-82306483D01*
X131895573Y-82201393D01*
X131905500Y-82133260D01*
X131905500Y-80416740D01*
X131895573Y-80348607D01*
X131844198Y-80243517D01*
X131761483Y-80160802D01*
X131675472Y-80118754D01*
X131656396Y-80109428D01*
X131656394Y-80109427D01*
X131588262Y-80099500D01*
X131588260Y-80099500D01*
X131221740Y-80099500D01*
X131221738Y-80099500D01*
X131153605Y-80109427D01*
X131153603Y-80109428D01*
X131048519Y-80160801D01*
X131048515Y-80160803D01*
X130965803Y-80243515D01*
X130965801Y-80243519D01*
X130914428Y-80348603D01*
X130914427Y-80348605D01*
X130904500Y-80416738D01*
X130904500Y-82124680D01*
X130890148Y-82159328D01*
X128080489Y-84968988D01*
X128024541Y-85024936D01*
X128024540Y-85024936D01*
X127984979Y-85093456D01*
X127984979Y-85093458D01*
X127964500Y-85169884D01*
X127964500Y-87280115D01*
X127980837Y-87341086D01*
X127984979Y-87356541D01*
X128004790Y-87390854D01*
X128024537Y-87425059D01*
X128024539Y-87425061D01*
X128024540Y-87425063D01*
X128283988Y-87684511D01*
X128339937Y-87740460D01*
X128351625Y-87747208D01*
X128402746Y-87776723D01*
X128408459Y-87780021D01*
X128443926Y-87789524D01*
X128484884Y-87800500D01*
X128484886Y-87800500D01*
X130353995Y-87800500D01*
X130388643Y-87814852D01*
X133058302Y-90484511D01*
X133114251Y-90540460D01*
X133182773Y-90580021D01*
X133218240Y-90589524D01*
X133259198Y-90600500D01*
X133259200Y-90600500D01*
X163569564Y-90600500D01*
X163596230Y-90593354D01*
X163645989Y-90580021D01*
X163714511Y-90540460D01*
X163770460Y-90484511D01*
X164440119Y-89814852D01*
X164474767Y-89800500D01*
X165949745Y-89800500D01*
X165949748Y-89800500D01*
X166008231Y-89788867D01*
X166074552Y-89744552D01*
X166118867Y-89678231D01*
X166130500Y-89619748D01*
X166130500Y-89099500D01*
X166144852Y-89064852D01*
X166179500Y-89050500D01*
X168863332Y-89050500D01*
X168897980Y-89064852D01*
X168902757Y-89070403D01*
X168977849Y-89172150D01*
X169087114Y-89252791D01*
X169087117Y-89252792D01*
X169087118Y-89252793D01*
X169087120Y-89252793D01*
X169087123Y-89252795D01*
X169150565Y-89274994D01*
X169215301Y-89297646D01*
X169245734Y-89300500D01*
X169245744Y-89300500D01*
X170254256Y-89300500D01*
X170254266Y-89300500D01*
X170284699Y-89297646D01*
X170412882Y-89252793D01*
X170497974Y-89189993D01*
X170522150Y-89172150D01*
X170597243Y-89070403D01*
X170629365Y-89051047D01*
X170636668Y-89050500D01*
X172613332Y-89050500D01*
X172647980Y-89064852D01*
X172652757Y-89070403D01*
X172727849Y-89172150D01*
X172837114Y-89252791D01*
X172837117Y-89252792D01*
X172837118Y-89252793D01*
X172837120Y-89252793D01*
X172837123Y-89252795D01*
X172900565Y-89274994D01*
X172965301Y-89297646D01*
X172995734Y-89300500D01*
X172995744Y-89300500D01*
X174004256Y-89300500D01*
X174004266Y-89300500D01*
X174034699Y-89297646D01*
X174162882Y-89252793D01*
X174247974Y-89189993D01*
X174272150Y-89172150D01*
X174347243Y-89070403D01*
X174379365Y-89051047D01*
X174386668Y-89050500D01*
X177460438Y-89050500D01*
X177960438Y-89050500D01*
X178039562Y-89050500D01*
X180795500Y-89050500D01*
X180830148Y-89064852D01*
X180844500Y-89099500D01*
X180844500Y-89500000D01*
X180849652Y-89545728D01*
X180849653Y-89545731D01*
X180889333Y-89628126D01*
X180960832Y-89685146D01*
X180960839Y-89685150D01*
X181017266Y-89698028D01*
X181049997Y-89705499D01*
X181049998Y-89705500D01*
X181050000Y-89705500D01*
X182199995Y-89705500D01*
X182200000Y-89705500D01*
X182273085Y-89692065D01*
X182323073Y-89658738D01*
X182359863Y-89651460D01*
X182380805Y-89661199D01*
X182410836Y-89685148D01*
X182410839Y-89685150D01*
X182467266Y-89698028D01*
X182499997Y-89705499D01*
X182499998Y-89705500D01*
X182500000Y-89705500D01*
X183500001Y-89705500D01*
X183504631Y-89704978D01*
X183545728Y-89700348D01*
X183628127Y-89660666D01*
X183685149Y-89589163D01*
X183686066Y-89585148D01*
X183695063Y-89545728D01*
X183705500Y-89500000D01*
X183705500Y-89099500D01*
X183719852Y-89064852D01*
X183754500Y-89050500D01*
X185289564Y-89050500D01*
X185316230Y-89043354D01*
X185365989Y-89030021D01*
X185434511Y-88990460D01*
X185490460Y-88934511D01*
X187351824Y-87073147D01*
X187376194Y-87030936D01*
X187391385Y-87004625D01*
X187411864Y-86928198D01*
X187411864Y-82054500D01*
X187426216Y-82019852D01*
X187460864Y-82005500D01*
X211732237Y-82005500D01*
X211766885Y-82019852D01*
X211781237Y-82054500D01*
X211772758Y-82082050D01*
X211421793Y-82598259D01*
X211420667Y-82599847D01*
X210866378Y-83349243D01*
X210865189Y-83350786D01*
X210281538Y-84077598D01*
X210280289Y-84079091D01*
X209668234Y-84782125D01*
X209666926Y-84783568D01*
X209027425Y-85461722D01*
X209026062Y-85463112D01*
X208735990Y-85747204D01*
X208411198Y-86065301D01*
X208360135Y-86115311D01*
X208358717Y-86116646D01*
X207667360Y-86741909D01*
X207665890Y-86743186D01*
X206950261Y-87340464D01*
X206948741Y-87341682D01*
X206209937Y-87910063D01*
X206208370Y-87911219D01*
X205447603Y-88449771D01*
X205445992Y-88450865D01*
X204664379Y-88958795D01*
X204662726Y-88959823D01*
X203861563Y-89436289D01*
X203859869Y-89437251D01*
X203040424Y-89881500D01*
X203038694Y-89882394D01*
X202202224Y-90293745D01*
X202200460Y-90294569D01*
X201348336Y-90672346D01*
X201346541Y-90673100D01*
X200480054Y-91016732D01*
X200478230Y-91017414D01*
X199598756Y-91326354D01*
X199596906Y-91326962D01*
X198705904Y-91600699D01*
X198704032Y-91601234D01*
X197802824Y-91839362D01*
X197800932Y-91839822D01*
X196890967Y-92041957D01*
X196889058Y-92042341D01*
X195971821Y-92208152D01*
X195969898Y-92208461D01*
X195046736Y-92337708D01*
X195044802Y-92337939D01*
X194117294Y-92430397D01*
X194115353Y-92430552D01*
X193184859Y-92486089D01*
X193182914Y-92486166D01*
X192250504Y-92504697D01*
X192249530Y-92504707D01*
X192246403Y-92504707D01*
X140513974Y-92499499D01*
X140511985Y-92499458D01*
X139583321Y-92461639D01*
X139581378Y-92461522D01*
X138652237Y-92386617D01*
X138650299Y-92386422D01*
X137724887Y-92274661D01*
X137722959Y-92274389D01*
X136802709Y-92125946D01*
X136800793Y-92125597D01*
X135887204Y-91940715D01*
X135885303Y-91940291D01*
X134979758Y-91719251D01*
X134977883Y-91718753D01*
X134567038Y-91600988D01*
X134081818Y-91461903D01*
X134079957Y-91461329D01*
X133194827Y-91169086D01*
X133192991Y-91168439D01*
X132320187Y-90841264D01*
X132318377Y-90840545D01*
X131459218Y-90478932D01*
X131457439Y-90478141D01*
X130613360Y-90082693D01*
X130611613Y-90081832D01*
X129783893Y-89653148D01*
X129782182Y-89652218D01*
X128972153Y-89190990D01*
X128970481Y-89189993D01*
X128179444Y-88696960D01*
X128177812Y-88695898D01*
X127663242Y-88346049D01*
X127406926Y-88171783D01*
X127405373Y-88170680D01*
X126904258Y-87800033D01*
X126655959Y-87616379D01*
X126654416Y-87615190D01*
X125927604Y-87031539D01*
X125926111Y-87030290D01*
X125620428Y-86764165D01*
X125223071Y-86418229D01*
X125221634Y-86416927D01*
X125208763Y-86404790D01*
X124848753Y-86065300D01*
X124543479Y-85777426D01*
X124542089Y-85776063D01*
X124469899Y-85702353D01*
X123889858Y-85110102D01*
X123888555Y-85108718D01*
X123843977Y-85059428D01*
X123263284Y-84417351D01*
X123262016Y-84415892D01*
X123214969Y-84359523D01*
X122664737Y-83700262D01*
X122663519Y-83698742D01*
X122568660Y-83575440D01*
X122095125Y-82959920D01*
X122093991Y-82958383D01*
X121555422Y-82197591D01*
X121554328Y-82195980D01*
X121046406Y-81414380D01*
X121045378Y-81412727D01*
X121012985Y-81358260D01*
X120568910Y-80611562D01*
X120567949Y-80609869D01*
X120369336Y-80243515D01*
X120123696Y-79790419D01*
X120122806Y-79788695D01*
X119711438Y-78952189D01*
X119710648Y-78950498D01*
X119332845Y-78098316D01*
X119332100Y-78096541D01*
X119308013Y-78035805D01*
X119030929Y-77337123D01*
X118988468Y-77230054D01*
X118987786Y-77228230D01*
X118835855Y-76795720D01*
X125824499Y-76795720D01*
X125824499Y-78204271D01*
X125827352Y-78234694D01*
X125827352Y-78234695D01*
X125872203Y-78362872D01*
X125872207Y-78362881D01*
X125952848Y-78472146D01*
X126062113Y-78552787D01*
X126062116Y-78552788D01*
X126062117Y-78552789D01*
X126062119Y-78552789D01*
X126062122Y-78552791D01*
X126180455Y-78594197D01*
X126190300Y-78597642D01*
X126220733Y-78600496D01*
X126220743Y-78600496D01*
X127154255Y-78600496D01*
X127154265Y-78600496D01*
X127184698Y-78597642D01*
X127187522Y-78596654D01*
X127194543Y-78594197D01*
X127229316Y-78582029D01*
X127266760Y-78584131D01*
X127291750Y-78612095D01*
X127294500Y-78628279D01*
X127294500Y-80102845D01*
X127280148Y-80137493D01*
X127267022Y-80146866D01*
X127238518Y-80160801D01*
X127238515Y-80160803D01*
X127155803Y-80243515D01*
X127155801Y-80243519D01*
X127104428Y-80348603D01*
X127104427Y-80348605D01*
X127099671Y-80381251D01*
X127094500Y-80416740D01*
X127094500Y-82133260D01*
X127104427Y-82201393D01*
X127155802Y-82306483D01*
X127238517Y-82389198D01*
X127343607Y-82440573D01*
X127391884Y-82447606D01*
X127411738Y-82450500D01*
X127411740Y-82450500D01*
X127778262Y-82450500D01*
X127795590Y-82447974D01*
X127846393Y-82440573D01*
X127951483Y-82389198D01*
X128034198Y-82306483D01*
X128085573Y-82201393D01*
X128095500Y-82133260D01*
X128095500Y-80416740D01*
X128364500Y-80416740D01*
X128364500Y-82133260D01*
X128374427Y-82201393D01*
X128425802Y-82306483D01*
X128508517Y-82389198D01*
X128613607Y-82440573D01*
X128661884Y-82447606D01*
X128681738Y-82450500D01*
X128681740Y-82450500D01*
X129048262Y-82450500D01*
X129065590Y-82447974D01*
X129116393Y-82440573D01*
X129221483Y-82389198D01*
X129304198Y-82306483D01*
X129355573Y-82201393D01*
X129365500Y-82133260D01*
X129365500Y-80416740D01*
X129355573Y-80348607D01*
X129304198Y-80243517D01*
X129221483Y-80160802D01*
X129221481Y-80160801D01*
X129192978Y-80146866D01*
X129168155Y-80118754D01*
X129165500Y-80102845D01*
X129165500Y-78614287D01*
X129179852Y-78579639D01*
X129214500Y-78565287D01*
X129230684Y-78568037D01*
X129315302Y-78597646D01*
X129345735Y-78600500D01*
X129345745Y-78600500D01*
X130279257Y-78600500D01*
X130279267Y-78600500D01*
X130309700Y-78597646D01*
X130437883Y-78552793D01*
X130437889Y-78552789D01*
X130547151Y-78472150D01*
X130627792Y-78362885D01*
X130627792Y-78362884D01*
X130627794Y-78362882D01*
X130672647Y-78234699D01*
X130675501Y-78204266D01*
X130675501Y-76795734D01*
X130672647Y-76765301D01*
X130672645Y-76765296D01*
X130627796Y-76637123D01*
X130627792Y-76637114D01*
X130547151Y-76527849D01*
X130437886Y-76447208D01*
X130437877Y-76447204D01*
X130309699Y-76402353D01*
X130279276Y-76399500D01*
X130279267Y-76399500D01*
X129849500Y-76399500D01*
X129814852Y-76385148D01*
X129800500Y-76350500D01*
X129800500Y-75949500D01*
X129814852Y-75914852D01*
X129849500Y-75900500D01*
X130179256Y-75900500D01*
X130179266Y-75900500D01*
X130209699Y-75897646D01*
X130337882Y-75852793D01*
X130447150Y-75772150D01*
X130527793Y-75662882D01*
X130572646Y-75534699D01*
X130575500Y-75504266D01*
X130575500Y-74595734D01*
X130572646Y-74565301D01*
X130568289Y-74552850D01*
X130527795Y-74437123D01*
X130527791Y-74437114D01*
X130447150Y-74327849D01*
X130337885Y-74247208D01*
X130337876Y-74247204D01*
X130209698Y-74202353D01*
X130179275Y-74199500D01*
X130179266Y-74199500D01*
X128820734Y-74199500D01*
X128820724Y-74199500D01*
X128790301Y-74202353D01*
X128790300Y-74202353D01*
X128662123Y-74247204D01*
X128662114Y-74247208D01*
X128552849Y-74327849D01*
X128472208Y-74437114D01*
X128472204Y-74437123D01*
X128427353Y-74565300D01*
X128427353Y-74565301D01*
X128424500Y-74595724D01*
X128424500Y-75504275D01*
X128427353Y-75534698D01*
X128427353Y-75534699D01*
X128472204Y-75662876D01*
X128472208Y-75662885D01*
X128552849Y-75772150D01*
X128662114Y-75852791D01*
X128662117Y-75852792D01*
X128662118Y-75852793D01*
X128662120Y-75852793D01*
X128662123Y-75852795D01*
X128745993Y-75882142D01*
X128790301Y-75897646D01*
X128820734Y-75900500D01*
X129150500Y-75900500D01*
X129185148Y-75914852D01*
X129199500Y-75949500D01*
X129199500Y-76413332D01*
X129185148Y-76447980D01*
X129179597Y-76452757D01*
X129077850Y-76527849D01*
X128997209Y-76637114D01*
X128997205Y-76637123D01*
X128952354Y-76765300D01*
X128952354Y-76765301D01*
X128949501Y-76795724D01*
X128949501Y-77917733D01*
X128935149Y-77952381D01*
X128624541Y-78262989D01*
X128624540Y-78262989D01*
X128584979Y-78331509D01*
X128584979Y-78331511D01*
X128564500Y-78407937D01*
X128564500Y-80102845D01*
X128550148Y-80137493D01*
X128537022Y-80146866D01*
X128508518Y-80160801D01*
X128508515Y-80160803D01*
X128425803Y-80243515D01*
X128425801Y-80243519D01*
X128374428Y-80348603D01*
X128374427Y-80348605D01*
X128369671Y-80381251D01*
X128364500Y-80416740D01*
X128095500Y-80416740D01*
X128085573Y-80348607D01*
X128034198Y-80243517D01*
X127951483Y-80160802D01*
X127951481Y-80160801D01*
X127922978Y-80146866D01*
X127898155Y-80118754D01*
X127895500Y-80102845D01*
X127895500Y-78367933D01*
X127883709Y-78323933D01*
X127875021Y-78291508D01*
X127875020Y-78291506D01*
X127875020Y-78291505D01*
X127842220Y-78234695D01*
X127835460Y-78222986D01*
X127779511Y-78167037D01*
X127564851Y-77952377D01*
X127550499Y-77917729D01*
X127550499Y-76795739D01*
X127550498Y-76795720D01*
X127547645Y-76765297D01*
X127547645Y-76765296D01*
X127502794Y-76637119D01*
X127502790Y-76637110D01*
X127422149Y-76527845D01*
X127320403Y-76452753D01*
X127301047Y-76420631D01*
X127300500Y-76413328D01*
X127300500Y-75949500D01*
X127314852Y-75914852D01*
X127349500Y-75900500D01*
X127679256Y-75900500D01*
X127679266Y-75900500D01*
X127709699Y-75897646D01*
X127837882Y-75852793D01*
X127947150Y-75772150D01*
X128027793Y-75662882D01*
X128072646Y-75534699D01*
X128075500Y-75504266D01*
X128075500Y-74595734D01*
X128072646Y-74565301D01*
X128068289Y-74552850D01*
X128027795Y-74437123D01*
X128027791Y-74437114D01*
X127947150Y-74327849D01*
X127837885Y-74247208D01*
X127837876Y-74247204D01*
X127709698Y-74202353D01*
X127679275Y-74199500D01*
X127679266Y-74199500D01*
X126320734Y-74199500D01*
X126320724Y-74199500D01*
X126290301Y-74202353D01*
X126290300Y-74202353D01*
X126162123Y-74247204D01*
X126162114Y-74247208D01*
X126052849Y-74327849D01*
X125972208Y-74437114D01*
X125972204Y-74437123D01*
X125927353Y-74565300D01*
X125927353Y-74565301D01*
X125924500Y-74595724D01*
X125924500Y-75504275D01*
X125927353Y-75534698D01*
X125927353Y-75534699D01*
X125972204Y-75662876D01*
X125972208Y-75662885D01*
X126052849Y-75772150D01*
X126162114Y-75852791D01*
X126162117Y-75852792D01*
X126162118Y-75852793D01*
X126162120Y-75852793D01*
X126162123Y-75852795D01*
X126245993Y-75882142D01*
X126290301Y-75897646D01*
X126320734Y-75900500D01*
X126650500Y-75900500D01*
X126685148Y-75914852D01*
X126699500Y-75949500D01*
X126699500Y-76350496D01*
X126685148Y-76385144D01*
X126650500Y-76399496D01*
X126220723Y-76399496D01*
X126190300Y-76402349D01*
X126190299Y-76402349D01*
X126062122Y-76447200D01*
X126062113Y-76447204D01*
X125952848Y-76527845D01*
X125872207Y-76637110D01*
X125872203Y-76637119D01*
X125827352Y-76765296D01*
X125827352Y-76765297D01*
X125824499Y-76795720D01*
X118835855Y-76795720D01*
X118678846Y-76348756D01*
X118678238Y-76346906D01*
X118470964Y-75672238D01*
X118404498Y-75455895D01*
X118403966Y-75454032D01*
X118398013Y-75431504D01*
X118165836Y-74552815D01*
X118165378Y-74550932D01*
X118147891Y-74472208D01*
X117963235Y-73640928D01*
X117962867Y-73639098D01*
X117797045Y-72721808D01*
X117796739Y-72719898D01*
X117788831Y-72663412D01*
X117667488Y-71796706D01*
X117667264Y-71794831D01*
X117574801Y-70867269D01*
X117574650Y-70865378D01*
X117519110Y-69934834D01*
X117519034Y-69932913D01*
X117509350Y-69445676D01*
X117523010Y-69410752D01*
X117557366Y-69395715D01*
X117565312Y-69396203D01*
X117629968Y-69405500D01*
X117629972Y-69405500D01*
X119672231Y-69405500D01*
X119672245Y-69405500D01*
X119715594Y-69403176D01*
X119741952Y-69400342D01*
X119773453Y-69395698D01*
X119892943Y-69353062D01*
X119947765Y-69323126D01*
X119947764Y-69323125D01*
X119951586Y-69321038D01*
X119951587Y-69321039D01*
X119954205Y-69319610D01*
X119954211Y-69319605D01*
X119965229Y-69313589D01*
X119965550Y-69313190D01*
X119966833Y-69312510D01*
X119990721Y-69300340D01*
X120012964Y-69295000D01*
X121987036Y-69295000D01*
X122009275Y-69300337D01*
X122014411Y-69302954D01*
X122021380Y-69307276D01*
X122031832Y-69315042D01*
X122136183Y-69364512D01*
X122146472Y-69369390D01*
X122168984Y-69376000D01*
X122213509Y-69389074D01*
X122327755Y-69405500D01*
X123912473Y-69405500D01*
X123930671Y-69409005D01*
X125063934Y-69862310D01*
X125077229Y-69867628D01*
X125151143Y-69889314D01*
X125197195Y-69898183D01*
X125197200Y-69898183D01*
X125197208Y-69898185D01*
X125273877Y-69905500D01*
X125273880Y-69905500D01*
X126600500Y-69905500D01*
X126635148Y-69919852D01*
X126649500Y-69954500D01*
X126649500Y-71050500D01*
X126635148Y-71085148D01*
X126600500Y-71099500D01*
X126320724Y-71099500D01*
X126290301Y-71102353D01*
X126290300Y-71102353D01*
X126162123Y-71147204D01*
X126162114Y-71147208D01*
X126052849Y-71227849D01*
X125972208Y-71337114D01*
X125972204Y-71337123D01*
X125927353Y-71465300D01*
X125927353Y-71465301D01*
X125924500Y-71495724D01*
X125924500Y-72404275D01*
X125927353Y-72434698D01*
X125927353Y-72434699D01*
X125972204Y-72562876D01*
X125972208Y-72562885D01*
X126052849Y-72672150D01*
X126162114Y-72752791D01*
X126162117Y-72752792D01*
X126162118Y-72752793D01*
X126162120Y-72752793D01*
X126162123Y-72752795D01*
X126224253Y-72774535D01*
X126290301Y-72797646D01*
X126320734Y-72800500D01*
X126320744Y-72800500D01*
X127679256Y-72800500D01*
X127679266Y-72800500D01*
X127709699Y-72797646D01*
X127837882Y-72752793D01*
X127882454Y-72719898D01*
X127947150Y-72672150D01*
X128027791Y-72562885D01*
X128027791Y-72562884D01*
X128027793Y-72562882D01*
X128072646Y-72434699D01*
X128075500Y-72404266D01*
X128075500Y-71495734D01*
X128072646Y-71465301D01*
X128063635Y-71439550D01*
X128027795Y-71337123D01*
X128027791Y-71337114D01*
X127947150Y-71227849D01*
X127837885Y-71147208D01*
X127837876Y-71147204D01*
X127709698Y-71102353D01*
X127679275Y-71099500D01*
X127679266Y-71099500D01*
X127299500Y-71099500D01*
X127264852Y-71085148D01*
X127250500Y-71050500D01*
X127250500Y-69954500D01*
X127264852Y-69919852D01*
X127299500Y-69905500D01*
X128126006Y-69905500D01*
X128174333Y-69900303D01*
X128212199Y-69896232D01*
X128263710Y-69885026D01*
X128335360Y-69862310D01*
X128443057Y-69795250D01*
X128495861Y-69749495D01*
X128565042Y-69671923D01*
X128619389Y-69557285D01*
X128624451Y-69540046D01*
X128625876Y-69535195D01*
X128649408Y-69505994D01*
X128672891Y-69500000D01*
X129150500Y-69500000D01*
X129185148Y-69514352D01*
X129199500Y-69549000D01*
X129199500Y-71050500D01*
X129185148Y-71085148D01*
X129150500Y-71099500D01*
X128820724Y-71099500D01*
X128790301Y-71102353D01*
X128790300Y-71102353D01*
X128662123Y-71147204D01*
X128662114Y-71147208D01*
X128552849Y-71227849D01*
X128472208Y-71337114D01*
X128472204Y-71337123D01*
X128427353Y-71465300D01*
X128427353Y-71465301D01*
X128424500Y-71495724D01*
X128424500Y-72404275D01*
X128427353Y-72434698D01*
X128427353Y-72434699D01*
X128472204Y-72562876D01*
X128472208Y-72562885D01*
X128552849Y-72672150D01*
X128662114Y-72752791D01*
X128662117Y-72752792D01*
X128662118Y-72752793D01*
X128662120Y-72752793D01*
X128662123Y-72752795D01*
X128724253Y-72774535D01*
X128790301Y-72797646D01*
X128820734Y-72800500D01*
X128820744Y-72800500D01*
X130179256Y-72800500D01*
X130179266Y-72800500D01*
X130209699Y-72797646D01*
X130337882Y-72752793D01*
X130382454Y-72719898D01*
X130447150Y-72672150D01*
X130527791Y-72562885D01*
X130527791Y-72562884D01*
X130527793Y-72562882D01*
X130572646Y-72434699D01*
X130575500Y-72404266D01*
X130575500Y-71495734D01*
X130572646Y-71465301D01*
X130563635Y-71439550D01*
X130527795Y-71337123D01*
X130527791Y-71337114D01*
X130447150Y-71227849D01*
X130337885Y-71147208D01*
X130337876Y-71147204D01*
X130209698Y-71102353D01*
X130179275Y-71099500D01*
X130179266Y-71099500D01*
X129849500Y-71099500D01*
X129814852Y-71085148D01*
X129800500Y-71050500D01*
X129800500Y-69549000D01*
X129814852Y-69514352D01*
X129849500Y-69500000D01*
X140999999Y-69500000D01*
X141000000Y-69500000D01*
X142485648Y-68014352D01*
X142520296Y-68000000D01*
X144552000Y-68000000D01*
X144586648Y-68014352D01*
G37*
G04 #@! TD.AperFunction*
G04 #@! TA.AperFunction,Conductor*
G36*
X164065138Y-87714852D02*
G01*
X164079490Y-87749500D01*
X164071232Y-87776723D01*
X164045755Y-87814852D01*
X164041133Y-87821769D01*
X164029500Y-87880252D01*
X164029500Y-87880255D01*
X164029500Y-89355233D01*
X164015148Y-89389881D01*
X163419881Y-89985148D01*
X163385233Y-89999500D01*
X159293767Y-89999500D01*
X159259119Y-89985148D01*
X159244767Y-89950500D01*
X159259119Y-89915852D01*
X159389671Y-89785299D01*
X159475005Y-89699964D01*
X159509652Y-89685613D01*
X159532747Y-89691398D01*
X159596046Y-89725232D01*
X159794066Y-89785300D01*
X160000000Y-89805583D01*
X160205934Y-89785300D01*
X160403954Y-89725232D01*
X160586450Y-89627685D01*
X160746410Y-89496410D01*
X160877685Y-89336450D01*
X160975232Y-89153954D01*
X161035300Y-88955934D01*
X161055583Y-88750000D01*
X161035300Y-88544066D01*
X160975232Y-88346046D01*
X160941398Y-88282748D01*
X160937723Y-88245429D01*
X160949963Y-88225006D01*
X161460119Y-87714852D01*
X161494767Y-87700500D01*
X164030490Y-87700500D01*
X164065138Y-87714852D01*
G37*
G04 #@! TD.AperFunction*
G04 #@! TA.AperFunction,Conductor*
G36*
X178814148Y-84843567D02*
G01*
X178985148Y-85014567D01*
X178999500Y-85049215D01*
X178999500Y-86308261D01*
X179008268Y-86368435D01*
X179009427Y-86376393D01*
X179060802Y-86481483D01*
X179143517Y-86564198D01*
X179248607Y-86615573D01*
X179296884Y-86622606D01*
X179316738Y-86625500D01*
X179581232Y-86625500D01*
X179615880Y-86639852D01*
X179630232Y-86674500D01*
X179615880Y-86709148D01*
X177889881Y-88435148D01*
X177855233Y-88449500D01*
X174449500Y-88449500D01*
X174414852Y-88435148D01*
X174400500Y-88400500D01*
X174400500Y-88095743D01*
X174400499Y-88095724D01*
X174397646Y-88065301D01*
X174397646Y-88065300D01*
X174352795Y-87937123D01*
X174352791Y-87937114D01*
X174272150Y-87827849D01*
X174162885Y-87747208D01*
X174162876Y-87747204D01*
X174034698Y-87702353D01*
X174004275Y-87699500D01*
X174004266Y-87699500D01*
X172995734Y-87699500D01*
X172995724Y-87699500D01*
X172965301Y-87702353D01*
X172965300Y-87702353D01*
X172837123Y-87747204D01*
X172837114Y-87747208D01*
X172727849Y-87827849D01*
X172647208Y-87937114D01*
X172647204Y-87937123D01*
X172602353Y-88065300D01*
X172602353Y-88065301D01*
X172599500Y-88095724D01*
X172599500Y-88400500D01*
X172585148Y-88435148D01*
X172550500Y-88449500D01*
X170699500Y-88449500D01*
X170664852Y-88435148D01*
X170650500Y-88400500D01*
X170650500Y-88095743D01*
X170650499Y-88095724D01*
X170647646Y-88065301D01*
X170647646Y-88065300D01*
X170602795Y-87937123D01*
X170602791Y-87937114D01*
X170522152Y-87827851D01*
X170496066Y-87808599D01*
X170464680Y-87785435D01*
X170445325Y-87753315D01*
X170454352Y-87716914D01*
X170481095Y-87698681D01*
X170490008Y-87696292D01*
X170550733Y-87680021D01*
X170619255Y-87640460D01*
X170675204Y-87584511D01*
X170944863Y-87314852D01*
X170979511Y-87300500D01*
X174004256Y-87300500D01*
X174004266Y-87300500D01*
X174034699Y-87297646D01*
X174162882Y-87252793D01*
X174272150Y-87172150D01*
X174352793Y-87062882D01*
X174354390Y-87058316D01*
X174379380Y-87030353D01*
X174400641Y-87025500D01*
X177969563Y-87025500D01*
X177996229Y-87018354D01*
X178045988Y-87005021D01*
X178046678Y-87004623D01*
X178055169Y-86999720D01*
X178114510Y-86965460D01*
X178170459Y-86909511D01*
X178450003Y-86629965D01*
X178477591Y-86616126D01*
X178481393Y-86615573D01*
X178586483Y-86564198D01*
X178669198Y-86481483D01*
X178720573Y-86376393D01*
X178730500Y-86308260D01*
X178730500Y-84878215D01*
X178744852Y-84843567D01*
X178779500Y-84829215D01*
X178814148Y-84843567D01*
G37*
G04 #@! TD.AperFunction*
G04 #@! TA.AperFunction,Conductor*
G36*
X176454428Y-84489852D02*
G01*
X176468780Y-84524500D01*
X176468268Y-84531565D01*
X176459500Y-84591738D01*
X176459500Y-86308261D01*
X176468268Y-86368435D01*
X176459062Y-86404790D01*
X176426845Y-86423988D01*
X176419780Y-86424500D01*
X174449500Y-86424500D01*
X174414852Y-86410148D01*
X174400500Y-86375500D01*
X174400500Y-86095743D01*
X174400499Y-86095724D01*
X174397646Y-86065301D01*
X174397646Y-86065300D01*
X174352795Y-85937123D01*
X174352791Y-85937114D01*
X174272150Y-85827849D01*
X174162885Y-85747208D01*
X174162876Y-85747204D01*
X174034698Y-85702353D01*
X174004275Y-85699500D01*
X174004266Y-85699500D01*
X172995734Y-85699500D01*
X172995724Y-85699500D01*
X172965301Y-85702353D01*
X172965300Y-85702353D01*
X172837123Y-85747204D01*
X172837114Y-85747208D01*
X172727849Y-85827849D01*
X172647208Y-85937114D01*
X172647204Y-85937123D01*
X172602353Y-86065300D01*
X172602353Y-86065301D01*
X172599500Y-86095724D01*
X172599500Y-86650500D01*
X172585148Y-86685148D01*
X172550500Y-86699500D01*
X170795180Y-86699500D01*
X170718748Y-86719980D01*
X170718243Y-86720190D01*
X170717967Y-86720189D01*
X170715654Y-86720810D01*
X170715487Y-86720189D01*
X170680740Y-86720184D01*
X170654227Y-86693660D01*
X170650500Y-86674917D01*
X170650500Y-86095743D01*
X170650499Y-86095724D01*
X170647646Y-86065301D01*
X170647011Y-86062394D01*
X170648204Y-86062133D01*
X170650065Y-86028799D01*
X170659569Y-86015400D01*
X172185119Y-84489852D01*
X172219767Y-84475500D01*
X176419780Y-84475500D01*
X176454428Y-84489852D01*
G37*
G04 #@! TD.AperFunction*
G04 #@! TA.AperFunction,Conductor*
G36*
X184475500Y-78379484D02*
G01*
X184498330Y-78409237D01*
X184500000Y-78421919D01*
X184500000Y-80416995D01*
X184485648Y-80451643D01*
X184451000Y-80465995D01*
X184438317Y-80464325D01*
X184309764Y-80429878D01*
X184301739Y-80426957D01*
X184192190Y-80375874D01*
X184192186Y-80375872D01*
X184139810Y-80351449D01*
X184132426Y-80347185D01*
X183986085Y-80244715D01*
X183979547Y-80239229D01*
X183853211Y-80112893D01*
X183847721Y-80106351D01*
X183840752Y-80096398D01*
X183745251Y-79960012D01*
X183740985Y-79952622D01*
X183665480Y-79790697D01*
X183662560Y-79782672D01*
X183661433Y-79778467D01*
X183616322Y-79610113D01*
X183614841Y-79601716D01*
X183599269Y-79423720D01*
X183599269Y-79415193D01*
X183614841Y-79237194D01*
X183616322Y-79228801D01*
X183662560Y-79056238D01*
X183665477Y-79048222D01*
X183740990Y-78886282D01*
X183745244Y-78878915D01*
X183847731Y-78732549D01*
X183853206Y-78726025D01*
X183979550Y-78599681D01*
X183986074Y-78594206D01*
X184132440Y-78491719D01*
X184139807Y-78487465D01*
X184301747Y-78411952D01*
X184309763Y-78409035D01*
X184438318Y-78374589D01*
X184475500Y-78379484D01*
G37*
G04 #@! TD.AperFunction*
G04 #@! TA.AperFunction,Conductor*
G36*
X183043509Y-71599835D02*
G01*
X183051907Y-71601316D01*
X183224465Y-71647553D01*
X183232486Y-71650471D01*
X183265536Y-71665884D01*
X183265535Y-71665884D01*
X183309959Y-71686598D01*
X183394423Y-71725984D01*
X183401801Y-71730243D01*
X183548148Y-71832718D01*
X183554684Y-71838203D01*
X183681019Y-71964538D01*
X183686509Y-71971081D01*
X183788975Y-72117418D01*
X183793246Y-72124813D01*
X183798257Y-72135559D01*
X183815060Y-72171592D01*
X183815061Y-72171594D01*
X183835202Y-72214786D01*
X183868751Y-72286733D01*
X183871672Y-72294759D01*
X183917909Y-72467317D01*
X183919393Y-72475729D01*
X183934963Y-72653706D01*
X183934963Y-72662246D01*
X183919393Y-72840223D01*
X183917909Y-72848636D01*
X183871671Y-73021193D01*
X183868750Y-73029218D01*
X183814952Y-73144592D01*
X183814951Y-73144594D01*
X183793244Y-73191141D01*
X183788974Y-73198536D01*
X183693158Y-73335374D01*
X183693143Y-73335395D01*
X183686505Y-73344875D01*
X183681015Y-73351418D01*
X183554689Y-73477744D01*
X183548147Y-73483234D01*
X183401813Y-73585700D01*
X183394415Y-73589971D01*
X183232490Y-73665477D01*
X183224475Y-73668395D01*
X183219490Y-73669732D01*
X183219479Y-73669735D01*
X183051910Y-73714635D01*
X183043498Y-73716119D01*
X182865520Y-73731689D01*
X182856980Y-73731689D01*
X182679001Y-73716119D01*
X182670590Y-73714635D01*
X182626167Y-73702732D01*
X182498032Y-73668397D01*
X182490007Y-73665476D01*
X182380458Y-73614393D01*
X182380454Y-73614391D01*
X182328078Y-73589968D01*
X182320694Y-73585704D01*
X182174353Y-73483234D01*
X182167815Y-73477748D01*
X182041479Y-73351412D01*
X182035989Y-73344870D01*
X181933519Y-73198531D01*
X181929253Y-73191141D01*
X181853748Y-73029216D01*
X181850828Y-73021191D01*
X181844689Y-72998281D01*
X181804590Y-72848632D01*
X181803109Y-72840235D01*
X181787537Y-72662239D01*
X181787537Y-72653712D01*
X181803109Y-72475713D01*
X181804591Y-72467317D01*
X181850828Y-72294757D01*
X181853745Y-72286741D01*
X181929258Y-72124801D01*
X181933512Y-72117434D01*
X182035999Y-71971068D01*
X182041474Y-71964544D01*
X182167818Y-71838200D01*
X182174342Y-71832725D01*
X182320708Y-71730238D01*
X182328075Y-71725984D01*
X182490015Y-71650471D01*
X182498031Y-71647554D01*
X182670594Y-71601316D01*
X182678987Y-71599835D01*
X182856986Y-71584263D01*
X182865513Y-71584263D01*
X183043509Y-71599835D01*
G37*
G04 #@! TD.AperFunction*
G04 #@! TA.AperFunction,Conductor*
G36*
X147891572Y-59606946D02*
G01*
X147942126Y-59621633D01*
X147953397Y-59626510D01*
X147996029Y-59651722D01*
X148005734Y-59659251D01*
X148093016Y-59746533D01*
X148094395Y-59747969D01*
X148097326Y-59751148D01*
X148097326Y-59751149D01*
X148128258Y-59779455D01*
X148128262Y-59779458D01*
X148128264Y-59779460D01*
X148173136Y-59815042D01*
X148183023Y-59819729D01*
X148287771Y-59869388D01*
X148287774Y-59869389D01*
X148354813Y-59889074D01*
X148457973Y-59903906D01*
X148490226Y-59923042D01*
X148500000Y-59952407D01*
X148500000Y-61479703D01*
X148485648Y-61514351D01*
X148250001Y-61749997D01*
X148250000Y-61749999D01*
X148250000Y-61750000D01*
X148005838Y-67365740D01*
X148002060Y-67452628D01*
X147986217Y-67486621D01*
X147953106Y-67499500D01*
X146359405Y-67499500D01*
X146337160Y-67494159D01*
X146323804Y-67487354D01*
X146230019Y-67472500D01*
X146230017Y-67472500D01*
X145842900Y-67472500D01*
X145808252Y-67458148D01*
X145793900Y-67423500D01*
X145793900Y-67408689D01*
X145792650Y-67376885D01*
X145792650Y-67376878D01*
X145789975Y-67365738D01*
X145795840Y-67328699D01*
X145826180Y-67306653D01*
X145837621Y-67305299D01*
X145902405Y-67305299D01*
X145902406Y-67305299D01*
X145996192Y-67290446D01*
X146057275Y-67259322D01*
X146109223Y-67232854D01*
X146109225Y-67232852D01*
X146109230Y-67232850D01*
X146198938Y-67143142D01*
X146198942Y-67143135D01*
X146256532Y-67030109D01*
X146256532Y-67030107D01*
X146256534Y-67030104D01*
X146271388Y-66936319D01*
X146271387Y-66263682D01*
X146256534Y-66169896D01*
X146249728Y-66156539D01*
X146244388Y-66134295D01*
X146244388Y-64653625D01*
X146250953Y-64629125D01*
X146303464Y-64538174D01*
X146303465Y-64538173D01*
X146344387Y-64385448D01*
X146344388Y-64385448D01*
X146344388Y-64227328D01*
X146344387Y-64227327D01*
X146303465Y-64074604D01*
X146303464Y-64074601D01*
X146224406Y-63937671D01*
X146183595Y-63896860D01*
X146169243Y-63862212D01*
X146183595Y-63827564D01*
X146190989Y-63821491D01*
X146209101Y-63809374D01*
X146287378Y-63740974D01*
X146355521Y-63633960D01*
X146383368Y-63569879D01*
X146413835Y-63458561D01*
X146775911Y-60561960D01*
X146778258Y-60536873D01*
X146779216Y-60521493D01*
X146779504Y-60512205D01*
X146780000Y-60496296D01*
X146780000Y-59822096D01*
X146781943Y-59808434D01*
X146796636Y-59757861D01*
X146801507Y-59746607D01*
X146826726Y-59703963D01*
X146834248Y-59694266D01*
X146869266Y-59659248D01*
X146878963Y-59651726D01*
X146921607Y-59626507D01*
X146932861Y-59621636D01*
X146983433Y-59606944D01*
X146997097Y-59605000D01*
X147877901Y-59605000D01*
X147891572Y-59606946D01*
G37*
G04 #@! TD.AperFunction*
G04 #@! TA.AperFunction,Conductor*
G36*
X128193039Y-63019685D02*
G01*
X128238794Y-63072489D01*
X128250000Y-63124000D01*
X128250000Y-69376000D01*
X128230315Y-69443039D01*
X128177511Y-69488794D01*
X128126000Y-69500000D01*
X125273880Y-69500000D01*
X125227828Y-69491131D01*
X124000000Y-69000000D01*
X122327755Y-69000000D01*
X122260716Y-68980315D01*
X122240074Y-68963681D01*
X122238347Y-68961954D01*
X122238344Y-68961952D01*
X122238342Y-68961950D01*
X122161517Y-68922805D01*
X122125301Y-68904352D01*
X122031524Y-68889500D01*
X119968482Y-68889500D01*
X119887519Y-68902323D01*
X119874696Y-68904354D01*
X119761658Y-68961950D01*
X119761657Y-68961951D01*
X119761652Y-68961954D01*
X119759926Y-68963681D01*
X119757308Y-68965110D01*
X119753759Y-68967689D01*
X119753425Y-68967230D01*
X119698603Y-68997166D01*
X119672245Y-69000000D01*
X117629968Y-69000000D01*
X117562929Y-68980315D01*
X117517174Y-68927511D01*
X117506071Y-68870954D01*
X117538299Y-68079587D01*
X117538595Y-68074694D01*
X117613267Y-67148455D01*
X117613752Y-67143649D01*
X117725160Y-66221161D01*
X117725838Y-66216338D01*
X117873822Y-65298935D01*
X117874691Y-65294162D01*
X118058995Y-64383430D01*
X118060053Y-64378683D01*
X118280410Y-63475944D01*
X118281643Y-63471294D01*
X118283391Y-63465198D01*
X118320794Y-63406186D01*
X118384166Y-63376762D01*
X118437522Y-63380410D01*
X118461700Y-63387509D01*
X118467029Y-63389074D01*
X118467033Y-63389074D01*
X118467035Y-63389075D01*
X118482825Y-63391345D01*
X118581275Y-63405500D01*
X118581278Y-63405500D01*
X127040821Y-63405500D01*
X127044891Y-63405281D01*
X127084169Y-63403176D01*
X127110527Y-63400342D01*
X127120144Y-63398924D01*
X127142019Y-63395700D01*
X127142020Y-63395699D01*
X127142024Y-63395699D01*
X127261514Y-63353065D01*
X127322837Y-63319580D01*
X127415233Y-63250413D01*
X127629327Y-63036319D01*
X127690650Y-63002834D01*
X127717008Y-63000000D01*
X128126000Y-63000000D01*
X128193039Y-63019685D01*
G37*
G04 #@! TD.AperFunction*
G04 #@! TA.AperFunction,Conductor*
G36*
X212171808Y-57029620D02*
G01*
X212176028Y-57035197D01*
X212208795Y-57085620D01*
X212209823Y-57087273D01*
X212686289Y-57888436D01*
X212687251Y-57890130D01*
X213131500Y-58709575D01*
X213132394Y-58711305D01*
X213276283Y-59003899D01*
X213520250Y-59500000D01*
X213543745Y-59547775D01*
X213544562Y-59549525D01*
X213787388Y-60097249D01*
X213922346Y-60401663D01*
X213923100Y-60403458D01*
X214266732Y-61269945D01*
X214267414Y-61271769D01*
X214576354Y-62151243D01*
X214576962Y-62153093D01*
X214850699Y-63044095D01*
X214851234Y-63045967D01*
X215089362Y-63947175D01*
X215089822Y-63949067D01*
X215291957Y-64859032D01*
X215292341Y-64860941D01*
X215458152Y-65778178D01*
X215458461Y-65780101D01*
X215587708Y-66703263D01*
X215587939Y-66705197D01*
X215680397Y-67632705D01*
X215680552Y-67634646D01*
X215736089Y-68565140D01*
X215736166Y-68567085D01*
X215752900Y-69409107D01*
X215751394Y-69420514D01*
X215751466Y-69420525D01*
X215750980Y-69423702D01*
X215749620Y-69489030D01*
X215749590Y-69490004D01*
X215711640Y-70421885D01*
X215711523Y-70423829D01*
X215636617Y-71352970D01*
X215636422Y-71354907D01*
X215524661Y-72280318D01*
X215524389Y-72282246D01*
X215375946Y-73202496D01*
X215375597Y-73204412D01*
X215190715Y-74118001D01*
X215190291Y-74119902D01*
X214969250Y-75025445D01*
X214968751Y-75027327D01*
X214711902Y-75923387D01*
X214711328Y-75925248D01*
X214419085Y-76810377D01*
X214418438Y-76812213D01*
X214091263Y-77685017D01*
X214090544Y-77686827D01*
X213728931Y-78545986D01*
X213728140Y-78547765D01*
X213332692Y-79391844D01*
X213331831Y-79393591D01*
X212903147Y-80221311D01*
X212902217Y-80223022D01*
X212440989Y-81033050D01*
X212439992Y-81034722D01*
X212008565Y-81726918D01*
X211978058Y-81748731D01*
X211966981Y-81750000D01*
X181547969Y-81750000D01*
X181513321Y-81735648D01*
X181498980Y-81702042D01*
X181450414Y-79419458D01*
X183342420Y-79419458D01*
X183362634Y-79650510D01*
X183362635Y-79650516D01*
X183422660Y-79874529D01*
X183422662Y-79874534D01*
X183520680Y-80084738D01*
X183520687Y-80084750D01*
X183653708Y-80274721D01*
X183653714Y-80274728D01*
X183817712Y-80438726D01*
X183817719Y-80438732D01*
X184007690Y-80571753D01*
X184007702Y-80571760D01*
X184084210Y-80607435D01*
X184217904Y-80669778D01*
X184217910Y-80669779D01*
X184217911Y-80669780D01*
X184441924Y-80729805D01*
X184441928Y-80729805D01*
X184441933Y-80729807D01*
X184672983Y-80750021D01*
X184904033Y-80729807D01*
X184904039Y-80729805D01*
X184904041Y-80729805D01*
X185016047Y-80699792D01*
X185128062Y-80669778D01*
X185338265Y-80571759D01*
X185338266Y-80571758D01*
X185338275Y-80571753D01*
X185528246Y-80438732D01*
X185528252Y-80438728D01*
X185692253Y-80274727D01*
X185714504Y-80242948D01*
X185748265Y-80194733D01*
X196653528Y-80194733D01*
X196673742Y-80425785D01*
X196673743Y-80425791D01*
X196733768Y-80649804D01*
X196733770Y-80649809D01*
X196733771Y-80649812D01*
X196743082Y-80669780D01*
X196831788Y-80860013D01*
X196831795Y-80860025D01*
X196964816Y-81049996D01*
X196964822Y-81050003D01*
X197128820Y-81214001D01*
X197128827Y-81214007D01*
X197318798Y-81347028D01*
X197318810Y-81347035D01*
X197395318Y-81382710D01*
X197529012Y-81445053D01*
X197529018Y-81445054D01*
X197529019Y-81445055D01*
X197753032Y-81505080D01*
X197753036Y-81505080D01*
X197753041Y-81505082D01*
X197984091Y-81525296D01*
X198215141Y-81505082D01*
X198215147Y-81505080D01*
X198215149Y-81505080D01*
X198419573Y-81450304D01*
X198439170Y-81445053D01*
X198649373Y-81347034D01*
X198649374Y-81347033D01*
X198649383Y-81347028D01*
X198839354Y-81214007D01*
X198839360Y-81214003D01*
X199003361Y-81050002D01*
X199025612Y-81018223D01*
X199136386Y-80860025D01*
X199136393Y-80860013D01*
X199140897Y-80850352D01*
X199234411Y-80649812D01*
X199294440Y-80425783D01*
X199314654Y-80194733D01*
X199294440Y-79963683D01*
X199270552Y-79874534D01*
X199234413Y-79739661D01*
X199234412Y-79739660D01*
X199234411Y-79739654D01*
X199145832Y-79549696D01*
X199136393Y-79529453D01*
X199136386Y-79529441D01*
X199003365Y-79339469D01*
X199003359Y-79339462D01*
X198839361Y-79175464D01*
X198839354Y-79175458D01*
X198649383Y-79042437D01*
X198649371Y-79042430D01*
X198482002Y-78964386D01*
X198439170Y-78944413D01*
X198439167Y-78944412D01*
X198439162Y-78944410D01*
X198215149Y-78884385D01*
X198215143Y-78884384D01*
X197984091Y-78864170D01*
X197753038Y-78884384D01*
X197753032Y-78884385D01*
X197529019Y-78944410D01*
X197529014Y-78944412D01*
X197318811Y-79042430D01*
X197318799Y-79042437D01*
X197128827Y-79175458D01*
X197128820Y-79175464D01*
X196964822Y-79339462D01*
X196964816Y-79339469D01*
X196831795Y-79529441D01*
X196831788Y-79529453D01*
X196733770Y-79739656D01*
X196733768Y-79739661D01*
X196673743Y-79963674D01*
X196673742Y-79963680D01*
X196653528Y-80194733D01*
X185748265Y-80194733D01*
X185825278Y-80084750D01*
X185825285Y-80084738D01*
X185829789Y-80075077D01*
X185923303Y-79874537D01*
X185983332Y-79650508D01*
X186003546Y-79419458D01*
X185983332Y-79188408D01*
X185979863Y-79175463D01*
X185923305Y-78964386D01*
X185923304Y-78964385D01*
X185923303Y-78964379D01*
X185860960Y-78830685D01*
X185825285Y-78754178D01*
X185825278Y-78754166D01*
X185692257Y-78564194D01*
X185692251Y-78564187D01*
X185528253Y-78400189D01*
X185528246Y-78400183D01*
X185338275Y-78267162D01*
X185338263Y-78267155D01*
X185185246Y-78195803D01*
X185128062Y-78169138D01*
X185128059Y-78169137D01*
X185128054Y-78169135D01*
X184904041Y-78109110D01*
X184904035Y-78109109D01*
X184672983Y-78088895D01*
X184441930Y-78109109D01*
X184441924Y-78109110D01*
X184217911Y-78169135D01*
X184217906Y-78169137D01*
X184007703Y-78267155D01*
X184007691Y-78267162D01*
X183817719Y-78400183D01*
X183817712Y-78400189D01*
X183653714Y-78564187D01*
X183653708Y-78564194D01*
X183520687Y-78754166D01*
X183520680Y-78754178D01*
X183422662Y-78964381D01*
X183422660Y-78964386D01*
X183362635Y-79188399D01*
X183362634Y-79188405D01*
X183342420Y-79419458D01*
X181450414Y-79419458D01*
X181420457Y-78011480D01*
X188597056Y-78011480D01*
X188617270Y-78242532D01*
X188617271Y-78242538D01*
X188677296Y-78466551D01*
X188677298Y-78466556D01*
X188775316Y-78676760D01*
X188775323Y-78676772D01*
X188908344Y-78866743D01*
X188908350Y-78866750D01*
X189072348Y-79030748D01*
X189072355Y-79030754D01*
X189262326Y-79163775D01*
X189262338Y-79163782D01*
X189315143Y-79188405D01*
X189472540Y-79261800D01*
X189472546Y-79261801D01*
X189472547Y-79261802D01*
X189696560Y-79321827D01*
X189696564Y-79321827D01*
X189696569Y-79321829D01*
X189927619Y-79342043D01*
X190158669Y-79321829D01*
X190158675Y-79321827D01*
X190158677Y-79321827D01*
X190279866Y-79289354D01*
X190382698Y-79261800D01*
X190592901Y-79163781D01*
X190592902Y-79163780D01*
X190592911Y-79163775D01*
X190782882Y-79030754D01*
X190782888Y-79030750D01*
X190946889Y-78866749D01*
X190969140Y-78834970D01*
X191079914Y-78676772D01*
X191079921Y-78676760D01*
X191084425Y-78667099D01*
X191177939Y-78466559D01*
X191237968Y-78242530D01*
X191258182Y-78011480D01*
X191237968Y-77780430D01*
X191212651Y-77685948D01*
X191177941Y-77556408D01*
X191177940Y-77556407D01*
X191177939Y-77556401D01*
X191115596Y-77422707D01*
X191079921Y-77346200D01*
X191079914Y-77346188D01*
X190946893Y-77156216D01*
X190946887Y-77156209D01*
X190782889Y-76992211D01*
X190782882Y-76992205D01*
X190592911Y-76859184D01*
X190592899Y-76859177D01*
X190439882Y-76787825D01*
X190382698Y-76761160D01*
X190382695Y-76761159D01*
X190382690Y-76761157D01*
X190158677Y-76701132D01*
X190158671Y-76701131D01*
X189927619Y-76680917D01*
X189696566Y-76701131D01*
X189696560Y-76701132D01*
X189472547Y-76761157D01*
X189472542Y-76761159D01*
X189262339Y-76859177D01*
X189262327Y-76859184D01*
X189072355Y-76992205D01*
X189072348Y-76992211D01*
X188908350Y-77156209D01*
X188908344Y-77156216D01*
X188775323Y-77346188D01*
X188775316Y-77346200D01*
X188677298Y-77556403D01*
X188677296Y-77556408D01*
X188617271Y-77780421D01*
X188617270Y-77780427D01*
X188597056Y-78011480D01*
X181420457Y-78011480D01*
X181306553Y-72657977D01*
X181530688Y-72657977D01*
X181550902Y-72889029D01*
X181550903Y-72889035D01*
X181610928Y-73113048D01*
X181610930Y-73113053D01*
X181708948Y-73323257D01*
X181708955Y-73323269D01*
X181841976Y-73513240D01*
X181841982Y-73513247D01*
X182005980Y-73677245D01*
X182005987Y-73677251D01*
X182195958Y-73810272D01*
X182195970Y-73810279D01*
X182272478Y-73845954D01*
X182406172Y-73908297D01*
X182406178Y-73908298D01*
X182406179Y-73908299D01*
X182630192Y-73968324D01*
X182630196Y-73968324D01*
X182630201Y-73968326D01*
X182861251Y-73988540D01*
X183092301Y-73968326D01*
X183092307Y-73968324D01*
X183092309Y-73968324D01*
X183285608Y-73916529D01*
X183316330Y-73908297D01*
X183526533Y-73810278D01*
X183526534Y-73810277D01*
X183526543Y-73810272D01*
X183716514Y-73677251D01*
X183716520Y-73677247D01*
X183880521Y-73513246D01*
X183902772Y-73481467D01*
X184013546Y-73323269D01*
X184013553Y-73323257D01*
X184046514Y-73252571D01*
X184111571Y-73113056D01*
X184171600Y-72889027D01*
X184191814Y-72657977D01*
X184171600Y-72426927D01*
X184169937Y-72420722D01*
X184114757Y-72214786D01*
X184502866Y-72214786D01*
X184502866Y-72214787D01*
X184523149Y-72420721D01*
X184523149Y-72420722D01*
X184532744Y-72452351D01*
X184583217Y-72618741D01*
X184680764Y-72801237D01*
X184812039Y-72961197D01*
X184971999Y-73092472D01*
X185154495Y-73190019D01*
X185352515Y-73250087D01*
X185377744Y-73252571D01*
X185410819Y-73270249D01*
X185421706Y-73306136D01*
X185404028Y-73339212D01*
X185329678Y-73400229D01*
X185198404Y-73560188D01*
X185100857Y-73742683D01*
X185040788Y-73940704D01*
X185040788Y-73940705D01*
X185020505Y-74146639D01*
X185020505Y-74146640D01*
X185040788Y-74352574D01*
X185040788Y-74352575D01*
X185052219Y-74390258D01*
X185100856Y-74550594D01*
X185198403Y-74733090D01*
X185329678Y-74893050D01*
X185489638Y-75024325D01*
X185672134Y-75121872D01*
X185870154Y-75181940D01*
X185895381Y-75184424D01*
X185928455Y-75202102D01*
X185939342Y-75237990D01*
X185921664Y-75271065D01*
X185921663Y-75271065D01*
X185847318Y-75332078D01*
X185716042Y-75492039D01*
X185618495Y-75674534D01*
X185558426Y-75872555D01*
X185558426Y-75872556D01*
X185552075Y-75937043D01*
X185538143Y-76078491D01*
X185558426Y-76284425D01*
X185618494Y-76482445D01*
X185716041Y-76664941D01*
X185847316Y-76824901D01*
X186007276Y-76956176D01*
X186189772Y-77053723D01*
X186387792Y-77113791D01*
X186593726Y-77134074D01*
X186799660Y-77113791D01*
X186997680Y-77053723D01*
X187180176Y-76956176D01*
X187340136Y-76824901D01*
X187471411Y-76664941D01*
X187568958Y-76482445D01*
X187629026Y-76284425D01*
X187649309Y-76078491D01*
X187629026Y-75872557D01*
X187568958Y-75674537D01*
X187471411Y-75492041D01*
X187340136Y-75332081D01*
X187234010Y-75244986D01*
X191703781Y-75244986D01*
X191723995Y-75476038D01*
X191723996Y-75476044D01*
X191784021Y-75700057D01*
X191784023Y-75700062D01*
X191882041Y-75910266D01*
X191882048Y-75910278D01*
X192015069Y-76100249D01*
X192015075Y-76100256D01*
X192179073Y-76264254D01*
X192179080Y-76264260D01*
X192369051Y-76397281D01*
X192369063Y-76397288D01*
X192445571Y-76432963D01*
X192579265Y-76495306D01*
X192579271Y-76495307D01*
X192579272Y-76495308D01*
X192803285Y-76555333D01*
X192803289Y-76555333D01*
X192803294Y-76555335D01*
X193034344Y-76575549D01*
X193265394Y-76555335D01*
X193265400Y-76555333D01*
X193265402Y-76555333D01*
X193377408Y-76525320D01*
X193489423Y-76495306D01*
X193699626Y-76397287D01*
X193699627Y-76397286D01*
X193699636Y-76397281D01*
X193889607Y-76264260D01*
X193889613Y-76264256D01*
X194053614Y-76100255D01*
X194075865Y-76068476D01*
X194186639Y-75910278D01*
X194186646Y-75910266D01*
X194194697Y-75893000D01*
X194284664Y-75700065D01*
X194340201Y-75492801D01*
X194344691Y-75476044D01*
X194344692Y-75476038D01*
X194344693Y-75476036D01*
X194364907Y-75244986D01*
X194344693Y-75013936D01*
X194328650Y-74954064D01*
X194284666Y-74789914D01*
X194284665Y-74789913D01*
X194284664Y-74789907D01*
X194197101Y-74602127D01*
X194186646Y-74579706D01*
X194186639Y-74579694D01*
X194053618Y-74389722D01*
X194053612Y-74389715D01*
X193889614Y-74225717D01*
X193889607Y-74225711D01*
X193699636Y-74092690D01*
X193699624Y-74092683D01*
X193546607Y-74021331D01*
X193489423Y-73994666D01*
X193489420Y-73994665D01*
X193489415Y-73994663D01*
X193265402Y-73934638D01*
X193265396Y-73934637D01*
X193034344Y-73914423D01*
X192803291Y-73934637D01*
X192803285Y-73934638D01*
X192579272Y-73994663D01*
X192579267Y-73994665D01*
X192369064Y-74092683D01*
X192369052Y-74092690D01*
X192179080Y-74225711D01*
X192179073Y-74225717D01*
X192015075Y-74389715D01*
X192015069Y-74389722D01*
X191882048Y-74579694D01*
X191882041Y-74579706D01*
X191784023Y-74789909D01*
X191784021Y-74789914D01*
X191723996Y-75013927D01*
X191723995Y-75013933D01*
X191703781Y-75244986D01*
X187234010Y-75244986D01*
X187180176Y-75200806D01*
X186997680Y-75103259D01*
X186869307Y-75064318D01*
X186799664Y-75043192D01*
X186799655Y-75043190D01*
X186774432Y-75040706D01*
X186741357Y-75023027D01*
X186730471Y-74987139D01*
X186748148Y-74954066D01*
X186822498Y-74893050D01*
X186953773Y-74733090D01*
X187051320Y-74550594D01*
X187111388Y-74352574D01*
X187131671Y-74146640D01*
X187111388Y-73940706D01*
X187051320Y-73742686D01*
X186953773Y-73560190D01*
X186914694Y-73512572D01*
X194093008Y-73512572D01*
X194093008Y-73512573D01*
X194113291Y-73718507D01*
X194113291Y-73718508D01*
X194139446Y-73804731D01*
X194173359Y-73916527D01*
X194270906Y-74099023D01*
X194402181Y-74258983D01*
X194562141Y-74390258D01*
X194744637Y-74487805D01*
X194942657Y-74547873D01*
X195148591Y-74568156D01*
X195354525Y-74547873D01*
X195515101Y-74499163D01*
X195552423Y-74502839D01*
X195576215Y-74531829D01*
X195576215Y-74560277D01*
X195527506Y-74720851D01*
X195527506Y-74720852D01*
X195527506Y-74720853D01*
X195507223Y-74926787D01*
X195527506Y-75132721D01*
X195587574Y-75330741D01*
X195685121Y-75513237D01*
X195816396Y-75673197D01*
X195976356Y-75804472D01*
X196158852Y-75902019D01*
X196356872Y-75962087D01*
X196562806Y-75982370D01*
X196768740Y-75962087D01*
X196929316Y-75913377D01*
X196966636Y-75917053D01*
X196990428Y-75946043D01*
X196990428Y-75974491D01*
X196941719Y-76135064D01*
X196941719Y-76135065D01*
X196921436Y-76340999D01*
X196921436Y-76341000D01*
X196941719Y-76546934D01*
X196941719Y-76546935D01*
X196951485Y-76579130D01*
X197001787Y-76744954D01*
X197099334Y-76927450D01*
X197230609Y-77087410D01*
X197390569Y-77218685D01*
X197573065Y-77316232D01*
X197771085Y-77376300D01*
X197977019Y-77396583D01*
X198182953Y-77376300D01*
X198380973Y-77316232D01*
X198563469Y-77218685D01*
X198723429Y-77087410D01*
X198854704Y-76927450D01*
X198952251Y-76744954D01*
X199012319Y-76546934D01*
X199031905Y-76348072D01*
X200500187Y-76348072D01*
X200520401Y-76579124D01*
X200520402Y-76579130D01*
X200580427Y-76803143D01*
X200580429Y-76803148D01*
X200678447Y-77013352D01*
X200678454Y-77013364D01*
X200811475Y-77203335D01*
X200811481Y-77203342D01*
X200975479Y-77367340D01*
X200975486Y-77367346D01*
X201165457Y-77500367D01*
X201165469Y-77500374D01*
X201241977Y-77536049D01*
X201375671Y-77598392D01*
X201375677Y-77598393D01*
X201375678Y-77598394D01*
X201599691Y-77658419D01*
X201599695Y-77658419D01*
X201599700Y-77658421D01*
X201830750Y-77678635D01*
X202061800Y-77658421D01*
X202061806Y-77658419D01*
X202061808Y-77658419D01*
X202173814Y-77628406D01*
X202285829Y-77598392D01*
X202496032Y-77500373D01*
X202496033Y-77500372D01*
X202496042Y-77500367D01*
X202686013Y-77367346D01*
X202686019Y-77367342D01*
X202850020Y-77203341D01*
X202872271Y-77171562D01*
X202983045Y-77013364D01*
X202983052Y-77013352D01*
X203023108Y-76927451D01*
X203081070Y-76803151D01*
X203141099Y-76579122D01*
X203161313Y-76348072D01*
X203141099Y-76117022D01*
X203136606Y-76100255D01*
X203081072Y-75893000D01*
X203081071Y-75892999D01*
X203081070Y-75892993D01*
X202991105Y-75700062D01*
X202983052Y-75682792D01*
X202983045Y-75682780D01*
X202850024Y-75492808D01*
X202850018Y-75492801D01*
X202686020Y-75328803D01*
X202686013Y-75328797D01*
X202496042Y-75195776D01*
X202496030Y-75195769D01*
X202337550Y-75121870D01*
X202285829Y-75097752D01*
X202285826Y-75097751D01*
X202285821Y-75097749D01*
X202061808Y-75037724D01*
X202061802Y-75037723D01*
X201830750Y-75017509D01*
X201599697Y-75037723D01*
X201599691Y-75037724D01*
X201375678Y-75097749D01*
X201375673Y-75097751D01*
X201165470Y-75195769D01*
X201165458Y-75195776D01*
X200975486Y-75328797D01*
X200975479Y-75328803D01*
X200811481Y-75492801D01*
X200811475Y-75492808D01*
X200678454Y-75682780D01*
X200678447Y-75682792D01*
X200580429Y-75892995D01*
X200580427Y-75893000D01*
X200520402Y-76117013D01*
X200520401Y-76117019D01*
X200500187Y-76348072D01*
X199031905Y-76348072D01*
X199032602Y-76341000D01*
X199012319Y-76135066D01*
X198952251Y-75937046D01*
X198854704Y-75754550D01*
X198723429Y-75594590D01*
X198563469Y-75463315D01*
X198380973Y-75365768D01*
X198182953Y-75305700D01*
X197977019Y-75285417D01*
X197771084Y-75305700D01*
X197771083Y-75305700D01*
X197610510Y-75354409D01*
X197573187Y-75350733D01*
X197549396Y-75321743D01*
X197549396Y-75293298D01*
X197598106Y-75132721D01*
X197618389Y-74926787D01*
X197598106Y-74720853D01*
X197538038Y-74522833D01*
X197440491Y-74340337D01*
X197309216Y-74180377D01*
X197149256Y-74049102D01*
X196966760Y-73951555D01*
X196768740Y-73891487D01*
X196562806Y-73871204D01*
X196356871Y-73891487D01*
X196356870Y-73891487D01*
X196196295Y-73940197D01*
X196158972Y-73936521D01*
X196135181Y-73907531D01*
X196135181Y-73879083D01*
X196140476Y-73861629D01*
X196183891Y-73718507D01*
X196204174Y-73512573D01*
X196183891Y-73306639D01*
X196123823Y-73108619D01*
X196108526Y-73080000D01*
X206360610Y-73080000D01*
X206379680Y-73297979D01*
X206379681Y-73297985D01*
X206436309Y-73509322D01*
X206436311Y-73509327D01*
X206436312Y-73509330D01*
X206438138Y-73513246D01*
X206528783Y-73707637D01*
X206528790Y-73707649D01*
X206654284Y-73886871D01*
X206654290Y-73886878D01*
X206809008Y-74041596D01*
X206809015Y-74041602D01*
X206988237Y-74167096D01*
X206988249Y-74167103D01*
X207016716Y-74180377D01*
X207186557Y-74259575D01*
X207186563Y-74259576D01*
X207186564Y-74259577D01*
X207397901Y-74316205D01*
X207397905Y-74316205D01*
X207397910Y-74316207D01*
X207615887Y-74335277D01*
X207833864Y-74316207D01*
X207833870Y-74316205D01*
X207833872Y-74316205D01*
X207939540Y-74287891D01*
X208045217Y-74259575D01*
X208243526Y-74167102D01*
X208243527Y-74167101D01*
X208243536Y-74167096D01*
X208422758Y-74041602D01*
X208422764Y-74041598D01*
X208577485Y-73886877D01*
X208631120Y-73810279D01*
X208702983Y-73707649D01*
X208702990Y-73707637D01*
X208717162Y-73677245D01*
X208795462Y-73509330D01*
X208852094Y-73297977D01*
X208871164Y-73080000D01*
X208852094Y-72862023D01*
X208849006Y-72850500D01*
X208795464Y-72650677D01*
X208795463Y-72650672D01*
X208702990Y-72452363D01*
X208702983Y-72452351D01*
X208577489Y-72273128D01*
X208577483Y-72273121D01*
X208422765Y-72118403D01*
X208422758Y-72118397D01*
X208243536Y-71992903D01*
X208243524Y-71992896D01*
X208077078Y-71915282D01*
X208045217Y-71900425D01*
X208045214Y-71900424D01*
X208045209Y-71900422D01*
X207833872Y-71843794D01*
X207833866Y-71843793D01*
X207615887Y-71824723D01*
X207397907Y-71843793D01*
X207397901Y-71843794D01*
X207186564Y-71900422D01*
X207186559Y-71900423D01*
X206988250Y-71992896D01*
X206988238Y-71992903D01*
X206809015Y-72118397D01*
X206809008Y-72118403D01*
X206654290Y-72273121D01*
X206654284Y-72273128D01*
X206528790Y-72452351D01*
X206528783Y-72452363D01*
X206436310Y-72650672D01*
X206436309Y-72650677D01*
X206379681Y-72862014D01*
X206379680Y-72862020D01*
X206360610Y-73080000D01*
X196108526Y-73080000D01*
X196026276Y-72926123D01*
X195895001Y-72766163D01*
X195735041Y-72634888D01*
X195552545Y-72537341D01*
X195354525Y-72477273D01*
X195148591Y-72456990D01*
X194942656Y-72477273D01*
X194942655Y-72477273D01*
X194744634Y-72537342D01*
X194562139Y-72634889D01*
X194402181Y-72766163D01*
X194270907Y-72926121D01*
X194173360Y-73108616D01*
X194173359Y-73108618D01*
X194173359Y-73108619D01*
X194172014Y-73113053D01*
X194113291Y-73306637D01*
X194113291Y-73306638D01*
X194093008Y-73512572D01*
X186914694Y-73512572D01*
X186822498Y-73400230D01*
X186662538Y-73268955D01*
X186480042Y-73171408D01*
X186282022Y-73111340D01*
X186256790Y-73108854D01*
X186223716Y-73091176D01*
X186212830Y-73055288D01*
X186230507Y-73022214D01*
X186304859Y-72961197D01*
X186436134Y-72801237D01*
X186533681Y-72618741D01*
X186593749Y-72420721D01*
X186614032Y-72214787D01*
X186593749Y-72008853D01*
X186533681Y-71810833D01*
X186436134Y-71628337D01*
X186304859Y-71468377D01*
X186144899Y-71337102D01*
X185981944Y-71250000D01*
X186785325Y-71250000D01*
X186805539Y-71481052D01*
X186805540Y-71481058D01*
X186865565Y-71705071D01*
X186865567Y-71705076D01*
X186963585Y-71915280D01*
X186963592Y-71915292D01*
X187096613Y-72105263D01*
X187096619Y-72105270D01*
X187260617Y-72269268D01*
X187260624Y-72269274D01*
X187450595Y-72402295D01*
X187450607Y-72402302D01*
X187527115Y-72437977D01*
X187660809Y-72500320D01*
X187660815Y-72500321D01*
X187660816Y-72500322D01*
X187884829Y-72560347D01*
X187884833Y-72560347D01*
X187884838Y-72560349D01*
X188115888Y-72580563D01*
X188346938Y-72560349D01*
X188346944Y-72560347D01*
X188346946Y-72560347D01*
X188458952Y-72530334D01*
X188570967Y-72500320D01*
X188781170Y-72402301D01*
X188781171Y-72402300D01*
X188781180Y-72402295D01*
X188952625Y-72282246D01*
X188971157Y-72269270D01*
X189135158Y-72105269D01*
X189202670Y-72008853D01*
X189268183Y-71915292D01*
X189268190Y-71915280D01*
X189297045Y-71853399D01*
X189366208Y-71705079D01*
X189419637Y-71505681D01*
X189426235Y-71481058D01*
X189426236Y-71481052D01*
X189426237Y-71481050D01*
X189433475Y-71398323D01*
X195550441Y-71398323D01*
X195570655Y-71629375D01*
X195570656Y-71629381D01*
X195630681Y-71853394D01*
X195630683Y-71853399D01*
X195728701Y-72063603D01*
X195728708Y-72063615D01*
X195861729Y-72253586D01*
X195861735Y-72253593D01*
X196025733Y-72417591D01*
X196025740Y-72417597D01*
X196215711Y-72550618D01*
X196215723Y-72550625D01*
X196292231Y-72586300D01*
X196425925Y-72648643D01*
X196425931Y-72648644D01*
X196425932Y-72648645D01*
X196649945Y-72708670D01*
X196649949Y-72708670D01*
X196649954Y-72708672D01*
X196881004Y-72728886D01*
X197112054Y-72708672D01*
X197112060Y-72708670D01*
X197112062Y-72708670D01*
X197328492Y-72650677D01*
X197336083Y-72648643D01*
X197546286Y-72550624D01*
X197546287Y-72550623D01*
X197546296Y-72550618D01*
X197722947Y-72426924D01*
X197736273Y-72417593D01*
X197900274Y-72253592D01*
X197935769Y-72202900D01*
X198033299Y-72063615D01*
X198033306Y-72063603D01*
X198058836Y-72008853D01*
X198131324Y-71853402D01*
X198191353Y-71629373D01*
X198211567Y-71398323D01*
X198191353Y-71167273D01*
X198174989Y-71106204D01*
X198131326Y-70943251D01*
X198131325Y-70943250D01*
X198131324Y-70943244D01*
X198062160Y-70794921D01*
X198033306Y-70733043D01*
X198033299Y-70733031D01*
X197900278Y-70543059D01*
X197900272Y-70543052D01*
X197736274Y-70379054D01*
X197736267Y-70379048D01*
X197546296Y-70246027D01*
X197546284Y-70246020D01*
X197393267Y-70174668D01*
X197336083Y-70148003D01*
X197336080Y-70148002D01*
X197336075Y-70148000D01*
X197112062Y-70087975D01*
X197112056Y-70087974D01*
X196881004Y-70067760D01*
X196649951Y-70087974D01*
X196649945Y-70087975D01*
X196425932Y-70148000D01*
X196425927Y-70148002D01*
X196215724Y-70246020D01*
X196215712Y-70246027D01*
X196025740Y-70379048D01*
X196025733Y-70379054D01*
X195861735Y-70543052D01*
X195861729Y-70543059D01*
X195728708Y-70733031D01*
X195728701Y-70733043D01*
X195630683Y-70943246D01*
X195630681Y-70943251D01*
X195570656Y-71167264D01*
X195570655Y-71167270D01*
X195550441Y-71398323D01*
X189433475Y-71398323D01*
X189446451Y-71250000D01*
X189426237Y-71018950D01*
X189405953Y-70943251D01*
X189366210Y-70794928D01*
X189366209Y-70794927D01*
X189366208Y-70794921D01*
X189303865Y-70661227D01*
X189268190Y-70584720D01*
X189268183Y-70584708D01*
X189135162Y-70394736D01*
X189135156Y-70394729D01*
X188971158Y-70230731D01*
X188971151Y-70230725D01*
X188781180Y-70097704D01*
X188781168Y-70097697D01*
X188628151Y-70026345D01*
X188570967Y-69999680D01*
X188570964Y-69999679D01*
X188570959Y-69999677D01*
X188346946Y-69939652D01*
X188346940Y-69939651D01*
X188115888Y-69919437D01*
X187884835Y-69939651D01*
X187884829Y-69939652D01*
X187660816Y-69999677D01*
X187660811Y-69999679D01*
X187450608Y-70097697D01*
X187450596Y-70097704D01*
X187260624Y-70230725D01*
X187260617Y-70230731D01*
X187096619Y-70394729D01*
X187096613Y-70394736D01*
X186963592Y-70584708D01*
X186963585Y-70584720D01*
X186865567Y-70794923D01*
X186865565Y-70794928D01*
X186805540Y-71018941D01*
X186805539Y-71018947D01*
X186785325Y-71250000D01*
X185981944Y-71250000D01*
X185962403Y-71239555D01*
X185764383Y-71179487D01*
X185558449Y-71159204D01*
X185352514Y-71179487D01*
X185352513Y-71179487D01*
X185154492Y-71239556D01*
X184971997Y-71337103D01*
X184812039Y-71468377D01*
X184680765Y-71628335D01*
X184583218Y-71810830D01*
X184523149Y-72008851D01*
X184523149Y-72008852D01*
X184502866Y-72214786D01*
X184114757Y-72214786D01*
X184111573Y-72202905D01*
X184111572Y-72202904D01*
X184111571Y-72202898D01*
X184046622Y-72063615D01*
X184013553Y-71992697D01*
X184013546Y-71992685D01*
X183880525Y-71802713D01*
X183880519Y-71802706D01*
X183716521Y-71638708D01*
X183716514Y-71638702D01*
X183526543Y-71505681D01*
X183526531Y-71505674D01*
X183373514Y-71434322D01*
X183316330Y-71407657D01*
X183316327Y-71407656D01*
X183316322Y-71407654D01*
X183092309Y-71347629D01*
X183092303Y-71347628D01*
X182861251Y-71327414D01*
X182630198Y-71347628D01*
X182630192Y-71347629D01*
X182406179Y-71407654D01*
X182406174Y-71407656D01*
X182195971Y-71505674D01*
X182195959Y-71505681D01*
X182005987Y-71638702D01*
X182005980Y-71638708D01*
X181841982Y-71802706D01*
X181841976Y-71802713D01*
X181708955Y-71992685D01*
X181708948Y-71992697D01*
X181610930Y-72202900D01*
X181610928Y-72202905D01*
X181550903Y-72426918D01*
X181550902Y-72426924D01*
X181530688Y-72657977D01*
X181306553Y-72657977D01*
X181250000Y-70000000D01*
X177049000Y-70000000D01*
X177014352Y-69985648D01*
X177000000Y-69951000D01*
X177000000Y-65985789D01*
X181530686Y-65985789D01*
X181550900Y-66216841D01*
X181550901Y-66216847D01*
X181610926Y-66440860D01*
X181610928Y-66440865D01*
X181708946Y-66651069D01*
X181708953Y-66651081D01*
X181841974Y-66841052D01*
X181841980Y-66841059D01*
X182005978Y-67005057D01*
X182005985Y-67005063D01*
X182195956Y-67138084D01*
X182195968Y-67138091D01*
X182248754Y-67162705D01*
X182406170Y-67236109D01*
X182406176Y-67236110D01*
X182406177Y-67236111D01*
X182630190Y-67296136D01*
X182630194Y-67296136D01*
X182630199Y-67296138D01*
X182861249Y-67316352D01*
X183092299Y-67296138D01*
X183092305Y-67296136D01*
X183092307Y-67296136D01*
X183204313Y-67266123D01*
X183316328Y-67236109D01*
X183526531Y-67138090D01*
X183526532Y-67138089D01*
X183526541Y-67138084D01*
X183701708Y-67015429D01*
X183716518Y-67005059D01*
X183880519Y-66841058D01*
X183959345Y-66728484D01*
X184013544Y-66651081D01*
X184013551Y-66651069D01*
X184021085Y-66634912D01*
X184111569Y-66440868D01*
X184114755Y-66428977D01*
X184502867Y-66428977D01*
X184502867Y-66428978D01*
X184523150Y-66634912D01*
X184523150Y-66634913D01*
X184528055Y-66651081D01*
X184583218Y-66832932D01*
X184680765Y-67015428D01*
X184812040Y-67175388D01*
X184972000Y-67306663D01*
X185154496Y-67404210D01*
X185352516Y-67464278D01*
X185558450Y-67484561D01*
X185764384Y-67464278D01*
X185962404Y-67404210D01*
X185981947Y-67393764D01*
X186785324Y-67393764D01*
X186805538Y-67624816D01*
X186805539Y-67624822D01*
X186865564Y-67848835D01*
X186865566Y-67848840D01*
X186963584Y-68059044D01*
X186963591Y-68059056D01*
X187096612Y-68249027D01*
X187096618Y-68249034D01*
X187260616Y-68413032D01*
X187260623Y-68413038D01*
X187450594Y-68546059D01*
X187450606Y-68546066D01*
X187527114Y-68581741D01*
X187660808Y-68644084D01*
X187660814Y-68644085D01*
X187660815Y-68644086D01*
X187884828Y-68704111D01*
X187884832Y-68704111D01*
X187884837Y-68704113D01*
X188115887Y-68724327D01*
X188346937Y-68704113D01*
X188346943Y-68704111D01*
X188346945Y-68704111D01*
X188458951Y-68674098D01*
X188570966Y-68644084D01*
X188781169Y-68546065D01*
X188781170Y-68546064D01*
X188781179Y-68546059D01*
X188971150Y-68413038D01*
X188971156Y-68413034D01*
X189135157Y-68249033D01*
X189157408Y-68217254D01*
X189268182Y-68059056D01*
X189268189Y-68059044D01*
X189277214Y-68039690D01*
X189366207Y-67848843D01*
X189396221Y-67736828D01*
X189426234Y-67624822D01*
X189426235Y-67624816D01*
X189426236Y-67624814D01*
X189446450Y-67393764D01*
X189426236Y-67162714D01*
X189419638Y-67138091D01*
X189409881Y-67101676D01*
X195530310Y-67101676D01*
X195550524Y-67332728D01*
X195550525Y-67332734D01*
X195610550Y-67556747D01*
X195610552Y-67556752D01*
X195708570Y-67766956D01*
X195708577Y-67766968D01*
X195841598Y-67956939D01*
X195841604Y-67956946D01*
X196005602Y-68120944D01*
X196005609Y-68120950D01*
X196195580Y-68253971D01*
X196195592Y-68253978D01*
X196272100Y-68289653D01*
X196405794Y-68351996D01*
X196405800Y-68351997D01*
X196405801Y-68351998D01*
X196629814Y-68412023D01*
X196629818Y-68412023D01*
X196629823Y-68412025D01*
X196860873Y-68432239D01*
X197091923Y-68412025D01*
X197091929Y-68412023D01*
X197091931Y-68412023D01*
X197203937Y-68382010D01*
X197315952Y-68351996D01*
X197526155Y-68253977D01*
X197526156Y-68253976D01*
X197526165Y-68253971D01*
X197716136Y-68120950D01*
X197716142Y-68120946D01*
X197837088Y-68000000D01*
X206360610Y-68000000D01*
X206379680Y-68217979D01*
X206379681Y-68217985D01*
X206436309Y-68429322D01*
X206436311Y-68429327D01*
X206436312Y-68429330D01*
X206461468Y-68483279D01*
X206528783Y-68627637D01*
X206528790Y-68627649D01*
X206654284Y-68806871D01*
X206654290Y-68806878D01*
X206809008Y-68961596D01*
X206809015Y-68961602D01*
X206988237Y-69087096D01*
X206988249Y-69087103D01*
X207060427Y-69120760D01*
X207186557Y-69179575D01*
X207186563Y-69179576D01*
X207186564Y-69179577D01*
X207397901Y-69236205D01*
X207397905Y-69236205D01*
X207397910Y-69236207D01*
X207615887Y-69255277D01*
X207833864Y-69236207D01*
X207833870Y-69236205D01*
X207833872Y-69236205D01*
X207939540Y-69207891D01*
X208045217Y-69179575D01*
X208243526Y-69087102D01*
X208243527Y-69087101D01*
X208243536Y-69087096D01*
X208422758Y-68961602D01*
X208422764Y-68961598D01*
X208577485Y-68806877D01*
X208598477Y-68776897D01*
X208702983Y-68627649D01*
X208702990Y-68627637D01*
X208707239Y-68618523D01*
X208795462Y-68429330D01*
X208842448Y-68253977D01*
X208852092Y-68217985D01*
X208852093Y-68217979D01*
X208852094Y-68217977D01*
X208871164Y-68000000D01*
X208852094Y-67782023D01*
X208848057Y-67766958D01*
X208795464Y-67570677D01*
X208795463Y-67570672D01*
X208702990Y-67372363D01*
X208702983Y-67372351D01*
X208577489Y-67193128D01*
X208577483Y-67193121D01*
X208422765Y-67038403D01*
X208422758Y-67038397D01*
X208243536Y-66912903D01*
X208243524Y-66912896D01*
X208089467Y-66841059D01*
X208045217Y-66820425D01*
X208045214Y-66820424D01*
X208045209Y-66820422D01*
X207833872Y-66763794D01*
X207833866Y-66763793D01*
X207615887Y-66744723D01*
X207397907Y-66763793D01*
X207397901Y-66763794D01*
X207186564Y-66820422D01*
X207186559Y-66820423D01*
X206988250Y-66912896D01*
X206988238Y-66912903D01*
X206809015Y-67038397D01*
X206809008Y-67038403D01*
X206654290Y-67193121D01*
X206654284Y-67193128D01*
X206528790Y-67372351D01*
X206528783Y-67372363D01*
X206436310Y-67570672D01*
X206436309Y-67570677D01*
X206379681Y-67782014D01*
X206379680Y-67782020D01*
X206360610Y-68000000D01*
X197837088Y-68000000D01*
X197880143Y-67956945D01*
X197902394Y-67925166D01*
X198013168Y-67766968D01*
X198013175Y-67766956D01*
X198017679Y-67757295D01*
X198111193Y-67556755D01*
X198160601Y-67372363D01*
X198171220Y-67332734D01*
X198171221Y-67332728D01*
X198171222Y-67332726D01*
X198191436Y-67101676D01*
X198171222Y-66870626D01*
X198163299Y-66841059D01*
X198111195Y-66646604D01*
X198111194Y-66646603D01*
X198111193Y-66646597D01*
X198015260Y-66440868D01*
X198013175Y-66436396D01*
X198013168Y-66436384D01*
X197880147Y-66246412D01*
X197880141Y-66246405D01*
X197716143Y-66082407D01*
X197716136Y-66082401D01*
X197526165Y-65949380D01*
X197526153Y-65949373D01*
X197345452Y-65865112D01*
X197315952Y-65851356D01*
X197315949Y-65851355D01*
X197315944Y-65851353D01*
X197091931Y-65791328D01*
X197091925Y-65791327D01*
X196860873Y-65771113D01*
X196629820Y-65791327D01*
X196629814Y-65791328D01*
X196405801Y-65851353D01*
X196405796Y-65851355D01*
X196195593Y-65949373D01*
X196195581Y-65949380D01*
X196005609Y-66082401D01*
X196005602Y-66082407D01*
X195841604Y-66246405D01*
X195841598Y-66246412D01*
X195708577Y-66436384D01*
X195708570Y-66436396D01*
X195610552Y-66646599D01*
X195610550Y-66646604D01*
X195550525Y-66870617D01*
X195550524Y-66870623D01*
X195530310Y-67101676D01*
X189409881Y-67101676D01*
X189366209Y-66938692D01*
X189366208Y-66938691D01*
X189366207Y-66938685D01*
X189284654Y-66763794D01*
X189268189Y-66728484D01*
X189268182Y-66728472D01*
X189135161Y-66538500D01*
X189135155Y-66538493D01*
X188971157Y-66374495D01*
X188971150Y-66374489D01*
X188781179Y-66241468D01*
X188781167Y-66241461D01*
X188628150Y-66170109D01*
X188570966Y-66143444D01*
X188570963Y-66143443D01*
X188570958Y-66143441D01*
X188346945Y-66083416D01*
X188346939Y-66083415D01*
X188115887Y-66063201D01*
X187884834Y-66083415D01*
X187884828Y-66083416D01*
X187660815Y-66143441D01*
X187660810Y-66143443D01*
X187450607Y-66241461D01*
X187450595Y-66241468D01*
X187260623Y-66374489D01*
X187260616Y-66374495D01*
X187096618Y-66538493D01*
X187096612Y-66538500D01*
X186963591Y-66728472D01*
X186963584Y-66728484D01*
X186865566Y-66938687D01*
X186865564Y-66938692D01*
X186805539Y-67162705D01*
X186805538Y-67162711D01*
X186785324Y-67393764D01*
X185981947Y-67393764D01*
X186144900Y-67306663D01*
X186304860Y-67175388D01*
X186436135Y-67015428D01*
X186533682Y-66832932D01*
X186593750Y-66634912D01*
X186614033Y-66428978D01*
X186593750Y-66223044D01*
X186533682Y-66025024D01*
X186436135Y-65842528D01*
X186304860Y-65682568D01*
X186304858Y-65682566D01*
X186304857Y-65682565D01*
X186230510Y-65621550D01*
X186212831Y-65588476D01*
X186223718Y-65552588D01*
X186256790Y-65534909D01*
X186282022Y-65532425D01*
X186480042Y-65472357D01*
X186662538Y-65374810D01*
X186822498Y-65243535D01*
X186953773Y-65083575D01*
X187005165Y-64987429D01*
X194072877Y-64987429D01*
X194093160Y-65193363D01*
X194153228Y-65391383D01*
X194250775Y-65573879D01*
X194382050Y-65733839D01*
X194542010Y-65865114D01*
X194724506Y-65962661D01*
X194922526Y-66022729D01*
X195128460Y-66043012D01*
X195334394Y-66022729D01*
X195532414Y-65962661D01*
X195714910Y-65865114D01*
X195874870Y-65733839D01*
X196006145Y-65573879D01*
X196103692Y-65391383D01*
X196163760Y-65193363D01*
X196184043Y-64987429D01*
X196163760Y-64781495D01*
X196115049Y-64620915D01*
X196118725Y-64583596D01*
X196147715Y-64559804D01*
X196176163Y-64559804D01*
X196336740Y-64608514D01*
X196542674Y-64628797D01*
X196748608Y-64608514D01*
X196946628Y-64548446D01*
X197129124Y-64450899D01*
X197289084Y-64319624D01*
X197420359Y-64159664D01*
X197517906Y-63977168D01*
X197577974Y-63779148D01*
X197598257Y-63573214D01*
X197577974Y-63367280D01*
X197529264Y-63206703D01*
X197532940Y-63169383D01*
X197561930Y-63145591D01*
X197590376Y-63145591D01*
X197750953Y-63194301D01*
X197956887Y-63214584D01*
X198162821Y-63194301D01*
X198360841Y-63134233D01*
X198543337Y-63036686D01*
X198703297Y-62905411D01*
X198834572Y-62745451D01*
X198932119Y-62562955D01*
X198992187Y-62364935D01*
X199012470Y-62159001D01*
X199011773Y-62151929D01*
X200480057Y-62151929D01*
X200500271Y-62382981D01*
X200500272Y-62382987D01*
X200560297Y-62607000D01*
X200560299Y-62607005D01*
X200560300Y-62607008D01*
X200586965Y-62664192D01*
X200658317Y-62817209D01*
X200658324Y-62817221D01*
X200791345Y-63007192D01*
X200791351Y-63007199D01*
X200955349Y-63171197D01*
X200955356Y-63171203D01*
X201145327Y-63304224D01*
X201145339Y-63304231D01*
X201168524Y-63315042D01*
X201355541Y-63402249D01*
X201355547Y-63402250D01*
X201355548Y-63402251D01*
X201579561Y-63462276D01*
X201579565Y-63462276D01*
X201579570Y-63462278D01*
X201810620Y-63482492D01*
X202041670Y-63462278D01*
X202041676Y-63462276D01*
X202041678Y-63462276D01*
X202153684Y-63432263D01*
X202265699Y-63402249D01*
X202475902Y-63304230D01*
X202475903Y-63304229D01*
X202475912Y-63304224D01*
X202650341Y-63182086D01*
X202665889Y-63171199D01*
X202829890Y-63007198D01*
X202861256Y-62962403D01*
X202962915Y-62817221D01*
X202962922Y-62817209D01*
X202970976Y-62799937D01*
X203060940Y-62607008D01*
X203120969Y-62382979D01*
X203141183Y-62151929D01*
X203120969Y-61920879D01*
X203116714Y-61905000D01*
X203060942Y-61696857D01*
X203060941Y-61696856D01*
X203060940Y-61696850D01*
X202989690Y-61544054D01*
X202962922Y-61486649D01*
X202962915Y-61486637D01*
X202829894Y-61296665D01*
X202829888Y-61296658D01*
X202665890Y-61132660D01*
X202665883Y-61132654D01*
X202475912Y-60999633D01*
X202475900Y-60999626D01*
X202322883Y-60928274D01*
X202265699Y-60901609D01*
X202265696Y-60901608D01*
X202265691Y-60901606D01*
X202041678Y-60841581D01*
X202041672Y-60841580D01*
X201810620Y-60821366D01*
X201579567Y-60841580D01*
X201579561Y-60841581D01*
X201355548Y-60901606D01*
X201355543Y-60901608D01*
X201145340Y-60999626D01*
X201145328Y-60999633D01*
X200955356Y-61132654D01*
X200955349Y-61132660D01*
X200791351Y-61296658D01*
X200791345Y-61296665D01*
X200658324Y-61486637D01*
X200658317Y-61486649D01*
X200560299Y-61696852D01*
X200560297Y-61696857D01*
X200500272Y-61920870D01*
X200500271Y-61920876D01*
X200480057Y-62151929D01*
X199011773Y-62151929D01*
X199008149Y-62115128D01*
X198992187Y-61953067D01*
X198932119Y-61755047D01*
X198834572Y-61572551D01*
X198703297Y-61412591D01*
X198543337Y-61281316D01*
X198360841Y-61183769D01*
X198162821Y-61123701D01*
X197956887Y-61103418D01*
X197750952Y-61123701D01*
X197750951Y-61123701D01*
X197552930Y-61183770D01*
X197370435Y-61281317D01*
X197210477Y-61412591D01*
X197079203Y-61572549D01*
X196981656Y-61755044D01*
X196921587Y-61953065D01*
X196921587Y-61953066D01*
X196901304Y-62159000D01*
X196901304Y-62159001D01*
X196921587Y-62364935D01*
X196921587Y-62364936D01*
X196970296Y-62525509D01*
X196966620Y-62562832D01*
X196937630Y-62586623D01*
X196909182Y-62586623D01*
X196748609Y-62537914D01*
X196542674Y-62517631D01*
X196336739Y-62537914D01*
X196336738Y-62537914D01*
X196138717Y-62597983D01*
X195956222Y-62695530D01*
X195796264Y-62826804D01*
X195664990Y-62986762D01*
X195567443Y-63169257D01*
X195567442Y-63169259D01*
X195567442Y-63169260D01*
X195566854Y-63171199D01*
X195507374Y-63367278D01*
X195507374Y-63367279D01*
X195487091Y-63573213D01*
X195487091Y-63573214D01*
X195507374Y-63779148D01*
X195507374Y-63779149D01*
X195528024Y-63847223D01*
X195550190Y-63920296D01*
X195556084Y-63939724D01*
X195552408Y-63977046D01*
X195523418Y-64000838D01*
X195494970Y-64000838D01*
X195334395Y-63952129D01*
X195128460Y-63931846D01*
X194922525Y-63952129D01*
X194922524Y-63952129D01*
X194724503Y-64012198D01*
X194542008Y-64109745D01*
X194382050Y-64241019D01*
X194250776Y-64400977D01*
X194153229Y-64583472D01*
X194093160Y-64781493D01*
X194093160Y-64781494D01*
X194088039Y-64833493D01*
X194072877Y-64987429D01*
X187005165Y-64987429D01*
X187051320Y-64901079D01*
X187111388Y-64703059D01*
X187131671Y-64497125D01*
X187111388Y-64291191D01*
X187051320Y-64093171D01*
X186953773Y-63910675D01*
X186822498Y-63750715D01*
X186748149Y-63689699D01*
X186730471Y-63656625D01*
X186741357Y-63620737D01*
X186774430Y-63603058D01*
X186799660Y-63600574D01*
X186997680Y-63540506D01*
X187180176Y-63442959D01*
X187340136Y-63311684D01*
X187386642Y-63255016D01*
X191683647Y-63255016D01*
X191703861Y-63486068D01*
X191703862Y-63486074D01*
X191763887Y-63710087D01*
X191763889Y-63710092D01*
X191861907Y-63920296D01*
X191861914Y-63920308D01*
X191994935Y-64110279D01*
X191994941Y-64110286D01*
X192158939Y-64274284D01*
X192158946Y-64274290D01*
X192348917Y-64407311D01*
X192348929Y-64407318D01*
X192425437Y-64442993D01*
X192559131Y-64505336D01*
X192559137Y-64505337D01*
X192559138Y-64505338D01*
X192783151Y-64565363D01*
X192783155Y-64565363D01*
X192783160Y-64565365D01*
X193014210Y-64585579D01*
X193245260Y-64565365D01*
X193245266Y-64565363D01*
X193245268Y-64565363D01*
X193458518Y-64508222D01*
X193469289Y-64505336D01*
X193679492Y-64407317D01*
X193679493Y-64407316D01*
X193679502Y-64407311D01*
X193869473Y-64274290D01*
X193869479Y-64274286D01*
X194033480Y-64110285D01*
X194102162Y-64012198D01*
X194166505Y-63920308D01*
X194166512Y-63920296D01*
X194185591Y-63879380D01*
X194264530Y-63710095D01*
X194316769Y-63515140D01*
X194324557Y-63486074D01*
X194324558Y-63486068D01*
X194324559Y-63486066D01*
X194344773Y-63255016D01*
X194324559Y-63023966D01*
X194320066Y-63007199D01*
X194264532Y-62799944D01*
X194264531Y-62799943D01*
X194264530Y-62799937D01*
X194189112Y-62638203D01*
X194166512Y-62589736D01*
X194166505Y-62589724D01*
X194033484Y-62399752D01*
X194033478Y-62399745D01*
X193869480Y-62235747D01*
X193869473Y-62235741D01*
X193679502Y-62102720D01*
X193679490Y-62102713D01*
X193526473Y-62031361D01*
X193469289Y-62004696D01*
X193469286Y-62004695D01*
X193469281Y-62004693D01*
X193245268Y-61944668D01*
X193245262Y-61944667D01*
X193014210Y-61924453D01*
X192783157Y-61944667D01*
X192783151Y-61944668D01*
X192559138Y-62004693D01*
X192559133Y-62004695D01*
X192348930Y-62102713D01*
X192348918Y-62102720D01*
X192158946Y-62235741D01*
X192158939Y-62235747D01*
X191994941Y-62399745D01*
X191994935Y-62399752D01*
X191861914Y-62589724D01*
X191861907Y-62589736D01*
X191763889Y-62799939D01*
X191763887Y-62799944D01*
X191703862Y-63023957D01*
X191703861Y-63023963D01*
X191683647Y-63255016D01*
X187386642Y-63255016D01*
X187471411Y-63151724D01*
X187568958Y-62969228D01*
X187629026Y-62771208D01*
X187649309Y-62565274D01*
X187649068Y-62562832D01*
X187645092Y-62522458D01*
X187629026Y-62359340D01*
X187568958Y-62161320D01*
X187471411Y-61978824D01*
X187340136Y-61818864D01*
X187180176Y-61687589D01*
X186997680Y-61590042D01*
X186799660Y-61529974D01*
X186593726Y-61509691D01*
X186387791Y-61529974D01*
X186387790Y-61529974D01*
X186189769Y-61590043D01*
X186007274Y-61687590D01*
X185847316Y-61818864D01*
X185716042Y-61978822D01*
X185618495Y-62161317D01*
X185558426Y-62359338D01*
X185558426Y-62359339D01*
X185538143Y-62565273D01*
X185538143Y-62565274D01*
X185558426Y-62771208D01*
X185558426Y-62771209D01*
X185565719Y-62795250D01*
X185602367Y-62916065D01*
X185618495Y-62969230D01*
X185627044Y-62985223D01*
X185716041Y-63151724D01*
X185847316Y-63311684D01*
X185921663Y-63372699D01*
X185939342Y-63405773D01*
X185928456Y-63441661D01*
X185895381Y-63459340D01*
X185870158Y-63461824D01*
X185870149Y-63461826D01*
X185701496Y-63512986D01*
X185691001Y-63516170D01*
X185672131Y-63521894D01*
X185489636Y-63619441D01*
X185329678Y-63750715D01*
X185198404Y-63910673D01*
X185100857Y-64093168D01*
X185040788Y-64291189D01*
X185040788Y-64291190D01*
X185037988Y-64319624D01*
X185020505Y-64497125D01*
X185040788Y-64703059D01*
X185100856Y-64901079D01*
X185147011Y-64987429D01*
X185198404Y-65083576D01*
X185329678Y-65243535D01*
X185404027Y-65304552D01*
X185421705Y-65337627D01*
X185410818Y-65373515D01*
X185377744Y-65391193D01*
X185352520Y-65393677D01*
X185352511Y-65393679D01*
X185154493Y-65453747D01*
X184971998Y-65551294D01*
X184812040Y-65682568D01*
X184680766Y-65842526D01*
X184583219Y-66025021D01*
X184523150Y-66223042D01*
X184523150Y-66223043D01*
X184502867Y-66428977D01*
X184114755Y-66428977D01*
X184165000Y-66241463D01*
X184171596Y-66216847D01*
X184171597Y-66216841D01*
X184171598Y-66216839D01*
X184191812Y-65985789D01*
X184171598Y-65754739D01*
X184123136Y-65573880D01*
X184111571Y-65530717D01*
X184111570Y-65530716D01*
X184111569Y-65530710D01*
X184040983Y-65379338D01*
X184013551Y-65320509D01*
X184013544Y-65320497D01*
X183880523Y-65130525D01*
X183880517Y-65130518D01*
X183716519Y-64966520D01*
X183716512Y-64966514D01*
X183526541Y-64833493D01*
X183526529Y-64833486D01*
X183373512Y-64762134D01*
X183316328Y-64735469D01*
X183316325Y-64735468D01*
X183316320Y-64735466D01*
X183092307Y-64675441D01*
X183092301Y-64675440D01*
X182861249Y-64655226D01*
X182630196Y-64675440D01*
X182630190Y-64675441D01*
X182406177Y-64735466D01*
X182406172Y-64735468D01*
X182195969Y-64833486D01*
X182195957Y-64833493D01*
X182005985Y-64966514D01*
X182005978Y-64966520D01*
X181841980Y-65130518D01*
X181841974Y-65130525D01*
X181708953Y-65320497D01*
X181708946Y-65320509D01*
X181610928Y-65530712D01*
X181610926Y-65530717D01*
X181550901Y-65754730D01*
X181550900Y-65754736D01*
X181530686Y-65985789D01*
X177000000Y-65985789D01*
X177000000Y-63516170D01*
X177009625Y-63487005D01*
X179124234Y-60632283D01*
X188597058Y-60632283D01*
X188617272Y-60863335D01*
X188617273Y-60863341D01*
X188677298Y-61087354D01*
X188677300Y-61087359D01*
X188775318Y-61297563D01*
X188775325Y-61297575D01*
X188908346Y-61487546D01*
X188908352Y-61487553D01*
X189072350Y-61651551D01*
X189072357Y-61651557D01*
X189262328Y-61784578D01*
X189262340Y-61784585D01*
X189324227Y-61813443D01*
X189472542Y-61882603D01*
X189472548Y-61882604D01*
X189472549Y-61882605D01*
X189696562Y-61942630D01*
X189696566Y-61942630D01*
X189696571Y-61942632D01*
X189927621Y-61962846D01*
X190158671Y-61942632D01*
X190158677Y-61942630D01*
X190158679Y-61942630D01*
X190299114Y-61905000D01*
X190382700Y-61882603D01*
X190592903Y-61784584D01*
X190592904Y-61784583D01*
X190592913Y-61784578D01*
X190782884Y-61651557D01*
X190782890Y-61651553D01*
X190946891Y-61487552D01*
X190999380Y-61412591D01*
X191079916Y-61297575D01*
X191079923Y-61297563D01*
X191091951Y-61271769D01*
X191177941Y-61087362D01*
X191237970Y-60863333D01*
X191258184Y-60632283D01*
X191237970Y-60401233D01*
X191231371Y-60376606D01*
X191177943Y-60177211D01*
X191177942Y-60177210D01*
X191177941Y-60177204D01*
X191098699Y-60007269D01*
X191079923Y-59967003D01*
X191079916Y-59966991D01*
X190946895Y-59777019D01*
X190946889Y-59777012D01*
X190782891Y-59613014D01*
X190782884Y-59613008D01*
X190592913Y-59479987D01*
X190592901Y-59479980D01*
X190439884Y-59408628D01*
X190382700Y-59381963D01*
X190382697Y-59381962D01*
X190382692Y-59381960D01*
X190158679Y-59321935D01*
X190158673Y-59321934D01*
X189927621Y-59301720D01*
X189696568Y-59321934D01*
X189696562Y-59321935D01*
X189472549Y-59381960D01*
X189472544Y-59381962D01*
X189262341Y-59479980D01*
X189262329Y-59479987D01*
X189072357Y-59613008D01*
X189072350Y-59613014D01*
X188908352Y-59777012D01*
X188908346Y-59777019D01*
X188775325Y-59966991D01*
X188775318Y-59967003D01*
X188677300Y-60177206D01*
X188677298Y-60177211D01*
X188617273Y-60401224D01*
X188617272Y-60401230D01*
X188597058Y-60632283D01*
X179124234Y-60632283D01*
X180071893Y-59352943D01*
X180075828Y-59348275D01*
X180194402Y-59224311D01*
X183342421Y-59224311D01*
X183362635Y-59455363D01*
X183362636Y-59455369D01*
X183422661Y-59679382D01*
X183422663Y-59679387D01*
X183422664Y-59679390D01*
X183447417Y-59732474D01*
X183520681Y-59889591D01*
X183520688Y-59889603D01*
X183653709Y-60079574D01*
X183653715Y-60079581D01*
X183817713Y-60243579D01*
X183817720Y-60243585D01*
X184007691Y-60376606D01*
X184007703Y-60376613D01*
X184084211Y-60412288D01*
X184217905Y-60474631D01*
X184217911Y-60474632D01*
X184217912Y-60474633D01*
X184441925Y-60534658D01*
X184441929Y-60534658D01*
X184441934Y-60534660D01*
X184672984Y-60554874D01*
X184904034Y-60534660D01*
X184904040Y-60534658D01*
X184904042Y-60534658D01*
X185016048Y-60504645D01*
X185128063Y-60474631D01*
X185338266Y-60376612D01*
X185338267Y-60376611D01*
X185338276Y-60376606D01*
X185528247Y-60243585D01*
X185528253Y-60243581D01*
X185692254Y-60079580D01*
X185755473Y-59989295D01*
X185825279Y-59889603D01*
X185825286Y-59889591D01*
X185834706Y-59869389D01*
X185923304Y-59679390D01*
X185958546Y-59547865D01*
X185983331Y-59455369D01*
X185983332Y-59455363D01*
X185983333Y-59455361D01*
X186003547Y-59224311D01*
X185983333Y-58993261D01*
X185982104Y-58988675D01*
X185923306Y-58769239D01*
X185923305Y-58769238D01*
X185923304Y-58769232D01*
X185857162Y-58627391D01*
X185825286Y-58559031D01*
X185825279Y-58559019D01*
X185692258Y-58369047D01*
X185692252Y-58369040D01*
X185528254Y-58205042D01*
X185528247Y-58205036D01*
X185338276Y-58072015D01*
X185338264Y-58072008D01*
X185180923Y-57998640D01*
X185128063Y-57973991D01*
X185128060Y-57973990D01*
X185128055Y-57973988D01*
X184904042Y-57913963D01*
X184904036Y-57913962D01*
X184672984Y-57893748D01*
X184441931Y-57913962D01*
X184441925Y-57913963D01*
X184217912Y-57973988D01*
X184217907Y-57973990D01*
X184007704Y-58072008D01*
X184007692Y-58072015D01*
X183817720Y-58205036D01*
X183817713Y-58205042D01*
X183653715Y-58369040D01*
X183653709Y-58369047D01*
X183520688Y-58559019D01*
X183520681Y-58559031D01*
X183422663Y-58769234D01*
X183422661Y-58769239D01*
X183362636Y-58993252D01*
X183362635Y-58993258D01*
X183342421Y-59224311D01*
X180194402Y-59224311D01*
X182116791Y-57214542D01*
X182158794Y-57170630D01*
X182193114Y-57155512D01*
X182194203Y-57155500D01*
X197139656Y-57155500D01*
X197174304Y-57169852D01*
X197188656Y-57204500D01*
X197174304Y-57239148D01*
X197167768Y-57244632D01*
X197134985Y-57267588D01*
X197108688Y-57286001D01*
X196944690Y-57449999D01*
X196944684Y-57450006D01*
X196811663Y-57639978D01*
X196811656Y-57639990D01*
X196713638Y-57850193D01*
X196713636Y-57850198D01*
X196653611Y-58074211D01*
X196653610Y-58074217D01*
X196633396Y-58305270D01*
X196653610Y-58536322D01*
X196653611Y-58536328D01*
X196713636Y-58760341D01*
X196713638Y-58760346D01*
X196713639Y-58760349D01*
X196729890Y-58795199D01*
X196811656Y-58970550D01*
X196811663Y-58970562D01*
X196944684Y-59160533D01*
X196944690Y-59160540D01*
X197108688Y-59324538D01*
X197108695Y-59324544D01*
X197298666Y-59457565D01*
X197298678Y-59457572D01*
X197346748Y-59479987D01*
X197508880Y-59555590D01*
X197508886Y-59555591D01*
X197508887Y-59555592D01*
X197732900Y-59615617D01*
X197732904Y-59615617D01*
X197732909Y-59615619D01*
X197963959Y-59635833D01*
X198195009Y-59615619D01*
X198195015Y-59615617D01*
X198195017Y-59615617D01*
X198386771Y-59564236D01*
X198419038Y-59555590D01*
X198629241Y-59457571D01*
X198629242Y-59457570D01*
X198629251Y-59457565D01*
X198819222Y-59324544D01*
X198819228Y-59324540D01*
X198983229Y-59160539D01*
X199064042Y-59045127D01*
X199116254Y-58970562D01*
X199116261Y-58970550D01*
X199131702Y-58937437D01*
X199214279Y-58760349D01*
X199274308Y-58536320D01*
X199294522Y-58305270D01*
X199274308Y-58074220D01*
X199273717Y-58072015D01*
X199214281Y-57850198D01*
X199214280Y-57850197D01*
X199214279Y-57850191D01*
X199141912Y-57695000D01*
X199116261Y-57639990D01*
X199116254Y-57639978D01*
X198983233Y-57450006D01*
X198983227Y-57449999D01*
X198819229Y-57286001D01*
X198819222Y-57285995D01*
X198760158Y-57244638D01*
X198740007Y-57213009D01*
X198748125Y-57176395D01*
X198779754Y-57156244D01*
X198788263Y-57155500D01*
X211762225Y-57155500D01*
X211762230Y-57155500D01*
X211849427Y-57146014D01*
X211901510Y-57134546D01*
X211901511Y-57134545D01*
X211901514Y-57134545D01*
X211957584Y-57116533D01*
X211974055Y-57111242D01*
X212081410Y-57043637D01*
X212102665Y-57025029D01*
X212138187Y-57013005D01*
X212171808Y-57029620D01*
G37*
G04 #@! TD.AperFunction*
M02*
